<?xml version="1.0" encoding="UTF-8" standalone="no"?>
<svg
   xmlns:dc="http://purl.org/dc/elements/1.1/"
   xmlns:cc="http://creativecommons.org/ns#"
   xmlns:rdf="http://www.w3.org/1999/02/22-rdf-syntax-ns#"
   xmlns:svg="http://www.w3.org/2000/svg"
   xmlns="http://www.w3.org/2000/svg"
   xmlns:sodipodi="http://sodipodi.sourceforge.net/DTD/sodipodi-0.dtd"
   xmlns:inkscape="http://www.inkscape.org/namespaces/inkscape"
   inkscape:export-ydpi="36.290001"
   inkscape:export-xdpi="36.290001"
   inkscape:export-filename="appendages.png"
   width="210mm"
   height="210mm"
   viewBox="0 0 210 210"
   version="1.1"
   id="svg8"
   inkscape:version="1.0 (4035a4fb49, 2020-05-01)"
   sodipodi:docname="appendages.svg">
  <defs
     id="defs2" />
  <sodipodi:namedview
     id="base"
     pagecolor="#ffffff"
     bordercolor="#666666"
     borderopacity="1.0"
     inkscape:pageopacity="0.0"
     inkscape:pageshadow="2"
     inkscape:zoom="0.35355339"
     inkscape:cx="340.04571"
     inkscape:cy="707.7541"
     inkscape:document-units="mm"
     inkscape:current-layer="layer1"
     inkscape:document-rotation="0"
     showgrid="false"
     inkscape:window-width="1214"
     inkscape:window-height="1008"
     inkscape:window-x="690"
     inkscape:window-y="0"
     inkscape:window-maximized="0"
     inkscape:snap-global="false" />
  <metadata
     id="metadata5">
    <rdf:RDF>
      <cc:Work
         rdf:about="">
        <dc:format>image/svg+xml</dc:format>
        <dc:type
           rdf:resource="http://purl.org/dc/dcmitype/StillImage" />
        <dc:title />
      </cc:Work>
    </rdf:RDF>
  </metadata>
  <g
     inkscape:label="Layer 1"
     inkscape:groupmode="layer"
     id="layer1">
    <path
       id="path1862"
       style="color:#000000;font-style:normal;font-variant:normal;font-weight:normal;font-stretch:normal;font-size:medium;line-height:normal;font-family:sans-serif;font-variant-ligatures:normal;font-variant-position:normal;font-variant-caps:normal;font-variant-numeric:normal;font-variant-alternates:normal;font-variant-east-asian:normal;font-feature-settings:normal;font-variation-settings:normal;text-indent:0;text-align:start;text-decoration:none;text-decoration-line:none;text-decoration-style:solid;text-decoration-color:#000000;letter-spacing:normal;word-spacing:normal;text-transform:none;writing-mode:lr-tb;direction:ltr;text-orientation:mixed;dominant-baseline:auto;baseline-shift:baseline;text-anchor:start;white-space:normal;shape-padding:0;shape-margin:0;inline-size:0;clip-rule:nonzero;display:inline;overflow:visible;visibility:visible;isolation:auto;mix-blend-mode:normal;color-interpolation:sRGB;color-interpolation-filters:linearRGB;solid-color:#000000;solid-opacity:1;vector-effect:none;fill:#000000;fill-opacity:1;fill-rule:nonzero;stroke:none;stroke-width:3.54336;stroke-linecap:round;stroke-linejoin:miter;stroke-miterlimit:4;stroke-dasharray:none;stroke-dashoffset:0;stroke-opacity:1;color-rendering:auto;image-rendering:auto;shape-rendering:auto;text-rendering:auto;enable-background:accumulate;stop-color:#000000"
       d="M 104.99975,0 C 47.030563,-1.5e-6 -4.9999955e-7,47.031069 0,105.00025 -5.2999996e-6,162.96944 47.030558,210.0005 104.99975,210.0005 162.96894,210.0005 210.00001,162.96944 210,105.00025 210,47.031071 162.96894,3.0000004e-7 104.99975,0 Z m 17.11305,7.8052938 c 1.62941,0.436728 2.86678,0.7181558 4.23926,1.3850509 h 0.008 c 0.55898,0.2728193 1.14402,0.610455 1.78538,1.0497513 0.9532,0.653199 2.10023,1.748987 2.65097,2.765383 0.52524,0.970423 1.05922,1.811424 1.52445,2.681584 0.233,0.434433 0.44357,0.874939 0.63577,1.340792 0.19378,0.469187 0.36255,0.955064 0.49829,1.493838 0.47581,1.890753 0.71583,3.78143 0.7276,5.730982 0.008,1.182637 0.54616,2.272376 0.73562,3.439793 0.24046,1.476678 1.10903,3.060199 1.63936,4.458936 1.01988,2.690734 2.64435,5.115795 3.84625,7.730626 0.85081,1.851096 2.09218,3.585705 3.33291,5.317004 1.24072,1.731218 2.47846,3.459673 3.33241,5.309474 1.09128,2.36449 1.88078,4.89925 2.64294,7.446614 0.102,0.341033 0.21253,0.677832 0.31413,1.01914 0.86102,2.895342 1.72148,5.782283 2.98065,8.45823 0.87514,1.859214 1.44323,4.030838 2.56667,5.73048 0.37423,0.566546 0.81124,1.082607 1.34079,1.516919 0.65352,0.53626 1.47069,0.696297 2.31327,0.812404 0.84259,0.116117 1.71432,0.182828 2.48237,0.536417 0.87672,0.403405 1.62916,0.843233 2.39055,1.271544 h 0.008 c 0.75982,0.427176 1.52758,0.846189 2.42116,1.202799 1.12697,0.449373 2.76188,0.743441 3.25613,1.409538 0.0788,0.10623 0.10045,0.222262 0.0848,0.345233 -0.0161,0.124195 -0.0723,0.251973 -0.15355,0.375342 -0.15886,0.244574 -0.41022,0.467635 -0.63578,0.605163 -0.78138,0.475114 -1.53095,0.206074 -2.47434,0.160574 -1.80364,-0.08749 -3.769,-1.750419 -4.68926,-1.409538 -0.20005,0.07419 -0.28777,0.217114 -0.30659,0.405952 -0.003,0.0301 0.0155,0.07507 0.0155,0.107384 0.002,0.166871 0.0292,0.346593 0.0994,0.551469 0.16789,0.488962 0.47158,1.034982 0.61319,1.43262 0.17573,0.490603 0.41206,1.005488 0.68194,1.517423 0.26987,0.512218 0.56537,1.019192 0.85054,1.508893 0.57114,0.980973 1.09206,1.871631 1.24896,2.497926 0.15337,0.614759 0.44136,1.5943 0.65083,2.612336 0.20985,1.021573 0.33977,2.072353 0.18365,2.827104 -0.0517,0.265605 -0.2091,0.54656 -0.41347,0.735629 -0.20594,0.191982 -0.45505,0.287137 -0.70452,0.17613 -0.22634,-0.100619 -0.39442,-0.353362 -0.53642,-0.705019 -0.0314,-0.07632 -0.0557,-0.190762 -0.0843,-0.275486 -0.36285,-1.07586 -0.54608,-2.745977 -1.04975,-3.808108 -0.22673,-0.477233 -0.54931,-1.157262 -0.91176,-1.738714 v -0.008 c -0.36441,-0.582793 -0.77326,-1.060733 -1.17219,-1.14158 -0.04,0.251292 -0.0235,0.514664 0.0231,0.78932 v 0.0075 c 0.14161,0.82191 0.58282,1.695416 0.8119,2.298717 0.37814,1.031143 0.71759,2.328339 0.91176,3.409183 0.095,0.512966 0.22161,0.968582 0.29104,1.425092 0.0702,0.458005 0.0827,0.911661 -0.0537,1.417566 -0.089,0.316362 -0.24354,0.660627 -0.52086,0.834985 -0.84494,0.190525 -1.25874,-0.380419 -1.5094,-1.019143 -0.22947,-1.059588 -0.51443,-1.904275 -0.68193,-2.942014 -0.089,-0.558147 -0.13448,-1.125356 -0.31413,-1.662441 -0.2432,-0.741576 -0.39566,-1.990679 -0.86559,-2.727749 -0.15691,-0.245631 -0.34768,-0.43413 -0.59011,-0.528388 -0.33342,0.253129 -0.31907,0.767893 -0.19118,1.333264 v 0.0075 c 0.12866,0.563206 0.37243,1.174679 0.50581,1.601222 0.31303,1.101837 0.4373,2.271241 0.69699,3.386603 0.0925,0.397997 0.23285,0.787927 0.30659,1.179717 v 0.0075 c 0.0725,0.389208 0.0834,0.780716 -0.0692,1.157134 -0.2542,0.317818 -0.53541,0.422022 -0.78882,0.421508 -0.02,-3.9e-5 -0.0416,0.01651 -0.0612,0.01505 -0.26948,-0.02204 -0.50722,-0.18446 -0.63628,-0.390395 -0.20907,-0.416747 -0.67348,-1.796845 -0.93433,-2.627893 -0.42405,-1.351662 -0.6594,-2.552585 -1.07284,-3.907463 -0.0667,-0.21586 -0.12155,-0.509207 -0.19921,-0.78932 -0.0777,-0.280115 -0.17095,-0.545794 -0.31412,-0.720075 -0.15848,-0.193313 -0.78055,-0.466792 -1.01865,-0.390896 -0.4613,0.146791 0.0285,1.216143 -0.0311,1.769825 -0.0742,0.62103 -0.0579,1.388489 0.0311,2.007674 0.0883,0.669835 0.46792,1.208954 0.52087,1.792405 0.0177,0.194644 0.002,0.393848 -0.0768,0.605163 -0.0887,0.234844 -0.27177,0.214758 -0.52086,0.230325 -0.46562,0.02961 -0.76092,-0.403701 -1.09592,-0.728104 -0.36755,-0.356998 -0.45474,-1.047555 -0.59713,-1.540003 -0.20477,-0.704626 -0.2728,-1.366499 -0.32968,-2.037783 -0.0565,-0.667437 -0.10096,-1.334212 -0.26846,-2.045811 -0.13494,-0.573528 -0.32089,-1.123197 -0.52838,-1.654915 v -0.0075 c -0.0624,-0.159338 -0.14045,-0.30999 -0.20674,-0.46717 -0.37658,-0.896164 -0.79058,-1.766551 -1.14911,-2.674056 -0.21103,-0.533359 -0.39638,-1.079968 -0.53642,-1.654915 -0.28753,-1.185297 -0.22035,-2.59678 -0.60516,-3.753916 -0.31107,-0.932256 -0.7179,-1.819705 -1.19527,-2.674056 -1.43334,-2.56309 -3.44968,-4.84718 -5.04854,-7.324177 -2.03742,-3.155605 -6.1475,-8.96081 -6.25185,-9.377513 -0.10395,-0.416778 -3.04202,-7.200104 -4.48202,-10.833215 -0.39736,-1.001333 -0.7031,-2.038833 -1.1491,-3.018788 -1.30938,-2.869609 -3.9657,-7.112487 -5.30998,-9.170774 -0.47739,2.63774 -1.3343,4.997924 -1.76932,7.500805 -0.61076,3.503704 -0.58809,7.814601 -0.93484,11.354078 -0.34559,3.491896 -0.52719,6.781404 0.20673,10.212497 0.26714,1.245321 0.6624,2.704794 1.08839,4.160369 v 0.0075 c 0.42522,1.453065 0.88106,2.901796 1.26352,4.114205 1.70478,5.400534 2.09894,10.030451 2.55162,15.675521 0.0929,1.159613 0.11305,2.32317 0.0918,3.485958 -0.0216,1.162709 -0.0844,2.321644 -0.15305,3.485959 v 0.0075 c -0.0686,1.161768 -0.14265,2.32419 -0.19168,3.485958 -0.0506,1.166904 -0.0738,2.328194 -0.0381,3.493484 0.20162,6.60683 -0.39109,14.58363 -0.75119,19.92722 -0.13337,2.07884 0.50225,3.99299 0.44459,6.07571 -0.0149,0.75096 -0.009,2.94594 0.26043,3.64704 0.53741,1.39712 1.05215,2.8676 1.49384,4.35908 0.44208,1.49142 0.81143,3.00376 1.05778,4.47449 0.80178,4.7975 0.48464,10.44733 0.28301,15.3072 -0.19848,4.79006 -1.36522,11.93084 -1.40953,16.72477 0,1.0359 -0.11566,1.97336 0.0918,2.98818 0.25929,1.2627 0.76932,2.52342 0.99606,3.79256 0.19259,1.11297 -0.0881,2.28277 0.15354,3.3861 0.36167,1.61094 0.97194,3.06566 1.80746,4.48954 0.72492,1.23704 1.85776,2.30961 2.49793,3.59334 0.67901,1.36473 1.22932,2.74601 1.33326,4.26725 0.0294,0.39497 0.0392,0.80856 0,1.21083 -0.0392,0.40223 -0.12726,0.79345 -0.29906,1.14911 h -0.008 c -0.0592,0.1234 -0.18389,0.18239 -0.31412,0.23735 -0.12945,0.0538 -0.25547,0.10127 -0.32215,0.18415 -0.13338,0.1693 -0.073,0.5551 -0.48223,0.93434 h -0.008 c -0.35618,0.33225 -0.57041,0.0577 -0.97247,0.32165 -0.26557,0.17837 -0.0453,0.52555 -0.56703,0.80488 h -0.008 c -0.13218,0.0676 -0.48145,0.0393 -0.76623,0.21427 -0.2593,0.16306 -0.41731,0.57646 -0.52086,0.63577 -0.006,0.003 -0.0104,-0.003 -0.0156,0 -0.53387,0.30569 -0.94617,0.005 -1.48631,0.29907 -0.27184,0.14835 -0.36984,0.20105 -0.52086,0.29104 -0.11807,0.0698 -0.30289,0.1871 -0.40646,0.22982 -0.20436,0.0863 -0.51063,0.11351 -0.95742,0.13799 -0.0714,0.004 -0.0695,0.0199 -0.15305,0.0231 -0.20279,0.008 -0.45365,-0.0329 -0.71254,-0.11491 -0.25419,-0.0804 -0.51762,-0.19771 -0.77377,-0.3372 h -0.008 c -0.17221,-0.094 -0.32222,-0.21173 -0.4752,-0.32165 -0.0777,-0.0556 -0.16792,-0.10307 -0.23735,-0.16108 -0.20634,-0.17193 -0.37361,-0.34697 -0.4752,-0.52086 -0.12945,-0.22199 -0.20395,-0.46362 -0.26043,-0.70502 -0.0577,-0.2478 -0.093,-0.49465 -0.12244,-0.75068 -0.0581,-0.50547 -0.11212,-1.02042 -0.34473,-1.48631 -0.31146,-0.62119 -0.64062,-1.6897 -0.87362,-2.34438 -0.62566,-1.76888 -0.011,-2.79192 -0.26796,-4.65062 -0.18083,-1.3097 -1.02694,-2.44548 -1.21835,-3.75392 -0.0741,-0.5367 0.13864,-1.08199 0.15354,-1.6243 0.0145,-0.88526 -0.0646,-1.7696 -0.15354,-2.65098 -0.0741,-0.73981 -0.38551,-1.38255 -0.45965,-2.12208 -0.21927,-2.20386 0.23883,-4.49119 -0.0918,-6.68088 -0.53819,-3.54461 -1.98352,-9.40565 -2.90338,-12.871 -0.90887,-3.42255 -1.7202,-6.69991 -2.30624,-10.1287 -0.375,-2.19173 -0.32854,-6.75292 -0.56703,-8.96353 -0.0521,-0.46644 -0.0322,-0.93988 -0.0306,-1.40954 0.002,-0.46962 -0.0188,-0.93272 -0.13799,-1.38695 -0.34716,-1.34249 -1.24739,-2.53731 -1.74674,-3.83069 -0.75041,-1.94151 -1.46795,-3.89882 -2.0689,-5.89156 -0.9783,-3.25034 -1.67092,-6.58337 -2.49742,-9.87579 -1.37567,-5.48265 -2.06111,-14.40682 -3.47091,-19.881056 -0.26831,-1.044167 -0.7276,-5.416858 -0.7276,-5.416858 l -0.76574,-0.183655 -0.76623,0.183655 c 0,0 -0.4598,4.372691 -0.7281,5.416858 -1.40981,5.474236 -2.09475,14.398406 -3.47041,19.881056 -0.826117,3.29242 -1.526756,6.62545 -2.505457,9.87579 -0.600552,1.99274 -1.310463,3.95005 -2.060864,5.89156 -0.499752,1.29342 -1.407221,2.4882 -1.754772,3.83069 -0.238494,0.90852 -0.05975,1.86365 -0.160574,2.79649 -0.238494,2.21061 -0.199152,6.7718 -0.574554,8.96353 -0.585647,3.42883 -1.388951,6.70615 -2.298212,10.1287 -0.919081,3.46535 -2.373611,9.32639 -2.911405,12.871 -0.330674,2.18969 0.138063,4.47702 -0.0843,6.68088 -0.07409,0.73949 -0.393031,1.3822 -0.46717,2.12208 -0.08904,0.88134 -0.165317,1.76572 -0.153547,2.65098 0.01495,0.54231 0.224549,1.08753 0.153547,1.6243 -0.191419,1.30836 -1.029993,2.44422 -1.210827,3.75392 -0.256546,1.8587 0.357697,2.88174 -0.267958,4.65062 -0.232619,0.65468 -0.56969,1.72319 -0.88115,2.34438 -0.232619,0.46589 -0.286284,0.97974 -0.34473,1.48631 -0.02903,0.25274 -0.05844,0.49839 -0.114912,0.74315 v 0.008 c -0.05651,0.24516 -0.136945,0.48013 -0.267958,0.70502 -0.203196,0.34774 -0.672301,0.72273 -1.187743,1.00359 -0.513471,0.28051 -1.07671,0.46537 -1.478785,0.45211 h -0.0075 c -1.214448,-0.0461 -1.069279,-0.15237 -2.037783,-0.68193 h -0.008 c -0.26713,-0.14573 -0.506519,-0.14603 -0.742652,-0.14553 h -0.008 c -0.235756,5.2e-4 -0.471635,-0.005 -0.735628,-0.15304 h -0.0075 c -0.105123,-0.0597 -0.270781,-0.47305 -0.528891,-0.63627 -0.283219,-0.17892 -0.622099,-0.14856 -0.75821,-0.21427 h -0.0075 c -0.521714,-0.27917 -0.301848,-0.62601 -0.567026,-0.80438 -0.201226,-0.13493 -0.357918,-0.13328 -0.505808,-0.13799 h -0.0075 c -0.14788,-0.005 -0.291443,-0.0235 -0.46717,-0.18416 h -0.008 c -0.201624,-0.18962 -0.278566,-0.37888 -0.329176,-0.54394 -0.0502,-0.16507 -0.07136,-0.30567 -0.145521,-0.3904 -0.06749,-0.0814 -0.193775,-0.13046 -0.321649,-0.18415 h -0.008 c -0.128275,-0.0541 -0.253214,-0.11759 -0.313623,-0.23735 h -0.008 c -0.35422,-0.71141 -0.350272,-1.56992 -0.291039,-2.35994 0.103949,-1.52124 0.653078,-2.90252 1.333264,-4.26725 0.639783,-1.28369 1.771453,-2.3563 2.497928,-3.59334 0.835524,-1.42388 1.447865,-2.8786 1.807961,-4.48954 0.251837,-1.10329 -0.05293,-2.27313 0.145521,-3.3861 0.226736,-1.26906 0.736775,-2.52986 0.996059,-3.79256 0.207511,-1.01482 0.100766,-1.95178 0.09133,-2.98768 -0.04234,-4.79393 -1.210547,-11.93521 -1.409037,-16.72527 -0.200049,-4.85987 -0.518777,-10.5097 0.283013,-15.3072 0.491893,-2.94151 1.476314,-6.03936 2.551116,-8.83357 0.269093,-0.7011 0.275336,-2.89608 0.260433,-3.64704 -0.05768,-2.08272 0.570432,-3.99637 0.437061,-6.07521 -0.358922,-5.34358 -0.946353,-13.32089 -0.743156,-19.92772 0.142391,-4.651031 -0.670934,-9.320558 -0.299068,-13.958884 0.226735,-2.822539 0.444062,-5.390408 0.812403,-7.929337 0.183971,-1.269487 0.405466,-2.533635 0.689463,-3.815639 0.28361,-1.281952 0.623751,-2.579905 1.049752,-3.930044 0.382847,-1.212407 0.846718,-2.661137 1.271545,-4.114202 v -0.008 c 0.426386,-1.455575 0.821154,-2.914544 1.087887,-4.159868 h 0.008 c 0.733923,-3.431093 0.551257,-6.721102 0.207241,-10.212998 -0.348327,-3.539477 -0.324082,-7.850374 -0.934841,-11.354078 -0.435807,-2.502881 -1.300353,-4.862564 -1.777352,-7.500304 -1.343497,2.058289 -4.000499,6.301167 -5.309474,9.170774 -0.446403,0.979955 -0.751742,2.016954 -1.149107,3.018287 -1.43961,3.633111 -4.370543,10.416437 -4.474492,10.833215 -0.103947,0.416741 -4.214817,6.221908 -6.251842,9.377513 -2.132352,3.302673 -5.007471,6.26913 -6.251341,9.998233 -0.385595,1.157136 -0.310105,2.56912 -0.597635,3.754417 -0.558974,2.299729 -1.87866,4.154932 -2.421153,6.458581 -0.334996,1.42325 -0.197216,2.678937 -0.605163,4.083093 -0.148276,0.492525 -0.230083,1.183005 -0.597636,1.540003 h -0.008 c -0.333025,0.322559 -0.626477,0.752426 -1.087386,0.728104 -0.12709,-0.0078 -0.234957,-0.0028 -0.321651,-0.03061 -0.08632,-0.0267 -0.146968,-0.08635 -0.191684,-0.199212 h -0.008 c -0.313021,-0.84533 0.318095,-1.504957 0.43656,-2.398072 0.08904,-0.619185 0.104756,-1.38614 0.03061,-2.007173 -0.05923,-0.553682 0.430687,-1.623034 -0.03061,-1.769825 -0.23732,-0.07545 -0.840793,0.197278 -1.003586,0.390395 -0.286348,0.348561 -0.387104,1.077626 -0.520863,1.509395 -0.413443,1.354917 -0.640767,2.555801 -1.064805,3.907463 -0.261245,0.831125 -0.732225,2.211184 -0.94287,2.627893 h -0.0075 c -0.128261,0.204129 -0.354375,0.366188 -0.620717,0.390395 -0.0267,0.0019 -0.05721,-0.01457 -0.0843,-0.01505 -0.113755,-0.0019 -0.23312,-0.01108 -0.352759,-0.06925 -0.14318,-0.06875 -0.283722,-0.182407 -0.421006,-0.352261 h -0.008 c -0.307146,-0.757693 0.05217,-1.548394 0.237349,-2.344378 0.259682,-1.115362 0.39199,-2.284265 0.705019,-3.3861 0.267529,-0.854391 0.96442,-2.42364 0.306596,-2.934488 -0.237716,0.09555 -0.428033,0.278561 -0.582582,0.52086 -0.469929,0.73707 -0.621999,1.986176 -0.865594,2.727749 -0.179657,0.537126 -0.225078,1.104332 -0.314121,1.662441 -0.167503,1.037818 -0.444548,1.882468 -0.67441,2.942016 -0.189467,0.483425 -0.472372,0.921699 -0.96545,1.026668 -0.158084,0.03369 -0.337906,0.03839 -0.543443,-0.008 h -0.008 c -0.277335,-0.174358 -0.431818,-0.518623 -0.52086,-0.834985 -0.271452,-1.006587 0.04589,-1.816727 0.229821,-2.842658 0.194176,-1.080844 0.533619,-2.37804 0.911759,-3.409183 0.306359,-0.804732 0.989142,-2.083414 0.834984,-3.087535 -0.196527,0.04282 -0.395431,0.174853 -0.58961,0.375342 -0.591531,0.61063 -1.145043,1.787095 -1.48631,2.505453 -0.546031,1.150426 -0.705703,3.048915 -1.134052,4.091122 -0.140044,0.341822 -0.306372,0.598139 -0.528391,0.69699 h -0.008 c -0.0078,0.0029 -0.0152,-0.0029 -0.02258,0 -0.488368,0.192555 -1.001066,-0.388123 -1.103443,-0.911258 -0.07768,-0.376331 -0.07775,-0.825375 -0.03814,-1.310182 0.03923,-0.487466 0.124698,-1.004702 0.229824,-1.516919 0.04117,-0.200209 0.0845,-0.318304 0.129964,-0.513336 0.185544,-0.794496 0.390557,-1.607134 0.513333,-2.099504 0.156121,-0.625069 0.679009,-1.511129 1.248964,-2.489897 l 0.008,-0.0075 c 0.568393,-0.976389 1.181677,-2.048051 1.531975,-3.026316 0.141605,-0.397635 0.4453,-0.943658 0.613191,-1.43262 0.07021,-0.204876 0.09828,-0.385099 0.09986,-0.55197 3.88e-4,-0.03243 0.01826,-0.07661 0.01506,-0.106883 v -0.008 c -0.02156,-0.182836 -0.118383,-0.325937 -0.314123,-0.398424 -0.919857,-0.340881 -2.885127,1.322058 -4.688757,1.409538 -0.469143,0.02262 -0.886201,0.09957 -1.287101,0.11491 -0.201624,0.0068 -0.402681,-0.0046 -0.597636,-0.04566 -0.192603,-0.04001 -0.389087,-0.113473 -0.582078,-0.229821 h -0.008 c -0.224059,-0.137187 -0.469341,-0.362882 -0.628212,-0.605688 -0.161221,-0.245914 -0.228117,-0.506822 -0.06925,-0.720575 h 0.008 c 0.124736,-0.165998 0.317651,-0.308919 0.558494,-0.436561 0.242816,-0.128621 0.527165,-0.245639 0.835487,-0.352258 0.60801,-0.210169 1.294765,-0.397684 1.854125,-0.620719 1.792258,-0.715016 3.065694,-1.667533 4.818721,-2.474343 0.772766,-0.355706 1.64311,-0.419011 2.4904,-0.536417 0.837086,-0.115989 1.648236,-0.279358 2.298216,-0.812404 2.118231,-1.737296 2.740479,-4.768447 3.907463,-7.247399 2.515589,-5.34758 3.460965,-11.558045 5.937721,-16.923984 1.707524,-3.699601 4.96368,-6.924248 6.665321,-10.626478 1.201891,-2.614831 2.825966,-5.039892 3.846245,-7.730626 0.52995,-1.398737 1.406418,-2.982258 1.646886,-4.458936 0.189855,-1.167417 0.72053,-2.257156 0.7276,-3.439793 0.01175,-1.949552 0.25189,-3.839727 0.728101,-5.73048 0.134546,-0.535126 0.305573,-1.019988 0.497779,-1.486311 l 0.008,-0.008 c 0.192216,-0.465853 0.402773,-0.906359 0.635772,-1.340792 0.46523,-0.87016 0.991283,-1.710659 1.516922,-2.681082 0.276151,-0.509708 0.709467,-1.034742 1.187242,-1.517423 0.475039,-0.47966 0.99573,-0.922843 1.470756,-1.248462 0.904175,-0.6191883 1.682532,-0.9992299 2.451763,-1.317709 0.325577,-0.1347829 0.653744,-0.2837304 0.980505,-0.3908972 0.795904,-0.2609338 1.751922,-0.5016296 2.712193,-0.7582094 l 0.31409,1.7236599 c -0.641743,3.4169347 -0.05903,6.7389037 -0.360287,9.6073347 -1.080688,3.90495 -1.763024,7.533652 -2.987678,11.898021 l 0.773765,4.397717 c 0.444828,2.454399 1.29911,4.796624 1.769825,7.500305 0.655475,3.753104 0.624103,8.107564 0.957924,11.500099 0.349892,3.539046 0.566471,7.025312 -0.229821,10.741387 -0.08904,0.441218 -0.25894,0.964959 -0.375843,1.440147 3.056129,4.541052 3.630138,8.982096 5.684816,13.039602 3.194202,6.307213 7.761825,12.138572 8.971565,13.170068 0.41383,0.412901 1.66333,0.452114 2.48238,0.452114 0.81865,0 2.07605,-0.03973 2.4899,-0.452114 1.20973,-1.031573 5.77736,-6.862855 8.97156,-13.170068 2.05468,-4.057506 2.62907,-8.49855 5.68481,-13.039602 -0.11846,-0.475188 -0.29264,-0.998929 -0.38286,-1.440147 -0.79473,-3.716075 -0.57698,-7.202341 -0.22983,-10.741387 0.33343,-3.392535 0.30234,-7.746995 0.95743,-11.500099 0.46992,-2.703681 1.32577,-5.045906 1.76982,-7.500305 l 0.77377,-4.397717 c -1.22465,-4.364369 -1.9075,-7.993071 -2.98818,-11.898021 -0.29773,-2.868431 0.28392,-6.1904 -0.35979,-9.6073347 z"
       sodipodi:nodetypes="ssssscccccccccccccccccccsccccscccccscccccccccccccccccccccccccccccccccccscccccccccscccccccccccccccccccccccccccccccccccccccccccsccccccccccccccccccccccccscccccccccccccccccccccscccccccccccccccccccccccsscccccccccccccccccsccccccccccccccccccccccccscccccccccccccccccccccccccccccccccccccccccccccccccccccccccccccccccccccsccccccccccccccsccccccccccccsccccccccccc" />
    <g
       id="g1854"
       transform="matrix(-1,0,0,1,763.13502,-3.6666667e-7)"
       style="fill:#ff5555" />
    <g
       style="fill:#800080"
       transform="matrix(-1,0,0,1,779.01003,0)"
       id="g1879" />
  </g>
</svg>
