<?xml version="1.0" encoding="UTF-8" standalone="no"?>
<svg
   xmlns:dc="http://purl.org/dc/elements/1.1/"
   xmlns:cc="http://creativecommons.org/ns#"
   xmlns:rdf="http://www.w3.org/1999/02/22-rdf-syntax-ns#"
   xmlns:svg="http://www.w3.org/2000/svg"
   xmlns="http://www.w3.org/2000/svg"
   xmlns:sodipodi="http://sodipodi.sourceforge.net/DTD/sodipodi-0.dtd"
   xmlns:inkscape="http://www.inkscape.org/namespaces/inkscape"
   inkscape:export-ydpi="12.1"
   inkscape:export-xdpi="12.1"
   inkscape:export-filename="head_and_neck.png"
   width="210mm"
   height="210mm"
   viewBox="0 0 210 210"
   version="1.1"
   id="svg8"
   inkscape:version="1.0 (4035a4fb49, 2020-05-01)"
   sodipodi:docname="head_and_neck.svg">
  <defs
     id="defs2" />
  <sodipodi:namedview
     inkscape:snap-global="false"
     id="base"
     pagecolor="#ffffff"
     bordercolor="#666666"
     borderopacity="1.0"
     inkscape:pageopacity="0.0"
     inkscape:pageshadow="2"
     inkscape:zoom="0.35"
     inkscape:cx="328.88927"
     inkscape:cy="204.90082"
     inkscape:document-units="mm"
     inkscape:current-layer="layer1"
     inkscape:document-rotation="0"
     showgrid="false"
     inkscape:window-width="1698"
     inkscape:window-height="1040"
     inkscape:window-x="182"
     inkscape:window-y="0"
     inkscape:window-maximized="0" />
  <metadata
     id="metadata5">
    <rdf:RDF>
      <cc:Work
         rdf:about="">
        <dc:format>image/svg+xml</dc:format>
        <dc:type
           rdf:resource="http://purl.org/dc/dcmitype/StillImage" />
        <dc:title></dc:title>
      </cc:Work>
    </rdf:RDF>
  </metadata>
  <g
     inkscape:label="Layer 1"
     inkscape:groupmode="layer"
     id="layer1">
    <path
       d="M 104.89778,1.2441634e-5 A 105.00001,105.00001 0 0 0 0,105.00001 a 105.00001,105.00001 0 0 0 105.00001,105 A 105.00001,105.00001 0 0 0 210,105.00001 105.00001,105.00001 0 0 0 105.00001,1.2441634e-5 a 105.00001,105.00001 0 0 0 -0.10223,0 z M 89.28706,16.187902 c 12.98526,0.07235 29.71421,5.709913 39.55069,14.187311 8.49064,7.317516 15.92509,18.080653 16.86392,28.873205 0.62021,7.129483 1.31016,14.542218 -0.51111,21.462993 -1.4255,5.416832 -5.77414,10.719133 -8.46282,15.632901 -3.51429,6.422658 -8.50916,9.848598 -10.09935,16.995078 -1.02016,4.58466 -1.005,11.12972 0.93157,15.40868 3.10412,6.85866 9.80438,11.60091 15.84218,16.09773 11.82536,8.80722 31.72569,16.34875 39.09357,20.69632 -5.83065,-0.23963 -12.96422,-0.0905 -19.16344,1.53286 -10.6172,2.78033 -19.49999,10.2764 -29.89495,13.79771 -8.10226,2.74464 -16.85044,3.15042 -25.04034,5.62131 -5.93626,1.79096 -11.24726,7.59086 -17.37503,6.64353 -4.73236,-0.7316 -7.02559,-6.67526 -11.24309,-8.94307 -3.39228,-1.82407 -6.38719,-2.95018 -10.4118,-4.02431 -3.60675,-0.9626 -9.93592,-1.89174 -9.95422,-5.62468 2.21428,-1.82618 13.47204,-6.38599 13.60194,-10.28066 0.28589,-8.57078 -1.64786,-27.14556 -6.77757,-39.34962 -3.93833,-9.36956 -18.79839,-10.41216 -23.50747,-19.41902 -1.42553,-2.72661 -1.49917,-5.05351 -0.38333,-7.920841 0.54644,-1.404252 1.83774,-2.462356 2.30002,-3.896532 1.17346,-3.640681 -1.50337,-7.293045 -1.46922,-10.41229 0.0113,-1.025538 1.5085,-2.610987 1.85208,-3.577328 -0.74851,-1.591983 -1.20205,-3.980757 -0.70254,-5.876862 0.61401,-2.330989 4.2724,-3.721443 4.27986,-6.131939 0.009,-2.600154 -1.56583,-2.403211 -3.0397,-4.504569 -1.69768,-2.420542 -3.98358,-5.615568 -2.71035,-8.283929 1.18914,-2.49222 4.94794,-4.419543 7.13296,-5.625162 0.0202,-5.7e-5 0.0395,-0.0038 0.0583,-0.01398 0,0 3.72408,-1.964229 5.19313,-3.073444 1.93151,-1.458402 2.96721,-3.407646 2.36559,-4.819916 -0.0966,-0.226714 -0.4963,-0.544762 -0.57187,-0.530404 -0.0756,0.01436 0.36474,0.324046 0.43974,0.559336 0.41718,1.306954 -0.50711,3.171592 -2.38487,4.58943 -1.09784,0.828926 -3.50407,1.928599 -4.55666,2.3926 1.11572,-2.59785 0.15667,-6.551736 1.39546,-9.052049 2.33004,-4.702642 7.00517,-7.355457 10.73148,-11.051185 6.2897,-6.238035 12.83729,-12.156064 26.6272,-12.079204 z m 43.92555,48.255087 c -1.1882,-0.02772 -2.48565,0.486104 -3.559,0.987514 -0.68719,0.321018 -1.21993,0.667344 -1.21993,0.667344 -0.45151,0.261929 -0.94337,0.748714 -0.91278,0.771014 0.0418,0.05625 0.55051,-0.372737 1.01887,-0.623464 0,0 0.67477,-0.346047 1.22765,-0.588748 1.21817,-0.534771 2.69181,-1.12111 3.90374,-0.916633 3.05238,0.515003 6.23257,2.752196 7.60598,5.521012 1.2632,2.546516 0.98174,6.445855 -0.0376,9.126786 -1.18085,3.105862 -4.32936,5.836242 -7.10645,7.728935 -2.98444,2.034034 -5.524,3.153849 -9.02261,4.055653 -1.32599,0.341792 -2.9973,0.782225 -4.62658,0.967262 -1.6293,0.185038 -3.21199,0.109029 -4.35846,-0.551137 -1.01314,-0.583392 -1.40575,-1.599544 -1.4692,-3.217134 -0.0228,-0.459403 -0.11586,-0.389338 -0.24495,-0.04147 -1.06642,2.724637 -2.95242,5.271705 -5.08079,7.366814 -2.83243,2.788216 -6.28392,5.020653 -9.9277,6.617013 -7.93432,3.47608 -16.60151,5.72493 -25.25055,6.1223 -4.35827,0.20024 -8.69259,-1.02958 -12.99968,-1.91379 -3.65624,-0.75059 -7.36485,-0.81272 -9.94505,-0.59164 -1.29011,0.11054 -2.85764,0.42449 -3.44907,0.63214 -0.29573,0.10383 -0.49911,0.19601 -0.58633,0.3737 -0.0438,0.0888 -0.0271,0.20901 0.0352,0.28738 0.33923,0.31441 0.17699,-0.0583 0.2117,-0.16973 -0.005,-0.0353 0.14701,-0.15439 0.42142,-0.25074 0.54883,-0.1927 2.1115,-0.51157 3.38927,-0.62105 2.55559,-0.21897 6.24644,-0.1556 9.87225,0.58875 4.29442,0.88161 8.67987,2.34366 13.09322,2.1409 8.68506,-0.39903 17.43315,-2.1216 25.3928,-5.60877 3.66948,-1.60762 7.30881,-3.483921 10.16638,-6.29685 2.06186,-2.029642 3.08823,-3.294958 4.51855,-5.801643 0.87555,1.093062 1.08836,1.041475 2.09414,1.620621 1.2258,0.705832 2.76302,0.498939 4.41777,0.311009 1.65472,-0.187927 3.39914,-0.643623 4.72397,-0.985102 3.51905,-0.907086 6.08032,-2.322171 9.08433,-4.369556 2.79674,-1.90609 5.93792,-5.05789 7.15417,-8.256926 1.04254,-2.741999 1.07039,-6.724719 -0.24446,-9.375593 -1.41804,-2.858825 -4.64675,-5.129763 -7.78872,-5.659883 -0.16417,-0.02771 -0.33141,-0.04235 -0.50099,-0.04629 z m -18.52793,38.070871 c -0.0354,-0.0349 -0.48149,0.72124 -1.02753,1.66933 0,0 -9.72195,15.0353 -12.59369,23.26684 -3.648,10.45658 -5.85855,32.46934 -5.85855,32.46934 -0.15247,2.04564 -0.22557,3.40949 0.25219,0.0352 0,0 3.57504,-22.02887 7.20095,-32.42209 2.84961,-8.16818 11.21753,-23.22103 11.21753,-23.22103 0.61569,-1.26528 0.83672,-1.77046 0.8091,-1.79759 z"
       style="opacity:1;fill:#000000;fill-opacity:1;stroke:none;stroke-width:0.247266;stroke-linecap:round;stroke-linejoin:round;stroke-miterlimit:4;stroke-dasharray:none;stroke-opacity:1"
       id="path1054" />
  </g>
</svg>
