<?xml version="1.0" encoding="UTF-8" standalone="no"?>
<svg
   xmlns:dc="http://purl.org/dc/elements/1.1/"
   xmlns:cc="http://creativecommons.org/ns#"
   xmlns:rdf="http://www.w3.org/1999/02/22-rdf-syntax-ns#"
   xmlns:svg="http://www.w3.org/2000/svg"
   xmlns="http://www.w3.org/2000/svg"
   xmlns:sodipodi="http://sodipodi.sourceforge.net/DTD/sodipodi-0.dtd"
   xmlns:inkscape="http://www.inkscape.org/namespaces/inkscape"
   sodipodi:docname="skeletal.svg"
   inkscape:version="1.0 (4035a4fb49, 2020-05-01)"
   id="svg8"
   version="1.1"
   viewBox="0 0 210 210"
   height="210mm"
   width="210mm"
   inkscape:export-filename="skeletal.png"
   inkscape:export-xdpi="36.290001"
   inkscape:export-ydpi="36.290001">
  <defs
     id="defs2" />
  <sodipodi:namedview
     inkscape:snap-global="false"
     inkscape:window-maximized="0"
     inkscape:window-y="0"
     inkscape:window-x="603"
     inkscape:window-height="1008"
     inkscape:window-width="1301"
     showgrid="false"
     inkscape:document-rotation="0"
     inkscape:current-layer="layer1"
     inkscape:document-units="mm"
     inkscape:cy="516.29625"
     inkscape:cx="488.90691"
     inkscape:zoom="0.49497475"
     inkscape:pageshadow="2"
     inkscape:pageopacity="0.0"
     borderopacity="1.0"
     bordercolor="#666666"
     pagecolor="#ffffff"
     id="base" />
  <metadata
     id="metadata5">
    <rdf:RDF>
      <cc:Work
         rdf:about="">
        <dc:format>image/svg+xml</dc:format>
        <dc:type
           rdf:resource="http://purl.org/dc/dcmitype/StillImage" />
        <dc:title />
      </cc:Work>
    </rdf:RDF>
  </metadata>
  <g
     id="layer1"
     inkscape:groupmode="layer"
     inkscape:label="Layer 1">
    <path
       transform="scale(0.26458333)"
       d="M 396.84961 0 C 177.71661 6.4218655e-06 6.4218656e-06 177.71661 0 396.84961 C 0 615.98261 177.7166 793.70117 396.84961 793.70117 C 615.98261 793.70117 793.70117 615.98261 793.70117 396.84961 C 793.70117 177.7166 615.98261 -3.031649e-13 396.84961 0 z M 396.84961 16.0625 C 410.76367 16.0625 424.50081 16.814671 438.02734 18.267578 C 443.42007 57.987007 448.75059 98.038302 452.71484 137.46484 C 455.13503 161.53718 460.65449 190.79643 469.25586 215.94531 C 477.85757 241.09419 489.19267 262.37572 505.00391 270.04297 C 525.14735 282.42619 531.63006 300.46591 532.33789 320.69531 C 533.04538 340.85582 527.57752 362.89455 523.35352 381.93164 C 519.39665 391.06056 514.31919 397.64918 508.50586 402.66016 C 501.18994 400.13683 494.68234 395.29473 489.56641 389.25977 C 487.78511 386.36869 485.63942 383.88987 483.32227 381.62695 C 484.30593 376.51756 484.47699 371.57269 483.66602 366.89453 C 481.85936 356.48048 476.03277 347.42026 468.05664 339.8457 C 452.10458 324.69667 427.64807 315.00139 407.05078 310.70312 L 406.89844 310.70312 L 406.76367 310.62695 C 382.79247 307.92147 365.02214 318.21668 355.75 333.94336 C 352.52135 339.41972 350.34591 345.54148 349.12695 351.9707 C 346.19449 353.09627 343.31421 354.41926 340.50391 356.02539 L 340.14258 356.23438 L 339.85547 356.51953 C 325.60716 372.27739 307.54404 385.48828 286.82422 389.75586 C 273.70148 380.73753 264.7307 368.18463 260.53711 351.85547 L 260.46094 351.70312 L 260.38477 351.57031 C 255.06172 337.66633 254.83809 327.80068 257.35742 319.76367 C 259.87695 311.72676 265.34356 305.26351 272.31836 298.69141 C 283.31561 288.32872 297.9127 277.75197 307.93359 260.62109 C 307.79368 265.56503 307.63795 269.92211 307 273.08984 C 305.80807 279.00866 304.64588 288.87058 301.63281 298.00586 C 300.79301 300.57548 299.85114 305.81763 301.19531 306.47656 C 302.83332 307.22584 305.60012 297.68621 306.42969 295.11328 C 309.43905 285.99077 311.90455 277.61148 312.71094 269.07227 C 313.03881 266.37555 313.82922 255.96342 314.61523 246.1543 C 314.70734 245.88172 314.82781 245.64931 314.91992 245.37305 C 328.18887 204.77652 334.12163 110.40397 335.62891 50.988281 C 335.88702 40.82587 335.99898 30.818509 336.03516 20.894531 C 355.83798 17.719179 376.14825 16.0625 396.84961 16.0625 z M 398.08203 316.35547 L 398.08398 316.35547 C 400.60198 316.31548 403.23062 316.43626 405.96484 316.73633 C 425.65834 320.8693 449.23055 330.37481 463.8125 344.22266 C 471.12188 351.16392 476.16105 359.09219 477.68945 367.90234 C 479.21786 376.71239 477.3794 386.62656 470.20703 397.95898 L 470.13086 397.95898 L 470.13086 398.03516 C 458.91934 416.72862 448.55008 428.01216 439.06445 433.80273 C 429.57878 439.5935 421.12627 440.11075 412.43555 437.17188 C 395.19727 431.34214 377.3824 410.27309 358.69922 386.95703 C 351.83198 369.70494 352.88718 350.79293 361.00195 337.0293 C 368.13015 324.93894 380.45636 316.63449 398.08203 316.35547 z M 348.28711 358.4043 C 347.44288 368.60754 348.94768 379.34054 353.08398 389.54492 L 353.23828 389.98438 L 353.52344 390.3457 C 357.87901 395.7858 362.17967 401.103 366.4668 406.2207 C 339.88813 407.86287 317.14683 404.68623 299.59766 396.89258 C 297.49078 395.95669 295.50103 394.93177 293.54297 393.86719 C 313.25019 388.28003 330.09802 375.40121 343.54883 360.61328 C 345.08763 359.74727 346.69836 359.10942 348.28711 358.4043 z M 481.5918 387.83398 C 482.77074 389.19786 483.86073 390.64391 484.82617 392.21094 L 484.96094 392.36328 L 485.11328 392.49609 C 490.0035 398.35255 496.09539 403.4798 503.19531 406.67773 C 501.43315 407.80369 499.68789 408.95367 497.80859 409.83789 C 488.41099 414.25956 477.44222 415.73052 465.69727 415.66211 C 468.86232 411.33088 472.07491 406.61258 475.32812 401.19531 C 478.22377 396.61936 480.13286 392.18783 481.5918 387.83398 z M 303.5332 404.92383 C 322.22605 411.73571 345.28063 413.85651 371.375 411.77539 C 384.02778 426.26391 396.69374 438.27137 410.49219 442.9375 C 420.61845 446.36213 431.43653 445.63728 442.22266 439.05273 C 448.39886 435.28228 454.61751 429.42022 460.95312 421.71289 L 460.96875 421.71289 C 475.00403 422.26618 488.5353 420.88433 500.41016 415.29688 C 500.45022 415.27798 500.48678 415.258 500.52344 415.24023 C 504.86268 417.43259 508.73844 420.11494 511.86914 423.2168 C 517.94568 429.23932 521.35684 436.57587 520.85352 444.93555 C 520.37669 452.86923 516.08159 462.02198 506.5 471.79297 C 506.14624 472.06925 505.88756 472.3579 505.49219 472.63086 C 496.43565 478.89157 486.68989 485.52899 484.24805 487.36523 C 477.25581 492.33278 471.22786 498.64114 464.83203 505.80859 C 463.01873 507.81318 456.1316 514.98795 457.59961 516.03125 C 458.84266 516.86562 462.91335 513.43751 464.71875 511.42578 C 471.12384 504.24895 479.07157 498.30395 483.60156 494.3125 C 486.62023 491.65258 491.72259 488.56289 497.28711 485.11914 C 471.97214 527.18774 468.9731 575.61824 461.50195 623.37109 C 453.83787 672.35589 454.51926 723.11166 456.13672 773.04883 C 436.81786 776.06591 417.01833 777.63867 396.84961 777.63867 C 395.87451 777.63867 394.90306 777.6284 393.92969 777.62109 C 390.96292 755.61895 387.84231 732.97885 385.02344 707.18164 C 381.22486 672.41925 380.03483 629.58855 371.14648 590.34375 C 362.25815 551.09971 345.4947 515.13955 310.27148 495.30273 C 293.11176 485.63886 285.18017 462.54792 283.87109 444.21094 C 283.23904 435.35528 282.05435 428.94635 283.8125 423.42578 C 285.57438 417.90529 290.28788 412.28904 303.30469 405.01953 C 303.37253 404.98174 303.46472 404.96125 303.5332 404.92383 z M 290.41797 484.32031 C 294.74098 490.90107 300.25791 496.65625 307.32227 500.63477 C 322.78647 509.34374 334.38848 521.44204 343.39258 535.6582 C 343.56058 536.02255 343.78114 536.38093 343.94531 536.74414 C 349.87221 549.87853 353.01174 562.90283 351.93945 571.55859 L 351.93945 571.71094 L 351.93945 571.78711 C 349.07739 639.48125 353.11116 708.0619 358.07227 775.68945 C 348.03323 774.67519 338.11113 773.2663 328.31836 771.48828 C 327.69005 766.15186 327.05951 760.81795 326.4707 755.5332 C 321.0802 707.15393 317.53525 646.65137 313.66016 597.54102 C 310.6854 559.84008 297.68386 532.72954 274.67578 504.72656 C 277.02183 497.09033 279.87898 491.69113 283.01367 488.54688 C 285.38389 486.16959 287.80858 484.85685 290.41797 484.32031 z "
       style="fill:#000000;fill-opacity:1;stroke:none;stroke-width:7.61582;stroke-linecap:square;stroke-linejoin:round;stroke-miterlimit:4;stroke-dasharray:none"
       id="circle1648" />
  </g>
</svg>
