<?xml version="1.0" encoding="UTF-8" standalone="no"?>
<svg
   xmlns:dc="http://purl.org/dc/elements/1.1/"
   xmlns:cc="http://creativecommons.org/ns#"
   xmlns:rdf="http://www.w3.org/1999/02/22-rdf-syntax-ns#"
   xmlns:svg="http://www.w3.org/2000/svg"
   xmlns="http://www.w3.org/2000/svg"
   xmlns:sodipodi="http://sodipodi.sourceforge.net/DTD/sodipodi-0.dtd"
   xmlns:inkscape="http://www.inkscape.org/namespaces/inkscape"
   inkscape:export-ydpi="36.290001"
   inkscape:export-xdpi="36.290001"
   inkscape:export-filename="skeletal.png"
   width="210mm"
   height="210mm"
   viewBox="0 0 210 210"
   version="1.1"
   id="svg8"
   inkscape:version="1.0 (4035a4fb49, 2020-05-01)"
   sodipodi:docname="skeletal.svg">
  <defs
     id="defs2" />
  <sodipodi:namedview
     id="base"
     pagecolor="#ffffff"
     bordercolor="#666666"
     borderopacity="1.0"
     inkscape:pageopacity="0.0"
     inkscape:pageshadow="2"
     inkscape:zoom="0.35"
     inkscape:cx="454.01143"
     inkscape:cy="408.58203"
     inkscape:document-units="mm"
     inkscape:current-layer="layer1"
     inkscape:document-rotation="0"
     showgrid="false"
     inkscape:window-width="1140"
     inkscape:window-height="1008"
     inkscape:window-x="764"
     inkscape:window-y="0"
     inkscape:window-maximized="0"
     inkscape:snap-global="false" />
  <metadata
     id="metadata5">
    <rdf:RDF>
      <cc:Work
         rdf:about="">
        <dc:format>image/svg+xml</dc:format>
        <dc:type
           rdf:resource="http://purl.org/dc/dcmitype/StillImage" />
        <dc:title />
      </cc:Work>
    </rdf:RDF>
  </metadata>
  <g
     inkscape:label="Layer 1"
     inkscape:groupmode="layer"
     id="layer1">
    <path
       id="circle1648"
       style="fill:#000000;fill-opacity:1;stroke:none;stroke-width:2.01502;stroke-linecap:square;stroke-linejoin:round;stroke-miterlimit:4;stroke-dasharray:none"
       d="m 115.46324,0 c 1.6164,11.881573 3.26312,23.924241 4.45201,35.748308 0.64617,6.427118 2.11995,14.239408 4.41645,20.953953 2.29659,6.714545 5.32293,12.396555 9.5444,14.443647 5.37814,3.306219 7.10905,8.122694 7.29803,13.523779 0.1889,5.38269 -1.27102,11.266726 -2.39879,16.349473 -1.05645,2.43735 -2.41201,4.19663 -3.96412,5.53452 -1.9533,-0.67371 -3.69088,-1.96659 -5.05679,-3.57788 -0.47559,-0.77189 -1.04831,-1.43378 -1.66697,-2.03796 0.26263,-1.364168 0.30815,-2.684602 0.0916,-3.933633 -0.48237,-2.780467 -2.03785,-5.199478 -4.16741,-7.221823 -4.25907,-4.044668 -10.78916,-6.633255 -16.28847,-7.780856 h -0.0407 l -0.0356,-0.02038 c -6.40012,-0.722342 -11.144764,2.026822 -13.620351,6.225716 -0.862022,1.462143 -1.443143,3.096308 -1.768594,4.812857 -0.782943,0.300517 -1.551914,0.653698 -2.302243,1.082521 l -0.09651,0.05589 -0.07634,0.07624 c -3.804184,4.20722 -8.627008,7.734128 -14.159032,8.873528 -3.503665,-2.40782 -5.898892,-5.758927 -7.018547,-10.118682 l -0.02038,-0.04065 -0.02038,-0.0356 c -1.42121,-3.712251 -1.480722,-6.346556 -0.80808,-8.492372 0.672692,-2.145791 2.132415,-3.871316 3.994629,-5.626013 2.936177,-2.766752 6.833305,-5.590622 9.508801,-10.164426 -0.03736,1.31999 -0.07869,2.4831 -0.249018,3.328858 -0.318235,1.580277 -0.628718,4.21357 -1.433182,6.652615 -0.224221,0.686069 -0.475765,2.085655 -0.116882,2.261584 0.437334,0.200052 1.176122,-2.347115 1.397611,-3.034067 0.803474,-2.435637 1.46183,-4.672579 1.677128,-6.952479 0.08754,-0.720001 0.298355,-3.500024 0.508215,-6.118979 0.02459,-0.07278 0.05673,-0.134617 0.08132,-0.208376 C 86.667794,53.720372 88.252059,28.523265 88.654488,12.659761 88.757172,8.6168891 88.776722,4.6632429 88.76622,0.7419667 A 105.01304,105.01304 0 0 0 86.118318,1.1891844 105.01304,105.01304 0 0 0 84.751205,1.4483789 105.01304,105.01304 0 0 0 83.389163,1.727922 105.01304,105.01304 0 0 0 82.032226,2.0226869 105.01301,105.01301 0 0 0 81.097085,2.2361366 105.01304,105.01304 0 0 0 80.5533,2.3631967 a 105.01304,105.01304 0 0 0 -2.368322,0.5997042 105.01304,105.01304 0 0 0 -0.381154,0.1016379 105.01301,105.01301 0 0 0 -0.447248,0.1219599 105.01301,105.01301 0 0 0 -1.021502,0.2795167 105.01301,105.01301 0 0 0 -0.03049,0.010168 105.01304,105.01304 0 0 0 -1.001206,0.2896909 105.01304,105.01304 0 0 0 -1.331544,0.4015029 105.01304,105.01304 0 0 0 -1.32137,0.4218253 105.01304,105.01304 0 0 0 -1.158738,0.3811546 105.01304,105.01304 0 0 0 -0.25412,0.086389 105.01301,105.01301 0 0 0 -1.087596,0.3760805 105.01304,105.01304 0 0 0 -0.15754,0.055919 105.01304,105.01304 0 0 0 -0.909718,0.3252617 105.01304,105.01304 0 0 0 -0.37608,0.137209 105.01301,105.01301 0 0 0 -0.325262,0.1219866 105.01301,105.01301 0 0 0 -1.234978,0.4675701 105.01301,105.01301 0 0 0 -0.06607,0.025397 105.01304,105.01304 0 0 0 -0.965636,0.3811805 105.01304,105.01304 0 0 0 -1.290873,0.5234631 105.01304,105.01304 0 0 0 -1.153663,0.4827923 105.01304,105.01304 0 0 0 -0.17787,0.081315 105.01301,105.01301 0 0 0 -1.184159,0.518389 105.01304,105.01304 0 0 0 -0.05083,0.020351 105.01301,105.01301 0 0 0 -1.052027,0.477718 105.01304,105.01304 0 0 0 -0.279517,0.12706 105.01301,105.01301 0 0 0 -0.640349,0.299839 105.01304,105.01304 0 0 0 -0.767434,0.365933 105.01301,105.01301 0 0 0 -0.08638,0.04064 105.01304,105.01304 0 0 0 -0.935114,0.4573961 105.01304,105.01304 0 0 0 -0.935141,0.46757 105.01304,105.01304 0 0 0 -0.548885,0.279517 105.01301,105.01301 0 0 0 -0.421825,0.218549 105.01304,105.01304 0 0 0 -0.635275,0.330336 105.01304,105.01304 0 0 0 -2.205665,1.199409 105.01304,105.01304 0 0 0 -0.310013,0.177881 105.01301,105.01301 0 0 0 -0.167725,0.09146 105.01304,105.01304 0 0 0 -0.899542,0.518389 105.01304,105.01304 0 0 0 -1.123169,0.655623 105.01304,105.01304 0 0 0 -0.111811,0.06607 105.01301,105.01301 0 0 0 -0.264267,0.157531 105.01304,105.01304 0 0 0 -0.889397,0.543811 105.01304,105.01304 0 0 0 -0.930039,0.584456 105.01304,105.01304 0 0 0 -0.401503,0.249021 105.01301,105.01301 0 0 0 -0.142293,0.09149 105.01304,105.01304 0 0 0 -0.874145,0.564109 105.01304,105.01304 0 0 0 -1.158738,0.767408 105.01301,105.01301 0 0 0 -0.28969,0.193129 105.01304,105.01304 0 0 0 -0.858901,0.589555 105.01304,105.01304 0 0 0 -1.138416,0.797908 105.01304,105.01304 0 0 0 -1.12824,0.813152 105.01304,105.01304 0 0 0 -0.787758,0.579357 105.01304,105.01304 0 0 0 -0.584456,0.442148 105.01301,105.01301 0 0 0 -0.02539,0.01523 105.01304,105.01304 0 0 0 -0.823328,0.630201 105.01304,105.01304 0 0 0 -1.097746,0.858901 105.01304,105.01304 0 0 0 -1.082523,0.869045 105.01301,105.01301 0 0 0 -1.026602,0.848751 105.01304,105.01304 0 0 0 -0.05591,0.04572 105.01304,105.01304 0 0 0 -0.884294,0.752187 105.01304,105.01304 0 0 0 -0.269369,0.228697 105.01301,105.01301 0 0 0 -0.15754,0.13721 105.01304,105.01304 0 0 0 -0.782658,0.686094 105.01304,105.01304 0 0 0 -0.762335,0.681018 105.01304,105.01304 0 0 0 -0.482819,0.437072 105.01301,105.01301 0 0 0 -0.05083,0.04574 105.01304,105.01304 0 0 0 -0.762334,0.706416 105.01304,105.01304 0 0 0 -0.919867,0.863973 105.01304,105.01304 0 0 0 -0.182972,0.17787 105.01301,105.01301 0 0 0 -0.650523,0.630201 105.01304,105.01304 0 0 0 -0.310014,0.299864 105.01301,105.01301 0 0 0 -0.198201,0.193097 105.01304,105.01304 0 0 0 -0.731839,0.736939 105.01304,105.01304 0 0 0 -0.818228,0.828403 105.01304,105.01304 0 0 0 -0.274443,0.284591 105.01301,105.01301 0 0 0 -0.127064,0.132122 105.01304,105.01304 0 0 0 -0.711516,0.752186 105.01304,105.01304 0 0 0 -1.880403,2.053208 105.01304,105.01304 0 0 0 -0.914817,1.041853 105.01304,105.01304 0 0 0 -0.904619,1.057101 105.01304,105.01304 0 0 0 -0.889394,1.067247 105.01301,105.01301 0 0 0 -0.584458,0.716617 105.01304,105.01304 0 0 0 -0.406575,0.50314 105.01301,105.01301 0 0 0 -0.106714,0.132122 105.01304,105.01304 0 0 0 -0.640375,0.818227 105.01304,105.01304 0 0 0 -0.848724,1.102846 105.01301,105.01301 0 0 0 -0.213449,0.279517 105.01304,105.01304 0 0 0 -0.620027,0.833476 105.01304,105.01304 0 0 0 -0.813155,1.123167 105.01304,105.01304 0 0 0 -0.803005,1.133342 105.01304,105.01304 0 0 0 -0.787731,1.148591 105.01301,105.01301 0 0 0 -0.579384,0.869046 105.01304,105.01304 0 0 0 -0.284589,0.432001 105.01301,105.01301 0 0 0 -0.101629,0.147372 105.01304,105.01304 0 0 0 -0.564134,0.874123 105.01304,105.01304 0 0 0 -0.742013,1.174012 105.01304,105.01304 0 0 0 -0.726737,1.184133 105.01304,105.01304 0 0 0 -0.41168,0.691194 105.01301,105.01301 0 0 0 -0.472641,0.808081 105.01304,105.01304 0 0 0 -0.609854,1.067247 105.01301,105.01301 0 0 0 -0.325261,0.574282 105.01304,105.01304 0 0 0 -0.325263,0.589558 105.01301,105.01301 0 0 0 -0.523463,0.965609 105.01304,105.01304 0 0 0 -0.106741,0.1982 105.01301,105.01301 0 0 0 -0.132121,0.249046 105.01304,105.01304 0 0 0 -0.482819,0.924942 105.01304,105.01304 0 0 0 -0.630201,1.240078 105.01304,105.01304 0 0 0 -0.609852,1.245129 105.01301,105.01301 0 0 0 -0.381181,0.79283 105.01304,105.01304 0 0 0 -0.274416,0.579381 105.01301,105.01301 0 0 0 -0.442174,0.975786 105.01304,105.01304 0 0 0 -0.111776,0.243948 105.01301,105.01301 0 0 0 -0.294789,0.660669 105.01304,105.01304 0 0 0 -0.350659,0.797908 105.01301,105.01301 0 0 0 -0.208376,0.492991 105.01304,105.01304 0 0 0 -0.2490195,0.58953 105.01301,105.01301 0 0 0 -0.4726449,1.148591 105.01304,105.01304 0 0 0 -0.040661,0.09657 105.01301,105.01301 0 0 0 -0.4523208,1.14349 105.01304,105.01304 0 0 0 -0.066074,0.167704 105.01301,105.01301 0 0 0 -0.431974,1.133341 105.01304,105.01304 0 0 0 -0.060991,0.167706 105.01301,105.01301 0 0 0 -0.3100127,0.848724 105.01304,105.01304 0 0 0 -0.2541207,0.696269 105.01301,105.01301 0 0 0 -0.050826,0.142312 105.01304,105.01304 0 0 0 -0.4014766,1.148563 105.01301,105.01301 0 0 0 -0.076238,0.228725 105.01301,105.01301 0 0 0 -0.3811811,1.158738 105.01301,105.01301 0 0 0 -0.411652,1.290872 105.01301,105.01301 0 0 0 -0.1118169,0.360833 105.01304,105.01304 0 0 0 -0.2236232,0.726764 105.01304,105.01304 0 0 0 -0.3405102,1.179086 105.01304,105.01304 0 0 0 -0.04064,0.127037 105.01304,105.01304 0 0 0 -0.3354359,1.214657 105.01304,105.01304 0 0 0 -0.035578,0.127064 105.01301,105.01301 0 0 0 -0.2795172,1.062175 105.01304,105.01304 0 0 0 -0.086383,0.330335 105.01301,105.01301 0 0 0 -0.2134498,0.863999 105.01304,105.01304 0 0 0 -0.162622,0.650524 105.01301,105.01301 0 0 0 -0.060991,0.269342 105.01304,105.01304 0 0 0 -0.2541207,1.092672 105.01301,105.01301 0 0 0 -0.020371,0.08132 105.01304,105.01304 0 0 0 -0.2236233,1.016456 105.01304,105.01304 0 0 0 -0.2845916,1.362039 105.01304,105.01304 0 0 0 -0.2642941,1.362014 105.01304,105.01304 0 0 0 -0.2490197,1.372212 105.01304,105.01304 0 0 0 -0.2134498,1.270551 105.01304,105.01304 0 0 0 -0.020371,0.132121 105.01304,105.01304 0 0 0 -0.1931175,1.290873 105.01304,105.01304 0 0 0 -0.015227,0.07624 105.01301,105.01301 0 0 0 -0.13212688,0.960539 105.01304,105.01304 0 0 0 -0.071177,0.523462 105.01301,105.01301 0 0 0 -0.030474,0.213449 105.01304,105.01304 0 0 0 -0.1270641,1.031705 105.01304,105.01304 0 0 0 -0.1372296,1.209557 105.01304,105.01304 0 0 0 -0.035578,0.345583 105.01301,105.01301 0 0 0 -0.020371,0.172807 105.01304,105.01304 0 0 0 -0.1016312,1.036778 105.01304,105.01304 0 0 0 -0.091487,1.011356 105.01301,105.01301 0 0 0 -0.055888,0.721664 105.01301,105.01301 0 0 0 -0.096568,1.387462 105.01304,105.01304 0 0 0 -0.060991,1.057097 105.01304,105.01304 0 0 0 -0.040661,0.8233 105.01301,105.01301 0 0 0 -0.035579,0.894468 105.01301,105.01301 0 0 0 -0.04064,1.38746 105.01304,105.01304 0 0 0 -0.020371,1.16382 105.01301,105.01301 0 0 0 -0.00514,0.22869 A 105.01304,105.01304 0 0 0 1.6200956e-8,104.49017 105.01304,105.01304 0 0 0 0.01008802,105.65909 a 105.01301,105.01301 0 0 0 0.010088,0.67087 105.01304,105.01304 0 0 0 0.010088,0.63528 105.01304,105.01304 0 0 0 0.035578,1.18923 105.01304,105.01304 0 0 0 0,0.061 105.01304,105.01304 0 0 0 0.060991,1.37221 105.01304,105.01304 0 0 0 0.076218,1.38744 105.01304,105.01304 0 0 0 0.076239,1.13334 105.01304,105.01304 0 0 0 0.030496,0.43197 105.01304,105.01304 0 0 0 0.1016312,1.20449 105.01304,105.01304 0 0 0 0.1219812,1.30614 105.01304,105.01304 0 0 0 0.015227,0.12707 105.01304,105.01304 0 0 0 0.086383,0.8233 105.01301,105.01301 0 0 0 0.1118169,0.97071 105.01301,105.01301 0 0 0 0.1575394,1.24513 105.01301,105.01301 0 0 0 0.071177,0.52856 105.01304,105.01304 0 0 0 0.11181678,0.78773 105.01301,105.01301 0 0 0 0.076218,0.53364 105.01304,105.01304 0 0 0 0.1219812,0.80301 105.01301,105.01301 0 0 0 0.1524568,0.91986 105.01304,105.01304 0 0 0 0.055909,0.33544 105.01301,105.01301 0 0 0 0.1219612,0.72166 105.01301,105.01301 0 0 0 0.1829522,0.99104 105.01301,105.01301 0 0 0 0.2439453,1.2553 105.01301,105.01301 0 0 0 0.081321,0.41168 105.01304,105.01304 0 0 0 0.2083755,0.98085 105.01301,105.01301 0 0 0 0.050826,0.23378 105.01304,105.01304 0 0 0 0.2185509,0.98596 105.01301,105.01301 0 0 0 0.045743,0.21345 105.01304,105.01304 0 0 0 0.2134498,0.90464 105.01304,105.01304 0 0 0 0.3100148,1.26037 105.01304,105.01304 0 0 0 0.030496,0.12707 105.01304,105.01304 0 0 0 0.3405101,1.31122 105.01304,105.01304 0 0 0 0.3659067,1.34168 105.01304,105.01304 0 0 0 0.299864,1.04186 105.01304,105.01304 0 0 0 0.1677046,0.57938 105.01301,105.01301 0 0 0 0.091487,0.30494 105.01301,105.01301 0 0 0 0.3659067,1.17906 105.01304,105.01304 0 0 0 0.3608324,1.12317 105.01301,105.01301 0 0 0 0.2591951,0.78775 105.01304,105.01304 0 0 0 0.1321268,0.40656 105.01301,105.01301 0 0 0 0.2642696,0.76233 105.01304,105.01304 0 0 0 0.2846163,0.80808 105.01301,105.01301 0 0 0 0.066073,0.18295 105.01301,105.01301 0 0 0 0.4065776,1.09271 105.01301,105.01301 0 0 0 0.030496,0.0914 105.01304,105.01304 0 0 0 0.3303368,0.86908 105.01304,105.01304 0 0 0 0.3760801,0.97068 105.01304,105.01304 0 0 0 0.2591951,0.64545 105.01301,105.01301 0 0 0 0.1473742,0.36083 105.01304,105.01304 0 0 0 0.3201861,0.78266 105.01301,105.01301 0 0 0 0.1016312,0.24905 105.01304,105.01304 0 0 0 0.3659314,0.8538 105.01301,105.01301 0 0 0 0.294765,0.67594 105.01301,105.01301 0 0 0 0.452323,1.0215 105.01301,105.01301 0 0 0 0.579357,1.2604 105.01301,105.01301 0 0 0 0.594628,1.25531 105.01301,105.01301 0 0 0 0.614955,1.25023 105.01304,105.01304 0 0 0 0.44722,0.88939 105.01304,105.01304 0 0 0 0.437074,0.83855 105.01304,105.01304 0 0 0 0.172807,0.33544 105.01301,105.01301 0 0 0 0.218524,0.40657 105.01301,105.01301 0 0 0 0.660697,1.21973 105.01301,105.01301 0 0 0 0.650524,1.16382 105.01301,105.01301 0 0 0 0.08638,0.16262 105.01301,105.01301 0 0 0 0.635275,1.0927 105.01301,105.01301 0 0 0 0.711516,1.1943 105.01304,105.01304 0 0 0 0.594631,0.98086 105.01301,105.01301 0 0 0 0.467544,0.75219 105.01304,105.01304 0 0 0 0.249047,0.38623 105.01301,105.01301 0 0 0 0.406577,0.6302 105.01304,105.01304 0 0 0 0.462469,0.71152 105.01301,105.01301 0 0 0 0.09149,0.14737 105.01301,105.01301 0 0 0 0.696242,1.04185 105.01301,105.01301 0 0 0 0.07624,0.10676 105.01301,105.01301 0 0 0 0.736913,1.07234 105.01301,105.01301 0 0 0 0.803005,1.13332 105.01301,105.01301 0 0 0 0.752163,1.04185 105.01301,105.01301 0 0 0 0.345583,0.45739 105.01304,105.01304 0 0 0 0.432,0.58446 105.01301,105.01301 0 0 0 0.243945,0.31511 105.01301,105.01301 0 0 0 0.609853,0.80298 105.01301,105.01301 0 0 0 0.401502,0.50315 105.01304,105.01304 0 0 0 0.284619,0.36592 105.01301,105.01301 0 0 0 0.289663,0.36083 105.01304,105.01304 0 0 0 0.706443,0.87413 105.01301,105.01301 0 0 0 0.167704,0.20837 105.01304,105.01304 0 0 0 0.594629,0.71152 105.01304,105.01304 0 0 0 0.72674,0.8589 105.01304,105.01304 0 0 0 0.431997,0.49804 105.01301,105.01301 0 0 0 0.08132,0.0966 105.01301,105.01301 0 0 0 0.879221,1.0012 105.01304,105.01304 0 0 0 0.76741,0.85381 105.01301,105.01301 0 0 0 0.492992,0.52855 105.01304,105.01304 0 0 0 0.503113,0.5438 105.01301,105.01301 0 0 0 0.284619,0.30494 105.01304,105.01304 0 0 0 0.782658,0.81823 105.01301,105.01301 0 0 0 0.01523,0.0152 105.01304,105.01304 0 0 0 0.797905,0.81824 105.01301,105.01301 0 0 0 0.492966,0.49298 105.01304,105.01304 0 0 0 0.492992,0.49297 105.01301,105.01301 0 0 0 0.81823,0.7979 105.01304,105.01304 0 0 0 0.01523,0.0152 105.01301,105.01301 0 0 0 0.818227,0.78266 105.01304,105.01304 0 0 0 0.30494,0.28462 105.01301,105.01301 0 0 0 0.437074,0.40657 105.01301,105.01301 0 0 0 0.802979,0.73691 105.01301,105.01301 0 0 0 1.031705,0.92497 105.01301,105.01301 0 0 0 1.051999,0.91479 105.01301,105.01301 0 0 0 1.0571,0.89958 105.01301,105.01301 0 0 0 1.072349,0.88429 105.01304,105.01304 0 0 0 0.848725,0.6861 105.01301,105.01301 0 0 0 0.46757,0.371 105.01301,105.01301 0 0 0 0.858899,0.67084 105.01301,105.01301 0 0 0 1.107919,0.84365 105.01304,105.01304 0 0 0 1.082523,0.80302 105.01301,105.01301 0 0 0 0.09657,0.066 105.01301,105.01301 0 0 0 1.036752,0.74709 105.01301,105.01301 0 0 0 0.142312,0.10169 105.01304,105.01304 0 0 0 0.884322,0.6251 105.01301,105.01301 0 0 0 0.28459,0.19313 105.01301,105.01301 0 0 0 1.006283,0.68102 105.01301,105.01301 0 0 0 1.158738,0.7674 105.01301,105.01301 0 0 0 1.168911,0.75217 105.01301,105.01301 0 0 0 1.179086,0.73695 105.01301,105.01301 0 0 0 1.189235,0.72165 105.01304,105.01304 0 0 0 1.041854,0.61496 105.01301,105.01301 0 0 0 0.355758,0.20837 105.01301,105.01301 0 0 0 1.00628,0.56921 105.01301,105.01301 0 0 0 2.444536,1.33155 105.01301,105.01301 0 0 0 1.179061,0.61491 105.01301,105.01301 0 0 0 0.188056,0.0966 105.01301,105.01301 0 0 0 1.10792,0.54889 105.01301,105.01301 0 0 0 1.250228,0.60987 105.01301,105.01301 0 0 0 1.255301,0.58954 105.01301,105.01301 0 0 0 1.27055,0.57428 105.01301,105.01301 0 0 0 1.270551,0.55906 105.01301,105.01301 0 0 0 1.280723,0.5387 105.01301,105.01301 0 0 0 1.285799,0.52347 105.01301,105.01301 0 0 0 1.295973,0.50822 105.01301,105.01301 0 0 0 1.301046,0.48789 105.01301,105.01301 0 0 0 1.306121,0.47264 105.01301,105.01301 0 0 0 1.316295,0.45232 105.01301,105.01301 0 0 0 2.642762,0.8589 105.01301,105.01301 0 0 0 1.331517,0.40152 105.01304,105.01304 0 0 0 1.174014,0.34046 105.01301,105.01301 0 0 0 0.304912,0.0865 105.01301,105.01301 0 0 0 1.199409,0.32527 105.01301,105.01301 0 0 0 6.769503,1.56532 105.01301,105.01301 0 0 0 1.367113,0.25919 105.01304,105.01304 0 0 0 0.909718,0.16256 105.01301,105.01301 0 0 0 0.01014,0 c -0.26838,-2.38921 -0.568739,-4.80508 -0.833476,-7.18118 -1.439219,-12.91687 -2.38573,-29.07027 -3.420348,-42.18234 -0.794237,-10.06584 -4.265404,-17.30431 -10.408373,-24.78087 0.626376,-2.03882 1.389075,-3.48041 2.226013,-4.3199 0.632829,-0.63472 1.280309,-0.98499 1.976993,-1.12824 1.15421,1.75701 2.626864,3.29324 4.512991,4.35547 4.128818,2.32522 7.226808,5.55567 9.630827,9.35127 0.04486,0.0973 0.103499,0.19268 0.147333,0.28966 1.582432,3.50677 2.42081,6.98436 2.134519,9.29537 v 0.0407 0.0204 c -0.804426,19.02643 0.427245,38.3192 1.844833,57.29688 a 105.01301,105.01301 0 0 0 1.107919,0.10168 105.01301,105.01301 0 0 0 0.564146,0.0456 105.01304,105.01304 0 0 0 0.503135,0.0407 105.01301,105.01301 0 0 0 0.858894,0.0608 105.01304,105.01304 0 0 0 0.543796,0.0356 105.01301,105.01301 0 0 0 0.77251,0.0508 105.01301,105.01301 0 0 0 0.61496,0.0304 105.01304,105.01304 0 0 0 1.02659,0.0456 105.01304,105.01304 0 0 0 1.38745,0.0456 105.01304,105.01304 0 0 0 2.36831,0.0356 c -0.89912,-6.76959 -1.88615,-13.64614 -2.75965,-21.64006 -1.01419,-9.28128 -1.33182,-20.71661 -3.70494,-31.19465 -2.373112,-10.47784 -6.848602,-20.0792 -16.252914,-25.37547 -4.581506,-2.58018 -6.699532,-8.74485 -7.049045,-13.64067 -0.168754,-2.36439 -0.48464,-4.07581 -0.01523,-5.54976 0.470407,-1.47393 1.728804,-2.9736 5.204186,-4.9145 0.01811,-0.0101 0.04272,-0.0154 0.061,-0.0254 4.99084,1.81871 11.146039,2.38526 18.113023,1.82961 3.37819,3.86832 6.75987,7.07376 10.44394,8.31957 2.70363,0.91435 5.59224,0.72127 8.47205,-1.03675 1.649,-1.00668 3.30935,-2.57212 5.00091,-4.62991 h 0.004 c 3.7473,0.14772 7.35984,-0.22089 10.53033,-1.7127 0.0107,-0.005 0.0206,-0.0105 0.0304,-0.0152 1.15854,0.58534 2.19316,1.30128 3.02903,2.12945 1.62239,1.60796 2.53317,3.56682 2.39879,5.79879 -0.12731,2.11823 -1.27378,4.56222 -3.83199,7.171 -0.0945,0.0738 -0.1638,0.15075 -0.26937,0.22363 -2.41802,1.67155 -5.0198,3.44337 -5.67175,3.93363 -1.86687,1.32629 -3.47623,3.01101 -5.18386,4.92467 -0.48414,0.5352 -2.32315,2.45058 -1.93121,2.72913 0.33189,0.22277 1.41869,-0.69275 1.90072,-1.22987 1.71011,-1.91616 3.83208,-3.50323 5.04155,-4.56892 0.80596,-0.71017 2.16845,-1.53526 3.65413,-2.45471 -6.75889,11.23197 -7.55982,24.16251 -9.55456,36.91213 -2.19176,14.00859 -1.83226,28.56405 -1.34172,42.80745 a 105.01304,105.01304 0 0 0 1.61106,-0.25919 105.01301,105.01301 0 0 0 0.48788,-0.0865 105.01304,105.01304 0 0 0 2.25653,-0.41674 105.01304,105.01304 0 0 0 0.80298,-0.16256 105.01301,105.01301 0 0 0 5.31091,-1.2299 105.01304,105.01304 0 0 0 0.64547,-0.16771 105.01301,105.01301 0 0 0 0.0107,-0.004 105.01304,105.01304 0 0 0 1.33153,-0.36084 105.01301,105.01301 0 0 0 0.0107,-0.004 105.01304,105.01304 0 0 0 1.32644,-0.38115 105.01301,105.01301 0 0 0 0.0107,-0.004 105.01304,105.01304 0 0 0 1.32136,-0.39645 105.01301,105.01301 0 0 0 0.0107,-0.004 105.01304,105.01304 0 0 0 0.70642,-0.22364 105.01301,105.01301 0 0 0 1.92618,-0.63019 105.01301,105.01301 0 0 0 0.68099,-0.23378 105.01304,105.01304 0 0 0 0.63531,-0.21855 105.01301,105.01301 0 0 0 0.004,-0.004 105.01304,105.01304 0 0 0 1.30107,-0.46757 105.01301,105.01301 0 0 0 0.0107,-0.005 105.01304,105.01304 0 0 0 1.2909,-0.48283 105.01301,105.01301 0 0 0 0.0107,-0.005 105.01304,105.01304 0 0 0 1.28582,-0.50314 105.01301,105.01301 0 0 0 0.004,-0.005 105.01304,105.01304 0 0 0 1.28071,-0.51839 105.01301,105.01301 0 0 0 0.0107,-0.005 105.01304,105.01304 0 0 0 1.27053,-0.53363 105.01301,105.01301 0 0 0 0.0107,-0.005 105.01304,105.01304 0 0 0 1.26547,-0.55399 105.01301,105.01301 0 0 0 0.004,-0.005 105.01304,105.01304 0 0 0 0.69119,-0.31001 105.01301,105.01301 0 0 0 1.69237,-0.78774 105.01304,105.01304 0 0 0 0.13211,-0.061 105.01301,105.01301 0 0 0 0.0107,-0.005 105.01304,105.01304 0 0 0 1.2401,-0.5997 105.01301,105.01301 0 0 0 0.0107,-0.005 105.01304,105.01304 0 0 0 1.23499,-0.62003 105.01301,105.01301 0 0 0 0.004,-0.005 105.01304,105.01304 0 0 0 1.13841,-0.58953 105.01301,105.01301 0 0 0 0.0965,-0.0508 105.01304,105.01304 0 0 0 1.21976,-0.65054 105.01301,105.01301 0 0 0 0.004,-0.005 105.01304,105.01304 0 0 0 0.9707,-0.53871 105.01301,105.01301 0 0 0 0.24903,-0.13722 105.01304,105.01304 0 0 0 1.1943,-0.68101 105.01301,105.01301 0 0 0 0.0107,-0.005 105.01304,105.01304 0 0 0 1.18924,-0.70136 105.01301,105.01301 0 0 0 0.0107,-0.005 105.01304,105.01304 0 0 0 1.17908,-0.71658 105.01301,105.01301 0 0 0 0.0107,-0.005 105.01304,105.01304 0 0 0 1.1689,-0.72676 105.01301,105.01301 0 0 0 0.0107,-0.005 105.01304,105.01304 0 0 0 1.15877,-0.74709 105.01301,105.01301 0 0 0 0.0107,-0.005 105.01304,105.01304 0 0 0 1.14859,-0.76231 105.01301,105.01301 0 0 0 0.0107,-0.005 105.01304,105.01304 0 0 0 1.13842,-0.77755 105.01301,105.01301 0 0 0 0.0107,-0.005 105.01304,105.01304 0 0 0 1.12824,-0.79282 105.01301,105.01301 0 0 0 0.0107,-0.005 105.01304,105.01304 0 0 0 1.1181,-0.80808 105.01301,105.01301 0 0 0 0.0107,-0.005 105.01304,105.01304 0 0 0 1.10794,-0.8233 105.01301,105.01301 0 0 0 0.0107,-0.005 105.01304,105.01304 0 0 0 0.32019,-0.24902 105.01304,105.01304 0 0 0 1.52974,-1.17399 105.01301,105.01301 0 0 0 0.35066,-0.27445 105.01304,105.01304 0 0 0 1.07237,-0.86396 105.01301,105.01301 0 0 0 0.0107,-0.0107 105.01304,105.01304 0 0 0 0.3659,-0.29984 105.01301,105.01301 0 0 0 0.70643,-0.58445 105.01304,105.01304 0 0 0 1.05204,-0.89447 105.01301,105.01301 0 0 0 0.004,-0.005 105.01304,105.01304 0 0 0 2.07862,-1.83466 105.01301,105.01301 0 0 0 0.004,-0.005 105.01304,105.01304 0 0 0 1.01644,-0.93511 105.01301,105.01301 0 0 0 0.004,-0.005 105.01304,105.01304 0 0 0 1.00626,-0.95036 105.01301,105.01301 0 0 0 0.004,-0.005 105.01304,105.01304 0 0 0 0.0304,-0.0306 105.01301,105.01301 0 0 0 0.9707,-0.93514 105.01304,105.01304 0 0 0 0.9758,-0.97578 105.01301,105.01301 0 0 0 0.004,-0.005 105.01304,105.01304 0 0 0 0.96562,-0.98595 105.01301,105.01301 0 0 0 0.0107,-0.0107 105.01304,105.01304 0 0 0 0.95035,-0.99611 105.01301,105.01301 0 0 0 0.004,-0.0107 105.01304,105.01304 0 0 0 0.86903,-0.93516 105.01301,105.01301 0 0 0 0.0762,-0.0813 105.01301,105.01301 0 0 0 1.47893,-1.6517 105.01304,105.01304 0 0 0 0.3659,-0.41676 105.01301,105.01301 0 0 0 0.004,-0.0107 105.01304,105.01304 0 0 0 0.75216,-0.87416 105.01301,105.01301 0 0 0 0.15249,-0.17786 105.01304,105.01304 0 0 0 0.88432,-1.06218 105.01301,105.01301 0 0 0 0.004,-0.0107 105.01304,105.01304 0 0 0 0.87417,-1.06728 105.01301,105.01301 0 0 0 0.004,-0.0107 105.01304,105.01304 0 0 0 0.85382,-1.08253 105.01301,105.01301 0 0 0 0.004,-0.0107 105.01304,105.01304 0 0 0 0.59462,-0.76741 105.01301,105.01301 0 0 0 0.25412,-0.33034 105.01304,105.01304 0 0 0 0.82839,-1.10791 105.01301,105.01301 0 0 0 0.004,-0.005 105.01304,105.01304 0 0 0 0.80809,-1.11809 105.01301,105.01301 0 0 0 0.004,-0.0107 105.01304,105.01304 0 0 0 0.79789,-1.12316 105.01301,105.01301 0 0 0 0.004,-0.0107 105.01304,105.01304 0 0 0 0.42689,-0.62006 105.01301,105.01301 0 0 0 0.36084,-0.52345 105.01304,105.01304 0 0 0 0.76741,-1.14857 105.01301,105.01301 0 0 0 0.004,-0.0107 105.01304,105.01304 0 0 0 0.75219,-1.15367 105.01301,105.01301 0 0 0 0.004,-0.0107 105.01304,105.01304 0 0 0 0.73691,-1.16892 105.01301,105.01301 0 0 0 0.004,-0.0107 105.01304,105.01304 0 0 0 0.72167,-1.17399 105.01301,105.01301 0 0 0 0.004,-0.0107 105.01304,105.01304 0 0 0 0.70644,-1.18416 105.01301,105.01301 0 0 0 0.004,-0.0107 105.01304,105.01304 0 0 0 0.68609,-1.19433 105.01301,105.01301 0 0 0 0.004,-0.0107 105.01304,105.01304 0 0 0 0.67592,-1.20448 105.01301,105.01301 0 0 0 0.004,-0.0107 105.01304,105.01304 0 0 0 0.65559,-1.20957 105.01301,105.01301 0 0 0 0.004,-0.0107 105.01304,105.01304 0 0 0 0.056,-0.10675 105.01301,105.01301 0 0 0 0.58953,-1.12318 105.01304,105.01304 0 0 0 0.6251,-1.22987 105.01301,105.01301 0 0 0 0.004,-0.0107 105.01304,105.01304 0 0 0 0.0107,-0.0204 105.01304,105.01304 0 0 0 1.16892,-2.41914 105.01301,105.01301 0 0 0 0.0304,-0.0661 105.01304,105.01304 0 0 0 0.57428,-1.25531 105.01301,105.01301 0 0 0 0.004,-0.005 105.01304,105.01304 0 0 0 0.55904,-1.26545 105.01301,105.01301 0 0 0 0.004,-0.005 105.01304,105.01304 0 0 0 0.5387,-1.27055 105.01301,105.01301 0 0 0 0.004,-0.0107 105.01304,105.01304 0 0 0 0.52345,-1.27566 105.01301,105.01301 0 0 0 0.004,-0.0107 105.01304,105.01304 0 0 0 0.50821,-1.2807 105.01301,105.01301 0 0 0 0.004,-0.0107 105.01304,105.01304 0 0 0 0.1169,-0.30495 105.01304,105.01304 0 0 0 1.17399,-3.21702 105.01301,105.01301 0 0 0 0.1424,-0.39643 105.01304,105.01304 0 0 0 0.43709,-1.30612 105.01301,105.01301 0 0 0 0.004,-0.0107 105.01304,105.01304 0 0 0 0.42181,-1.31119 105.01301,105.01301 0 0 0 0.004,-0.0107 105.01304,105.01304 0 0 0 0.40151,-1.32136 105.01301,105.01301 0 0 0 0.004,-0.0107 105.01304,105.01304 0 0 0 0.38625,-1.32137 105.01301,105.01301 0 0 0 0.004,-0.0107 105.01304,105.01304 0 0 0 0.37101,-1.33155 105.01301,105.01301 0 0 0 0,-0.0107 105.01304,105.01304 0 0 0 0.18807,-0.70134 105.01301,105.01301 0 0 0 0.1677,-0.64038 105.01304,105.01304 0 0 0 0.33543,-1.34169 105.01301,105.01301 0 0 0 0,-0.0101 105.01304,105.01304 0 0 0 0.32016,-1.34169 105.01301,105.01301 0 0 0 0,-0.0101 105.01304,105.01304 0 0 0 0.29987,-1.34679 105.01301,105.01301 0 0 0 0,-0.0101 105.01304,105.01304 0 0 0 0.28459,-1.35189 105.01301,105.01301 0 0 0 0,-0.0101 105.01304,105.01304 0 0 0 0.26429,-1.35187 105.01301,105.01301 0 0 0 0,-0.0101 105.01304,105.01304 0 0 0 0.0865,-0.48789 105.01301,105.01301 0 0 0 0.3151,-1.78386 105.01304,105.01304 0 0 0 0.0762,-0.4574 105.01301,105.01301 0 0 0 0,-0.0101 105.01304,105.01304 0 0 0 0.20839,-1.36204 105.01301,105.01301 0 0 0 0,-0.0101 105.01304,105.01304 0 0 0 0.19321,-1.36712 105.01301,105.01301 0 0 0 0,-0.0101 105.01304,105.01304 0 0 0 0.17285,-1.37221 105.01301,105.01301 0 0 0 0,-0.0101 105.01304,105.01304 0 0 0 0.15762,-1.36711 105.01301,105.01301 0 0 0 0,-0.0101 105.01304,105.01304 0 0 0 0.13726,-1.37222 105.01301,105.01301 0 0 0 0,-0.0101 105.01304,105.01304 0 0 0 0.12196,-1.37728 105.01301,105.01301 0 0 0 0,-0.0101 105.01304,105.01304 0 0 0 0.10169,-1.37728 105.01301,105.01301 0 0 0 0,-0.0101 105.01304,105.01304 0 0 0 0.0813,-1.37726 105.01301,105.01301 0 0 0 0,-0.0101 105.01304,105.01304 0 0 0 0.0661,-1.37729 105.01301,105.01301 0 0 0 0,-0.0101 105.01304,105.01304 0 0 0 0.0456,-1.37729 105.01301,105.01301 0 0 0 0,-0.0101 105.01304,105.01304 0 0 0 0.0255,-1.38236 105.01301,105.01301 0 0 0 0,-0.0101 105.01304,105.01304 0 0 0 0.0107,-1.37729 105.01301,105.01301 0 0 0 0,-0.0101 105.01304,105.01304 0 0 0 -0.0107,-1.39251 105.01301,105.01301 0 0 0 -0.0144,-0.93004 105.01304,105.01304 0 0 0 -0.004,-0.16262 105.01304,105.01304 0 0 0 -0.0356,-1.17909 105.01301,105.01301 0 0 0 0,-0.0457 105.01304,105.01304 0 0 0 0,-0.0204 105.01304,105.01304 0 0 0 -0.0356,-0.884288 105.01301,105.01301 0 0 0 -0.0407,-0.79791 105.01304,105.01304 0 0 0 -0.004,-0.14741 105.01301,105.01301 0 0 0 -0.0559,-0.930042 105.01304,105.01304 0 0 0 -0.0762,-1.118068 105.01301,105.01301 0 0 0 -0.0144,-0.264296 105.01304,105.01304 0 0 0 -0.0144,-0.182951 105.01304,105.01304 0 0 0 -0.0915,-1.082524 105.01301,105.01301 0 0 0 -0.0107,-0.121966 105.01304,105.01304 0 0 0 -0.004,-0.05589 105.01304,105.01304 0 0 0 -0.11689,-1.234981 105.01301,105.01301 0 0 0 -0.0107,-0.09149 105.01304,105.01304 0 0 0 -0.004,-0.04574 105.01304,105.01304 0 0 0 -0.13211,-1.234981 105.01301,105.01301 0 0 0 -0.0107,-0.10163 105.01304,105.01304 0 0 0 -0.004,-0.03558 105.01304,105.01304 0 0 0 -0.12196,-1.016457 105.01301,105.01301 0 0 0 -0.0407,-0.330334 105.01304,105.01304 0 0 0 -0.0608,-0.452323 105.01301,105.01301 0 0 0 -0.12691,-0.924965 105.01304,105.01304 0 0 0 -0.066,-0.452297 105.01301,105.01301 0 0 0 -0.13725,-0.919891 105.01304,105.01304 0 0 0 -0.0711,-0.452323 105.01301,105.01301 0 0 0 -0.15249,-0.919864 105.01304,105.01304 0 0 0 -0.0763,-0.452324 105.01301,105.01301 0 0 0 -0.0559,-0.310012 105.01301,105.01301 0 0 0 -0.19301,-1.057101 105.01301,105.01301 0 0 0 -0.24395,-1.255301 105.01304,105.01304 0 0 0 -0.0206,-0.111811 105.01301,105.01301 0 0 0 -0.18807,-0.909719 105.01304,105.01304 0 0 0 -0.0965,-0.452321 105.01301,105.01301 0 0 0 -0.19816,-0.909718 105.01304,105.01304 0 0 0 -0.10169,-0.447249 105.01301,105.01301 0 0 0 -0.21344,-0.904617 105.01304,105.01304 0 0 0 -0.10675,-0.447249 105.01301,105.01301 0 0 0 -0.22362,-0.904616 105.01304,105.01304 0 0 0 -0.0356,-0.13723 105.01304,105.01304 0 0 0 -0.31513,-1.204481 105.01304,105.01304 0 0 0 -0.3659,-1.341692 105.01304,105.01304 0 0 0 -0.27952,-0.980884 105.01301,105.01301 0 0 0 -0.10168,-0.355733 105.01304,105.01304 0 0 0 -0.13211,-0.442174 105.01301,105.01301 0 0 0 -0.26933,-0.88937 105.01304,105.01304 0 0 0 -0.13726,-0.437072 105.01301,105.01301 0 0 0 -0.28459,-0.889396 105.01304,105.01304 0 0 0 -0.1424,-0.431973 105.01301,105.01301 0 0 0 -0.29477,-0.884321 105.01304,105.01304 0 0 0 -0.14734,-0.437073 105.01301,105.01301 0 0 0 -0.10675,-0.310015 105.01301,105.01301 0 0 0 -0.35576,-1.00118 105.01301,105.01301 0 0 0 -0.4472,-1.224832 105.01304,105.01304 0 0 0 -0.0304,-0.08132 105.01301,105.01301 0 0 0 -0.33035,-0.869046 105.01304,105.01304 0 0 0 -0.16256,-0.426901 105.01301,105.01301 0 0 0 -0.13211,-0.330361 105.01301,105.01301 0 0 0 -0.38116,-0.960537 105.01301,105.01301 0 0 0 -0.49298,-1.194309 105.01304,105.01304 0 0 0 -0.0356,-0.09149 105.01301,105.01301 0 0 0 -0.36593,-0.858899 105.01304,105.01304 0 0 0 -0.42183,-0.965609 105.01301,105.01301 0 0 0 -0.13211,-0.310016 105.01304,105.01304 0 0 0 -0.18808,-0.41675 105.01301,105.01301 0 0 0 -0.38625,-0.848726 105.01304,105.01304 0 0 0 -0.19322,-0.41675 105.01301,105.01301 0 0 0 -0.15249,-0.320161 105.01301,105.01301 0 0 0 -0.44724,-0.935139 105.01301,105.01301 0 0 0 -0.40659,-0.833479 105.01304,105.01304 0 0 0 -0.2033,-0.411652 105.01301,105.01301 0 0 0 -0.42182,-0.833474 105.01304,105.01304 0 0 0 -0.20837,-0.406602 105.01301,105.01301 0 0 0 -0.432,-0.823305 105.01304,105.01304 0 0 0 -0.21347,-0.406576 105.01301,105.01301 0 0 0 -0.44215,-0.823327 105.01304,105.01304 0 0 0 -0.21851,-0.401477 105.01301,105.01301 0 0 0 -0.16769,-0.299867 105.01301,105.01301 0 0 0 -0.51329,-0.909717 105.01301,105.01301 0 0 0 -0.46249,-0.808055 105.01304,105.01304 0 0 0 -0.0456,-0.08135 105.01304,105.01304 0 0 0 -0.60478,-1.021502 105.01301,105.01301 0 0 0 -0.056,-0.09657 105.01304,105.01304 0 0 0 -0.23379,-0.391327 105.01301,105.01301 0 0 0 -0.14219,-0.238873 105.01301,105.01301 0 0 0 -0.55906,-0.904643 105.01304,105.01304 0 0 0 -0.0254,-0.04572 105.01301,105.01301 0 0 0 -0.0559,-0.09149 105.01301,105.01301 0 0 0 -0.68611,-1.082521 105.01301,105.01301 0 0 0 -0.50313,-0.782658 105.01304,105.01304 0 0 0 -0.25413,-0.386255 105.01301,105.01301 0 0 0 -0.51328,-0.772483 105.01304,105.01304 0 0 0 -0.25919,-0.381154 105.01301,105.01301 0 0 0 -0.52347,-0.767437 105.01304,105.01304 0 0 0 -0.0762,-0.106714 105.01304,105.01304 0 0 0 -0.72167,-1.031705 105.01304,105.01304 0 0 0 -0.81315,-1.12824 105.01304,105.01304 0 0 0 -0.78776,-1.067275 105.01301,105.01301 0 0 0 -0.0407,-0.05083 105.01304,105.01304 0 0 0 -0.27444,-0.365906 105.01301,105.01301 0 0 0 -0.15249,-0.1982 105.01301,105.01301 0 0 0 -0.69626,-0.904643 105.01301,105.01301 0 0 0 -0.5743,-0.731838 105.01304,105.01304 0 0 0 -0.2846,-0.355758 105.01301,105.01301 0 0 0 -0.0865,-0.106741 105.01301,105.01301 0 0 0 -0.77759,-0.960534 105.01304,105.01304 0 0 0 -0.0144,-0.01523 105.01301,105.01301 0 0 0 -0.59462,-0.716591 105.01304,105.01304 0 0 0 -0.29478,-0.350656 105.01301,105.01301 0 0 0 -0.60479,-0.706444 105.01304,105.01304 0 0 0 -0.29983,-0.350658 105.01301,105.01301 0 0 0 -0.22361,-0.25412 105.01301,105.01301 0 0 0 -0.61497,-0.701342 105.01304,105.01304 0 0 0 -0.0761,-0.08638 105.01301,105.01301 0 0 0 -0.6251,-0.691194 105.01304,105.01304 0 0 0 -0.31001,-0.340509 105.01301,105.01301 0 0 0 -0.1221,-0.132122 105.01301,105.01301 0 0 0 -0.82329,-0.884294 105.01301,105.01301 0 0 0 -0.94531,-0.996108 105.01304,105.01304 0 0 0 -0.0107,-0.01014 105.01301,105.01301 0 0 0 -0.65052,-0.670845 105.01304,105.01304 0 0 0 -0.32019,-0.325262 105.01301,105.01301 0 0 0 -0.66067,-0.660696 105.01304,105.01304 0 0 0 -0.32527,-0.320189 105.01301,105.01301 0 0 0 -0.67088,-0.650522 105.01304,105.01304 0 0 0 -0.33032,-0.315087 105.01301,105.01301 0 0 0 -1.01135,-0.955464 105.01301,105.01301 0 0 0 -1.02154,-0.940212 105.01301,105.01301 0 0 0 -1.03679,-0.930041 105.01301,105.01301 0 0 0 -1.04691,-0.909718 105.01301,105.01301 0 0 0 -0.70642,-0.60478 105.01304,105.01304 0 0 0 -0.3507,-0.294764 105.01301,105.01301 0 0 0 -0.10168,-0.08132 105.01301,105.01301 0 0 0 -0.8589,-0.716591 105.01304,105.01304 0 0 0 -0.11169,-0.09149 105.01301,105.01301 0 0 0 -0.72677,-0.584455 105.01304,105.01304 0 0 0 -0.35576,-0.28459 105.01301,105.01301 0 0 0 -0.73183,-0.574283 105.01304,105.01304 0 0 0 -0.36591,-0.284618 105.01301,105.01301 0 0 0 -0.73691,-0.564133 105.01304,105.01304 0 0 0 -0.36594,-0.274416 105.01301,105.01301 0 0 0 -0.0508,-0.04069 105.01301,105.01301 0 0 0 -1.06727,-0.787732 105.01301,105.01301 0 0 0 -1.12826,-0.813152 105.01301,105.01301 0 0 0 -1.12823,-0.792833 105.01304,105.01304 0 0 0 -0.0107,-0.0052 105.01301,105.01301 0 0 0 -0.0144,-0.01014 105.01301,105.01301 0 0 0 -1.13334,-0.77251 105.01301,105.01301 0 0 0 -1.15874,-0.76741 105.01301,105.01301 0 0 0 -1.07234,-0.691167 105.01304,105.01304 0 0 0 -0.0965,-0.061 105.01301,105.01301 0 0 0 -0.78773,-0.492966 105.01304,105.01304 0 0 0 -0.0456,-0.02542 105.01304,105.01304 0 0 0 -0.90466,-0.559034 105.01301,105.01301 0 0 0 -0.23884,-0.142307 105.01304,105.01304 0 0 0 -0.39135,-0.233773 105.01301,105.01301 0 0 0 -0.0965,-0.05591 105.01301,105.01301 0 0 0 -1.02153,-0.604778 105.01304,105.01304 0 0 0 -0.0813,-0.04574 105.01301,105.01301 0 0 0 -0.80808,-0.462469 105.01304,105.01304 0 0 0 -0.81823,-0.462496 105.01301,105.01301 0 0 0 -0.7979,-0.437074 105.01301,105.01301 0 0 0 -1.21465,-0.650524 105.01304,105.01304 0 0 0 -0.0107,-0.0051 105.01301,105.01301 0 0 0 -0.8233,-0.431974 105.01304,105.01304 0 0 0 -0.40658,-0.208376 105.01301,105.01301 0 0 0 -0.83346,-0.421825 105.01304,105.01304 0 0 0 -0.4117,-0.203301 105.01301,105.01301 0 0 0 -1.19429,-0.5844571 105.01304,105.01304 0 0 0 -0.0559,-0.0254 105.01301,105.01301 0 0 0 -0.83855,-0.396429 105.01304,105.01304 0 0 0 -0.41674,-0.193101 105.01301,105.01301 0 0 0 -0.84874,-0.386255 105.01304,105.01304 0 0 0 -0.42181,-0.1880529 105.01301,105.01301 0 0 0 -0.0915,-0.040644 105.01301,105.01301 0 0 0 -1.17907,-0.5133148 105.01301,105.01301 0 0 0 -0.85891,-0.3659065 105.01304,105.01304 0 0 0 -0.0914,-0.03557 105.01304,105.01304 0 0 0 -1.19433,-0.4929924 105.01304,105.01304 0 0 0 -0.96055,-0.3811546 105.01301,105.01301 0 0 0 -0.33032,-0.1321349 105.01304,105.01304 0 0 0 -0.42694,-0.1626301 105.01301,105.01301 0 0 0 -1.22988,-0.46757 105.01304,105.01304 0 0 0 -0.0713,-0.025424 105.01301,105.01301 0 0 0 -0.87458,-0.3241728 105.01304,105.01304 0 0 0 -1.00121,-0.3557581 105.01301,105.01301 0 0 0 -0.31001,-0.1067114 105.01304,105.01304 0 0 0 -0.43708,-0.1474092 105.01301,105.01301 0 0 0 -0.8843,-0.2947653 105.01304,105.01304 0 0 0 -0.43707,-0.1422834 105.01301,105.01301 0 0 0 -0.88429,-0.2846168 105.01304,105.01304 0 0 0 -0.43708,-0.1372091 105.01301,105.01301 0 0 0 -0.88939,-0.2693687 105.01304,105.01304 0 0 0 -0.44214,-0.1321349 105.01301,105.01301 0 0 0 -0.35577,-0.1016379 105.01301,105.01301 0 0 0 -0.98434,-0.2579487 105.01301,105.01301 0 0 0 -1.34171,-0.3659324 105.01301,105.01301 0 0 0 -1.20449,-0.3150874 105.01304,105.01304 0 0 0 -0.13725,-0.035597 105.01301,105.01301 0 0 0 -0.90464,-0.2235979 105.01304,105.01304 0 0 0 -0.44722,-0.1067383 105.01301,105.01301 0 0 0 -0.17285,-0.040644 105.01301,105.01301 0 0 0 -1.0317,-0.2388722 105.01304,105.01304 0 0 0 -0.15248,-0.03557 105.01301,105.01301 0 0 0 -0.90462,-0.198202 105.01304,105.01304 0 0 0 -0.45233,-0.096563 105.01301,105.01301 0 0 0 -0.9097,-0.1880533 105.01304,105.01304 0 0 0 -0.11173,-0.02033 105.01304,105.01304 0 0 0 -1.25532,-0.2439461 105.01304,105.01304 0 0 0 -0.99102,-0.1829523 105.01301,105.01301 0 0 0 -0.37609,-0.066094 105.01304,105.01304 0 0 0 -0.4523,-0.076216 105.01301,105.01301 0 0 0 -0.91991,-0.1524835 105.01304,105.01304 0 0 0 -0.45231,-0.071142 105.01301,105.01301 0 0 0 -0.1068,-0.015248 105.01301,105.01301 0 0 0 -1.26547,-0.1880267 105.01301,105.01301 0 0 0 -0.92497,-0.1270603 105.01304,105.01304 0 0 0 -0.45233,-0.060993 105.01301,105.01301 0 0 0 -0.34049,-0.040644 105.01301,105.01301 0 0 0 -0.95545,-0.1169117 105.01304,105.01304 0 0 0 -1.6619,-0.1778801 z m -10.13395,83.510925 c 0.67228,-0.01068 1.37405,0.02155 2.10407,0.10167 5.258,1.103469 11.55157,3.641447 15.44483,7.338709 1.95154,1.853263 3.29686,3.970037 3.70493,6.322278 0.40807,2.35221 -0.0823,4.999138 -1.99731,8.024798 h -0.0206 v 0.0204 c -2.99339,4.991 -5.76158,8.00344 -8.29417,9.54947 -2.53259,1.54609 -4.78966,1.68423 -7.11001,0.89957 -4.60248,-1.55649 -9.35882,-7.1817 -14.347078,-13.40689 -1.833495,-4.606174 -1.551628,-9.655847 0.61495,-13.330626 1.903169,-3.228027 5.194208,-5.444802 9.900128,-5.519299 z M 92.034253,94.73755 c -0.225403,2.724184 0.176347,5.59 1.280707,8.31449 l 0.04074,0.11688 0.07634,0.0966 c 1.162903,1.45246 2.311258,2.87219 3.455887,4.23857 -7.096289,0.43845 -13.168333,-0.40944 -17.853818,-2.49028 -0.562519,-0.24988 -1.093347,-0.52385 -1.616134,-0.80808 5.261667,-1.49173 9.759722,-4.930368 13.350979,-8.878626 0.410988,-0.231298 0.841157,-0.401191 1.26548,-0.58953 z m 35.590717,7.8571 c 0.31495,0.36431 0.60608,0.75031 0.86397,1.16891 l 0.0356,0.0406 0.0407,0.0356 c 1.30565,1.56362 2.93248,2.93243 4.8281,3.78625 -0.47048,0.30062 -0.93649,0.60757 -1.43825,0.84365 -2.50908,1.18055 -5.43791,1.57344 -8.57371,1.55517 0.84504,-1.1564 1.70303,-2.41612 2.57162,-3.86249 0.77321,-1.2219 1.28247,-2.40512 1.67202,-3.56771 z" />
  </g>
</svg>
