<?xml version="1.0" encoding="UTF-8" standalone="no"?>
<svg
   xmlns:dc="http://purl.org/dc/elements/1.1/"
   xmlns:cc="http://creativecommons.org/ns#"
   xmlns:rdf="http://www.w3.org/1999/02/22-rdf-syntax-ns#"
   xmlns:svg="http://www.w3.org/2000/svg"
   xmlns="http://www.w3.org/2000/svg"
   xmlns:sodipodi="http://sodipodi.sourceforge.net/DTD/sodipodi-0.dtd"
   xmlns:inkscape="http://www.inkscape.org/namespaces/inkscape"
   inkscape:export-ydpi="12.095238"
   inkscape:export-xdpi="12.095238"
   inkscape:export-filename="musculature.png"
   width="210mm"
   height="210mm"
   viewBox="0 0 210 210"
   version="1.1"
   id="svg8"
   inkscape:version="1.0 (4035a4fb49, 2020-05-01)"
   sodipodi:docname="musculature.svg">
  <defs
     id="defs2" />
  <sodipodi:namedview
     id="base"
     pagecolor="#ffffff"
     bordercolor="#666666"
     borderopacity="1.0"
     inkscape:pageopacity="0.0"
     inkscape:pageshadow="2"
     inkscape:zoom="0.7071068"
     inkscape:cx="385.50924"
     inkscape:cy="405.57615"
     inkscape:document-units="mm"
     inkscape:current-layer="layer1"
     inkscape:document-rotation="0"
     showgrid="false"
     inkscape:window-width="1421"
     inkscape:window-height="1008"
     inkscape:window-x="483"
     inkscape:window-y="0"
     inkscape:window-maximized="0"
     inkscape:snap-global="false" />
  <metadata
     id="metadata5">
    <rdf:RDF>
      <cc:Work
         rdf:about="">
        <dc:format>image/svg+xml</dc:format>
        <dc:type
           rdf:resource="http://purl.org/dc/dcmitype/StillImage" />
        <dc:title />
      </cc:Work>
    </rdf:RDF>
  </metadata>
  <g
     inkscape:label="Layer 1"
     inkscape:groupmode="layer"
     id="layer1">
    <path
       transform="scale(0.26458333)"
       d="M 396.84961 0 C 177.71661 6.4218655e-06 6.4218656e-06 177.71661 0 396.84961 C 0 615.98261 177.7166 793.70117 396.84961 793.70117 C 615.98261 793.70117 793.70117 615.98261 793.70117 396.84961 C 793.70117 177.7166 615.98261 -3.031649e-13 396.84961 0 z M 552.68555 60.90625 C 555.73109 60.887352 558.16657 62.134766 561.44531 62.134766 C 566.26311 62.134766 571.58998 60.859509 576.04102 62.703125 C 583.73455 65.889909 590.56679 73.978678 594.13281 81.503906 C 596.43659 86.365437 598.84536 91.348254 600.13867 96.570312 C 604.58347 114.51751 615.62465 128.39273 619.16992 146.53906 C 620.09371 151.26741 621.18885 158.8877 620.44727 163.83203 C 624.99846 165.47995 625.95768 168.45723 627.66992 173.08594 C 629.15573 177.10241 627.57292 186.07489 626.39258 190.19141 C 625.00035 195.04575 620.26414 196.78855 615.80664 198.49609 C 613.25104 210.25554 602.83446 213.17032 596.77539 211.3457 C 589.78565 209.69562 583.83395 202.70234 578.78125 192.9082 C 578.51631 198.30205 568.26446 204.94544 565.9707 205.63086 C 557.19131 208.25434 552.02625 204.84546 539.66406 206.57031 C 537.68336 215.09625 534.49912 217.71151 525.92969 219.13477 C 515.58735 220.64517 500.28397 217.48951 485.86133 207.54883 C 481.6636 204.65554 482.03688 190.3892 483.09961 184.99609 C 480.57874 185.03926 477.625 183.5918 477.625 183.5918 C 477.625 183.5918 468.92524 193.2629 459.44531 197.96484 C 449.96864 202.66515 441.2489 202.86557 436.10742 205.1875 C 412.83596 205.00741 412.73673 198.14083 404.19141 192.91602 L 403.37891 192.41797 L 402.74609 193.12695 C 397.7869 198.6456 388.98087 203.50215 380.90625 208.58008 L 380.83398 208.625 L 380.77148 208.67578 C 365.9393 221.28843 342.76824 254.37985 343.79102 254.91992 C 344.81376 255.45994 368.30408 223.42029 382.71289 211.15234 C 390.35022 206.35557 398.46639 204.67043 403.89258 199.02148 C 410.72763 203.53737 412.50036 207.82097 430.66602 209.08984 C 421.45149 216.11049 413.49833 227.28614 406.80664 236.04492 C 386.96397 262.01685 368.71117 289.69368 355.41797 319.55273 C 336.67952 361.64288 328.67931 417.9343 317.83789 448.59375 C 305.8747 462.48907 309.58834 464.24178 269.75586 493.77539 L 269.68555 493.83008 L 269.61719 493.89258 C 269.61719 493.89258 260.54007 502.54448 250.47266 511.83203 C 245.43897 516.47582 244.55735 519.00937 240.04883 522.96094 C 235.54034 526.91251 218.10527 536.86504 219.10352 537.96484 C 220.10173 539.06457 236.72907 528.00891 241.26953 524.0293 C 245.80999 520.04972 248.55128 517.5033 253.5957 512.84961 C 263.65144 503.57287 272.65175 496.98022 272.71094 496.92383 C 312.05518 467.74451 312.70072 464.15113 323.89258 451.00586 C 348.05328 448.94413 380.69235 445.83782 414.43359 446.42188 C 437.14134 446.81494 464.39666 453.91811 487.10156 454.45117 C 509.67997 454.98125 532.03183 449.74869 554.55078 448.02734 C 582.35197 445.90227 618.20523 443.94329 646.00781 446.04883 C 706.41248 450.62374 721.55744 465.41337 769.44727 475.7832 C 768.17569 481.82123 766.76275 487.80569 765.20898 493.73438 C 743.43781 485.15427 703.54911 469.41881 691.85742 466.0918 C 664.72899 458.37215 639.11339 453.64222 611.07031 453.63281 L 611.07031 453.63477 C 610.16568 453.63443 609.25942 453.63893 608.34961 453.64648 C 594.11391 453.79653 574.34334 455.81827 555.56445 458.21094 C 557.34862 458.14631 559.12541 458.08542 560.89453 458.03516 C 606.85139 456.73311 647.89842 460.38733 691.33203 473.24219 L 691.38281 473.26172 L 691.42773 473.27539 C 721.00193 484.69229 732.13356 490.93288 760.37109 505.20898 C 760.8691 505.46076 761.31714 505.7179 761.78516 505.97266 C 761.54168 506.78875 761.29175 507.60224 761.04297 508.41602 C 760.45348 508.09054 759.8727 507.7641 759.23828 507.44336 C 730.98476 493.1592 720.01502 486.9942 690.55273 475.61914 C 652.8177 464.4591 616.91126 460.28255 577.87305 460.28516 L 577.87305 460.28711 C 561.25537 460.28711 544.06947 461.04694 525.93359 462.3457 C 510.70081 464.64105 499.94922 466.49414 499.94922 466.49414 C 499.94922 466.49414 502.16219 467.56425 505.33594 469.13672 C 571.20244 472.85615 619.93149 476.09647 674.45898 500.87305 L 674.50391 500.89453 L 674.55078 500.91797 C 702.15781 516.25745 713.45843 519.4272 739.54492 537.53711 C 742.57448 539.64026 745.37428 541.78518 748.20898 543.94531 C 747.87921 544.7326 747.54584 545.51815 747.21094 546.30273 C 744.23022 544.04098 741.29406 541.79391 738.11914 539.58984 C 712.23274 521.61879 701.07289 518.50608 673.42188 503.15039 C 620.93021 479.29885 573.88122 475.55793 510.96875 471.95898 L 510.96875 471.96094 C 514.17084 473.58768 517.89668 475.51728 521.86719 477.62891 C 585.64872 489.22915 633.11512 498.58669 683.5957 529.52148 L 683.63672 529.54297 L 683.67383 529.57812 C 706.6704 546.36088 717.76657 551.7374 737.05664 568.14062 C 736.67029 568.90687 736.2859 569.67424 735.89453 570.4375 C 716.47938 553.86149 705.49983 548.58651 682.28711 531.6543 C 634.19784 502.18502 588.94401 492.45938 528.9668 481.46484 C 535.49725 485.06054 542.27855 488.98104 548.33789 492.84961 C 608.77654 514.12196 634.6689 532.32768 679.64648 570.43945 L 679.68555 570.47266 L 679.72266 570.50781 C 691.16166 581.90615 703.7114 592.69494 716.58203 603.80078 C 716.1204 604.51277 715.66156 605.22685 715.19531 605.93555 C 702.32179 594.81966 689.67344 583.93477 678.0332 572.34766 C 678.02942 572.3401 678.02526 572.34167 678.02148 572.33789 C 635.46246 536.2763 610.43914 518.32673 556.68359 498.51172 C 558.2308 499.64135 559.679 500.75225 560.97461 501.82617 C 564.15448 504.46209 567.18075 507.29059 570.11328 510.23242 C 615.3927 539.29865 613.46919 543.26074 656.9375 580.09375 L 656.97656 580.12695 L 657.00977 580.16016 C 670.24693 593.35028 684.05122 611.2391 699.79883 627.64258 C 699.28314 628.31861 698.76424 628.9916 698.24414 629.66406 C 682.28122 613.08507 668.42843 595.07104 655.24414 581.93359 C 614.78071 547.63752 613.87141 542.01104 577.4707 517.99414 C 584.03162 525.20102 590.33907 532.70094 597.10938 539.56445 C 609.64791 552.27572 622.14153 563.95823 634.84766 576.50195 C 647.94606 589.43296 658.1478 605.06115 670.98047 618.25586 C 676.59945 624.03338 683.73991 631.54711 691.03125 638.70898 C 670.99586 663.05445 647.99413 684.863 622.58008 703.5918 C 617.99171 692.9309 613.08241 683.30243 604.9375 674.46094 C 599.89882 668.99136 596.95428 665.11442 589.88086 662.81836 C 579.64696 659.49642 566.9037 660.26345 556.1582 660.8125 C 532.1483 662.03918 509.32356 671.26232 485.49609 674.46094 C 461.039 677.74414 436.22413 681.23104 411.625 679.2793 C 375.50727 676.41366 338.84939 669.70303 303.62695 661.21289 C 276.23774 654.61093 249.66586 644.28935 222.52734 636.72266 C 186.96687 626.80778 148.94719 621.91776 117.74023 602.19531 C 97.558923 589.44107 79.803659 570.76483 69.5625 549.19922 C 64.918519 539.41996 63.990299 530.67796 66.732422 520.20508 C 69.824227 508.39625 75.397518 501.4333 81.267578 490.73047 C 94.597103 466.42671 102.03686 443.58116 116.96875 419.03906 C 144.85108 373.21168 184.31907 326.84245 220.51953 287.25586 C 251.2404 253.66139 290.18913 223.83245 319.60742 189.0918 C 333.43165 172.76639 342.88419 153.26158 359.57812 139.88477 C 388.17467 116.9705 426.33811 104.91115 461.78906 87.644531 C 479.18109 79.173627 497.30957 75.588857 516.00977 70.634766 C 527.8096 67.508794 539.24097 62.620283 551.33984 61 C 551.80408 60.938016 552.25049 60.908896 552.68555 60.90625 z M 384.06836 453.42969 C 364.00062 453.51359 352.12739 454.9378 331.08203 460.47266 C 322.46909 462.73784 299.97024 477.01468 283.45117 491.32227 C 286.15391 489.91001 286.77279 489.84098 289.79883 488.32422 C 303.10688 481.65388 318.35259 474.6462 327.12109 473.29102 C 354.05314 469.12862 380.95423 463.33095 408.00586 463.21484 C 417.02302 463.17629 426.05684 463.77079 435.11523 465.26562 C 466.36108 470.42192 502.17133 476.75942 527.23047 496.83789 C 544.0708 510.33111 563.66488 526.04177 578.87695 537.94531 C 579.30956 538.28396 579.69774 538.58579 580.12305 538.91797 C 570.94919 527.43641 562.67695 515.06951 551.33984 505.8418 C 529.11966 487.756 509.58597 475.5855 482.28516 466.89648 C 464.08896 461.10515 437.53863 454.53475 418.44922 454.05078 C 407.9018 453.78357 397.88362 453.47159 388.0957 453.43164 C 386.74985 453.42786 385.4062 453.42786 384.06836 453.43164 L 384.06836 453.42969 z M 408.00781 465.72266 C 381.29717 465.84965 354.53256 471.58244 327.50391 475.75977 C 319.62491 476.97749 304.16132 483.92072 290.91797 490.55859 C 283.40839 494.32255 281.10192 497.83907 276.58398 500.30469 C 270.70606 505.23066 265.17733 509.6142 260.50977 512.66602 C 260.50977 512.66602 270.70452 510.89307 278.33398 508.05469 C 287.67819 504.57835 309.4987 496.26925 323.10742 494.16602 C 341.15467 491.3768 359.54 489.89185 377.91992 489.8457 C 396.2998 489.79959 414.6748 491.19062 432.70508 494.16602 C 464.09806 499.34661 494.57145 510.64202 522.98828 524.79688 C 548.77951 537.64378 591.52276 570.26463 601.34961 577.86133 C 613.70817 580.06313 639.66602 588.14453 639.66602 588.14453 C 639.66602 588.14453 603.90558 563.20538 593.09375 553.21484 C 591.39361 551.64388 589.76278 550.00292 588.17969 548.31445 C 584.93406 545.83406 581.29315 543.01218 577.33398 539.91406 C 562.10143 527.99453 542.50754 512.27773 525.66797 498.78516 C 501.31927 479.27588 465.92955 472.88065 434.70898 467.72852 C 425.80982 466.25998 416.9114 465.68029 408.00781 465.72266 z M 377.92383 492.34375 C 359.67419 492.3891 341.41481 493.86617 323.48828 496.63672 C 314.14843 498.0802 299.76795 502.86199 289.19336 506.67969 C 294.66676 506.23797 299.50812 506.33167 302.42188 507.44531 C 304.3159 508.16917 306.1347 509.02078 307.89648 509.97266 C 315.44549 509.07604 323.17222 508.75447 330.98242 508.93555 C 359.46728 509.59579 389.02572 516.7976 414.84961 525.94141 C 445.07733 536.6445 488.47694 545.75439 518.60938 550.37305 C 550.51837 555.26398 571.48922 567.62297 586.16406 577.35352 C 589.48808 577.30703 592.9103 577.28617 596.49609 577.30469 C 582.87056 566.89084 545.11849 538.61306 521.875 527.03516 C 493.62178 512.96186 463.37233 501.76455 432.29883 496.63672 C 414.41399 493.68529 396.17347 492.29855 377.92383 492.34375 z M 327.41797 511.39844 C 322.04284 511.37576 316.72382 511.60733 311.49023 512.10547 C 315.7552 514.85179 319.69136 518.16674 323.51562 521.68945 C 352.76501 530.71512 373.58341 540.57373 404.81641 551.63281 C 434.91282 562.28942 476.25491 565.00349 505.21289 566.01758 C 543.11702 567.34499 559.51918 571.25792 572.68555 577.68164 C 575.63297 577.58413 578.62153 577.49898 581.68359 577.43359 C 567.29958 568.13902 547.55754 557.34119 518.22852 552.8457 C 487.96535 548.20705 444.53127 539.10193 414.01562 528.29688 C 387.30084 518.8377 356.57585 511.52052 327.41797 511.39844 z M 327.69141 525.62109 C 335.42496 533.07451 342.99256 540.87764 352.20508 545.98828 C 381.90015 562.46154 414.24852 575.81442 447.75781 581.31836 C 475.50117 585.87522 503.95431 579.15375 532.06836 578.91016 C 545.02715 578.7979 555.97372 578.29649 567.08984 577.88086 C 554.87736 572.79509 538.63859 569.68917 505.12695 568.51562 C 476.09814 567.49902 434.6294 564.84378 403.98242 553.99219 C 374.42565 543.52668 354.28273 534.1821 327.69141 525.62109 z M 132.07227 588.86914 C 132.07227 588.86914 171.0338 603.16448 191.59961 610.76367 C 230.30639 618.26577 286.88914 632.92753 318.09375 643.97656 C 348.07481 654.59235 399.11318 655.73387 428.12695 656.75 C 450.36452 657.5287 479.58186 655.18623 505.08789 653.71289 C 512.01164 653.31294 518.6465 652.98113 524.81836 652.79102 C 562.68798 647.70075 624.67773 642.30273 624.67773 642.30273 C 624.67773 642.30273 609.93677 640.6033 592.60352 638.375 C 558.88858 640.98714 506.58466 639.03206 463.43164 628.66406 C 434.69041 621.75868 396.16768 622.0105 363.0625 625.03125 C 327.19796 628.30383 264.28875 625.7626 229.50977 614.04883 C 224.35351 613.06604 219.21167 612.03572 214.0957 611.02734 C 191.73137 606.61921 132.07227 588.86914 132.07227 588.86914 z M 389.37695 597.2207 C 382.05359 597.22826 374.74038 597.52971 367.46094 598.18164 C 349.56903 599.78367 332.54661 606.72422 315.30078 612.20312 C 331.41952 610.64026 347.08794 608.2367 364.53711 606.64453 C 372.87127 605.88401 381.54148 605.4722 390.31055 605.39453 C 416.6178 605.16171 443.8369 607.92124 465.71484 613.17773 C 489.10162 618.79664 509.30197 623.88375 528.14258 626.96875 C 503.65619 619.59111 480.13671 608.39739 454.98438 603.80273 C 433.41556 599.86265 411.34701 597.20377 389.37695 597.2207 z M 393.60352 607.88672 C 383.78336 607.87916 374.0586 608.28702 364.76758 609.13477 C 343.07804 611.11384 323.99436 614.39818 303.23633 615.69531 C 296.62949 617.3772 289.95422 618.62603 283.15039 619.05859 C 275.50762 619.54449 267.85905 619.31075 260.2207 618.63281 C 293.9887 624.07337 336.18951 624.97438 362.83594 622.54297 C 396.10228 619.50748 434.76807 619.20782 464.01367 626.23438 C 501.54661 635.25205 546.34109 637.86707 579.33398 636.625 C 568.02605 635.09361 556.92121 633.47031 548.98242 632.03711 C 523.73968 630.16579 497.39274 623.36019 465.13281 615.60938 C 444.42115 610.63321 418.69943 607.90686 393.60352 607.88672 z M 207.21875 616.52539 C 242.00461 629.33315 277.08509 641.50654 312.85938 651.17578 C 345.34267 659.95547 377.98172 668.03288 411.625 668.64648 C 442.20104 669.20423 471.94826 661.94478 502.02344 656.4043 C 477.33129 657.87782 449.59749 660.00496 428.03906 659.25 C 399.06607 658.23542 348.02206 657.2244 317.25977 646.33203 C 290.38513 636.81613 244.17047 624.50424 207.21875 616.52539 z "
       style="fill:#000000;stroke:none;stroke-width:41.1485;stroke-linecap:round;stroke-linejoin:round"
       id="circle898" />
    <g
       id="g1854"
       transform="matrix(-1,0,0,1,763.13502,-3.6666667e-7)"
       style="fill:#ff5555" />
    <g
       style="fill:#800080"
       transform="matrix(-1,0,0,1,779.01003,0)"
       id="g1879" />
  </g>
</svg>
