<?xml version="1.0" encoding="UTF-8" standalone="no"?>
<svg
   xmlns:dc="http://purl.org/dc/elements/1.1/"
   xmlns:cc="http://creativecommons.org/ns#"
   xmlns:rdf="http://www.w3.org/1999/02/22-rdf-syntax-ns#"
   xmlns:svg="http://www.w3.org/2000/svg"
   xmlns="http://www.w3.org/2000/svg"
   xmlns:sodipodi="http://sodipodi.sourceforge.net/DTD/sodipodi-0.dtd"
   xmlns:inkscape="http://www.inkscape.org/namespaces/inkscape"
   inkscape:export-ydpi="12.0952"
   inkscape:export-xdpi="12.0952"
   inkscape:export-filename="respiratory.png"
   width="210mm"
   height="210mm"
   viewBox="0 0 210 210"
   version="1.1"
   id="svg8"
   inkscape:version="1.0 (4035a4fb49, 2020-05-01)"
   sodipodi:docname="respiratory.svg">
  <defs
     id="defs2" />
  <sodipodi:namedview
     inkscape:snap-global="false"
     id="base"
     pagecolor="#ffffff"
     bordercolor="#666666"
     borderopacity="1.0"
     inkscape:pageopacity="0.0"
     inkscape:pageshadow="2"
     inkscape:zoom="0.35"
     inkscape:cx="747.97105"
     inkscape:cy="437.53424"
     inkscape:document-units="mm"
     inkscape:current-layer="layer1"
     inkscape:document-rotation="0"
     showgrid="false"
     inkscape:window-width="1698"
     inkscape:window-height="1040"
     inkscape:window-x="182"
     inkscape:window-y="0"
     inkscape:window-maximized="0" />
  <metadata
     id="metadata5">
    <rdf:RDF>
      <cc:Work
         rdf:about="">
        <dc:format>image/svg+xml</dc:format>
        <dc:type
           rdf:resource="http://purl.org/dc/dcmitype/StillImage" />
        <dc:title></dc:title>
      </cc:Work>
    </rdf:RDF>
  </metadata>
  <g
     inkscape:label="Layer 1"
     inkscape:groupmode="layer"
     id="layer1">
    <path
       transform="scale(0.26458333)"
       d="M 380.06836 0.35546875 A 396.85039 396.85039 0 0 0 0 396.84961 A 396.85039 396.85039 0 0 0 396.84961 793.70117 A 396.85039 396.85039 0 0 0 793.70117 396.84961 A 396.85039 396.85039 0 0 0 426.99414 1.1464844 C 427.40183 59.980675 425.88032 165.36661 426.64062 234.49414 C 426.71417 241.1811 431.80378 251.5869 437.44336 257.93164 C 437.52405 277.34089 439.26312 296.91905 442.88281 316.37695 C 439.3448 315.59543 435.23909 315.10235 432.19336 313.79688 C 427.13193 311.62741 426.97176 304.11351 419.87891 305.48047 C 416.88911 306.05666 414.01825 307.63414 411.06055 307.12891 C 407.24341 306.47704 403.41433 303.82694 400.38281 306.48438 C 397.25797 309.22363 393.93376 312.90547 390.1582 315.24805 C 386.13701 317.74295 383.1222 319.10225 380.36133 320.93359 C 377.95396 303.51543 374.94381 283.0883 374.20703 267.10156 C 377.31096 257.24787 380.09353 243.32903 380.25 238.75 C 382.97118 159.09587 378.0812 53.073286 380.06836 0.35546875 z M 490.07031 79.074219 C 490.62786 79.057009 491.18794 79.05989 491.75 79.082031 L 491.74609 79.083984 C 493.03083 79.134588 494.32646 79.288144 495.63281 79.5625 C 527.82755 86.324264 553.36503 106.95893 581.85938 127.80273 C 599.01662 140.35344 619.02231 166.27144 631.50586 186.89453 C 643.16642 206.15803 655.21905 218.81004 664.87109 239.1543 C 675.20444 260.93464 676.65187 283.41186 680.6582 306.52539 C 680.64686 307.22376 680.64037 307.92787 680.63281 308.0625 C 680.5988 308.66804 680.6022 309.36381 680.62109 310.24414 C 680.65549 312.00481 680.75953 314.45638 680.86914 317.48633 C 681.08835 323.54624 681.33862 331.8751 681.17383 341.05273 C 680.84433 359.40805 678.6592 381.2161 671.75 394.25195 C 656.72075 422.60809 638.86968 464.00761 620.04102 487.58789 C 593.08354 521.34852 570.79687 544.23605 540.29688 556.01562 C 537.03091 557.277 531.49216 558.43718 526.13672 558.76562 C 524.34035 558.87561 522.56472 558.86982 520.88672 558.77344 C 519.93874 558.69067 518.99409 558.60135 518.05469 558.50195 C 515.94745 558.21074 514.15107 557.74654 512.96094 557.11914 C 508.59294 554.81688 507.12542 553.38091 506.29688 551.49609 C 505.46844 549.61124 505.259 546.50497 504.86914 541.25781 C 504.29461 533.52497 509.47403 525.84539 515.82617 517.66797 C 522.17823 509.49055 529.5801 501.04039 531.27344 490.80664 C 535.21356 466.99433 535.98464 446.65394 523.20508 425.37891 C 516.99286 415.03687 503.86828 400.41416 489.86914 384.31836 C 477.83388 370.48066 465.20209 355.64827 456.04297 342.25 C 454.37661 335.18723 451.97826 327.47537 449.98438 321.48047 L 450.00781 321.47461 C 445.55247 299.99804 444.09421 278.31125 443.45312 257.10938 L 443.41992 257.10938 C 442.70933 243.65306 439.86829 217.17093 441.36914 197.54492 C 441.84706 191.29587 445.56433 181.69857 446.83984 174.71094 C 451.21132 163.98538 456.84109 151.18297 460.48047 143.70703 C 462.97152 138.59031 466.64832 132.08251 468.64062 119.76367 C 468.81055 118.72505 468.55759 118.04825 468.0918 117.97852 C 467.57582 117.90879 467.18615 118.62045 467.04102 119.50391 C 465.15299 131.17812 460.87585 137.28735 458.16797 142.84961 C 455.38998 148.55603 451.40108 157.18127 447.65039 165.7168 C 448.4662 149.80793 447.73485 131.11113 452.22266 116.74414 C 455.45865 106.38493 458.2645 95.787237 466.89648 89.208984 C 473.86422 83.898995 481.70705 79.332358 490.07031 79.074219 z M 310.58789 79.875 L 310.5918 79.876953 C 328.37119 79.926185 338.96126 87.296509 349.75 100.86914 C 362.45548 116.85312 355.98695 161.36918 354.57812 192.04297 C 351.2809 186.78912 347.92476 180.99932 346.50195 177.04883 C 344.6729 171.97062 342.54297 160.01562 342.54297 160.01562 C 342.36636 159.12374 342.36481 158.12666 341.84961 158.17969 C 341.33454 158.33933 341.30596 159.16316 341.51172 160.19336 C 341.51172 160.19336 342.51777 171.96583 344.60938 177.77344 C 346.58688 183.2637 350.89475 191.33784 354.38086 197.52539 C 354.37784 197.59713 354.37275 197.67654 354.37109 197.74805 C 362.90558 216.32399 366.26913 239.03865 368.16211 266.47852 L 368.14648 266.47852 C 368.74913 286.20842 373.23146 312.27912 375.69141 331.29297 L 375.79492 331.2793 C 377.31526 344.27898 377.99081 357.59269 377.88672 370.60156 C 377.8502 375.1678 378.34996 378.14044 376.14844 381.98438 C 375.61612 382.22162 375.06114 382.45852 374.46484 382.68945 C 371.07632 384.00163 366.70357 385.30247 361.875 386.42578 C 352.21774 388.67245 340.71816 390.22106 331.39453 390.12695 C 314.89398 389.96001 295.64128 396.03131 280.66016 396.34766 C 247.58033 397.04615 213.54608 396.70459 182.76758 386.27344 C 174.07812 383.32839 166.52061 379.0144 159.83594 373.12305 C 154.06513 368.03716 146.34681 359.79866 133.98047 352.41992 C 127.50673 348.55717 124.11566 345.32811 122.16992 342.76562 C 120.35383 340.37371 118.19906 335.52959 117.24805 333.23047 C 118.65933 323.25526 124.51035 309.37079 129.05469 297.64062 C 142.14388 263.85387 162.31278 233.77912 178.90234 201.56641 C 188.67229 182.59568 197.79933 159.52496 211.86523 143.47852 C 237.31813 114.44188 270.33532 81.781693 306.93555 79.964844 C 308.18696 79.902671 309.40254 79.871693 310.58789 79.875 z M 687.23633 335.32617 C 692.24103 354.52046 699.43276 381.04777 702.86328 395.32422 C 712.07342 433.65271 717.93439 454.05284 720.14844 493.41016 C 722.01401 526.57438 725.29092 570.90603 715.12305 601.54492 C 713.10429 607.62811 708.97195 611.36766 700.65234 614.20703 C 699.28536 614.6738 697.89859 614.88981 696.49805 614.92383 C 694.10493 613.04846 683.15934 604.51654 671.85742 596.55273 C 659.15409 587.60138 644.30438 577.76913 634.27344 573.91602 C 616.02259 566.90545 595.38168 561.59485 575.25781 560.33789 C 565.61877 559.73589 556.28724 559.70639 547.24805 559.65234 C 576.83056 546.80301 598.97725 523.60934 624.74414 491.33984 C 644.54108 466.54682 662.2576 425.01046 677.06836 397.06641 C 684.98881 382.12249 686.85541 359.87054 687.19141 341.16211 C 687.22882 339.16191 687.23501 337.22947 687.23633 335.32617 z M 115.40234 343.34961 C 115.92819 344.30811 116.56299 345.33043 117.37695 346.40234 C 119.88912 349.71083 123.94466 353.44107 130.89453 357.58789 C 142.51694 364.52276 149.69339 372.20064 155.85938 377.63477 C 163.14311 384.05404 171.45852 388.79125 180.83984 391.9707 C 212.85113 402.81969 247.58788 403.0586 280.79102 402.35742 C 297.21188 402.01069 316.42128 395.98982 331.32812 396.14062 C 341.35587 396.24203 353.15549 394.62656 363.23633 392.28125 C 368.18532 391.12993 372.69731 389.80211 376.42188 388.375 C 377.16866 389.14784 377.62395 390.21869 377.48438 391.90625 C 374.5628 427.21135 369.59269 480.50402 359.49609 501.74609 C 354.25734 506.96241 347.85281 513.17982 343.60742 516.70703 C 320.0272 536.29814 282.90369 548.24406 253.89258 561.48242 C 236.58865 569.37854 224.84639 576.76651 206.80273 578.5625 C 202.27115 579.01355 198.16302 579.73385 194.79883 579.60156 C 191.43464 579.4692 188.97818 578.7274 186.58008 576.11133 C 172.70829 560.97904 156.87585 535.5415 148.51367 513.67969 C 141.35435 494.96222 131.25222 463.4895 114.60547 411.88281 C 112.28693 404.69502 111.39362 391.12417 111.25586 379.65039 C 111.14448 370.32054 111.20805 363.66173 111.23828 360.98828 C 111.28129 360.97694 111.32448 360.96068 111.36719 360.95312 C 110.90794 355.09482 112.69853 347.34427 115.40234 343.34961 z M 458.17383 355.47656 C 466.43682 366.38606 476.08611 377.62856 485.33594 388.26367 C 499.36437 404.39315 512.50206 419.23722 518.05078 428.47461 C 529.91971 448.23375 529.20819 466.41061 525.33398 489.82422 C 524.03443 497.67808 517.5389 505.66425 511.08203 513.97656 C 504.62512 522.28884 498.08914 531.15085 498.87305 541.70117 C 499.25531 546.84685 499.27522 550.46315 500.79297 553.91602 C 501.28336 555.03169 501.94676 556.04125 502.75781 556.99414 C 501.59674 557.00397 500.44206 557.04922 499.29297 557.13086 L 499.29102 557.13086 C 487.28497 557.98685 476.03628 562.68483 467.44727 568.86719 C 461.05125 573.47107 457.49745 579.95676 455.67969 585.3125 C 455.67213 585.33593 455.66381 585.35818 455.65625 585.38086 C 450.52354 576.50165 451.00155 562.30624 450.61328 552.30273 C 449.73806 529.75097 455.54557 507.67143 453.83008 485.16797 C 452.91059 473.11056 452.46145 461.67869 452.82617 449.5918 C 453.23013 436.19829 457.25753 424.12743 458.6543 410.80078 C 460.757 390.73999 460.05645 374.87132 458.17383 355.47656 z M 105.21289 375.91602 C 105.22196 377.19686 105.22512 378.37868 105.24023 379.72461 C 105.38072 391.41257 106.05693 404.98602 108.87891 413.73438 C 125.48336 465.20988 135.4935 496.47468 142.89844 515.83398 C 151.03032 537.09383 165.48864 560.89243 179.24805 576.90625 C 177.05717 579.12668 174.62461 581.32343 172.85547 582.39258 C 161.82702 589.05751 146.53367 589.59709 132.89844 595.26562 C 121.78564 599.88557 112.41691 608.42577 102.57617 611.05273 C 99.504614 611.87293 94.259457 611.77152 89.980469 611.31836 C 87.38049 611.04298 85.462259 610.72929 84.095703 610.48438 C 84.075256 610.45149 84.054368 610.42269 84.033203 610.38867 C 79.773736 603.4272 82.117799 588.74486 81.820312 578.0293 C 81.284115 558.71149 80.11654 539.45509 80.816406 520.14258 C 81.691741 495.98762 91.097113 462.42594 95.248047 431.92383 C 98.320689 409.34523 101.91536 388.99357 105.21289 375.91602 z M 352.80469 516.58594 C 352.49602 521.08331 351.42783 525.18435 349.94922 533.00586 C 347.86173 544.04756 350.86823 560.23553 349.37695 573.02734 C 346.50528 571.635 341.14215 569.15527 337.19141 568.12891 C 321.56841 564.07022 295.2423 564.2332 279.96289 563.76953 C 274.23273 563.59567 267.87031 563.96462 261.80859 564.53711 C 289.49056 552.4526 323.9969 540.82922 347.45703 521.33789 C 349.03864 520.02386 350.88921 518.35419 352.80469 516.58594 z M 502.39453 563.02539 C 505.09636 562.97354 507.81612 563.14818 510.52344 563.58203 C 512.17396 563.84656 513.8343 564.06651 515.49805 564.26758 C 517.39854 564.64976 519.41745 564.82782 521.48633 564.87695 C 538.61095 566.27972 556.41654 565.18847 574.88086 566.3418 C 594.20396 567.54871 614.33276 572.70127 632.11328 579.53125 C 640.72641 582.83974 655.81667 592.61058 668.39062 601.4707 C 672.96782 604.69604 676.99402 607.63887 680.57422 610.28711 C 676.79273 608.66063 673.0103 607.10286 669.29688 606.56836 C 650.7211 603.89483 633.36264 601.86441 614.62695 602.95117 C 584.88751 604.67619 556.12278 610.88129 525.58594 608.98242 C 501.6582 607.4945 476.34687 607.77504 460.33789 591.27344 C 460.54085 590.12238 460.86823 588.74502 461.37695 587.24609 C 462.89776 582.76527 465.90132 577.39191 470.96094 573.75 C 479.33372 567.72328 490.68676 563.24989 502.39453 563.02539 z M 277.51367 569.74609 C 278.28225 569.75101 279.03864 569.76248 279.7793 569.78516 C 295.27805 570.25548 321.75913 570.33363 335.68359 573.95117 C 339.28161 574.886 346.81843 578.49315 348.19922 579.16016 C 347.80455 580.53284 347.32108 581.83512 346.73242 583.05273 C 341.44599 593.98691 331.22875 608.10054 324.2207 608.98242 C 314.79861 610.16806 299.17912 609.10624 284.22266 609.78516 C 257.13404 611.01483 229.59431 616.78209 202.41797 617.625 C 169.23493 618.65424 142.3802 617.37533 106.34375 618.22852 C 102.23839 618.32569 98.382401 618.36307 94.933594 617.70312 C 98.056803 617.79962 101.26825 617.63227 104.12695 616.86914 C 116.02361 613.69332 125.54703 604.84099 135.20898 600.82422 C 147.38576 595.762 163.07508 595.33444 175.9707 587.54102 C 178.53976 585.98846 181.09223 583.65627 183.34375 581.35352 C 186.67981 584.32812 190.69872 585.46134 194.55859 585.61328 C 198.89242 585.78385 203.18631 584.96847 207.40234 584.54883 C 221.72821 583.12289 232.37534 578.4169 243.7793 572.94531 C 251.62438 571.65993 265.985 569.69053 277.51367 569.74609 z "
       style="fill:#000000;stroke-width:5.17912;stroke-linecap:round;stroke-linejoin:round"
       id="path844" />
  </g>
</svg>
