<?xml version="1.0" encoding="UTF-8" standalone="no"?>
<svg
   xmlns:dc="http://purl.org/dc/elements/1.1/"
   xmlns:cc="http://creativecommons.org/ns#"
   xmlns:rdf="http://www.w3.org/1999/02/22-rdf-syntax-ns#"
   xmlns:svg="http://www.w3.org/2000/svg"
   xmlns="http://www.w3.org/2000/svg"
   xmlns:sodipodi="http://sodipodi.sourceforge.net/DTD/sodipodi-0.dtd"
   xmlns:inkscape="http://www.inkscape.org/namespaces/inkscape"
   width="210mm"
   height="210mm"
   viewBox="0 0 210 210"
   version="1.1"
   id="svg8"
   inkscape:version="1.0 (4035a4fb49, 2020-05-01)"
   sodipodi:docname="nervous_system.svg"
   inkscape:export-filename="nervous_system.png"
   inkscape:export-xdpi="12.095238"
   inkscape:export-ydpi="12.095238">
  <defs
     id="defs2" />
  <sodipodi:namedview
     inkscape:snap-global="false"
     id="base"
     pagecolor="#ffffff"
     bordercolor="#666666"
     borderopacity="1.0"
     inkscape:pageopacity="0.0"
     inkscape:pageshadow="2"
     inkscape:zoom="0.45254834"
     inkscape:cx="541.79925"
     inkscape:cy="538.67171"
     inkscape:document-units="mm"
     inkscape:current-layer="layer1"
     inkscape:document-rotation="0"
     showgrid="false"
     inkscape:window-width="1694"
     inkscape:window-height="1040"
     inkscape:window-x="186"
     inkscape:window-y="0"
     inkscape:window-maximized="0" />
  <metadata
     id="metadata5">
    <rdf:RDF>
      <cc:Work
         rdf:about="">
        <dc:format>image/svg+xml</dc:format>
        <dc:type
           rdf:resource="http://purl.org/dc/dcmitype/StillImage" />
        <dc:title />
      </cc:Work>
    </rdf:RDF>
  </metadata>
  <g
     inkscape:label="Layer 1"
     inkscape:groupmode="layer"
     id="layer1">
    <rect
       y="-9.939086"
       x="-8.7697811"
       height="236.19943"
       width="236.19943"
       id="rect831"
       style="fill:#ffffff;stroke-width:0.165;stroke-linejoin:round;paint-order:markers stroke fill" />
    <path
       id="path844"
       style="fill:#000000;stroke-width:1.37031;stroke-linecap:round;stroke-linejoin:round"
       d="m 105.00031,0 c 57.97894,1.6991186e-6 104.99979,47.020852 104.99979,104.99979 0,57.97894 -47.02085,105.00031 -104.99979,105.00031 C 47.021368,210.0001 0,162.97873 0,104.99979 0,47.02085 47.021368,0 105.00031,0 Z m 4.99556,24.720971 c -3.37448,-0.02234 -6.18003,0.529567 -7.43521,2.076875 -5.946787,-1.787724 -11.843294,-1.854382 -17.608223,0.765329 -4.523312,0.233735 -8.465304,-0.622395 -13.780556,1.275892 -3.64327,0.762468 -6.528083,2.62613 -8.995833,4.147034 -3.898609,1.719263 -8.091617,3.467764 -11.611176,5.869408 -5.361662,2.449894 -11.358168,4.771605 -13.848768,10.396265 -3.31385,2.094884 -7.586411,4.706485 -9.633521,11.037567 -3.089939,2.040427 -8.332105,10.46181 -7.47913,14.748973 -1.356665,2.090412 -2.011725,3.567668 -1.722374,6.443533 -2.432421,5.806059 -3.638849,12.930021 -3.044259,16.140099 0.81458,4.397784 2.790989,4.764754 3.670059,5.561934 0.448101,8.37663 7.039716,8.91367 12.325347,12.17549 1.509636,0.93678 5.128863,0.67958 8.066175,0.36121 0.362199,-0.0653 1.014661,-0.23135 3.663341,0.26769 5.864265,1.99721 6.115317,1.79415 8.8191,2.00349 1.765268,-0.0939 3.751522,0.16237 7.12308,-0.43253 3.371557,-0.59489 6.392545,-1.30828 9.310026,-2.49804 3.349279,-1.11568 1.369306,-1.39831 -0.6966,-2.51457 -1.643168,-0.89349 -3.065576,-1.91772 -4.266922,-2.92385 -0.969973,-1.12698 -2.149666,-1.43861 -3.39204,-1.71153 -2.267305,-0.49731 -5.310757,-1.12096 -5.439463,-1.75906 0.15158,-0.65966 3.260233,0.28386 4.314983,0.3886 1.20659,0.12401 2.391524,0.35124 3.552754,0.55294 l 0.205155,0.0372 0.150379,0.14469 c 1.50042,1.44069 4.053461,3.1098 6.905006,4.41162 2.659499,1.15798 2.692876,1.54066 4.857067,-0.20051 1.427469,-1.15358 2.732503,-2.52356 3.846277,-4.16253 0.93127,-1.03447 0.653052,-1.84607 0.444934,-3.11299 -0.814078,-4.911898 -2.871653,-8.58822 -7.699788,-13.722677 -0.25786,-0.275042 -2.047055,-2.304338 -1.771986,-2.562119 0.3605,-0.258498 2.248427,1.118386 2.768306,1.626259 4.857533,5.165725 7.330843,9.154165 8.305438,14.147457 0.451337,2.16313 -0.254606,2.31818 1.798338,2.95951 4.755708,1.48477 8.31242,2.35413 14.13609,1.09812 1.528267,-0.3296 3.355665,-1.31334 4.863784,-2.37866 1.13444,-0.80136 2.11293,-1.69037 2.64842,-2.27118 0.35673,-0.34954 0.38352,-0.44598 0.0992,-0.77101 -1.21462,-1.42329 -2.68733,-3.777881 -2.48874,-3.892274 0.12777,-0.09448 1.23369,1.937634 2.57349,3.240114 0.56665,0.69113 1.22943,0.66421 1.98437,0.65474 1.91081,-0.0267 4.35309,-0.27041 5.98,-1.28416 l 0.0372,-0.0238 0.0388,-0.0176 c 1.24199,-0.57019 1.90469,-1.268067 2.37919,-2.085664 0.47449,-0.817597 0.62099,-1.250481 0.94361,-2.280996 0.15218,-0.615334 -0.46374,-1.251263 -0.73536,-1.667082 -1.24384,-1.90423 -2.16128,-4.363011 -2.0469,-4.421952 0.27402,-0.03011 1.3623,3.415035 3.93981,5.201748 2.73721,1.886564 4.83778,1.849228 7.13858,1.148768 2.29475,-0.698616 4.72564,-2.158439 7.69566,-3.098001 l 0.003,-10e-4 c 5.50135,-1.951945 6.10683,-2.251048 9.82886,-5.015198 0.34726,-0.22693 2.76262,-2.454862 3.15278,-2.393651 0.0126,0.0019 0.0233,0.006 0.0315,0.01292 0.22455,0.303062 -2.36065,2.813791 -2.66392,3.038057 -3.62936,2.695329 -4.24188,3.099887 -7.91838,4.805907 l -1.05265,0.552421 c -1.0989,0.516671 -1.04568,1.028637 -0.25477,3.576011 -0.0745,0.632925 -1.65549,-1.362803 -3.22874,-1.847435 -0.58797,-0.181121 -1.48894,0.231069 -1.93632,0.390676 -1.12333,0.400764 -2.16014,0.949505 -3.25768,1.283642 -2.1479,0.653909 -4.45067,0.677344 -6.94324,-0.585494 -0.61975,-0.422717 -0.67863,-0.190659 -0.8444,0.313677 -0.15699,0.479835 -0.39662,1.197594 -0.67179,1.67173 -0.58682,1.011146 -1.50589,1.944926 -2.95486,2.619476 -2.09233,1.28458 -4.77926,1.46996 -6.77891,1.46502 -0.94794,-0.17946 -1.27423,0.53735 -1.81746,1.07436 -0.55236,0.5433 -1.24571,1.12392 -2.0929,1.72237 -0.4587,0.32402 -0.92512,0.67527 -1.44435,0.94206 -1.878054,0.96497 0.29664,4.15306 0.15451,4.22714 -0.519592,0.27083 -1.815116,-3.08539 -2.069124,-3.1409 -0.383141,-0.0837 -1.636771,0.49016 -2.004531,0.56948 -5.74488,1.23902 -9.578509,0.44411 -14.076659,-0.92088 -2.043811,-0.74827 -2.726592,-0.54462 -3.816821,1.02682 -3.87055,5.00549 -9.483883,7.4604 -14.830102,8.81186 -1.883756,0.4762 -4.822693,0.83958 -5.850805,2.88509 -1.113547,3.72809 0.147434,6.6496 3.040639,7.05487 0.46436,5.56853 1.809671,8.24755 6.43165,9.56531 3.82432,2.52173 9.155028,3.76995 13.699937,4.34289 3.622252,0.45663 5.960976,-0.0475 9.32088,-0.88057 1.022037,-0.88997 2.180714,-0.37725 3.672128,-0.078 5.118595,0.11865 8.481878,-0.54563 11.016898,-1.68517 2.20502,-1.08721 2.04648,-0.82445 0.15916,-1.7601 -1.16977,-0.58115 -2.399,-1.26359 -3.01015,-2.14406 -0.95616,-1.87839 -0.72708,-1.9976 -0.56792,-1.95388 0.15029,0.0413 0.2791,0.92507 1.01441,1.5198 0.66965,0.96477 3.92117,2.09229 6.67969,2.06964 1.9419,-0.0159 4.69743,-1.62865 5.69526,-1.76165 0.0109,-0.0144 0.0242,-0.0288 0.0341,-0.0434 0.20581,0.0154 0.40443,0.0513 0.60151,0.0935 0.0255,0.001 0.0506,2e-5 0.0765,0.004 3.01115,0.41572 7.7125,-0.22088 11.07219,-2.95848 l 0.48111,-0.39119 0.59273,0.18552 c 0.0278,0.009 0.99506,0.1292 2.1456,0.0956 1.15055,-0.0335 2.60269,-0.15466 4.11707,-0.37827 3.02875,-0.44721 6.33674,-1.37944 7.92768,-2.56212 l 0.5209,-0.38757 0.59996,0.2434 c 1.16371,0.47121 4.20789,1.24525 7.34012,1.36942 3.13223,0.12417 6.34262,-0.41697 8.20363,-2.06499 l 0.56224,-0.49713 0.6811,0.31161 c 1.10555,0.50442 3.53481,0.71713 5.92935,0.64854 1.94223,-0.0556 3.8595,-0.24724 5.25911,-0.41082 0.0369,-0.0252 0.0728,-0.049 0.11059,-0.076 3.31389,-0.17874 6.49576,-2.32776 9.92446,-4.29069 2.13298,-1.82943 3.28721,-3.15937 4.12326,-4.69378 0.34052,-0.98141 0.54,-2.01016 0.65422,-3.02823 0.12292,-0.16696 0.26905,-0.37421 0.43719,-0.52865 2.16714,-2.90388 3.3658,-6.1972 2.79208,-9.86865 -0.10897,-0.41871 -0.34775,-0.69386 -0.55139,-0.82941 0.1224,-0.22712 0.18061,-0.76397 0.25321,-0.85059 0.0887,-0.13091 0.14192,-0.23993 0.20722,-0.37879 1.91106,-1.94812 1.79384,-7.386058 1.10226,-8.165904 2.93597,-2.373281 0.28342,-15.132725 -4.34754,-16.71836 -0.88031,-6.109721 -3.36301,-11.795254 -8.70644,-14.576887 -1.6795,-4.462087 -2.85693,-8.059764 -9.22424,-11.382254 -1.77151,-0.563938 -2.2379,-0.544218 -2.78381,-2.938838 -1.1234,-2.465078 -2.30045,-4.914717 -5.86321,-6.802683 -2.98195,-2.382084 -4.14218,-4.684612 -11.58586,-6.504514 -1.12727,-2.531311 -7.31262,-5.843617 -12.18478,-7.113778 -1.40447,-0.247793 -2.48694,-0.119555 -2.60398,0.08733 -0.63488,0.09128 -0.99586,0.04695 -1.96319,-0.686263 0.3266,-0.511218 -12.01279,-4.316293 -20.63646,-4.373377 z m 4.27777,3.327963 0.0465,0.0021 c 5.66973,0.207225 11.19985,1.126707 17.1018,4.191476 5.91816,0.07003 10.38794,2.469926 14.13609,5.802747 0.735,0.833461 1.61879,1.28443 2.54351,1.687753 2.23495,0.975199 5.90919,2.639941 9.25163,6.144326 1.598,0.813774 3.80492,2.9688 4.13257,4.341336 0.37331,0.11797 2.58395,1.440477 2.36264,1.685171 -0.19474,0.295802 -0.8963,-0.799563 -3.28662,-1.407668 -1.03097,-2.452772 -2.51677,-2.675128 -3.87418,-3.638536 l -0.0548,-0.03927 -0.047,-0.04857 c -3.09672,-3.289491 -6.512,-4.73506 -8.86458,-5.722649 -1.46282,-0.657389 -2.12773,-0.776166 -3.55534,-0.846976 -2.14239,-0.108726 -4.2358,-0.449437 -6.28075,-0.563274 -2.71003,-0.150861 -5.3043,0.07298 -7.92975,1.65623 l -0.29145,0.173633 -0.31419,-0.122989 c -1.39016,-0.550714 -2.94874,-1.246775 -4.72065,-1.398365 -1.20092,-0.102743 -2.51878,0.08551 -3.97546,0.732772 -0.93012,0.545761 -1.4166,1.038394 -0.8661,2.9993 0.72709,2.62645 0.35336,4.996614 -0.0863,7.021793 -0.29459,1.356948 -0.58015,2.579791 -0.58188,3.658174 -0.001,0.763204 0.11899,1.447885 0.47853,2.122869 0.56953,0.98825 0.50169,0.799616 1.12293,0.129706 0.70572,-0.756335 1.59076,-1.291531 1.69756,-1.212844 0.12009,0.172648 -1.50951,0.815803 -2.18591,2.72593 -0.0462,0.07332 -0.18417,0.420632 -0.2868,0.851628 -0.10263,0.430998 -0.19439,0.96212 -0.25632,1.503786 -0.12385,1.083331 -0.096,2.272345 0.0196,2.652551 l 0.12299,0.402042 -0.30437,0.290939 c -2.43478,2.322486 -2.86694,4.564581 -2.66031,6.12934 0.65423,4.954203 0.92821,4.540202 2.26343,7.382496 l 0.1018,0.214974 -0.0548,0.230476 c -0.66263,2.810039 -1.0375,5.002456 -0.75861,6.817672 0.0572,0.371973 0.80547,2.18158 0.56275,2.23914 -0.37203,0.05673 -1.21387,-1.699916 -1.28933,-2.068608 -0.23834,-1.164547 -0.51582,-2.450108 -0.38653,-3.904154 0.68231,-2.936127 0.17127,-3.497435 -0.82321,-6.003767 -0.23646,-0.601067 -0.45406,-1.259607 -0.79737,-2.361615 -0.10745,-0.344911 -0.66841,-5.346594 1.48829,-7.880138 0.75591,-0.898218 1.04117,-1.597171 1.09295,-3.387389 0.01,-0.295254 0.0316,-0.598868 0.0672,-0.910024 0.0673,-0.589065 0.16459,-1.163751 0.2837,-1.66398 0.22914,-0.978286 -0.14032,-1.413251 -0.45836,-2.197283 -0.27675,-0.691957 -0.40628,-1.400278 -0.40515,-2.105813 0.002,-1.309317 0.32518,-2.607826 0.61547,-3.94498 0.58058,-2.674305 1.05324,-5.425316 -0.84801,-8.803079 -1.76525,-3.136133 -2.99267,-3.260518 -2.90267,-3.387391 0.20517,-0.236422 1.17949,0.272843 2.29082,1.282094 0.88506,0.887282 1.6181,0.802716 2.38228,0.371551 2.02303,-1.16093 3.73944,-1.434322 5.45238,-1.287774 0.93254,0.07978 1.78949,0.283551 2.57297,0.531749 1.49411,0.700304 2.59973,0.465002 4.94337,-0.256831 1.92222,-0.583695 3.91413,-1.015754 5.70043,-0.587045 1.31795,0.316307 2.69438,0.488471 4.07106,0.568442 2.25309,0.128325 2.66958,0.07915 0.54984,-1.476396 -3.13474,-2.291176 -6.74466,-3.766204 -11.35124,-3.779616 h -0.1664 l -0.14831,-0.07803 c -5.72809,-3.002216 -11.02775,-3.883278 -16.61346,-4.090188 -3.39655,0.342585 -6.53066,0.248777 -9.56686,2.66237 -1.07174,1.256673 -0.87087,2.21797 -0.81752,3.232359 l -0.7152,-0.06666 c -2.00646,-0.188322 -3.433473,0.31024 -4.421436,1.132747 -0.977648,0.813925 -1.532466,1.977367 -1.683617,3.215307 0.04828,3.381751 1.597853,5.884156 2.971913,7.303947 0.58735,0.60701 0.93895,1.022046 1.36167,0.194305 0.0457,-0.08834 0.0934,-0.168434 0.14935,-0.223761 0.29897,-0.295389 0.70933,-0.88615 0.85524,-0.64647 0.10495,0.180208 -0.3185,0.633 -0.44545,0.995286 -0.15748,0.449416 -0.27566,0.938665 -0.33434,1.440741 -0.45628,3.903842 -0.0529,6.261288 0.25683,9.082132 l 0.0253,0.232027 -0.12299,0.199472 c -1.51058,2.454926 -2.669748,5.162722 -3.702618,9.187034 -0.281141,1.095375 -0.662151,3.622056 -0.30799,4.385781 1.803479,3.747495 3.481638,5.881754 4.425568,13.240017 0.0478,0.374409 0.067,4.023953 -0.30747,4.07107 -0.37373,0.04789 -0.89655,-2.981127 -1.048,-3.897437 -0.933871,-7.279844 -3.102354,-10.884799 -4.923732,-13.831713 -0.618152,-0.740378 -1.125136,-1.390258 -1.820045,-1.894459 -1.082008,-0.785058 -2.254753,-1.243417 -2.203482,-1.343586 0.0868,-0.09972 1.353317,0.362233 2.783808,1.297078 1.175126,0.938667 1.303949,0.862872 1.605587,-0.63717 0.886275,-4.219831 1.530853,-6.341009 2.732133,-8.597408 0.81118,-1.545489 0.694544,-2.266912 0.653708,-3.525366 -0.05294,-1.702774 0.03082,-3.541329 0.220658,-5.659086 0.147405,-1.383201 -0.184314,-2.05242 -0.903304,-3.016871 -1.459216,-1.960764 -3.262238,-4.737629 -3.295406,-8.389152 v -0.04289 l 0.0057,-0.04083 c 0.179292,-1.559549 0.892966,-3.076982 2.177645,-4.146515 0.8748,-0.728295 2.045158,-1.175816 3.4215,-1.329635 1.10119,-0.0048 1.42086,-0.144166 1.18701,-0.827857 -0.15556,-0.565171 -0.81275,-0.776557 -1.26091,-1.000456 -3.368097,-1.676029 -7.052611,-1.910564 -11.320239,-0.320392 l -0.122989,0.04651 -0.130741,-0.0036 C 85.220322,31.797535 81.87152,30.739823 77.666058,33.21296 l -0.181383,0.105418 -0.211357,-0.01344 c -3.840609,-0.255178 -5.611833,1.610881 -7.349423,3.351217 -1.099842,1.075521 -2.392133,3.215172 -2.495971,3.153812 -0.0722,-0.03161 0.331393,-1.162134 0.881084,-2.161624 0.577985,-0.968875 0.125947,-1.175856 -0.761712,-1.425236 -1.652603,-0.459055 -3.272084,-0.263528 -4.875154,-0.06408 -2.42324,0.30149 -5.877825,1.946587 -8.527645,4.763019 l -0.185518,0.195336 -0.269235,0.01757 c -5.095989,0.318981 -7.499585,2.809163 -9.121407,4.232301 -0.283189,0.24852 -3.08941,3.472852 -3.666958,4.030244 -0.248521,-0.283194 2.885617,-4.514992 3.168798,-4.763534 1.50419,-1.320184 4.140515,-4.222067 9.474874,-4.649327 2.94359,-3.017377 6.795225,-4.732102 9.030457,-5.023467 1.93009,-0.251589 3.87812,-0.356063 5.785175,0.178801 0.892011,0.440719 1.1684,0.01791 1.781805,-0.536919 1.580806,-1.425948 3.68749,-2.79572 7.011974,-2.643765 4.519171,-2.567971 8.322778,-1.536366 12.486061,-1.434023 4.32821,-1.565828 8.283646,-1.342858 11.824087,0.286806 2.03369,1.060114 1.40332,0.963075 3.08301,-0.203605 3.21505,-2.220272 6.58565,-2.239034 9.679,-2.555917 z m -39.46477,9.68158 c 0.216019,-2.64e-4 0.480576,0.564642 0.572574,0.827855 h 5.16e-4 c 0.0674,0.193937 0.617681,0.73366 1.287262,1.482079 0.669589,0.748419 1.515644,1.286182 1.628322,2.293401 0.0889,0.795086 0.341387,1.332023 0.513149,1.703255 0.0943,0.203922 0.216387,0.384746 0.423746,0.569476 0.525291,0.442571 0.733039,0.537403 1.130681,0.04082 0.297839,-0.37253 0.645438,-0.828791 0.766876,-0.711583 -0.0343,0.127492 -0.903226,1.2755 -0.837157,1.86862 -0.378971,2.116436 -0.377002,2.784123 0.182417,4.652946 0.670232,2.238978 2.206657,3.266768 3.863848,4.261755 0.39629,0.227565 0.806291,-0.34294 0.95963,0.0041 0.117211,0.394279 -0.416303,0.194418 -0.872815,1.267108 -1.901738,4.185817 -2.813645,7.558762 -3.515545,12.067997 l -0.01395,0.08837 -0.03514,0.0801 c -1.902899,4.384437 -0.972923,9.383818 0.437698,12.5212 0.03696,0.08235 0.05463,0.168241 0.05788,0.253214 0.651788,1.132187 1.552183,2.083128 3.129523,2.742986 l 0.47284,0.197405 -0.05891,0.507461 c -0.17539,1.55571 0.549878,4.433445 1.412317,6.890535 0.431231,1.228545 0.889412,2.367532 1.259871,3.230812 0.18523,0.431641 0.34756,0.795345 0.47439,1.064535 0.126831,0.269189 0.240842,0.474432 0.234612,0.464571 0.767551,1.561137 1.82304,3.20688 1.504301,3.408061 -0.318251,0.20152 -1.963634,-1.299623 -2.658753,-2.677356 -0.0996,-0.157607 -0.17925,-0.3259 -0.314708,-0.613399 C 86.678894,95.929336 86.508979,95.553879 86.318251,95.109411 85.93678,94.220477 85.471098,93.05699 85.027373,91.792817 84.501894,90.295725 84.026462,88.69708 83.772668,87.2055 83.486363,84.765452 83.510704,84.942476 82.208423,83.91733 81.609737,83.463633 81.116188,82.952476 80.709291,82.40631 80.115293,81.221011 78.679405,81.15763 77.592168,80.891674 73.851169,79.979441 70.161028,79.411621 66.550982,79.4375 h -0.0062 -0.0078 c -2.5521,-0.03334 -4.127469,0.524655 -5.238438,1.373042 -1.110292,0.847863 -1.791938,2.036217 -2.394688,3.388423 -2.65e-4,7.94e-4 -0.0021,0.001 -0.0021,0.0021 -1.689899,4.000484 -0.984234,8.065645 -0.468704,10.970908 l 0.129191,0.724503 -0.732256,0.07441 c -1.800259,0.183756 -3.705351,0.65097 -5.728332,1.914612 -0.319191,0.199383 -1.359781,1.497145 -1.482079,1.307413 -0.200451,-0.164741 0.77747,-1.762094 1.069702,-2.000912 0.945068,-0.77234 2.308958,-1.511501 3.692798,-1.984891 1.304689,-0.270534 1.554091,-0.576455 1.365289,-2.088761 -0.303278,-2.118741 -0.467828,-4.642823 0.182936,-7.291027 0.576617,-1.952141 0.620966,-1.465525 -1.128615,-1.869655 -3.350053,-0.779981 -6.438577,-2.571504 -8.011395,-4.604369 -0.23018,-0.298286 -1.34253,-2.089393 -1.044382,-2.319755 0.365292,-0.232701 1.447702,1.532009 1.724443,1.767334 1.260835,1.629622 4.72513,3.246454 7.973674,3.905705 1.82209,0.461095 1.541063,-0.0019 2.411222,-1.266589 0.435917,-0.62864 0.957903,-1.213072 1.613339,-1.713593 0.596522,-0.455522 1.296652,-0.831884 2.121318,-1.110009 1.571977,-0.357846 1.553509,-0.311846 0.717786,-2.168342 -1.032981,-2.312993 -1.257306,-4.690277 -0.952397,-7.080705 0.043,-0.335775 0.800753,-2.123964 1.206643,-2.101162 0.405892,0.0228 -0.206865,1.935686 -0.254765,2.309418 -0.335465,2.630072 0.294518,5.066104 1.844334,7.51582 0.403971,0.752393 0.644035,0.972066 1.39733,0.980819 3.503761,-0.02434 7.04282,0.483251 10.598835,1.305864 2.416951,0.575537 2.254303,0.580326 1.713074,-1.693437 -0.668506,-3.002973 -0.712867,-6.564082 0.715201,-9.915673 0.58384,-3.722007 1.368097,-6.782741 2.693892,-10.107911 0.607891,-1.620438 1.063265,-1.395206 -0.193786,-2.400369 -0.279519,-0.224557 -0.560692,-0.467802 -0.832506,-0.731223 -0.171225,-0.125638 -0.455155,-0.305065 -0.882118,-0.449586 -0.71029,-0.240416 -1.701523,-0.428691 -2.800861,-0.517279 -2.19869,-0.17718 -4.847942,0.05694 -6.745843,0.86713 -1.502169,0.641255 -3.267657,0.360182 -4.984708,0.312642 -1.71705,-0.04754 -3.3196,0.07842 -4.564578,1.11311 l -0.16795,0.14056 -0.21859,0.01551 c -3.05616,0.222805 -6.534743,0.777361 -9.566341,2.060855 -3.031602,1.283491 -5.597597,3.265424 -6.984588,6.38669 l -0.118856,0.269234 -0.279569,0.09767 c -2.483138,0.865351 -4.824492,2.201942 -6.226492,5.033285 l -0.02946,0.05478 -0.03669,0.05064 c -2.53754,3.399859 -3.783111,8.438165 -2.605011,10.885125 -0.16547,1.361755 -0.559266,4.036271 -0.211355,5.50664 0.347898,1.470367 1.226363,2.883768 1.852084,3.520715 0.265448,0.26887 -0.926545,2.226773 -0.860415,3.550687 -0.579228,-1.054126 0.487551,-3.073931 0.223761,-3.342946 -0.9462,-0.96319 -1.729684,-1.882773 -2.104265,-3.465939 -0.137475,-0.581033 -0.249823,-1.183031 -0.3452,-1.790589 -0.06727,-0.827365 -0.132553,-1.25916 -0.968414,-1.327052 -0.832393,-0.06269 -1.585826,0.280157 -2.004529,0.412896 -0.585351,0.185571 -1.259329,0.685202 -1.918229,1.562179 l -0.175702,0.14831 -0.228409,0.01189 c -5.021569,0.266716 -7.071733,2.265749 -7.881173,4.552694 -0.80945,2.286942 -0.246562,5.026834 0.447519,6.456968 0.16487,0.338717 -1.30964,1.459751 -1.52032,1.862421 -0.17481,-0.511408 0.969547,-1.47556 0.805117,-1.814878 -0.85325,-1.758085 -1.503781,-4.103889 -0.799949,-6.959264 0.662998,-2.689709 3.222024,-4.018158 5.020365,-4.860168 1.685848,-0.619144 2.49365,-0.91318 3.890201,-1.394233 0.70635,-0.247681 1.337889,-0.588195 1.764749,-0.794781 0.557025,-0.269582 1.53969,-0.337445 2.372982,-0.606166 1.095608,-0.240411 0.710015,-1.075661 0.661977,-1.905826 -0.229957,-4.094988 1.068361,-7.721041 3.426148,-10.919229 0.949179,-1.916922 2.308394,-3.233277 3.811135,-4.180107 2.844191,-1.106422 2.881807,-1.882259 4.493265,-3.905189 1.589392,-1.977361 3.700058,-3.382214 5.996016,-4.354256 2.044552,-0.865606 4.233127,-1.406496 6.358787,-1.745628 2.200828,-0.02318 3.350496,-0.575456 5.119066,-1.221632 1.18568,-0.42667 2.439445,-0.502669 3.610115,-0.470257 1.804921,0.04997 3.454776,0.205597 4.412136,-0.203086 2.220074,-0.947727 5.018966,-1.164302 7.392829,-0.973069 0.732242,0.05903 1.414552,0.162094 2.038635,0.29714 -0.158347,-0.314359 -0.294838,-0.647044 -0.399975,-1.002006 -0.492091,-1.661411 -0.424016,-2.384301 -0.476457,-3.153812 -0.0231,-2.211096 0.383604,-1.813968 -0.936376,-3.251999 -0.135131,-0.149783 -0.247097,-0.30833 -0.326078,-0.479039 -0.30413,-0.657328 -0.360558,-1.333743 -0.449069,-2.124937 -0.0222,-0.198435 -0.539504,-0.992376 -1.187524,-1.716691 -0.64802,-0.724313 -0.955532,-1.048906 -1.248503,-1.891355 -0.124071,-0.355968 -0.194559,-1.055106 0.07958,-1.139984 0.01389,-0.0053 0.02798,-0.0077 0.04238,-0.0078 z m 86.46655,25.464077 c 1.28969,0.0054 2.24282,0.193773 4.43074,1.136364 2.50048,1.077256 4.82326,3.343545 6.09834,5.558835 1.27508,2.21529 1.37811,3.020099 1.7725,4.878771 0.0783,0.368842 0.29237,1.835819 0.0207,1.955953 -0.25336,0.06548 -0.54985,-1.487799 -0.67696,-1.84278 -0.67079,-1.873316 -0.84443,-2.472359 -1.99006,-4.462778 -1.14564,-1.990418 -3.25033,-4.31138 -7.14789,-5.466333 -3.1628,-0.937226 -5.54861,0.01323 -7.08535,1.941483 l -1.3348,1.674834 c -0.77272,1.244605 -0.63794,2.092473 -0.71727,3.217891 -0.16988,2.282113 -1.15621,4.180636 -2.30632,5.584672 -0.51228,0.606324 -0.49048,1.097557 -0.0656,1.646412 1.11835,1.482579 1.63325,3.395577 1.86707,4.904094 0.36023,2.324044 0.29141,4.458454 -0.17001,6.435265 -0.46144,1.97681 -1.82717,3.912922 -2.21021,3.871597 -0.38303,-0.04131 0.87653,-2.045441 1.21647,-3.972883 0.33994,-1.927441 0.15106,-3.95375 -0.18552,-6.125207 -0.28325,-1.827429 -0.9322,-3.632954 -3.40496,-5.892665 -2.47277,-2.259705 -5.2509,-2.995411 -7.78867,-2.96881 -2.53778,0.0266 -4.83793,0.432083 -6.91793,0.856795 -0.36945,0.07502 -0.75551,0.119356 -0.8046,-0.09508 -0.0363,-0.226722 0.22301,-0.444537 0.60461,-0.584978 1.8877,-0.558673 4.27921,-1.511893 7.10448,-1.541508 2.27431,-0.02384 4.7979,0.555183 7.44502,2.38125 0.75177,0.301869 1.96572,0.308867 2.43448,-0.276468 1.32955,-1.660216 2.27509,-3.357359 1.77302,-6.30401 l -0.0434,-0.257863 c -0.51976,-2.231591 -3.29285,-3.964686 -3.1874,-4.154787 0.10225,-0.175985 2.20877,1.493237 3.16932,2.644283 0.40604,0.486577 0.67269,0.57122 0.81648,0.247531 0.38895,-1.005223 1.0721,-1.781405 2.2102,-2.765205 1.13811,-0.9838 2.21797,-2.16104 4.49585,-2.217436 0.20257,-0.005 0.3935,-0.008 0.57774,-0.0072 z m 5.75211,19.464445 c 0.16163,0.0267 0.10223,0.709986 -0.10232,2.114082 -0.20455,1.404099 -0.40571,2.590498 -0.91157,3.892785 -0.98977,2.54807 -2.43235,5.498711 -4.22455,7.447608 -1.63913,5.039229 -3.98804,8.878829 -7.89306,12.276259 -4.92297,4.45333 -9.4947,7.39953 -14.89366,7.50186 -4.08597,0.20089 -4.73944,0.18446 -8.0176,1.49603 -1.2854,0.50953 -2.71167,0.97043 -4.20543,1.33688 -2.13977,0.52492 -4.36804,0.82955 -6.45025,0.75912 -3.28679,-0.0208 -3.76609,0.54943 -6.70399,2.39675 -1.79547,1.11841 -3.80127,1.99359 -5.86527,2.58228 -2.41269,0.68812 -4.87046,0.9733 -7.1391,0.80718 -1.946269,-0.17707 -3.809189,0.13092 -5.34231,1.40612 -3.718319,2.78747 -7.940055,4.1084 -13.413134,2.55643 -0.363151,-0.10297 -3.405838,-1.48544 -3.375506,-1.84847 0.102722,-0.36225 3.293343,0.90655 3.655592,1.00924 6.172739,1.75015 11.278134,-1.42912 14.717963,-4.85241 0.12963,-0.129 0.188347,-0.26891 0.225828,-0.41755 0.14593,0.11423 0.304096,0.1972 0.473355,0.25373 2.689252,0.89818 6.318442,0.77296 9.822142,-0.22634 3.50369,-0.9993 6.87489,-2.86108 9.09608,-5.27358 l 0.29301,-0.32039 0.41393,0.13074 c 2.48651,0.78668 5.99497,0.51605 9.26765,-0.28681 3.27268,-0.80284 6.33304,-2.13445 7.91373,-3.23856 l 0.2558,-0.17983 0.30282,0.0785 c 8.50369,1.79102 12.37625,-1.81175 18.07176,-6.77375 3.67074,-3.1936 5.95508,-6.78816 7.53753,-11.699028 l 0.0491,-0.146759 0.10542,-0.113173 c 1.59674,-1.680044 3.54826,-4.457097 4.52582,-6.973734 0.48878,-1.258319 0.96889,-2.483483 1.202,-3.722254 0.23311,-1.238771 0.4466,-1.999705 0.60823,-1.973006 z m 8.30492,3.031855 c 0.38822,0.01384 0.6602,0.647015 0.74776,0.912607 1.1431,2.522423 1.74371,5.310766 1.71875,6.947378 -0.0249,1.636623 -0.52152,2.803086 -1.13274,4.099494 -0.64802,1.374434 -1.39803,2.48573 -2.2009,3.4277 -1.52088,1.8741 -1.65364,1.8919 -0.55242,2.79983 0.92398,0.7737 1.76691,1.63991 2.39985,3.13211 2.4e-4,5.2e-4 -2.5e-4,4.9e-4 0,0.002 5.3e-4,10e-4 0.002,10e-4 0.002,0.002 1.82716,4.23316 0.97658,10.07198 0.23978,12.99042 -0.27743,0.7806 -0.66889,1.25964 -0.90538,1.27124 -0.3142,-0.0408 0.1105,-1.00679 0.20361,-1.37252 0.68652,-2.71925 0.78317,-8.70599 -0.7922,-12.3517 l -0.002,-0.002 v -0.002 c -0.61807,-1.45948 -1.41077,-2.142 -2.43809,-2.96054 -1.14987,-1.03867 -1.11608,-0.73235 -2.20245,0.0853 -2.19584,1.26071 -1.9381,2.81575 -2.81327,4.79092 -2.13128,4.75984 -6.33367,8.60744 -8.96689,10.4221 -0.31014,0.21404 -1.38522,0.96066 -1.59939,0.65061 -0.12268,-0.21879 0.86094,-1.06586 1.17099,-1.28003 3.0106,-2.07473 8.31199,-8.0136 9.25938,-13.79037 l 0.0408,-0.25011 0.19379,-0.16382 c 2.78057,-2.32835 5.73803,-3.76335 7.72821,-7.984526 0.6004,-1.273461 0.98094,-2.156089 1.002,-3.537251 0.0211,-1.38116 0.0203,-3.127174 -1.02888,-6.316927 -0.11774,-0.357556 -0.58174,-1.437667 -0.15141,-1.515669 0.0269,-0.0049 0.0532,-0.0066 0.0791,-0.0057 z m -15.93443,45.867999 c -2.57788,1.95217 -6.06632,2.41574 -9.28264,2.28824 -3.17265,-0.12577 -5.9309,-0.78415 -7.60367,-1.39062 -2.25951,1.44687 -5.38318,2.26519 -8.35659,2.70423 -0.91855,0.0254 -0.29266,0.24701 0.22324,0.36639 2.84597,0.64808 7.37772,-0.88555 10.04641,-0.43564 2.49777,0.94044 11.4084,1.71131 12.88552,0.35296 -0.54027,2.03284 -12.12474,0.44101 -13.41003,0.0274 -3.70455,-0.23154 -6.91685,2.02216 -11.06754,1.85984 -0.87778,0.0824 -1.75852,0.0875 -2.62672,0.006 -2.08777,-0.32524 -2.18831,-0.39523 -0.27956,0.46664 1.7105,0.76822 3.48975,1.19936 5.4317,0.9679 4.9029,-1.35146 9.66675,0.21859 14.30042,-0.0548 3.19255,0.90902 12.06367,-2.04959 12.09074,-1.86138 0.0809,0.41128 -8.94292,2.88709 -12.07679,2.31614 l -0.0129,0.002 h -0.014 c -4.9536,0.2942 -9.55701,-0.36779 -13.63482,0.48989 -4.07781,0.8577 -8.25499,-0.47317 -11.17141,-2.34869 l -0.0289,-0.0196 -0.0284,-0.0217 c -0.13305,-0.15943 -0.26228,-0.19521 -0.39895,-0.1788 -0.62443,0.0847 -0.20645,0.29692 0.10904,0.52503 1.03542,0.7294 2.18607,1.31623 3.47782,1.73685 l 0.0718,0.0233 0.0651,0.0413 c 4.59139,2.91276 8.80318,2.32132 14.17226,2.61793 l 0.0884,0.004 0.0832,0.031 c 4.04345,1.46507 8.75867,0.87124 12.83746,-0.63252 0.31046,-0.11412 3.2699,-1.58973 3.31918,-1.41025 0,0 -2.83425,1.50436 -3.14451,1.61903 -4.06848,1.49993 -8.80744,2.5311 -13.32994,0.92914 -5.10589,-0.26365 -10.71575,1.20681 -15.73082,-1.93322 -1.76077,-0.58161 -3.29109,-1.38819 -4.62866,-2.41329 -0.41306,-0.36664 -0.78331,-0.6547 -1.30689,-0.52038 -0.56664,0.12731 0.11244,0.77383 0.55914,1.12397 4.5718,3.57733 10.03151,6.04439 15.78456,6.7231 0.32963,0.0384 6.53628,0.32983 6.52157,0.47077 -0.0189,0.18102 -6.26812,-0.15546 -6.59702,-0.19482 -5.58658,-0.65907 -10.92758,-2.41938 -15.48226,-5.47305 -1.39649,-0.98196 -1.53993,-1.14436 -0.35915,0.15968 1.04961,1.15654 2.20035,2.19024 3.46646,2.99 2.65924,1.67974 5.28797,2.92787 8.49974,3.57911 3.19994,0.64888 10.30635,0.59996 10.30635,0.59996 0.005,-3e-5 0.0183,0.007 0.0243,0.007 7.64846,-0.9684 15.51913,-3.16747 21.27726,-8.07651 2.21332,-1.88695 4.2575,-4.45655 5.33352,-7.25176 -1.24281,0.10458 -2.65992,0.19806 -4.06228,0.23823 -2.25397,0.0645 -4.54573,-0.43136 -6.3407,-1.04955 z m -44.24846,8.816 c -1.69075,-0.0512 0.38452,3.03398 1.31775,4.44314 0.80808,1.2202 1.56845,2.75706 2.94349,3.2582 1.45829,0.53148 3.42915,0.4926 4.71806,-0.38861 -2.13905,-1.77225 -5.01909,-4.90971 -6.52881,-6.8125 -0.39502,-0.51249 -0.34686,-0.4921 -1.21749,-0.45579 -0.42004,0.0213 -0.57484,-0.0245 -1.233,-0.0444 z m 15.15773,10.47017 c 0.38668,0.3433 0.77086,0.68524 1.11001,0.99787 3.7245,3.43324 8.67066,7.25865 11.46442,11.48405 7.56518,11.44189 13.27918,20.349 16.89664,26.25421 1.59983,-1.03789 3.16867,-2.11923 4.7041,-3.24373 -3.10473,-5.93675 -7.80282,-15.30047 -13.12736,-27.73784 -0.86222,-2.01404 -1.8559,-3.99371 -3.09593,-5.80016 -0.73181,-0.003 -9.76839,-0.0593 -13.28085,-0.77153 -1.54886,-0.31407 -3.12667,-0.68509 -4.67103,-1.18287 z" />
  </g>
</svg>
