<?xml version="1.0" encoding="UTF-8" standalone="no"?>
<svg
   xmlns:dc="http://purl.org/dc/elements/1.1/"
   xmlns:cc="http://creativecommons.org/ns#"
   xmlns:rdf="http://www.w3.org/1999/02/22-rdf-syntax-ns#"
   xmlns:svg="http://www.w3.org/2000/svg"
   xmlns="http://www.w3.org/2000/svg"
   xmlns:sodipodi="http://sodipodi.sourceforge.net/DTD/sodipodi-0.dtd"
   xmlns:inkscape="http://www.inkscape.org/namespaces/inkscape"
   inkscape:export-ydpi="12.1"
   inkscape:export-xdpi="12.1"
   inkscape:export-filename="endocrine.png"
   width="210mm"
   height="210mm"
   viewBox="0 0 210 210"
   version="1.1"
   id="svg8"
   inkscape:version="1.0 (4035a4fb49, 2020-05-01)"
   sodipodi:docname="endocrine.svg">
  <defs
     id="defs2" />
  <sodipodi:namedview
     inkscape:snap-global="false"
     id="base"
     pagecolor="#ffffff"
     bordercolor="#666666"
     borderopacity="1.0"
     inkscape:pageopacity="0.0"
     inkscape:pageshadow="2"
     inkscape:zoom="0.7"
     inkscape:cx="388.4298"
     inkscape:cy="376.3776"
     inkscape:document-units="mm"
     inkscape:current-layer="layer1"
     inkscape:document-rotation="0"
     showgrid="false"
     inkscape:window-width="1441"
     inkscape:window-height="1040"
     inkscape:window-x="439"
     inkscape:window-y="0"
     inkscape:window-maximized="0" />
  <metadata
     id="metadata5">
    <rdf:RDF>
      <cc:Work
         rdf:about="">
        <dc:format>image/svg+xml</dc:format>
        <dc:type
           rdf:resource="http://purl.org/dc/dcmitype/StillImage" />
        <dc:title />
      </cc:Work>
    </rdf:RDF>
  </metadata>
  <g
     inkscape:label="Layer 1"
     inkscape:groupmode="layer"
     id="layer1">
    <path
       transform="scale(0.26458333)"
       d="M 396.84961 0 C 177.71661 6.4218655e-06 6.4218656e-06 177.71661 0 396.84961 C 0 615.98261 177.7166 793.70117 396.84961 793.70117 C 615.88294 793.70117 793.52397 616.14214 793.68555 397.14648 A 3.496063 3.496063 0 0 0 793.70117 396.84961 C 793.70117 396.74745 793.68562 396.64903 793.68555 396.54688 A 3.496063 3.496063 0 0 0 793.68555 396.54102 C 793.51592 177.55222 615.87796 -2.6526929e-13 396.84961 0 z M 396.84961 16.0625 C 465.89004 16.0625 530.62577 34.412289 586.44531 66.503906 C 583.36185 67.501746 580.3562 68.782854 577.62109 70.060547 C 573.88291 71.806844 570.98438 73.689453 570.98438 73.689453 C 568.52821 75.114316 565.85308 77.763458 566.01953 77.884766 C 566.24706 78.190794 569.01468 75.856104 571.5625 74.492188 C 571.5625 74.492188 575.2326 72.611276 578.24023 71.291016 C 581.34036 69.930067 584.74549 68.522348 588.16602 67.507812 C 608.13999 79.130881 626.95787 92.51907 644.4082 107.45898 C 646.73932 120.04608 644.8537 134.92096 640.64648 145.98633 C 634.2228 162.88181 617.09528 177.73525 601.98828 188.03125 C 585.75332 199.09613 571.93821 205.1861 552.90625 210.0918 C 545.69298 211.9511 536.60139 214.34694 527.73828 215.35352 C 518.87518 216.36009 510.26593 215.94668 504.0293 212.35547 C 498.51799 209.18189 496.38229 203.65494 496.03711 194.85547 C 495.91314 192.35638 495.40731 192.73664 494.70508 194.62891 C 488.90392 209.45057 478.64442 223.30795 467.06641 234.70508 C 451.65837 249.8726 432.88224 262.01523 413.06055 270.69922 C 369.89888 289.60864 322.75082 301.8423 275.70117 304.00391 C 251.99275 305.09321 228.41436 298.40373 204.98438 293.59375 C 185.09491 289.51062 164.92072 289.17235 150.88477 290.375 C 143.86673 290.97632 135.33839 292.68485 132.12109 293.81445 C 130.51236 294.37926 129.40611 294.88103 128.93164 295.84766 C 128.69342 296.33071 128.78406 296.98386 129.12305 297.41016 C 130.96841 299.1205 130.08658 297.09249 130.27539 296.48633 C 130.24779 296.29418 131.0756 295.64719 132.56836 295.12305 C 135.55392 294.0748 144.05495 292.33968 151.00586 291.74414 C 164.90792 290.55298 184.98505 290.89811 204.70898 294.94727 C 228.07007 299.74311 251.92555 307.69672 275.93359 306.59375 C 323.17918 304.42308 370.76892 295.05176 414.06836 276.08203 C 434.0299 267.33678 453.82624 257.13009 469.37109 241.82812 C 480.58722 230.78715 486.17041 223.90361 493.95117 210.26758 C 498.71402 216.21369 499.87243 215.93351 505.34375 219.08398 C 512.01189 222.92362 520.37337 221.7977 529.375 220.77539 C 538.37647 219.75309 547.8673 217.27556 555.07422 215.41797 C 574.21737 210.48354 588.1488 202.78595 604.49023 191.64844 C 619.70412 181.27956 636.79203 164.1328 643.4082 146.73047 C 647.50306 135.96064 648.70122 121.68196 646.36914 109.14258 C 653.23236 115.09926 659.87971 121.29785 666.29883 127.72461 C 665.5855 136.23837 664.395 144.61896 662.14062 153.18555 C 654.38617 182.6524 630.72961 211.4963 616.10352 238.22656 C 596.98621 273.16499 569.81453 291.8018 561.16406 330.67773 C 555.61454 355.61766 555.69771 391.22295 566.23242 414.5 C 583.11841 451.81021 619.56538 477.60631 652.41016 502.06836 C 678.63467 521.59973 710.13232 539.55429 742.91406 555.98828 C 725.16658 594.54081 701.17192 629.61634 672.21875 659.91602 C 648.24713 674.20098 624.87198 689.01664 598.20312 698.05078 C 554.12794 712.98128 506.54026 715.18758 461.98828 728.62891 C 429.69581 738.37151 400.80298 769.92288 367.46875 764.76953 C 341.72533 760.78969 329.25123 728.4577 306.30859 716.12109 C 287.85503 706.19844 271.56327 700.07174 249.66992 694.22852 C 230.04967 688.99213 195.61908 683.93754 195.51953 663.63086 C 207.56492 653.69671 268.80703 628.89156 269.51367 607.70508 C 271.06888 561.08109 260.54948 460.03694 232.64453 393.64844 C 211.22053 342.67934 130.38241 337.00785 104.76562 288.01172 C 97.01095 273.1793 96.611614 260.52173 102.68164 244.92383 C 105.65421 237.28488 112.67861 231.52829 115.19336 223.72656 C 121.57683 203.92174 107.0154 184.05422 107.20117 167.08594 C 107.26267 161.50714 115.40637 152.88177 117.27539 147.625 C 116.25557 145.45597 115.33898 143.34231 114.57812 141.20508 C 184.23655 64.332347 284.87847 16.062502 396.84961 16.0625 z M 421.16406 433.73438 C 420.71846 433.73138 420.25271 433.74138 419.76953 433.76758 C 415.98263 433.98037 411.33869 439.4099 409.08008 442.45703 C 402.20051 451.73804 402.66859 462.96778 398.63867 473.79492 C 390.63666 495.29382 365.33008 532.67969 365.33008 532.67969 C 365.33008 532.67969 365.28761 532.67578 365.28711 532.67578 C 362.04413 538.0387 359.09038 544.17689 354.18555 548.43555 C 351.15541 551.06644 347.59634 554.42092 343.20117 554.52539 C 338.43215 554.63953 334.3334 551.22798 330.9082 548.45898 C 324.8738 543.58075 319.3035 537.43749 316.29883 530.18359 C 314.88607 526.77287 314.33394 521.543 314.08789 517.11328 C 313.84181 512.68364 313.92773 509.06055 313.92773 509.06055 C 313.93793 508.66105 314.22267 506.49609 314.80078 506.49609 C 315.44824 506.49609 315.92126 508.48373 315.9082 508.88281 C 315.9082 508.88281 316.81474 512.26244 317.37305 516.59766 C 317.93168 520.93547 319.95759 524.54201 321.2168 527.58203 C 324.09016 534.5189 327.90778 538.45426 333.81836 543.23242 C 337.24612 546.00357 338.77573 547.64316 342.81641 547.54688 C 346.47402 547.45998 348.49949 546.28794 350.75781 542.93555 C 353.77536 538.45611 353.9242 536.58642 355.07227 531.20117 C 352.88502 530.89017 351.44089 530.33795 349.20508 528.31836 C 341.07933 520.97843 338.24504 509.08611 335.39453 498.51367 C 332.67033 488.40979 336.84457 471.0849 332.48438 467.25586 C 328.37654 463.64845 320.70365 467.40479 316.49219 470.89062 C 305.29046 480.16237 299.04687 507.23812 299.04688 510.87305 C 299.04688 514.50774 296.66667 550.01847 300.5 569.02734 C 305.23234 592.4942 310.04052 618.68757 326.66797 635.91016 C 333.45261 642.9377 344.10579 649.96333 353.56836 647.53906 C 358.92118 646.16755 361.9717 644.47981 364 639.33984 C 365.96492 634.36047 366.36417 626.88468 366.74023 621.54492 C 367.01962 617.57789 366.92825 614.4573 366.84375 611.54102 C 366.58776 611.23752 365.31755 608.88456 364.68359 608.01172 C 362.37708 605.25848 360.26044 601.7299 357.22266 600.17773 C 355.93652 599.52054 354.95506 598.74485 352.3125 598.16797 C 349.66994 597.59109 348.7308 597.96525 347.75586 598.32227 C 346.76242 598.65343 345.65093 599.13681 344.5293 599.76172 C 341.74725 601.28878 337.69271 605.53951 334.30859 607.25391 C 336.57299 603.14771 340.67293 600.17501 343.34375 598.23633 C 344.49332 597.40735 346.13874 596.45589 347.08789 595.95703 C 348.36667 595.12498 349.70791 594.98154 351.08203 594.8125 C 351.94231 594.70667 352.77253 594.68045 353.67969 594.90234 C 355.49398 595.3461 357.24399 596.07655 358.71484 596.82812 C 362.02426 598.5192 365.39183 602.36012 366.49023 603.62695 C 366.49023 603.62695 382.85147 622.05902 393.55078 627.91211 C 401.08497 632.03357 410.08467 637.79348 418.26562 635.18164 C 436.18368 629.46129 446.41113 608.3923 453.16016 590.83594 C 460.9162 570.66003 461.25794 540.72936 459.31836 519.20117 C 456.7394 490.57809 443.23786 451.35154 436.69531 444.08203 C 430.56156 437.26679 427.84922 433.78694 421.16406 433.73633 L 421.16406 433.73438 z "
       style="opacity:1;fill:#000000;fill-opacity:1;stroke:none;stroke-width:0.934549;stroke-linecap:round;stroke-linejoin:round;stroke-miterlimit:4;stroke-dasharray:none;stroke-opacity:1"
       id="path831" />
  </g>
</svg>
