<?xml version="1.0" encoding="UTF-8" standalone="no"?>
<svg
   xmlns:dc="http://purl.org/dc/elements/1.1/"
   xmlns:cc="http://creativecommons.org/ns#"
   xmlns:rdf="http://www.w3.org/1999/02/22-rdf-syntax-ns#"
   xmlns:svg="http://www.w3.org/2000/svg"
   xmlns="http://www.w3.org/2000/svg"
   xmlns:sodipodi="http://sodipodi.sourceforge.net/DTD/sodipodi-0.dtd"
   xmlns:inkscape="http://www.inkscape.org/namespaces/inkscape"
   inkscape:export-ydpi="12.0952"
   inkscape:export-xdpi="12.0952"
   inkscape:export-filename="blood_&amp;_immune.png"
   width="210mm"
   height="210mm"
   viewBox="0 0 210 210"
   version="1.1"
   id="svg8"
   inkscape:version="1.0 (4035a4fb49, 2020-05-01)"
   sodipodi:docname="blood_&amp;_immune.svg">
  <defs
     id="defs2" />
  <sodipodi:namedview
     inkscape:snap-global="false"
     id="base"
     pagecolor="#ffffff"
     bordercolor="#666666"
     borderopacity="1.0"
     inkscape:pageopacity="0.0"
     inkscape:pageshadow="2"
     inkscape:zoom="0.49497475"
     inkscape:cx="465.7566"
     inkscape:cy="366.29879"
     inkscape:document-units="mm"
     inkscape:current-layer="layer1"
     inkscape:document-rotation="0"
     showgrid="false"
     inkscape:window-width="1275"
     inkscape:window-height="1040"
     inkscape:window-x="629"
     inkscape:window-y="0"
     inkscape:window-maximized="0" />
  <metadata
     id="metadata5">
    <rdf:RDF>
      <cc:Work
         rdf:about="">
        <dc:format>image/svg+xml</dc:format>
        <dc:type
           rdf:resource="http://purl.org/dc/dcmitype/StillImage" />
        <dc:title />
      </cc:Work>
    </rdf:RDF>
  </metadata>
  <g
     inkscape:label="Layer 1"
     inkscape:groupmode="layer"
     id="layer1">
    <path
       transform="scale(0.26458333)"
       d="M 396.84961 0 C 177.7692 -3.193592e-06 -3.193592e-06 177.7692 0 396.84961 C 0 615.93004 177.7692 793.70117 396.84961 793.70117 C 615.93 793.70117 793.70117 615.93 793.70117 396.84961 C 793.70117 177.7692 615.93004 -3.7895613e-14 396.84961 0 z M 595.21484 71.480469 C 642.13457 100.13434 682.36532 138.65 713.02734 184.15625 C 711.10996 184.24765 709.2111 184.49313 707.35742 184.91797 C 697.01966 187.28734 685.91881 191.93344 679.58398 200.43945 C 673.91798 208.04744 672.19938 218.80682 673.39844 228.2168 C 674.99661 240.76033 680.89688 253.9656 690.66602 261.99414 C 701.12336 270.5882 716.19403 272.53164 729.7168 273.12109 C 738.38735 273.49913 748.34708 274.09347 756.88086 271.89648 C 765.5039 296.76561 771.62281 322.80578 774.93945 349.71875 C 750.47188 365.89655 725.67451 381.54948 702.78906 394.69336 C 680.50485 407.4919 657.00626 421.04854 632.07812 434.53125 C 618.27333 449.71263 582.33061 489.57516 573.60742 502.8125 C 556.30875 529.06332 537.20764 568.62242 533.0293 583.48828 C 524.89575 612.42623 536.61025 669.30814 516.68359 744.71289 C 515.34636 749.77315 513.85324 754.89724 512.24023 760.05273 C 496.97062 764.89543 481.28561 768.80498 465.24805 771.70898 C 459.90696 759.73964 447.99556 751.14104 436.73633 744.37109 C 427.12287 738.59076 415.78725 731.44399 404.78516 731.48828 C 402.74776 731.49628 400.72223 731.74868 398.7207 732.30469 C 389.45262 734.87873 383.556 745.17594 379.65625 753.96875 C 376.48568 761.11739 374.69155 769.22019 374.69531 777.18945 C 365.23436 776.64764 355.86655 775.762 346.60352 774.54297 C 358.83589 748.274 371.36895 719.93912 374.73047 707.21875 C 381.64304 681.06075 373.04721 633.20927 385.30664 570.57227 C 390.77233 542.86258 400.38696 528.08544 384.79297 527.58008 L 384.79297 527.56445 C 379.59495 527.39589 371.59622 528.81112 359.70898 531.86328 C 261.61684 547.50361 196.15523 537.71948 172.82812 546.83203 C 160.41606 551.68074 125.76572 578.93381 82.333984 611.97852 C 59.839869 579.14452 42.355485 542.60677 30.978516 503.46094 C 39.205266 504.08526 47.809552 502.97615 55.769531 501.50195 C 68.841927 499.08079 84.999917 496.49782 92.234375 485.34375 C 97.468473 477.27374 95.057629 465.65723 92.150391 456.48828 C 88.727125 445.69192 81.832412 435.29379 72.652344 428.66016 C 61.853822 420.85698 47.672144 417.98528 34.375 417.1582 C 33.52223 417.1053 32.661913 417.07195 31.798828 417.06055 C 26.630577 416.99325 21.335168 417.7143 16.542969 419.55664 C 16.101924 412.04393 15.871094 404.47352 15.871094 396.84961 C 15.871093 341.08752 27.837117 288.13599 49.337891 240.41602 C 50.429693 239.97932 51.520181 239.54139 52.621094 239.11133 C 208.43996 178.24217 322.90544 204.88766 362.26953 193.10547 C 413.11039 177.88813 471.58194 146.50672 538.25391 108.21484 C 551.94077 100.35405 572.61814 86.809874 595.21484 71.480469 z M 625.69922 117.51172 C 623.24725 117.54842 620.81779 117.7829 618.48242 118.19531 C 606.03009 120.394 593.12432 126.91908 585.57422 137.0625 C 577.4923 147.92042 576.2734 163.06994 576.33398 176.60547 C 576.39328 189.90006 576.06496 206.25783 585.75586 215.35938 C 592.76722 221.94449 604.62837 221.63964 614.16797 220.4082 C 625.40084 218.95817 636.85799 214.01907 645.01758 206.16406 C 654.61565 196.92425 659.96164 183.47949 663.13867 170.54102 C 664.76867 163.90294 665.21051 156.61674 663.36523 150.03516 C 660.50213 139.82309 655.32775 128.95811 646.52734 123.03906 C 640.62387 119.06852 633.05509 117.40141 625.69922 117.51172 z M 631.38672 136.66211 C 636.32161 136.59951 641.01077 138.16597 643.46289 142.05469 C 644.69203 144.50794 644.3421 145.89809 641.4082 143.2793 C 640.6125 142.01542 634.8478 140.27627 630.82227 140.69336 C 626.79669 141.11047 623.31842 145.05114 621.29688 149.22266 C 617.52143 157.01347 616.53063 162.98902 615.04688 171.64062 C 614.29641 176.01687 613.85007 182.74095 615.63477 186.69336 C 616.80642 189.2838 617.71811 191.50299 619.13672 193.18945 C 620.55544 194.87621 621.98698 195.85828 624.08008 196.17969 C 624.67048 196.27029 627.49665 195.46274 629.92969 194.2168 C 632.50978 192.89708 632.67188 192.72033 634.15625 191.83594 C 635.48385 191.04505 638.65788 187.73996 639.54883 188.87305 C 640.34189 189.88468 637.37089 193.9072 636.3418 195.00391 C 634.89737 196.54305 634.64713 196.98483 632.18359 198.88867 C 629.6103 200.87732 627.16242 202.79589 623.16406 202.18164 C 619.46799 201.61398 616.56935 199.56251 614.49609 197.09766 C 612.42283 194.63277 611.01001 191.76413 609.76953 189.01758 C 607.35449 183.66969 606.68591 177.14059 607.66016 171.45898 C 609.20942 162.42491 611.50492 154.35302 615.55469 145.99609 C 618.6155 139.67998 623.58846 137.37278 629.26172 136.78516 C 629.97091 136.71166 630.68184 136.67103 631.38672 136.66211 z M 516.05469 159.06445 C 514.62769 159.08715 513.20809 159.17557 511.80078 159.33008 C 498.55758 160.78403 486.1114 168.16446 475.69336 176.46875 C 470.34828 180.72931 465.551 186.22804 462.99219 192.56641 C 459.02202 202.40105 456.48282 214.16475 459.83594 224.22656 C 462.83495 233.2261 470.67784 240.78997 479.08203 245.18945 C 490.28478 251.05387 504.49054 253.76984 516.66406 250.34961 C 529.69519 246.6884 539.91167 235.43808 548.13086 224.68359 C 556.20378 214.12064 566.45407 201.36775 564.33984 188.24219 C 562.81012 178.74584 553.23144 171.74406 544.92578 166.89258 C 536.36836 161.8941 526.04428 158.90532 516.05469 159.06445 z M 517.51758 172.92969 C 520.76975 172.92669 523.88111 172.90139 526.67188 175.83008 C 529.25181 178.537 530.29156 181.93437 530.42773 185.15234 C 530.56418 188.37036 529.93184 191.50319 529.23633 194.43555 C 527.88216 200.14501 524.42329 205.72148 520.18164 209.625 C 513.43711 215.83199 506.6917 220.82321 498.38086 224.9668 C 492.09966 228.09845 486.75153 226.88646 481.90039 223.88672 C 477.04918 220.88702 473.37981 216.27164 473.875 211.04102 C 474.4002 208.3468 475.52446 207.46259 476.24805 211.32812 C 476.10745 212.81398 479.61053 217.70945 483.05273 219.83789 C 486.49494 221.9664 491.65812 220.97263 495.80664 218.9043 C 503.55452 215.04141 507.98621 210.91291 514.44531 204.96875 C 517.71237 201.96201 522.17301 196.91102 523.17383 192.69141 C 523.83007 189.92485 524.46077 187.61012 524.36719 185.4082 C 524.27419 183.20619 523.74215 181.55442 522.28125 180.02148 C 521.86921 179.58906 519.13876 178.50352 516.45117 178.00391 C 513.60205 177.47412 513.36389 177.51551 511.64844 177.30859 C 510.11429 177.12366 505.58501 177.80067 505.57031 176.35938 C 505.55901 175.074 510.36884 173.70278 511.85352 173.46289 C 513.93724 173.12632 514.40427 172.93245 517.51758 172.92969 z M 700.61523 203.85352 C 701.38671 203.95092 701.27762 204.77047 699.55469 206.52344 C 698.25408 207.25752 696.24162 212.93378 696.46484 216.97461 C 696.68821 221.0156 700.45575 224.67887 704.52539 226.89844 C 712.12591 231.0436 718.04684 232.31925 726.61719 234.2168 C 730.91789 235.1689 737.53694 235.9317 741.58008 234.38867 C 742.47687 236.28942 743.36239 238.19543 744.22852 240.11328 C 744.05988 240.18098 743.88857 240.25596 743.7207 240.32227 C 738.26303 242.4777 731.70832 242.8319 726.08008 241.58594 C 717.13084 239.60459 709.17821 236.92494 701.02539 232.47852 C 694.86355 229.11791 692.8009 224.0388 692.48633 218.34375 C 692.17149 212.64877 693.85792 206.99982 698.43164 204.41406 C 699.37267 203.99785 700.15232 203.7951 700.61523 203.85352 z M 298.67383 219.20312 C 297.41353 219.19213 296.12317 219.19398 294.81055 219.20898 C 293.31041 219.22558 291.77877 219.25898 290.22266 219.31055 C 281.48873 219.6001 274.87434 225.78302 270.15039 231.92969 C 267.78845 235.00301 265.86338 238.14019 264.37109 240.73438 C 262.87877 243.32858 261.72535 245.5019 261.31641 246.11719 C 260.22768 247.75541 257.56492 251.04335 254.94336 254.83594 C 252.32175 258.62853 249.66245 262.98396 248.41992 267.47461 C 248.37552 267.63486 248.33852 267.78442 248.29492 267.94336 C 240.47144 265.50644 231.74217 262.7839 223.54102 262.66797 C 222.95996 262.65997 222.38358 262.66499 221.80859 262.68359 C 217.62682 262.82215 213.62106 263.70686 209.99805 265.74023 C 201.6101 270.44793 198.33756 281.85364 196.64453 291.32227 C 194.65102 302.47152 195.91596 314.88209 200.95508 325.02539 C 206.8825 336.95698 218.09927 346.09825 229.48438 353.01758 C 235.32556 356.56762 242.14082 359.17992 248.97266 359.39844 C 259.57304 359.73735 271.49256 358.06548 279.7832 351.45117 C 283.99997 348.08707 287.2273 343.40987 289.46094 338.27344 C 296.8818 339.88748 305.25346 338.26844 313.66602 337.23633 C 323.43605 336.03917 331.71071 334.02484 333.46094 333.58594 C 334.86075 333.23501 341.24601 331.92538 348.05664 329.67969 C 354.8673 327.43397 363.80111 321.17404 368.31836 316.19531 C 369.45602 314.94142 370.487 313.61964 371.43359 312.24805 L 371.33398 315.59961 C 371.33798 315.58451 371.342 315.56803 371.3457 315.55273 C 372.97163 318.77332 374.98803 321.77821 377.47266 324.3125 C 382.51093 329.45147 388.63007 334.33763 395.3418 337.24805 C 399.92935 332.14046 405.32012 327.70855 411.83984 324.82617 C 418.42832 321.91344 425.62255 320.67359 432.78906 320.73438 C 435.64608 320.75857 438.49506 320.99546 441.30469 321.41016 C 446.7463 314.61426 450.75109 306.56179 451.9043 298.24023 C 453.76239 284.83272 447.53865 270.97014 440.9707 259.13477 C 434.51969 247.51007 426.93378 233.01278 414.05859 229.69922 C 412.74861 229.36208 411.41923 229.19051 410.08203 229.16016 C 409.63631 229.14996 409.1916 229.15618 408.74414 229.17578 C 400.98859 229.5317 393.0371 234.34152 386.72461 238.94922 C 382.9447 241.70832 379.42105 245.00959 376.34766 248.69531 C 376.32086 248.61781 376.29478 248.54217 376.26758 248.46484 L 376.13867 250.01367 C 373.42417 241.02062 368.66786 232.21301 360.52734 227.32617 C 353.82809 223.30457 345.59002 222.4 337.99219 222.07031 C 330.39431 221.74062 323.23469 221.94773 319.45898 221.04492 C 314.92685 219.96129 307.4959 219.27849 298.67383 219.20312 z M 294.88281 224.72461 C 305.14201 224.63291 314.00025 225.40349 318.17773 226.40234 C 323.4451 227.66179 330.45813 227.26146 337.75586 227.57812 C 345.05358 227.89493 350.47905 230.36509 355.73047 233.51758 C 364.32104 238.67455 369.06477 250.80792 370.88672 261.66992 C 373.88016 279.51543 375.60426 299.97284 364.23828 312.5 C 361.10723 315.95091 354.2531 319.14258 347.80859 321.26758 C 341.36412 323.39254 335.56821 324.56298 333.5918 325.05859 C 331.96596 325.4663 323.86333 327.42627 314.46289 328.57812 C 305.06245 329.72995 294.28903 329.9176 287.94531 327.44727 C 284.47139 326.09447 282.45585 322.40845 280.47266 317.47461 C 278.48949 312.54078 276.76704 306.67829 272.60742 302.41211 C 268.49758 298.19699 264.15158 296.00802 260.75781 294.20898 C 257.36405 292.40994 256.8753 291.08882 255.70703 288.82617 C 251.97005 281.58864 253.08524 277.45327 255.44141 268.9375 C 256.37335 265.56925 258.71329 261.54245 261.18359 257.96875 C 263.65386 254.39505 266.172 251.33567 267.61523 249.16406 C 268.47238 247.87443 269.42831 245.9595 270.85547 243.47852 C 272.28263 240.99754 274.08832 238.06743 276.22656 235.28516 C 280.50309 229.72066 284.25615 225.02237 290.41016 224.81836 C 291.92343 224.76816 293.41721 224.73771 294.88281 224.72461 z M 316.00195 232.05469 C 313.17109 232.06789 310.52523 232.43449 308.49219 233.32227 C 303.84789 235.35024 300.63669 240.76304 299.76758 245.74023 C 299.17491 249.13454 302.41413 252.2653 302.49805 255.70898 C 302.58655 259.33976 302.01078 263.23205 300.13477 266.34766 C 298.22318 269.52232 293.90938 270.61894 291.66602 273.57031 C 288.32635 277.96405 284.31665 283.07814 284.69531 288.57422 C 284.89536 291.4821 286.76345 294.75069 289.4375 295.92969 C 293.56747 297.75056 298.48359 292.3838 302.80469 293.69336 C 305.87463 294.62376 306.76776 299.23564 309.80078 300.2793 C 313.4817 301.54594 318.0448 297.30692 321.4375 299.21094 C 323.58162 300.41419 323.46257 303.69037 324.66797 305.82812 C 326.10035 308.3683 327.00101 311.52785 329.4082 313.18164 C 331.71802 314.76844 335.30767 316.45863 337.64648 314.91016 C 339.28757 313.82363 337.66168 310.75473 338.76758 309.12891 C 340.40823 306.71408 344.52473 306.82005 346.15234 304.39648 C 348.70021 300.60272 350.30734 293.04923 348.61328 290.92578 C 346.91918 288.80233 341.66915 281.4643 336.49805 281.25977 C 331.97605 281.08099 328.48861 285.69437 325.25195 288.84961 C 323.12475 290.92333 322.63389 294.57373 320.08594 296.10547 C 317.41859 297.70893 313.71741 298.4725 310.82422 297.32812 C 308.61608 296.45474 305.9487 294.15846 306.32812 291.82031 C 306.73961 289.28471 311.42365 289.81563 312.84766 287.67383 C 315.18783 284.15405 316.51354 279.11226 314.96484 275.18555 C 313.27413 270.8986 305.78215 271.01576 303.95898 266.7832 C 302.85095 264.21089 303.38979 260.34753 304.35742 257.75195 C 305.28574 255.26169 308.81756 256.0778 311.47852 255.92969 C 316.15511 255.66943 320.76707 258.55829 325.39648 257.8457 C 330.40903 257.07412 337.06821 255.94999 339.14062 251.33594 C 341.20123 246.74777 335.17985 239.1839 334.875 236.87695 C 334.64649 235.14669 324.49451 232.01461 316.00195 232.05469 z M 584.57031 237.16016 C 583.98917 237.15216 583.41291 237.15718 582.83789 237.17578 C 578.65611 237.31434 574.65231 238.20101 571.0293 240.23438 C 562.64135 244.94207 559.36882 256.34583 557.67578 265.81445 C 555.68227 276.9637 556.94724 289.37623 561.98633 299.51953 C 566.74449 309.09746 574.91197 316.87258 583.83789 323.14844 C 587.42859 322.37403 591.06786 322.0344 594.60156 322.00586 L 594.67773 321.99414 L 595.03516 321.99414 C 607.79669 321.98164 621.77599 323.64892 633.74023 330.12891 C 636.2825 329.02926 638.66955 327.653 640.8125 325.94336 C 648.22786 320.02745 652.62859 310.05969 653.86328 300.6543 C 655.50919 288.117 653.16263 273.84568 645.75781 263.5957 C 637.83127 252.62374 623.75194 246.90743 610.82422 242.89648 C 602.64018 240.35732 593.28764 237.28337 584.57031 237.16016 z M 391.54297 258.47656 L 391.54492 258.47656 C 393.70029 258.38506 395.7834 258.81655 397.66016 259.54297 C 400.66382 260.70557 403.28218 262.53899 405.69141 264.34961 C 410.38218 267.87496 414.11165 273.27353 415.99219 278.72266 C 418.98229 287.38719 420.85562 295.56925 421.32812 304.84375 C 421.68529 311.85328 418.43416 316.26775 413.74414 319.51367 C 409.05409 322.75956 403.35537 324.27506 398.75977 321.72852 C 396.50086 320.16938 396.14044 318.78657 399.97266 319.66992 C 401.27811 320.39333 407.16826 319.14106 410.49609 316.83789 C 413.82404 314.53473 414.97593 309.4049 414.74023 304.77539 C 414.29977 296.12916 412.29133 290.41689 409.42773 282.11914 C 407.97923 277.92201 405.13478 271.81236 401.66797 269.20703 C 399.39507 267.49881 397.52409 265.99659 395.46875 265.20117 C 393.41341 264.40555 391.68869 264.22948 389.69922 264.95508 C 389.13811 265.15974 387.04875 267.22899 385.51562 269.49219 C 383.89029 271.89147 383.8329 272.12578 382.95703 273.61523 C 382.91513 273.68693 382.86263 273.82585 382.81836 273.91406 C 382.58063 273.33655 382.32639 272.80547 382.08008 272.35547 C 380.95299 270.29621 380.39889 269.24864 380.50195 268.46289 C 380.50395 268.44549 380.50381 268.42931 380.50781 268.41211 C 380.70132 267.89166 380.94057 267.29165 381.29297 266.48242 C 382.59146 263.50075 383.81289 260.63994 387.61328 259.25391 L 387.61328 259.25586 C 388.93002 258.77553 390.24993 258.53186 391.54297 258.47656 z M 94.091797 260.6875 C 92.401535 260.7007 90.720056 260.7518 89.056641 260.83203 C 82.229245 261.16153 75.118568 262.81637 69.335938 266.46094 C 60.36346 272.11587 51.425078 280.17242 48.259766 290.29492 C 45.428608 299.34862 47.365812 310.07269 51.609375 318.55664 C 57.266016 329.86563 67.201565 340.37476 79.076172 344.7207 C 91.787271 349.37276 106.65251 346.22437 119.60938 342.30859 C 132.33569 338.46261 148.11016 334.11337 154.07227 322.23047 C 158.38578 313.63315 154.71372 302.35157 150.81445 293.55859 C 146.22306 283.20489 138.22194 273.63117 128.36719 268.04883 C 118.22407 262.3031 105.9237 260.5945 94.091797 260.6875 z M 591.14453 270.88672 C 596.34826 270.71037 601.83135 272.01477 606.31641 274.32227 C 614.467 278.51549 621.47548 283.12942 628.22852 289.50391 C 633.33243 294.32171 634.03935 299.75809 632.89453 305.3457 C 631.74979 310.93333 628.68062 315.97146 623.59961 317.30859 C 620.88946 317.74373 619.66917 316.99152 623.04883 314.98047 C 624.49219 314.6007 627.8811 309.62295 628.69336 305.6582 C 629.50566 301.69341 626.79279 297.19173 623.42188 294.00977 C 617.1262 288.06702 611.72735 285.32634 603.92188 281.31055 C 599.97359 279.27933 593.69473 276.83154 589.38867 277.3457 C 586.56536 277.6828 584.17552 277.89 582.14062 278.73633 C 580.10551 279.5823 578.73847 280.65116 577.80273 282.55078 C 577.53892 283.08657 577.45712 286.02358 577.91406 288.71875 C 578.39826 291.576 578.52104 291.78701 578.91797 293.46875 C 579.27287 294.97271 581.47151 298.99091 580.12305 299.5 C 578.9198 299.95232 575.97303 295.9108 575.23633 294.59961 C 574.20255 292.7594 573.8584 292.38667 572.7832 289.46484 C 571.65997 286.41277 570.56576 283.50185 572.35352 279.87305 C 574.00589 276.51845 576.83843 274.37123 579.8125 273.13477 C 582.78657 271.8982 585.94506 271.41398 588.9375 271.05664 C 589.66581 270.96974 590.40114 270.91193 591.14453 270.88672 z M 114.53711 277.88867 C 116.23693 277.95597 119.13608 279.03958 120.14453 279.54492 C 122.03149 280.49072 122.52583 280.60508 125.05273 282.42383 C 127.69222 284.32367 130.22853 286.12326 130.7793 290.13086 C 131.28868 293.83548 130.14478 297.20093 128.37305 299.89062 C 126.60138 302.58047 124.25564 304.75084 121.97656 306.72266 C 117.53871 310.56169 111.47165 313.06466 105.74805 313.75 C 96.647096 314.83976 88.254393 314.93943 79.089844 313.43945 C 72.163587 312.30561 68.537718 308.19632 66.357422 302.92578 C 64.177039 297.65539 63.900294 291.76352 67.361328 287.81055 C 69.363072 285.93258 70.791188 285.873 69.117188 289.43164 C 68.13397 290.55452 68.113014 296.57677 69.660156 300.31641 C 71.207249 304.05617 75.976132 306.26686 80.550781 307.01562 C 89.094543 308.41405 95.102643 307.66071 103.81836 306.61719 C 108.22695 306.08926 114.79839 304.6028 118.07812 301.76562 C 120.22854 299.9054 122.09463 298.39338 123.30664 296.55273 C 124.51909 294.71225 125.054 293.06272 124.76562 290.96484 C 124.68413 290.37317 123.10649 287.89317 121.21875 285.91602 C 119.21764 283.81984 118.99911 283.71407 117.72852 282.54297 C 116.59231 281.49565 112.51942 279.3956 113.35156 278.21875 C 113.53748 277.9566 113.9705 277.86622 114.53711 277.88867 z M 230.11719 296.39453 C 235.32094 296.21818 240.8 297.52267 245.28516 299.83008 C 253.43573 304.0233 260.44611 308.63722 267.19922 315.01172 C 272.30312 319.82951 273.00809 325.2659 271.86328 330.85352 C 270.71855 336.44114 267.6494 341.47732 262.56836 342.81445 C 259.85822 343.24959 258.63794 342.49933 262.01758 340.48828 C 263.46093 340.1085 266.85376 335.13076 267.66602 331.16602 C 268.4783 327.20122 265.76351 322.69955 262.39258 319.51758 C 256.09691 313.57483 250.69611 310.8361 242.89062 306.82031 C 238.94237 304.7891 232.6635 302.33934 228.35742 302.85352 C 225.53415 303.19061 223.14425 303.39782 221.10938 304.24414 C 219.07424 305.0902 217.70726 306.15897 216.77148 308.05859 C 216.5076 308.59438 216.42591 311.53139 216.88281 314.22656 C 217.36701 317.08381 217.48977 317.29286 217.88672 318.97461 C 218.24169 320.47857 220.44026 324.50067 219.0918 325.00977 C 217.88854 325.46208 214.94178 321.41861 214.20508 320.10742 C 213.17131 318.26721 212.82717 317.89448 211.75195 314.97266 C 210.62889 311.92103 209.53564 309.01088 211.32227 305.38281 C 212.97477 302.02909 215.80763 299.87886 218.78125 298.64258 C 221.75531 297.40601 224.91383 296.9218 227.90625 296.56445 C 228.63456 296.47755 229.37379 296.4197 230.11719 296.39453 z M 432.76758 325.94727 C 426.21992 325.89157 419.71807 327.00411 413.93555 329.56055 C 401.55578 335.03367 393.0379 347.61977 386.42773 359.43164 C 379.93526 371.03325 371.59753 385.11186 375.55273 397.80469 C 378.41435 406.98792 388.88882 412.55772 397.79883 416.18164 C 408.29031 420.44877 420.69497 421.78971 431.66406 418.96875 C 444.56707 415.65048 455.83822 406.57932 464.97266 396.88086 C 469.65916 391.905 473.63016 385.77984 475.26367 379.14258 C 477.7983 368.84408 478.64135 356.83779 473.89453 347.35352 C 469.64895 338.87055 460.81256 332.49646 451.86914 329.33398 C 445.90841 327.22619 439.31527 326.00306 432.76758 325.94727 z M 595.03711 327.17188 C 588.20183 327.17887 581.02267 328.49414 575.07422 331.86133 C 565.84454 337.08595 556.53459 344.7103 552.89453 354.67188 C 550.64129 360.83817 550.64486 367.90809 552.125 374.55469 L 553.50977 377.23633 C 549.1076 377.13628 545.24641 377.01385 542.83594 376.4375 C 536.91644 375.02215 526.04854 374.29041 513.59961 374.70312 C 504.86569 374.99267 498.24935 381.17562 493.52539 387.32227 C 491.16345 390.39559 489.23836 393.53276 487.74609 396.12695 C 486.25375 398.72118 485.1023 400.8945 484.69336 401.50977 C 483.60463 403.148 480.93992 406.43595 478.31836 410.22852 C 475.69677 414.02112 473.03744 418.37654 471.79492 422.86719 C 469.41034 431.48512 468.06086 438.19014 472.47656 446.74219 C 474.52034 450.70037 478.08653 452.63129 481.55273 454.46875 C 485.0189 456.30613 490.08848 459.60622 493.51367 463.11914 C 496.34374 466.02174 498.11679 471.18159 500.20898 476.38672 C 502.30118 481.59181 503.47508 490.34878 509.32031 492.625 C 517.55356 495.83114 527.27293 493.82757 537.04297 492.62891 C 546.81301 491.43174 555.08571 489.41743 556.83594 488.97852 C 558.23576 488.62778 564.62296 487.31795 571.43359 485.07227 C 578.24423 482.82655 587.17806 476.56662 591.69531 471.58789 C 605.11048 456.80227 604.77566 433.25094 601.66016 414.67773 C 601.58946 414.25632 601.50597 413.82856 601.42773 413.40234 C 608.29162 413.02072 615.22751 411.62699 621.70898 409.99805 C 634.60273 406.75756 650.56323 403.1603 657.08008 391.57227 C 661.79519 383.18833 658.65721 371.74672 655.17773 362.7793 C 651.08073 352.22024 643.5429 342.27811 633.96289 336.23633 C 622.69396 329.12938 608.35994 327.15902 595.03711 327.17188 z M 190.19727 330.35547 C 183.64939 330.33657 177.15095 331.48151 171.38281 334.07031 C 159.03392 339.61276 150.58875 352.24698 144.04492 364.0957 C 137.61756 375.73356 129.35847 389.85888 133.38477 402.5293 C 135.45623 409.04792 141.37079 413.71248 147.82422 417.15234 C 147.73162 417.28198 149.0932 418.06755 150.56641 418.80078 C 147.81054 422.41533 145.06819 426.64209 142.49609 431.51953 C 139.31964 437.543 136.50544 444.67181 135.57617 451.90234 C 135.30261 451.89104 135.0301 451.86887 134.75586 451.85938 L 127.98242 452.02539 C 119.47596 452.71909 110.97896 455.26207 103.91797 459.72656 C 102.32211 460.73558 100.79966 461.85232 99.333984 463.04688 C 101.15784 471.17081 101.64563 480.34203 96.576172 488.1582 C 91.491641 495.99751 83.504948 500.09851 75.177734 502.62305 C 74.672574 505.40928 74.454886 508.23084 74.652344 511.01562 C 75.402361 521.59486 78.285135 533.27911 85.714844 540.84766 C 92.360096 547.61721 102.72855 550.97083 112.21094 551.23438 C 124.85096 551.58586 138.80768 547.78818 148.24414 539.37109 C 154.651 533.65622 158.69594 525.6949 161.48047 517.25 L 163.47656 510.35156 C 164.14661 507.71776 164.72924 505.0826 165.24805 502.49805 C 165.55861 500.95082 165.88303 499.35647 166.20117 497.74023 C 169.98875 502.38459 172.84421 506.08264 181.38867 512.16016 C 190.02428 518.30249 208.05356 520.3456 215.53711 518.32227 C 219.27884 517.3106 222.70909 515.98223 225.46875 514.82422 C 228.22846 513.66621 230.46579 512.63781 231.16406 512.39648 C 233.02317 511.75396 237.13131 510.75433 241.51562 509.32812 C 245.89997 507.90197 247.01751 506.57136 250.72852 503.75391 C 257.85029 498.34691 262.98777 493.83538 264.66211 484.35742 C 265.43704 479.9706 263.77493 476.26988 262.13281 472.70703 C 260.49069 469.14422 258.45684 463.44846 257.86328 458.57812 C 257.37287 454.554 259.09344 449.37255 260.58594 443.96484 C 262.07844 438.55717 263.33422 422.38755 260.06641 417.0332 C 255.46348 409.49138 248.60136 412.82056 240.10547 407.84961 C 232.27991 403.26916 226.11778 400.82262 223.86914 399.89648 C 228.04892 395.12483 231.51712 389.43595 232.98828 383.31055 C 234.66569 376.32655 235.55499 368.56462 234.46875 361.34375 C 231.77262 360.23462 229.20446 358.9015 226.79883 357.43945 C 216.08458 350.92784 205.21221 342.42077 198.33984 330.97461 C 195.64833 330.58345 192.91982 330.36341 190.19727 330.35547 z M 322.59961 338.50586 L 319.20508 338.7168 C 319.59984 338.7497 320.00384 338.76901 320.42383 338.75781 C 321.17692 338.73781 321.89825 338.64623 322.59961 338.50586 z M 619.28711 345.39844 L 619.28906 345.39844 C 620.89551 345.35294 624.14013 346.73377 625.20508 347.33203 C 627.04525 348.36598 627.53441 348.50339 629.97266 350.43945 C 632.51953 352.46185 634.96928 354.37906 635.33008 358.4082 L 635.33203 358.4082 C 635.66576 362.13269 634.36363 365.43793 632.4668 368.04102 C 630.56993 370.6441 628.12559 372.70253 625.75586 374.56445 C 621.14162 378.18946 614.96054 380.40018 609.21094 380.81445 C 600.06868 381.473 591.68306 381.17957 582.59961 379.24805 C 575.7344 377.78834 572.30572 373.51225 570.37695 368.14453 C 568.44803 362.77694 568.44964 356.87855 572.09375 353.09375 C 574.18141 351.31307 575.61174 351.31935 573.77148 354.79492 C 572.73484 355.87003 572.42838 361.88472 573.79883 365.69336 C 575.16755 369.50204 579.82519 371.93824 584.35938 372.90234 C 592.82747 374.70287 598.86586 374.23217 607.62109 373.60156 C 612.04976 373.28249 618.68547 372.10675 622.0957 369.42773 C 624.33027 367.66995 626.26675 366.25178 627.56445 364.4707 C 628.86253 362.68943 629.47226 361.06427 629.2832 358.95508 C 629.2299 358.36016 627.77268 355.81023 625.98047 353.74609 C 624.08145 351.55698 623.86836 351.44044 622.6543 350.21094 C 621.56859 349.1114 617.5995 346.82378 618.48633 345.6875 C 618.63457 345.4981 618.9176 345.40942 619.28711 345.39844 z M 445.09766 349.10156 C 447.48148 349.17806 449.8125 349.82429 452.09961 350.82227 C 457.32734 353.1033 461.6154 357.15046 461.86719 362.39844 C 461.72961 365.13982 460.74326 366.17496 459.47852 362.45117 C 459.40712 360.96041 455.24258 356.61069 451.5332 354.99219 C 447.82379 353.37363 442.85606 355.0925 439.04297 357.72852 C 431.92155 362.65163 428.12066 367.36361 422.57031 374.16406 C 419.76292 377.60396 416.06193 383.23575 415.66992 387.55469 C 415.41291 390.38635 415.11873 392.76924 415.52344 394.93555 C 415.92807 397.10209 416.68984 398.66252 418.35352 399.97266 C 418.82278 400.34229 421.67888 401.03149 424.41016 401.14453 C 427.30565 401.26548 427.53421 401.18884 429.26172 401.15234 C 430.80664 401.11834 435.19835 399.80361 435.41602 401.22852 C 435.60839 402.4995 431.04112 404.53823 429.60547 404.98633 C 427.59056 405.61509 427.15571 405.8758 424.07422 406.32031 C 420.85535 406.7847 417.77958 407.25096 414.60156 404.74805 L 414.60156 404.74609 C 411.66362 402.43257 410.14994 399.21689 409.55859 396.05078 C 408.96714 392.88467 409.14937 389.69476 409.42188 386.69336 C 409.95225 380.84957 412.58561 374.83698 416.23047 370.37109 C 422.02611 363.26998 427.99596 357.37458 435.63477 352.09375 C 438.88229 349.84872 442.0328 349.00512 445.09766 349.10352 L 445.09766 349.10156 z M 202.65625 353.43555 L 202.6543 353.43945 C 205.03851 353.50265 207.37529 354.13594 209.66797 355.12109 C 214.90838 357.3728 219.21863 361.39611 219.5 366.64258 C 219.37773 369.38464 218.39694 370.42759 217.11133 366.71094 C 217.03153 365.22058 212.84142 360.89264 209.12305 359.29492 C 205.40465 357.69721 200.44863 359.4442 196.65039 362.10156 C 189.5567 367.06452 185.77971 371.79747 180.26758 378.62891 C 177.47947 382.08453 173.81115 387.73754 173.44336 392.05859 C 173.20223 394.89165 172.92277 397.27548 173.33984 399.43945 C 173.7566 401.60369 174.52444 403.15818 176.19531 404.45898 C 176.66665 404.82598 179.52789 405.4977 182.25977 405.5957 C 185.15589 405.69851 185.38403 405.62332 187.11133 405.57422 C 188.65599 405.53072 193.03989 404.18983 193.26562 405.61328 C 193.46511 406.88316 188.90968 408.94811 187.47656 409.4043 C 185.46522 410.04432 185.03208 410.3097 181.95312 410.77148 C 179.65852 411.1158 177.43528 411.43902 175.19141 410.70508 C 174.29819 410.24859 173.39334 409.75391 172.48633 409.25781 C 172.48133 409.25381 172.47736 409.25205 172.47266 409.24805 L 172.47266 409.25 C 169.52181 406.95299 167.98997 403.74474 167.38086 400.58203 C 166.77168 397.41928 166.93586 394.22741 167.19141 391.22461 C 167.68903 385.37783 170.28841 379.35146 173.9082 374.86523 C 179.66391 367.73175 185.59992 361.80211 193.20898 356.47852 C 196.44386 354.21532 199.59082 353.35432 202.65625 353.43555 z M 356.73828 357.75781 C 347.3759 357.74981 337.76066 359.98173 329.80078 364.59961 C 318.27681 371.28506 309.87878 383.06689 303.70898 394.875 C 300.54352 400.9332 298.38034 407.90277 298.60352 414.73438 C 298.94976 425.3345 301.38371 437.12054 308.51953 444.9668 C 314.90188 451.9847 325.13415 455.73259 334.59961 456.35742 C 347.21701 457.19039 361.30816 453.92822 371.05859 445.87695 C 379.54233 438.87164 384.29633 428.03359 387.48047 417.1543 C 380.2999 413.37953 373.29581 407.96673 370.60938 399.3457 C 366.3812 385.77686 373.08417 372.57568 379.14062 361.80859 C 374.10226 359.7231 368.33422 358.7032 363.15625 358.11914 C 361.04599 357.88111 358.89883 357.75951 356.73828 357.75781 z M 347.11133 372.97461 C 348.043 373.02521 349.02328 373.23991 350.07422 373.67578 C 353.52851 375.10813 355.85533 377.79372 357.28125 380.68164 C 358.70725 383.56965 359.39532 386.69119 359.94531 389.6543 C 361.01581 395.42371 360.10728 401.92549 357.80664 407.21094 C 354.14845 415.61525 349.9974 422.90604 344.07227 430.05664 C 339.59406 435.46076 334.21434 436.51597 328.56445 435.73438 C 322.91457 434.95281 317.68975 432.21453 316.02734 427.23047 C 315.41814 424.55407 316.08944 423.28853 318.31445 426.53125 C 318.78662 427.9471 323.97152 431.00992 327.98047 431.56445 C 331.98942 432.11906 336.30601 429.12013 339.26367 425.55078 C 344.7875 418.88453 347.17429 413.31804 350.67773 405.26953 C 352.44969 401.19838 354.48642 394.77559 353.69531 390.51172 C 353.1766 387.71608 352.81777 385.34512 351.8418 383.36914 C 350.86611 381.39286 349.71193 380.09827 347.75586 379.28711 C 347.20413 379.05845 344.26746 379.16679 341.60742 379.79688 C 338.78739 380.46456 338.58621 380.5988 336.93359 381.10352 C 335.4557 381.55483 331.58533 384.00806 330.99023 382.69531 C 330.46118 381.52377 334.30554 378.32373 335.56641 377.50391 C 337.33604 376.35347 337.68299 375.98624 340.5293 374.72461 C 342.38753 373.9009 344.1913 373.08922 346.19531 372.97656 C 346.49594 372.95956 346.80076 372.95811 347.11133 372.97461 z M 518.25977 380.11719 C 528.51895 380.02539 537.37526 380.79607 541.55273 381.79492 C 546.82011 383.05437 553.83511 382.65405 561.13281 382.9707 C 568.43055 383.28743 573.856 385.75765 579.10742 388.91016 C 587.69799 394.06713 592.44175 406.20048 594.26367 417.0625 C 597.25713 434.90799 598.98118 455.36347 587.61523 467.89062 C 584.48416 471.34152 577.63006 474.5332 571.18555 476.6582 C 564.74107 478.78317 558.94319 479.95556 556.9668 480.45117 C 555.34096 480.85887 547.24028 482.81882 537.83984 483.9707 C 528.4394 485.12251 517.66402 485.31018 511.32031 482.83984 C 507.8464 481.48704 505.8328 477.80106 503.84961 472.86719 C 501.86642 467.93339 500.144 462.07087 495.98438 457.80469 C 491.87455 453.58957 487.52855 451.40058 484.13477 449.60156 C 480.74101 447.80251 480.25224 446.4814 479.08398 444.21875 C 475.34701 436.98122 476.46235 432.84585 478.81836 424.33008 C 479.75028 420.9618 482.09025 416.93506 484.56055 413.36133 C 487.03081 409.78763 489.54894 406.72824 490.99219 404.55664 C 491.84931 403.26699 492.80527 401.35209 494.23242 398.87109 C 495.65957 396.39014 497.46333 393.46 499.60156 390.67773 C 503.8781 385.11325 507.63309 380.41492 513.78711 380.21094 C 515.30039 380.16064 516.79414 380.13039 518.25977 380.11719 z M 520.36914 402.83594 C 518.85007 402.85484 514.47932 404.9773 511.68164 405.25781 C 508.69759 405.55753 511.03735 410.34483 510.18945 412.74219 C 509.47535 414.76114 507.20313 417.23042 507.20312 418.42773 C 507.20312 419.54602 508.98647 424.84105 511.69141 426.51172 C 511.72541 427.92126 512.10683 429.36991 511.67969 430.70117 C 511.02689 432.74457 509.5886 435.19114 507.94727 435.93945 C 507.87887 435.97345 507.85707 435.99354 507.79883 436.02344 C 504.71912 437.15677 501.72308 441.80337 500.63477 442.07617 C 499.44104 442.37589 498.086 449.57968 499.14453 453.15039 C 499.96858 455.9305 502.48362 458.0179 504.81445 459.73438 C 508.04674 462.11456 511.9288 463.71022 515.85547 464.52539 C 516.92685 464.74763 518.69968 465.53078 519.13867 464.52539 C 519.8445 462.9084 515.91154 462.36371 515.55664 460.63477 C 515.19494 458.87298 517.63479 457.32043 517.34766 455.54492 C 516.98407 453.29909 514.04964 452.25539 513.16992 450.1582 C 511.4996 446.17647 514.78775 440.96992 512.45117 437.41992 C 511.488 435.63187 512.85399 433.53848 513.01953 431.59766 C 513.11743 430.45015 512.57287 429.29808 512.72266 428.15625 C 512.77326 427.77183 512.92487 427.41066 513.08398 427.05273 C 516.04131 427.7422 519.66709 426.24389 521.82422 424.11719 C 523.30538 422.65685 522.11261 419.56939 523.61523 418.13086 C 525.39513 416.42671 529.0086 418.04976 530.77734 416.33398 C 532.33867 414.81896 533.14716 412.14719 532.56836 410.04688 C 531.98718 407.93767 529.64412 406.7135 527.79102 405.55859 C 525.62614 404.20934 521.82771 403.16292 520.63281 402.86328 L 520.63086 402.86328 C 520.55636 402.84438 520.47005 402.83594 520.36914 402.83594 z M 549.74609 403.66797 C 548.01231 403.60407 546.27247 403.91972 544.80469 404.6582 C 542.63403 405.75018 539.84327 408.34093 540.62695 410.64648 C 541.16504 412.22962 543.965 411.29331 545.40039 412.14453 C 548.36781 413.90432 550.53631 416.77529 552.86133 419.32812 C 555.00935 421.68647 555.93042 425.48769 558.83008 426.80859 C 560.91509 427.75843 564.1097 428.17097 565.69336 426.51172 C 565.99308 423.37569 567.48438 419.02845 567.48438 417.23242 C 567.48438 415.43654 567.47278 413.57697 566.28906 412.44141 C 564.45369 410.68582 560.95319 412.33457 558.83008 410.94336 C 556.79718 409.61104 556.78914 406.11451 554.65234 404.95703 C 553.20769 404.1744 551.4798 403.73177 549.74609 403.66797 z M 217.69531 406.26562 C 224.42481 409.38325 230.04249 412.0909 235.25977 415.11914 C 243.43331 419.9033 250.55504 416.74952 254.10156 422.56055 C 256.04371 425.74272 256.96937 439.43272 255.55469 444.55859 C 254.13998 449.68443 251.95495 455.39198 252.67578 461.30664 C 253.38799 467.15051 255.51914 471.52325 257.12695 475.01172 C 258.73477 478.50011 258.3219 479.84978 257.87891 482.35742 C 256.46194 490.3786 253.06846 492.98906 246.03125 498.33203 C 243.24779 500.44532 242.58639 501.70889 238.45508 503.05273 C 234.3238 504.39662 230.46834 505.30258 228.00391 506.1543 C 226.54033 506.66007 224.61774 507.6035 221.97852 508.71094 C 219.33927 509.81841 216.12565 511.05289 212.73828 511.96875 C 205.96353 513.80046 191.1137 512.31507 183.66992 507.01953 C 176.22614 501.72404 173.45581 497.91789 170.35156 494.11523 C 169.50337 493.0762 168.50873 492.0535 167.40625 491.03125 C 168.99876 480.92075 169.33211 470.46071 163.81641 462.63867 C 159.49847 456.51527 151.45632 453.90291 143.57812 452.70703 C 144.39312 446.35126 146.84095 439.76278 149.82227 434.10938 C 152.07197 429.84327 154.51448 425.49124 157.18945 421.33398 C 166.09279 424.61628 176.20129 425.8211 185.58398 424.24023 C 191.07733 423.07107 196.37638 421.12465 201.5332 418.60938 C 203.6597 417.4672 205.42337 416.34727 206.61719 415.44336 C 210.29536 412.37852 214.05652 409.35355 217.69531 406.26562 z M 218.43555 415.35547 C 217.12432 415.41801 215.80113 415.67513 214.4668 416.19141 C 207.63595 419.04438 206.64369 426.11685 209.55273 432.54492 C 211.93273 436.54578 212.28371 439.77818 211.3457 445.08203 C 208.31711 453.12282 202.53513 452.01125 196.46484 449.35742 C 189.51139 445.60356 183.90911 446.23139 178.9707 446.28906 C 172.09793 446.39678 169.72169 454.48919 171.28711 460.11328 C 172.36151 465.26315 173.35427 473.99816 180.88281 484.31445 C 189.14472 494.39672 197.22708 503.24856 212.49219 502.91211 C 227.47617 501.3328 241.70382 495.40569 246.79492 481.70312 C 251.75977 469.24675 243.7082 455.67141 248.76953 443.20312 C 249.74497 433.59443 242.18862 424.33661 234.60156 420.35352 C 229.56209 418.47599 224.11754 415.08446 218.43555 415.35547 z M 562.16211 431.7793 C 561.11915 431.7566 560.04551 432.08509 559.42578 432.79492 C 558.44284 433.92092 559.72588 435.82107 559.42578 437.28711 C 558.96876 439.52017 558.3432 441.95433 556.74219 443.57227 C 555.51849 444.80908 553.15853 445.36871 551.96484 445.66797 C 550.77119 445.96769 550.12454 449.13875 550.77148 450.75586 C 551.65529 452.96465 554.95719 453.08035 556.74219 454.64844 C 558.12202 455.86053 558.88953 457.68672 560.32031 458.83789 C 561.63941 459.89926 563.26326 461.94888 564.79688 461.23438 C 566.08863 460.63245 564.76018 458.12018 565.69336 457.04102 C 567.01306 455.51473 571.0629 456.14255 571.36133 454.94531 C 571.65953 453.74796 573.29765 451.65043 573.1543 449.85742 C 572.95549 447.36505 570.73863 445.48325 569.57227 443.27344 C 567.63658 439.60567 567.56845 434.1207 563.90234 432.19727 C 563.40216 431.93497 562.78789 431.79336 562.16211 431.7793 z M 57.425781 436.87891 C 59.031359 436.93371 62.185389 438.51521 63.210938 439.17969 C 64.982239 440.32753 65.462173 440.49803 67.773438 442.58398 C 70.187655 444.76296 72.511142 446.82914 72.617188 450.87305 C 72.715487 454.61123 71.207553 457.83032 69.150391 460.30859 C 67.093281 462.78706 64.523481 464.68584 62.041016 466.39453 C 57.207416 469.72146 50.901012 471.53882 45.136719 471.58984 C 37.379491 471.65834 30.202968 471.06815 22.759766 469.37305 C 22.30648 467.01849 21.878505 464.65497 21.46875 462.28516 C 29.475054 464.43307 35.456194 464.36451 44.003906 464.28906 C 48.443827 464.24976 55.140587 463.4978 58.712891 461.03906 C 61.055011 459.42694 63.075039 458.12951 64.482422 456.43359 C 65.89016 454.73772 66.604429 453.15598 66.548828 451.03906 C 66.532958 450.44201 65.23674 447.80379 63.578125 445.63086 C 61.820739 443.32656 61.61639 443.19832 60.482422 441.89453 C 59.46822 440.72862 55.650661 438.19334 56.607422 437.11523 C 56.767674 436.93533 57.055263 436.86606 57.425781 436.87891 z M 533.97852 452.6875 C 532.65984 452.714 531.37605 452.92408 530.18164 453.45117 C 527.21721 454.75915 524.39111 457.48003 523.61914 460.63477 C 523.25139 462.13906 523.85254 463.90967 524.8125 465.12305 C 525.86355 466.45185 527.81049 466.69092 529.28711 467.51758 C 531.70056 468.86853 533.70775 471.3426 536.44727 471.70898 C 539.10216 472.06388 542.06941 471.23205 544.20703 469.61328 C 546.52154 467.86053 547.83989 464.91395 548.68359 462.13086 C 549.26326 460.21925 550.1156 457.78806 548.98242 456.14453 C 547.3186 453.73062 543.51528 453.90562 540.625 453.45117 C 538.47596 453.11328 536.17883 452.64555 533.98047 452.6875 L 533.97852 452.6875 z M 121.84766 467.44727 C 122.68766 467.49257 123.57322 467.6701 124.52148 468.02148 C 128.02788 469.32111 130.45528 471.91842 131.99023 474.75 C 133.52533 477.58155 134.33175 480.67525 134.99414 483.61523 C 136.28379 489.33967 135.62486 495.86893 133.52734 501.23828 C 130.19218 509.77593 126.32013 517.22246 120.67188 524.59375 C 116.40294 530.16485 111.06814 531.42318 105.39258 530.85742 C 99.717007 530.29185 94.392092 527.75307 92.541016 522.83594 C 91.830313 520.18486 92.451776 518.89724 94.798828 522.05273 C 95.324628 523.4495 100.62324 526.31158 104.65039 526.71289 C 108.67759 527.11424 112.87977 523.95296 115.69922 520.27344 C 120.96494 513.4015 123.13407 507.74844 126.32812 499.57227 C 127.94366 495.43652 129.73626 488.94159 128.7832 484.71094 C 128.15824 481.93714 127.70679 479.57801 126.65625 477.64062 C 125.60592 475.70302 124.40355 474.45478 122.41797 473.71875 C 121.85792 473.51125 118.92898 473.73065 116.29492 474.46289 C 113.5021 475.23671 113.30592 475.37785 111.67383 475.94531 C 110.21425 476.4529 106.43959 479.05478 105.79492 477.76562 C 105.22161 476.61511 108.9412 473.26963 110.16992 472.40234 C 111.8944 471.18526 112.22923 470.8028 115.02539 469.43359 C 117.21596 468.36096 119.32766 467.31139 121.84766 467.44727 z M 467.57617 504.90234 C 458.2139 504.94654 448.61217 507.22719 440.67773 511.88867 C 429.19065 518.63732 420.85676 530.46673 414.75195 542.30859 C 411.61975 548.38403 409.49327 555.36687 409.75391 562.19727 C 410.15828 572.79533 412.65913 584.56805 419.83789 592.375 C 423.16701 595.99533 427.52959 598.72098 432.27539 600.5957 C 437.48434 596.05218 443.74644 592.56765 450.70508 591.23242 C 453.79866 590.63885 456.88935 590.4867 459.9375 590.67969 C 466.47385 591.09358 472.80574 593.10657 478.57812 595.73633 C 479.90527 594.87645 481.17697 593.94469 482.38086 592.93945 C 492.77067 584.26389 497.48453 569.81562 500.58008 556.63867 C 503.62048 543.69628 507.75202 527.86521 500.44922 516.75586 C 495.16559 508.71809 483.56007 506.25214 473.99609 505.22656 C 471.88459 505.00017 469.73865 504.89214 467.57812 504.90234 L 467.57617 504.90234 z M 458.03516 520.16992 L 458.03516 520.17188 C 458.96658 520.21757 459.94676 520.42348 461 520.85352 C 464.46212 522.26683 466.80439 524.94211 468.24609 527.82227 C 469.68802 530.70242 470.39289 533.82124 470.95898 536.78125 C 472.06109 542.54473 471.18958 549.04767 468.91797 554.3457 C 465.30603 562.76997 461.19441 570.08455 455.30859 577.26758 C 450.86017 582.69653 445.48609 583.77995 439.83203 583.0293 C 434.1779 582.2788 428.9396 579.57062 427.25 574.5957 C 426.62619 571.92286 427.2886 570.65425 429.53125 573.88477 C 430.01121 575.29793 435.21467 578.33266 439.22656 578.86523 C 443.23857 579.39777 447.53851 576.37462 450.47656 572.78906 C 455.96364 566.09261 458.32016 560.51489 461.7793 552.44727 C 463.52892 548.3664 465.52933 541.93135 464.71484 537.67188 C 464.18072 534.87914 463.80707 532.50768 462.82031 530.53711 C 461.83378 528.5662 460.67348 527.2768 458.71289 526.47656 C 458.15991 526.25092 455.22292 526.37886 452.56641 527.02344 C 449.74986 527.70572 449.55012 527.8416 447.90039 528.35547 C 446.42505 528.81517 442.56715 531.28808 441.96484 529.97852 C 441.42936 528.80992 445.25728 525.58845 446.51367 524.76172 C 448.27693 523.60155 448.62352 523.23229 451.46289 521.95508 C 453.31656 521.1212 455.1158 520.3014 457.11914 520.17773 C 457.41961 520.15883 457.72471 520.15882 458.03516 520.16992 z M 457.61523 595.80273 C 455.61806 595.78383 453.63264 595.94373 451.67969 596.31836 C 442.36361 598.10592 433.83131 604.88322 428.36328 612.63477 C 421.07424 622.96739 416.51183 636.69295 418.29883 649.21094 C 420.21165 662.61072 430.01755 674.22099 439.5957 683.78516 C 449.0034 693.17902 460.2943 705.01941 473.58398 704.65234 C 483.19922 704.38702 491.40152 695.81299 497.30469 688.21875 C 504.25565 679.2765 508.90833 667.70207 509.16602 656.37891 C 509.46913 643.05955 503.79336 629.75121 496.93359 618.33008 C 493.41429 612.47037 488.5945 606.98853 482.64844 603.61719 C 475.15227 599.367 466.26967 595.88675 457.61523 595.80273 z M 460.98633 611.72266 C 461.6217 611.74536 462.2604 611.82525 462.90039 611.97266 C 465.50169 612.84815 466.23188 614.07897 462.30469 614.28711 C 460.85036 613.95187 455.53402 616.78024 452.9707 619.91211 C 450.40739 623.04401 450.71488 628.29292 452.21875 632.67773 C 455.02743 640.86684 458.53259 645.80261 463.57422 652.98828 C 466.12449 656.62294 470.54274 661.70987 474.59375 663.25781 C 477.24985 664.27262 479.46324 665.20291 481.6582 665.40039 C 483.85335 665.59806 485.55955 665.28731 487.27148 664.04102 C 487.75436 663.68952 489.19194 661.12772 490.04102 658.5293 C 490.94236 655.77504 490.93245 655.53268 491.36328 653.85938 C 491.74842 652.36283 491.67289 647.7824 493.10352 647.95898 C 494.37903 648.11848 495.10622 653.06693 495.14844 654.57031 C 495.20744 656.6802 495.33907 657.16919 494.93164 660.25586 C 494.50622 663.48006 494.12214 666.56665 490.85156 668.94727 L 490.84961 668.94727 C 487.82648 671.14816 484.32116 671.73227 481.11328 671.44336 C 477.90533 671.1546 474.88358 670.1146 472.06836 669.03906 C 466.58702 666.9446 461.51414 662.78132 458.20312 658.0625 C 452.93863 650.55923 448.88 643.21388 445.86719 634.42969 C 443.59014 627.79064 445.49683 622.65006 449.10938 618.23633 C 452.2703 614.37422 456.53869 611.57257 460.98633 611.72266 z M 402.98438 766.08594 C 404.95717 766.07794 406.90187 766.2775 408.77148 766.50586 C 414.596 767.21807 420.52469 770.03619 424.875 773.81836 C 425.92548 774.73169 426.94134 775.64918 427.9375 776.57422 C 424.42946 776.85717 420.90737 777.09388 417.37305 777.28125 C 414.3291 775.10745 410.72946 773.09153 407.71289 772.72266 C 405.59617 772.46527 403.73357 772.19315 402.01562 772.21484 C 401.44296 772.22284 400.88624 772.26144 400.3418 772.3457 C 398.16366 772.68246 396.58198 773.39537 395.2207 775.01758 C 394.99533 775.28618 394.64369 776.41024 394.34375 777.81445 C 392.37835 777.80175 390.41719 777.77462 388.45898 777.73242 C 388.37958 775.4973 388.72536 773.31029 390.56445 771.11914 L 390.56641 771.11914 C 392.97026 768.25479 396.22914 766.84204 399.41211 766.34961 C 400.60576 766.16479 401.8007 766.08934 402.98438 766.08594 z "
       style="color:#000000;font-style:normal;font-variant:normal;font-weight:normal;font-stretch:normal;font-size:medium;line-height:normal;font-family:sans-serif;font-variant-ligatures:normal;font-variant-position:normal;font-variant-caps:normal;font-variant-numeric:normal;font-variant-alternates:normal;font-variant-east-asian:normal;font-feature-settings:normal;font-variation-settings:normal;text-indent:0;text-align:start;text-decoration:none;text-decoration-line:none;text-decoration-style:solid;text-decoration-color:#000000;letter-spacing:normal;word-spacing:normal;text-transform:none;writing-mode:lr-tb;direction:ltr;text-orientation:mixed;dominant-baseline:auto;baseline-shift:baseline;text-anchor:start;white-space:normal;shape-padding:0;shape-margin:0;inline-size:0;clip-rule:nonzero;display:inline;overflow:visible;visibility:visible;opacity:1;isolation:auto;mix-blend-mode:normal;color-interpolation:sRGB;color-interpolation-filters:linearRGB;solid-color:#000000;solid-opacity:1;vector-effect:none;fill:#000000;fill-opacity:1;fill-rule:nonzero;stroke:none;stroke-width:15.874;stroke-linecap:butt;stroke-linejoin:round;stroke-miterlimit:4;stroke-dasharray:none;stroke-dashoffset:0;stroke-opacity:1;color-rendering:auto;image-rendering:auto;shape-rendering:auto;text-rendering:auto;enable-background:accumulate;stop-color:#000000;stop-opacity:1"
       id="path906" />
    <g
       style="opacity:1"
       id="g1025" />
  </g>
</svg>
