<?xml version="1.0" encoding="UTF-8" standalone="no"?>
<svg
   xmlns:dc="http://purl.org/dc/elements/1.1/"
   xmlns:cc="http://creativecommons.org/ns#"
   xmlns:rdf="http://www.w3.org/1999/02/22-rdf-syntax-ns#"
   xmlns:svg="http://www.w3.org/2000/svg"
   xmlns="http://www.w3.org/2000/svg"
   xmlns:sodipodi="http://sodipodi.sourceforge.net/DTD/sodipodi-0.dtd"
   xmlns:inkscape="http://www.inkscape.org/namespaces/inkscape"
   inkscape:export-ydpi="12.1"
   inkscape:export-xdpi="12.1"
   inkscape:export-filename="genitourinary.png"
   sodipodi:docname="genitourinary.svg"
   inkscape:version="1.0 (4035a4fb49, 2020-05-01)"
   id="svg8"
   version="1.1"
   viewBox="0 0 210 210"
   height="210mm"
   width="210mm">
  <defs
     id="defs2" />
  <sodipodi:namedview
     inkscape:snap-global="false"
     inkscape:window-maximized="0"
     inkscape:window-y="0"
     inkscape:window-x="436"
     inkscape:window-height="1008"
     inkscape:window-width="1468"
     showgrid="false"
     inkscape:document-rotation="0"
     inkscape:current-layer="layer1"
     inkscape:document-units="mm"
     inkscape:cy="419.17618"
     inkscape:cx="472.98629"
     inkscape:zoom="0.7"
     inkscape:pageshadow="2"
     inkscape:pageopacity="0.0"
     borderopacity="1.0"
     bordercolor="#666666"
     pagecolor="#ffffff"
     id="base" />
  <metadata
     id="metadata5">
    <rdf:RDF>
      <cc:Work
         rdf:about="">
        <dc:format>image/svg+xml</dc:format>
        <dc:type
           rdf:resource="http://purl.org/dc/dcmitype/StillImage" />
        <dc:title />
      </cc:Work>
    </rdf:RDF>
  </metadata>
  <g
     id="layer1"
     inkscape:groupmode="layer"
     inkscape:label="Layer 1">
    <path
       transform="scale(0.26458333)"
       d="M 396.84961 0 C 177.75913 0 2.2737368e-13 177.75913 0 396.84961 C 3.644395e-14 615.94009 177.75913 793.70117 396.84961 793.70117 C 615.70829 793.70117 793.28849 616.3083 793.66406 397.53711 A 7.0866142 7.0866142 0 0 0 793.67188 397.41211 A 7.0866142 7.0866142 0 0 0 793.70117 396.84961 A 7.0866142 7.0866142 0 0 0 793.67188 396.20117 C 793.3166 177.41271 615.72084 1.8947806e-13 396.84961 0 z M 256.20312 58.279297 C 269.58205 58.193917 283.80084 62.6774 292.41406 68.333984 C 304.89082 76.527822 314.89988 97.226032 312.77539 114.63281 C 311.80871 122.5531 303.70067 134.61528 296.40625 141.33594 C 296.36263 141.3605 296.32434 141.37393 296.28125 141.40039 C 291.93679 144.21507 285.33063 145.40872 279.375 144.68945 C 273.41933 143.97021 268.41335 141.3529 265.625 138.84375 C 262.8367 136.33457 260.75174 134.19779 260.13281 134.56836 C 258.40705 135.59859 260.67679 139.46244 261.71484 141.18359 C 266.58965 146.22303 271.21871 149.58183 278.41211 150.68945 C 283.63026 151.49297 289.20778 151.5555 294.24219 150.125 C 296.31717 151.51475 298.75103 153.12101 301.22461 154.63281 C 305.90614 157.49407 311.69183 162.38553 315.10156 167.93359 C 326.98527 187.27075 322.51835 211.59347 322.29883 231.40234 C 321.95928 262.07341 321.82205 292.84387 318.8418 323.67383 C 314.73203 366.18021 300.29134 407.73505 308.82422 447.03711 C 312.41521 463.57685 322.93593 474.60223 327.96875 493.44336 C 332.03454 508.66393 330.37579 524.30397 329.48242 538.79102 C 328.67625 551.86293 324.41109 564.30374 321.17773 576.23242 C 317.94406 588.16125 315.75848 599.43483 318.07617 610.2168 C 319.04966 614.74577 323.86104 622.63159 328.51953 628.7793 C 330.81691 631.74161 331.50298 632.63824 334.85742 629.71289 C 340.2163 626.07869 345.90718 623.00285 351.43945 620.5293 C 362.07458 615.77424 379.28879 613.53512 396.84961 613.53516 C 414.41035 613.53516 431.62467 615.77424 442.25977 620.5293 C 447.75312 622.98542 453.40459 626.03401 458.73047 629.63477 C 461.84491 631.79322 462.79772 632.67017 465.17969 628.7793 C 469.83818 622.63159 474.64963 614.74573 475.62305 610.2168 C 477.94084 599.43479 475.75495 588.16125 472.52148 576.23242 C 469.28821 564.30374 465.02293 551.86293 464.2168 538.79102 C 463.32339 524.30401 461.66663 508.66393 465.73242 493.44336 C 470.7652 474.60223 481.28403 463.57681 484.875 447.03711 C 493.40785 407.73501 478.96912 366.18021 474.85938 323.67383 C 471.87914 292.84387 471.74009 262.07341 471.40039 231.40234 C 471.1808 211.59347 466.71583 187.27075 478.59961 167.93359 C 482.00935 162.38553 487.79505 157.49407 492.47656 154.63281 C 494.95007 153.12101 497.38207 151.51475 499.45703 150.125 C 504.49144 151.55548 510.0709 151.49295 515.28906 150.68945 C 522.48241 149.58183 527.11157 146.22303 531.98633 141.18359 C 533.02453 139.46244 535.29417 135.59859 533.56836 134.56836 C 532.94946 134.19781 530.86253 136.33457 528.07422 138.84375 C 525.28591 141.3529 520.27992 143.97021 514.32422 144.68945 C 508.36863 145.40872 501.76261 144.21507 497.41797 141.40039 C 497.37715 141.37393 497.34179 141.3605 497.29492 141.33594 C 490.00051 134.61528 481.89059 122.5531 480.92383 114.63281 C 478.79943 97.226032 488.81028 76.527822 501.28711 68.333984 C 509.90027 62.6774 524.11717 58.193895 537.49609 58.279297 C 543.57743 58.318188 549.48742 59.30284 554.61719 61.548828 C 578.60611 72.052079 594.90678 99.889552 600.1875 125.53906 C 606.95936 158.43176 609.71285 197.67774 593.64453 226.86719 C 582.95229 246.29055 560.46893 262.72355 538.29883 263 C 519.77869 263.23074 501.32344 250.78681 492.5625 234.14062 C 485.11207 219.98381 482.19004 202.21865 485.77148 186.62695 C 487.29486 179.99433 493.14307 172.81576 497.05469 168.58398 C 493.33699 167.77159 488.32847 169.78305 486.41992 172.73633 C 476.63654 187.87434 478.63918 210.39499 478.87109 231.30469 C 479.21087 262.01639 478.31754 292.50963 481.24414 322.78125 C 485.20388 363.73563 501.39219 406.34962 492.13477 448.98828 C 487.97479 468.1489 478.99861 479.35908 474.60352 495.8125 C 471.1163 508.86774 474.17791 523.50175 475.08594 538.22656 C 475.78889 549.62505 480.78526 561.19507 484.11914 573.49414 C 487.45295 585.79337 488.80171 604.11141 485.9668 617.29883 C 484.44962 624.35642 479.76778 631.53269 475.18945 637.71094 C 472.88927 640.78615 472.00515 641.33189 475.32422 644.51172 C 479.7372 649.96622 483.01787 656.04774 484.4375 662.70508 C 488.11797 679.96429 476.85733 698.62685 465.5293 712.1582 C 454.26789 725.60988 424.80847 735.42817 420.44531 739.30664 C 416.14875 743.12582 411.09848 765.37461 408.45703 779.34766 C 404.60145 779.46239 400.73311 779.52734 396.84961 779.52734 C 392.96653 779.52734 389.0993 779.46237 385.24414 779.34766 C 382.60273 765.37461 377.55239 743.12582 373.25586 739.30664 C 368.89269 735.42817 339.43325 725.60992 328.17188 712.1582 C 316.84379 698.62685 305.58125 679.96429 309.26172 662.70508 C 310.66693 656.11551 313.89704 650.0914 318.24219 644.67969 C 321.80345 640.41525 320.41316 639.97108 316.84766 635.41992 C 312.84432 629.7927 309.0657 623.50096 307.73242 617.29883 C 304.89759 604.11141 306.24828 585.79337 309.58203 573.49414 C 312.9159 561.19507 317.9123 549.62505 318.61523 538.22656 C 319.52323 523.50175 322.58492 508.86774 319.09766 495.8125 C 314.70261 479.35908 305.72442 468.1489 301.56445 448.98828 C 292.30707 406.34962 308.49733 363.73563 312.45703 322.78125 C 315.3836 292.50963 314.49024 262.01639 314.83008 231.30469 C 315.06157 210.39499 317.06063 187.87434 307.27734 172.73633 C 305.36869 169.78305 300.36235 167.77159 296.64453 168.58398 C 300.55615 172.81576 306.4042 179.99433 307.92773 186.62695 C 311.50911 202.21865 308.58732 219.98381 301.13672 234.14062 C 292.37588 250.78681 273.92249 263.23068 255.40234 263 C 233.23217 262.72355 210.7469 246.29055 200.05469 226.86719 C 183.98634 197.67774 186.73987 158.43176 193.51172 125.53906 C 198.79241 99.889552 215.09513 72.052079 239.08398 61.548828 C 244.2137 59.30284 250.12178 58.318249 256.20312 58.279297 z M 274.93945 154.39648 C 270.34453 154.32467 266.84961 155.35938 266.84961 155.35938 C 264.90353 155.84688 255.23534 160.73059 255.72656 162.67578 C 256.21414 164.61494 266.57714 161.85721 268.51758 161.375 C 268.51758 161.375 279.58867 160.27358 284.44727 165.17969 C 287.10813 167.86664 289.99402 171.72663 288.54297 176.20898 C 287.92985 178.11467 287.6227 181.43952 288.80078 181.8125 C 290.10038 182.06187 292.02142 180.16662 292.63672 178.26172 C 294.54502 172.36679 294.653 165.15941 289.60742 160.06445 C 285.22924 155.64342 279.53438 154.46827 274.93945 154.39648 z M 518.75977 154.39648 C 514.1648 154.4683 508.47004 155.64342 504.0918 160.06445 C 499.04632 165.15941 499.1541 172.36679 501.0625 178.26172 C 501.67773 180.16662 503.59877 182.06195 504.89844 181.8125 C 506.0772 181.43954 505.7712 178.11467 505.1582 176.20898 C 503.70709 171.72663 506.59105 167.86664 509.25195 165.17969 C 514.11069 160.27358 525.18359 161.375 525.18359 161.375 C 527.12408 161.85721 537.48491 164.61494 537.97266 162.67578 C 538.46388 160.73059 528.7976 155.84688 526.85156 155.35938 C 526.85156 155.35938 523.3566 154.32465 518.76172 154.39648 L 518.75977 154.39648 z M 257.75195 506.30273 C 259.53425 506.28006 261.32187 506.52903 263.00391 506.92188 C 267.48938 507.96514 271.74557 510.025 275.08203 511.71094 C 287.7767 518.12585 293.90756 531.76415 301.9668 541.03125 C 304.11332 543.49947 305.87946 546.04125 307.55273 548.55078 C 306.89685 551.00124 306.09088 553.64408 305.26562 556.30664 C 302.56559 552.15286 300.30524 547.96994 297.52539 544.77344 C 288.78516 534.72326 282.07612 523.09218 271.92188 517.96094 C 268.71051 516.33816 264.82365 514.53039 261.41797 513.73828 C 258.0123 512.94617 255.58833 513.16624 253.99609 514.56055 C 253.25017 515.2135 253.07681 515.75793 253.14453 517.30859 C 253.20988 518.85922 253.79323 521.09637 254.51758 523.54297 C 255.24242 525.98968 256.09152 528.64094 256.41797 531.45117 C 256.74448 534.26129 257.34371 538.21174 255.36719 540.9082 C 252.28788 545.10971 246.32013 546.4763 241.78516 545.40234 C 236.10453 544.05717 233.11621 540.03436 230.82422 536.31055 C 229.67827 534.4486 228.10097 533.36818 227.07617 532.26758 C 226.05144 531.16694 225.26107 530.68461 224.27344 530.53906 C 215.74895 529.27893 211.0961 533.73686 206.46094 541.48047 C 202.0038 548.92678 203.88858 559.39219 210.03125 565.88281 C 216.17387 572.37328 222.76787 577.40099 230.13867 580.51562 C 236.6786 583.27906 244.13515 583.01489 251.0625 584.48438 C 256.12636 590.04414 240.66635 587.67501 238.44336 591.92188 C 239.20344 598.78916 234.89643 603.6036 227.43359 602.69141 C 219.01102 602.3263 217.93493 615.09652 209.63281 614.29492 C 199.93849 610.50152 199.82889 629.53582 189.91016 624.26172 C 183.88272 618.3251 190.46383 608.89932 190.64062 601.95508 C 191.53149 591.79042 192.73122 581.145 189.89453 570.71094 C 187.05792 560.27676 186.16586 546.64611 192.57227 535.94336 C 198.77661 525.57823 214.02917 518.52706 226.38281 520.35352 C 229.2954 520.78374 231.60964 522.4181 233.29883 524.23242 C 234.98794 526.04667 236.21908 528.08497 237.38086 529.97266 C 239.70451 533.74803 241.28663 537.14317 243.2793 537.61523 C 245.0107 538.02524 248.13572 537.03769 248.86328 536.04492 C 249.46811 535.22227 249.67504 534.11986 249.45898 532.25977 C 249.24276 530.39948 248.54145 528.02716 247.80078 525.52734 C 247.06021 523.02741 246.26703 520.40476 246.14453 517.60742 C 246.02189 514.81042 246.84943 511.52385 249.38672 509.30273 C 251.35048 507.58339 253.62468 506.72224 255.97852 506.42773 C 256.56694 506.3563 257.15791 506.30651 257.75195 506.30273 z M 535.94922 506.30273 C 536.54317 506.31029 537.13422 506.35479 537.72266 506.42773 C 540.07647 506.72178 542.35061 507.58339 544.31445 509.30273 C 546.8518 511.52385 547.67959 514.81034 547.55664 517.60742 C 547.43418 520.40469 546.64095 523.02749 545.90039 525.52734 C 545.15975 528.02731 544.45823 530.3996 544.24219 532.25977 C 544.02638 534.11994 544.23411 535.22219 544.83789 536.04492 C 545.56537 537.03758 548.68837 538.02497 550.41992 537.61523 C 552.41256 537.1434 553.99474 533.74803 556.31836 529.97266 C 557.48022 528.08497 558.71324 526.04663 560.40234 524.23242 C 562.09149 522.41814 564.40379 520.78389 567.31641 520.35352 C 579.66998 518.5271 594.92455 525.57823 601.12891 535.94336 C 607.53528 546.64611 606.64321 560.27687 603.80664 570.71094 C 600.96999 581.145 602.16979 591.79049 603.06055 601.95508 C 603.23781 608.89936 609.81857 618.3251 603.79102 624.26172 C 593.87233 629.53586 593.76273 610.50156 584.06836 614.29492 C 575.76629 615.09652 574.69018 602.32717 566.26758 602.69141 C 558.80486 603.6036 554.49771 598.78924 555.25781 591.92188 C 553.03473 587.67505 537.57479 590.04421 542.63867 584.48438 C 549.56598 583.01489 557.02263 583.2791 563.5625 580.51562 C 570.93341 577.40099 577.52529 572.37336 583.66797 565.88281 C 589.81065 559.39219 591.69736 548.92674 587.24023 541.48047 C 582.60514 533.73686 577.95219 529.28081 569.42773 530.54102 C 568.44007 530.68691 567.64584 531.1669 566.62109 532.26758 C 565.59627 533.36818 564.02291 534.4486 562.87695 536.31055 C 560.58486 540.03433 557.5927 544.05706 551.91211 545.40234 C 547.37713 546.47622 541.41133 545.10971 538.33203 540.9082 C 536.35553 538.21174 536.95665 534.26133 537.2832 531.45117 C 537.60938 528.64098 538.45872 525.98968 539.18359 523.54297 C 539.90802 521.0964 540.49141 518.85922 540.55664 517.30859 C 540.62467 515.75793 540.45112 515.21365 539.70508 514.56055 C 538.11284 513.16635 535.68694 512.94617 532.28125 513.73828 C 528.87559 514.53039 524.99053 516.33816 521.7793 517.96094 C 511.62492 523.09221 504.91402 534.72322 496.17383 544.77344 C 493.39406 547.96997 491.13564 552.15283 488.43555 556.30664 C 487.61025 553.644 486.80434 551.00323 486.14844 548.55273 C 487.82175 546.04328 489.58794 543.49951 491.73438 541.03125 C 499.79365 531.76415 505.92255 518.12593 518.61719 511.71094 C 521.95364 510.025 526.20992 507.96514 530.69531 506.92188 C 532.37739 506.52793 534.16694 506.28387 535.94922 506.30273 z M 395.63086 543.73242 C 397.38755 543.73998 399.13421 543.80723 400.86523 543.92969 C 417.69513 545.11778 436.25622 549.64848 448.37891 561.38281 C 452.4024 565.33968 452.90352 570.26287 459.95117 567.55469 C 460.15716 567.5082 460.37824 567.44511 460.58789 567.39258 C 461.19023 569.52238 461.75703 571.55627 462.3418 573.5957 C 461.77763 573.72912 461.19502 573.88083 460.64453 574.00586 C 455.4933 575.16572 455.80275 575.95535 456.62109 581.74219 C 456.83728 591.64504 452.91291 601.78632 447.21289 610.00195 C 433.91617 604.4533 416.62237 602.64848 398.76758 602.64844 C 380.28214 602.6484 362.3806 604.57003 348.91211 610.5918 C 348.37141 610.83369 347.8223 611.09969 347.27734 611.35156 C 346.43451 610.56009 345.69771 609.73912 345.11523 608.89258 C 339.18285 600.27083 335.34873 588.51378 337.8418 578.34961 C 339.02402 574.3311 337.33498 574.89038 333.05664 574.00586 C 332.50593 573.88151 331.92167 573.72942 331.35742 573.5957 C 331.94224 571.55627 332.51092 569.52238 333.11328 567.39258 C 333.32289 567.44398 333.54259 567.50782 333.75 567.55469 C 338.56248 568.62633 342.41919 569.77247 345.47461 564.50781 C 349.64131 559.75732 354.89888 555.75361 360.14258 552.65625 C 370.60162 546.47835 383.33398 543.68195 395.63086 543.73438 L 395.63086 543.73242 z M 260.06836 591.03125 C 264.1711 591.16164 268.86761 590.81296 272.18359 593.23242 C 273.86433 594.45888 275.11732 596.65776 275.12109 598.73828 C 275.13583 608.42827 268.55092 617.75559 261.53516 624.43945 C 252.33858 633.20081 239.25939 640.48035 227.02344 640.5957 C 219.37426 640.66827 211.70243 635.23401 210.0625 633.32422 C 209.44064 632.6001 207.72909 629.57523 206.55273 626.13477 C 206.8277 625.72404 207.09946 625.30637 207.3418 624.95117 C 208.11403 623.82147 208.20084 623.75769 210.67188 623.75391 C 213.14296 623.75013 217.57017 622.02626 220.26562 619.94922 C 222.96095 617.87229 224.46189 615.7498 225.65234 614.21289 C 226.83594 612.68475 227.69133 611.74535 227.91602 611.5625 C 233.272 611.82064 238.75197 610.38923 242.48828 606.58789 C 244.84371 604.19148 246.12531 601.18848 246.85156 598.04297 C 247.63795 597.90124 248.10877 597.79595 249.08984 597.61914 C 251.11433 597.25404 253.24944 597.68965 257.25391 594.44141 C 258.14456 593.71872 259.06688 592.47818 259.47656 591.75391 C 259.88572 591.02975 259.97779 591.02747 260.06836 591.03125 z M 533.63086 591.03125 C 533.72157 591.02826 533.81322 591.03001 534.22266 591.75391 C 534.63213 592.47821 535.55662 593.71872 536.44727 594.44141 C 540.45175 597.69002 542.58491 597.25491 544.60938 597.61914 C 545.59046 597.7964 546.0632 597.89864 546.84961 598.04102 C 547.57585 601.18657 548.85557 604.19148 551.21094 606.58789 C 554.9473 610.38923 560.42532 611.81956 565.78125 611.56055 C 566.00613 611.74348 566.86523 612.68471 568.04883 614.21289 C 569.2393 615.74972 570.74014 617.87225 573.43555 619.94922 C 576.13099 622.02626 580.55437 623.74817 583.02539 623.75195 C 585.49648 623.75573 585.58714 623.82196 586.35938 624.95117 C 586.60202 625.30607 586.87277 625.72228 587.14648 626.13281 C 585.97014 629.57328 584.26052 632.60002 583.63867 633.32422 C 581.99873 635.2339 574.32306 640.66654 566.67383 640.59375 C 554.43795 640.47885 541.36251 633.20089 532.16602 624.43945 C 525.15012 617.75562 518.565 608.42816 518.58008 598.73828 C 518.58386 596.65769 519.83686 594.45888 521.51758 593.23242 C 524.83362 590.81322 529.52814 591.16172 533.63086 591.03125 z "
       style="fill:#000000;stroke-width:5.43632;stroke-linecap:round;stroke-linejoin:round"
       id="path855" />
    <ellipse
       style="fill:none;stroke:#000000;stroke-width:1.85;stroke-linecap:round;stroke-linejoin:round;stroke-miterlimit:4;stroke-dasharray:none"
       id="path832"
       cx="105.00001"
       cy="105.00001"
       r="104.075" />
  </g>
</svg>
