<?xml version="1.0" encoding="UTF-8" standalone="no"?>
<svg
   xmlns:dc="http://purl.org/dc/elements/1.1/"
   xmlns:cc="http://creativecommons.org/ns#"
   xmlns:rdf="http://www.w3.org/1999/02/22-rdf-syntax-ns#"
   xmlns:svg="http://www.w3.org/2000/svg"
   xmlns="http://www.w3.org/2000/svg"
   xmlns:sodipodi="http://sodipodi.sourceforge.net/DTD/sodipodi-0.dtd"
   xmlns:inkscape="http://www.inkscape.org/namespaces/inkscape"
   inkscape:export-ydpi="12.0952"
   inkscape:export-xdpi="12.0952"
   inkscape:export-filename="cardiovascular.png"
   width="210mm"
   height="210mm"
   viewBox="0 0 210 210"
   version="1.1"
   id="svg8"
   inkscape:version="1.0 (4035a4fb49, 2020-05-01)"
   sodipodi:docname="cardiovascular.svg">
  <defs
     id="defs2" />
  <sodipodi:namedview
     inkscape:snap-global="false"
     id="base"
     pagecolor="#ffffff"
     bordercolor="#666666"
     borderopacity="1.0"
     inkscape:pageopacity="0.0"
     inkscape:pageshadow="2"
     inkscape:zoom="0.35"
     inkscape:cx="882.1876"
     inkscape:cy="573.34644"
     inkscape:document-units="mm"
     inkscape:current-layer="layer1"
     inkscape:document-rotation="0"
     showgrid="false"
     inkscape:window-width="1698"
     inkscape:window-height="1040"
     inkscape:window-x="182"
     inkscape:window-y="0"
     inkscape:window-maximized="0" />
  <metadata
     id="metadata5">
    <rdf:RDF>
      <cc:Work
         rdf:about="">
        <dc:format>image/svg+xml</dc:format>
        <dc:type
           rdf:resource="http://purl.org/dc/dcmitype/StillImage" />
        <dc:title></dc:title>
      </cc:Work>
    </rdf:RDF>
  </metadata>
  <g
     inkscape:label="Layer 1"
     inkscape:groupmode="layer"
     id="layer1">
    <path
       transform="scale(0.26458333)"
       d="M 396.63867 0 A 396.85039 396.85039 0 0 0 0 396.84961 A 396.85039 396.85039 0 0 0 396.84961 793.70117 A 396.85039 396.85039 0 0 0 793.70117 396.84961 A 396.85039 396.85039 0 0 0 396.84961 0 A 396.85039 396.85039 0 0 0 396.63867 0 z M 427.87109 57.611328 C 432.17465 57.784075 436.23966 59.792959 439.2832 64.472656 C 444.19731 76.075447 448.96253 87.676503 453.27539 99.279297 C 456.52552 108.02308 458.68789 116.766 465.13867 125.50977 C 467.53157 128.78545 469.79123 131.3114 471.92383 133.63281 L 471.86719 133.67383 L 487.19531 153.23438 C 497.95861 168.62035 500.85507 166.3705 490.03516 151.39844 L 482.53516 140.61719 C 481.11787 138.57982 480.04057 137.581 480.70898 135.04102 C 483.78813 119.77624 485.11991 108.43072 492.78906 96.294922 L 498.23633 87.439453 C 502.47284 80.550281 503.83675 77.93387 512.13281 78.462891 C 521.87371 81.254752 546.33768 78.515614 543.4082 91.492188 C 543.30026 95.082448 542.87498 97.709878 541.12109 102.26367 C 529.14959 127.42634 526.68036 127.95683 531.32227 155.30664 C 532.68074 166.85321 532.94139 176.59296 539.24609 186.1543 C 542.87973 193.01312 548.08141 199.47264 552.99805 204.91602 C 556.18026 208.43441 557.6415 209.47183 553.51758 213.40039 C 549.43176 218.61133 546.54911 223.81194 542.52539 228.82617 C 540.44374 231.41959 537.92991 232.77468 535.99805 233.46094 C 534.06622 234.14753 531.50812 234.32836 527.61914 234.18164 L 527.48047 234.18164 L 527.33984 234.18164 C 514.73807 234.97251 502.04764 236.42572 489.21875 238.87109 L 489.20312 238.87109 C 456.00753 245.34923 421.06684 259.46659 392.88086 282.97656 C 376.88929 295.5053 362.11343 309.27501 349.42578 322.58203 C 313.63667 362.11148 330.02569 348.3589 353.51172 324.61719 C 366.11198 312.08381 380.86833 299.3941 396.28906 287.3125 L 396.31641 287.28711 L 396.3457 287.25586 C 423.64833 264.46094 457.7985 250.61175 490.24805 244.27734 C 502.79324 241.88604 515.24153 240.47122 527.63672 239.69141 C 531.64347 239.83374 534.86372 239.71796 537.84766 238.6582 C 540.89033 237.57738 544.37037 235.332 546.82227 232.27734 C 553.12278 224.42584 558.40767 214.78174 567.67383 207.0332 L 574.59961 202.03711 C 578.95514 198.0506 582.31228 188.85765 588.09961 192.31641 C 598.99187 198.49892 600.46602 208.49979 603.48242 218.02148 C 604.98645 222.73724 608.06927 225.90711 603.4082 230.34375 L 600.36133 234.55664 C 598.18753 240.64652 597.12053 246.41281 600.36133 250.91016 C 602.07115 253.96689 603.78259 254.62377 605.49219 255.16211 C 625.73878 258.35777 631.22636 266.77992 633.48047 280.94922 C 634.44013 288.70971 631.85105 291.03367 631.25195 294.67578 C 630.21364 302.36662 634.5797 303.90565 628.16406 318.8457 C 624.82028 325.62522 621.00098 331.21696 617.11328 336.63672 C 607.35394 350.22144 604.85856 353.31982 590.75 347.15625 C 576.6414 340.99266 543.71807 334.31493 523.0332 331.80078 L 522.86133 331.78516 L 522.67773 331.78516 C 513.33285 332.01127 505.19877 333.77258 498.10547 336.91211 L 498.01953 336.95312 L 497.93359 336.99414 C 486.64146 343.06793 476.79288 355.41353 468.98438 369.16016 L 418.06055 455.33008 C 411.96727 466.88988 402.89661 482.73355 422.18555 457.76758 L 446.93359 415.92188 C 448.02395 413.90051 451.18277 408.79399 452.98047 413.74219 C 454.85935 417.46498 456.18734 420.94936 455.42773 423.52148 C 454.86897 425.41306 453.59852 426.53175 451.32227 427.64648 C 449.04597 428.76114 447.0613 429.77088 445.25586 431.83008 C 443.18283 434.19436 441.19614 438.06486 439.5 441.39258 C 438.09995 444.53605 436.39141 447.82605 434.7207 450.63477 C 428.27272 461.53549 430.508 458.72187 435.25195 451.24219 C 437.56022 447.91813 439.23245 445.10894 440.70703 442.20312 C 442.3749 438.93092 444.67621 435.15094 446.49023 433.08203 C 447.86092 431.51878 450.64789 430.51398 453.01758 429.35352 C 455.3873 428.19305 457.81519 426.7873 458.62109 424.05859 C 459.7034 420.3937 457.82883 415.73473 455.875 411.86328 C 454.0826 408.50067 453.81616 406.51161 456.37305 402.88281 C 458.90748 400.51078 459.81858 400.81741 461.57031 404.32617 C 463.84725 408.10509 466.20523 412.31741 467.41211 415.45117 C 472.18373 427.84084 472.85481 441.61704 476.04492 454.8418 C 478.988 467.04215 480.63913 479.86665 485.73242 491.60938 C 491.1534 504.10782 502.86035 513.02431 506.89844 525.25195 C 508.79648 530.99929 510.14168 540.38092 510.37109 548.24805 C 510.60017 556.11525 510.22266 562.5 510.22266 562.5 C 510.01788 568.61607 507.36318 595.10917 511.33984 562.57031 C 511.33984 562.57031 512.25519 556.13466 512.02539 548.19531 C 511.79397 540.25607 511.26424 530.84387 509.22266 524.66211 C 504.93357 511.67441 493.81744 502.71313 488.67188 490.84961 C 483.7216 479.43631 482.23948 466.7424 479.26367 454.40625 C 476.1309 441.4193 475.63769 427.54961 470.71875 414.77734 C 468.8065 409.81184 464.55147 401.89614 461.78516 396.89258 C 462.41475 393.9227 463.27278 391.75652 464.56836 390.37109 C 467.70609 388.12757 468.55515 389.19705 470.21289 392.89648 C 480.8896 412.40818 496.79417 432.47615 511.89062 448.95508 C 520.84969 458.73457 529.51313 467.24714 536.62109 473.60352 C 540.78171 477.32427 544.3529 480.28574 547.20508 482.35938 C 551.56514 485.51486 552.22678 486.41703 549.82031 492.54297 C 543.35592 514.76387 535.80125 536.98636 526.09766 559.20703 C 491.49635 634.9827 482.40414 650.44991 457.96484 685.58984 C 445.40207 703.65311 425.95082 715.29297 408.87695 723.83398 C 393.91743 731.24809 376.97714 737.56968 358.70312 735.80078 C 330.31681 734.82392 325.23644 726.27405 314.20703 719.65625 C 277.34664 684.29431 248.54314 636.3045 224.27539 583.39062 C 205.99136 543.52375 200.72071 522.87699 197.29297 505.26367 C 193.81318 487.31764 192.56784 494.64206 206.74805 486.57617 C 216.94947 478.59033 224.9155 463.19051 232.98242 454.83594 C 247.64349 439.6518 256.52124 434.16996 266.48633 423.72656 C 278.19919 411.45141 291.87859 388.10678 293.94727 371.52734 C 295.70099 357.4719 294.94676 348.02398 292.20508 339.39062 C 289.4633 330.75727 284.81792 323.31025 280.33594 313.57617 C 272.61479 296.80716 259.66473 282.52592 245.58008 270.93359 C 239.95301 266.30228 232.98766 262.32919 226.46875 260.23242 C 223.2093 259.18404 220.05616 258.6112 217.16211 258.72852 C 213.94013 259.12207 213.37104 259.44474 215.73828 256.24219 C 219.61294 244.34136 219.20303 225.47541 216.04492 197.09375 L 210.44336 154.25586 C 209.55521 145.94173 208.16859 141.93694 214.66211 135.88672 C 222.78281 128.20696 231.73056 123.99232 239.93555 121.62109 C 243.70654 120.69421 259.93631 126.17248 254.05273 133.93555 C 248.60428 145.54213 245.83758 157.32159 243.4668 168.76758 L 243.4668 168.7832 C 241.00152 181.28781 239.38029 191.61949 235.81445 198.31836 C 233.57935 203.93204 225.0597 210.44807 225.66016 211.69141 C 226.76123 212.88704 236.60596 203.33372 238.40039 199.56641 C 241.88097 192.26081 244.95929 182.30796 247.46875 169.58398 L 247.46875 169.57031 C 250.21154 156.33331 253.45277 142.78192 260.88281 129.60938 C 263.34244 125.93529 266.11336 123.03227 272.96875 119.17969 C 281.0351 115.03962 289.86886 115.89275 299.21875 120.0957 C 309.36997 125.08787 316.6269 136.77141 328.01172 145.13867 C 332.74647 148.59677 337.55789 150.48443 338.99609 157.24805 C 339.16757 160.3081 340.48452 165.41719 339.09766 168.59766 C 336.93233 174.96568 334.92354 181.33158 333.07031 187.69922 C 330.53924 196.41357 328.20082 203.19539 319.8418 209.08203 C 309.84272 218.86346 301.2687 228.63488 293.78906 238.15234 C 289.43761 244.05395 271.48343 269.64927 273.82227 271.11328 C 275.32442 271.73055 294.54469 244.97368 297.17188 241.59961 C 307.14148 228.85931 319.05847 215.67824 333.79883 202.61914 C 341.56934 196.21248 346.30465 190.83893 349.40234 185.9043 C 351.4346 179.29427 356.09713 170.97582 353.40039 162.29688 C 351.61018 153.18687 336.87953 130.81105 328.47461 113.56445 C 325.28385 107.40766 324.12491 101.40786 325.10938 95.572266 C 326.545 86.16159 336.5155 84.182895 344.54883 82.267578 C 352.27889 81.687167 361.17819 83.364873 367.95508 86.279297 C 382.76721 100.62505 395.14079 122.46207 410.95898 139.94727 C 412.67576 142.14286 414.8848 145.2726 417.18555 148.37695 C 420.36107 152.66164 423.62639 156.9166 427.27148 159.10742 L 427.35352 159.16211 L 427.43945 159.20703 C 437.74282 164.34531 438.51624 164.0091 445.32812 172.25586 C 450.34979 178.37059 453.52723 182.51047 447.23828 170.58984 C 443.93758 163.37894 435.91261 157.90875 429.69336 154.95312 C 427.50996 153.61989 424.10775 149.66866 421.03125 145.51758 C 419.67107 143.67934 417.47852 141.43798 416.92773 138.9082 C 413.52174 122.77014 408.15626 110.11779 403.16797 95.296875 C 401.32719 89.815831 398.58101 84.187682 401.85352 78.328125 C 405.44788 69.877944 411.3965 63.781651 417.76758 60.142578 C 421.03264 58.452978 424.52394 57.477042 427.87109 57.611328 z M 242.11133 124.07227 C 240.88369 124.09082 239.66689 124.18026 238.58203 124.26953 C 235.17755 124.54958 231.70882 126.47664 228.70508 128.10352 C 225.5189 129.82919 222.57679 131.33223 220.10156 133.97852 C 218.91752 135.24438 215.96654 137.78895 216.52539 139.42969 C 217.09356 141.09662 220.26636 143.01877 221.46484 141.72852 C 224.36338 138.60789 225.22676 131.30588 232.44922 128.69922 C 234.42594 127.98578 237.50659 127.1111 239.60352 127.25 C 242.8167 127.46292 245.10915 128.47965 248.54492 128.52734 C 249.1484 128.53598 250.57178 128.34779 250.41992 127.76367 C 249.59834 124.60316 245.79422 124.01656 242.11133 124.07227 z M 288.27539 126.4668 C 285.82074 126.42681 283.54018 126.8361 282.10547 128.16211 C 279.2359 130.81415 280.54857 134.25839 281.43555 137.61914 C 282.85805 143.00729 286.47302 150.32649 291.99023 151.11133 C 302.42178 152.59523 310.96801 151.03015 318.7207 152.55664 C 322.67071 153.33438 328.43563 151.30708 324.49609 148.94336 C 318.45831 145.32071 315.2181 139.19116 309.48633 135.10156 C 305.01396 131.91051 300.84431 128.64354 295.47852 127.46289 C 293.35979 126.99671 290.73005 126.50667 288.27539 126.4668 z M 218.18164 262.78906 C 220.2248 262.83128 222.64533 263.29139 225.21875 264.11914 C 231.10086 266.01108 237.7608 269.78578 242.99023 274.08984 C 256.75272 285.41697 269.26979 299.28807 276.63281 315.2793 C 281.22789 325.25895 285.78038 332.62913 288.32031 340.62695 C 290.86004 348.62478 291.53748 357.33785 288.30469 370.55469 C 284.52717 385.99998 273.32844 402.53653 262.29492 414.44922 C 252.87854 424.61603 243.75857 430.06122 228.84961 445.50195 C 220.02475 454.64157 211.9846 469.85917 203.03711 476.86328 C 200.68824 478.70202 197.87732 479.61963 195.35352 480.06055 C 191.58784 480.71837 188.35742 480.53516 188.35742 480.53516 C 185.24179 480.3952 181.24421 478.32286 178.74609 476.34961 C 173.21756 471.98259 170.90152 466.3307 168.4082 460.75586 C 159.87485 441.67552 159.19903 423.07772 160.55469 404.59375 C 163.23555 369.33402 173.38241 340.64564 186.46484 310.18555 C 192.66021 295.20438 198.21196 285.18784 204.88477 274.51758 C 206.86415 271.35554 208.88926 266.95571 212.48633 264.55469 C 213.53991 263.48735 215.123 262.88634 217.33008 262.79688 C 217.60596 262.78569 217.88976 262.78303 218.18164 262.78906 z M 524.08203 344.6543 C 531.93101 345.61451 542.41553 346.97623 552.38086 349.89844 C 560.06267 352.15101 566.69583 355.87316 570.98828 359.80859 C 577.84495 382.1156 581.94761 405.87431 577.19531 432.14062 C 572.5036 458.07245 568.32337 472.35063 559.45898 479.07422 C 555.76219 481.84756 553.27456 482.19487 549.42969 478.65625 C 546.35739 476.36544 542.41713 473.13353 538.38672 469.5293 C 531.33507 463.22312 522.70254 454.75934 513.78516 445.02539 C 499.14527 429.04483 483.73115 409.63816 473.17969 390.81445 C 470.67087 387.5119 475.59908 379.58229 479.54688 372.95703 C 483.31881 366.32221 491.70105 354.68992 501.56641 349.3457 C 507.97312 346.52216 515.37506 344.88292 524.08203 344.6543 z M 460.06055 431.47656 C 459.40858 431.47131 458.42999 432.50038 458.3457 433.10938 C 458.3457 433.10937 457.50078 441.28167 456.3125 447.54688 C 455.12418 453.81197 453.23755 461.17446 451.32617 465.72656 C 446.79225 476.52479 439.6724 486.60423 431.98828 495.53711 C 422.675 506.36383 409.61061 512.54749 400.28516 524.12305 C 386.07806 541.75825 378.7266 564.40714 367.80273 583.86914 C 364.78545 589.24484 360.39808 598.18404 356.35938 605.32617 C 332.26496 647.11611 339.49229 638.02 358 605.28906 C 362.25678 597.76017 366.69429 589.89036 369.88867 584.19922 C 380.92131 564.54333 388.62516 542.85846 402.56055 525.56055 C 411.50752 514.45475 425.61997 507.93568 435.30078 496.68164 C 443.07055 487.64933 450.08046 477.60794 454.7207 466.55664 C 456.76097 461.69749 458.43764 454.2134 459.63477 447.89648 C 460.83193 441.57957 461.28516 432.91992 461.28516 432.91992 C 461.14131 431.85648 460.71255 431.48019 460.06055 431.47656 z M 466.49414 449.80859 C 466.23252 449.83033 465.92471 450.09285 465.58984 450.66602 C 464.52402 452.49092 462.15919 459.25683 461.62109 461.05078 C 461.62109 461.05078 457.29073 473.32689 454.89258 479.31445 C 451.0556 488.89465 444.23901 497.77407 442.31641 508.41016 C 440.05394 520.9261 441.24221 534.09723 444.24414 546.37695 C 446.21913 554.4563 450.60381 561.62154 454.80664 568.72656 C 459.00951 575.83158 463.03053 582.87365 464.46875 590.64844 C 466.29978 600.54657 465.97486 615.95025 464.54688 628.79883 C 463.87488 634.84566 462.73828 641.17715 462.10547 645.29102 C 461.85167 651.07751 459.08747 655.8248 457.12695 660.63281 C 452.82876 671.17172 449.94517 678.73796 458.0625 661.24805 C 461.03003 655.89393 463.05183 650.65656 464.00586 645.72266 C 464.81865 641.4959 465.94764 635.58194 466.67773 629.01172 C 468.11361 616.09046 468.7529 600.65247 466.83789 590.29883 C 465.32181 582.10387 461.51028 574.99262 457.29883 567.87305 C 453.08738 560.75351 448.94996 553.6208 447.06836 545.92383 C 444.1136 533.83648 442.95281 520.91845 445.15234 508.75 C 446.96565 498.71898 453.54793 489.9494 457.51953 480.0332 C 459.95725 473.94661 467.00195 453.93359 467.00195 453.93359 C 467.64115 451.8132 467.27911 449.74321 466.49414 449.80859 z M 434.65234 509.17773 C 434.21645 509.18458 433.72392 509.3053 433.21875 509.56836 C 433.21875 509.56836 426.63116 513.07598 421.17969 516.48047 C 415.72806 519.88495 409.44343 524.2082 405.92578 528.17969 C 396.71352 538.58068 388.36851 551.33502 386.42383 565.28711 C 385.52884 571.70834 387.18983 577.90951 389.18164 584.00195 C 391.17353 590.09448 393.49741 596.11209 394.125 602.14062 C 396.08363 620.95031 396.93954 640.13975 394.125 658.75195 C 392.81781 667.39656 388.69946 681.27657 385.4668 690.26172 C 377.17228 712.42215 380.04873 707.58895 386.14844 690.77734 C 389.3994 681.79756 394.04528 668.19857 395.41797 659.12109 C 398.27 640.26061 397.99203 620.82849 396.02539 601.94336 C 395.36133 595.56669 393.22571 589.43905 391.25586 583.41406 C 389.28612 577.38908 388.16549 571.40026 388.99219 565.46875 C 390.85542 552.1012 399.04058 539.78109 408.11719 529.5332 C 411.3336 525.90168 418.50571 521.46416 423.89648 518.09766 C 429.28722 514.73119 435.69922 511.37695 435.69922 511.37695 C 436.74021 510.15643 435.96006 509.15884 434.65234 509.17773 z "
       style="fill:#000000;stroke-width:5.17912;stroke-linecap:round;stroke-linejoin:round"
       id="path844" />
  </g>
</svg>
