<?xml version="1.0" encoding="UTF-8" standalone="no"?>
<svg
   xmlns:dc="http://purl.org/dc/elements/1.1/"
   xmlns:cc="http://creativecommons.org/ns#"
   xmlns:rdf="http://www.w3.org/1999/02/22-rdf-syntax-ns#"
   xmlns:svg="http://www.w3.org/2000/svg"
   xmlns="http://www.w3.org/2000/svg"
   xmlns:sodipodi="http://sodipodi.sourceforge.net/DTD/sodipodi-0.dtd"
   xmlns:inkscape="http://www.inkscape.org/namespaces/inkscape"
   sodipodi:docname="integument.svg"
   inkscape:version="1.0 (4035a4fb49, 2020-05-01)"
   id="svg8"
   version="1.1"
   viewBox="0 0 210 210"
   height="210mm"
   width="210mm"
   inkscape:export-filename="C:\Users\art\Dropbox\projects\scientific\Yamamoto at Baylor\integument.png"
   inkscape:export-xdpi="12.0952"
   inkscape:export-ydpi="12.0952">
  <defs
     id="defs2" />
  <sodipodi:namedview
     inkscape:window-maximized="1"
     inkscape:window-y="-8"
     inkscape:window-x="-8"
     inkscape:window-height="1017"
     inkscape:window-width="1920"
     showgrid="false"
     inkscape:document-rotation="0"
     inkscape:current-layer="layer1"
     inkscape:document-units="mm"
     inkscape:cy="399.84818"
     inkscape:cx="274.02316"
     inkscape:zoom="0.70710678"
     inkscape:pageshadow="2"
     inkscape:pageopacity="0.0"
     borderopacity="1.0"
     bordercolor="#666666"
     pagecolor="#ffffff"
     id="base"
     inkscape:snap-global="false" />
  <metadata
     id="metadata5">
    <rdf:RDF>
      <cc:Work
         rdf:about="">
        <dc:format>image/svg+xml</dc:format>
        <dc:type
           rdf:resource="http://purl.org/dc/dcmitype/StillImage" />
        <dc:title />
      </cc:Work>
    </rdf:RDF>
  </metadata>
  <g
     id="layer1"
     inkscape:groupmode="layer"
     inkscape:label="Layer 1">
    <path
       transform="scale(0.26458333)"
       d="M 396.84961 0 C 177.71632 1.0204724e-06 1.0204722e-06 177.7163 0 396.84961 C 0 615.98295 177.71631 793.70117 396.84961 793.70117 C 615.98291 793.70117 793.70117 615.98295 793.70117 396.84961 C 793.70117 177.7163 615.98291 0 396.84961 0 z M 357.64062 53.085938 C 358.50108 53.601508 348.23845 75.275583 330.94531 104.00391 C 284.36167 181.33047 250.57582 271.95622 232.11914 368.52734 L 223.76367 367.55859 C 235.47588 296.72304 256.03208 226.55973 327.99414 102.71484 C 345.23931 76.620445 355.74111 54.134278 357.51367 53.115234 C 357.57077 53.082354 357.61148 53.072108 357.64062 53.085938 z M 594.57812 71.318359 C 595.56975 71.921724 596.55733 72.530433 597.54297 73.142578 C 533.79924 148.49259 478.30679 239.876 444.64648 338.71289 C 439.97442 350.45447 435.21948 362.3422 430.55078 374.37109 C 426.81457 375.25385 424.45903 375.03431 422.35742 374.60938 C 427.26627 361.25094 432.25691 348.20707 437.21289 335.75195 C 472.20311 248.90202 496.17613 183.23426 594.57812 71.318359 z M 17.683594 361.52734 C 60.430969 364.48951 101.98045 367.32669 145.03906 368.4082 C 144.98776 369.74412 145.8724 371.08308 147.41602 371.33398 C 148.92382 371.57928 151.93849 374.2976 153.36719 378.65039 C 154.78699 382.98194 156.02431 387.36852 157.16406 391.76758 C 155.43101 391.45577 153.69811 391.56672 152.41797 391.74414 C 142.88254 393.06573 133.34499 394.1038 123.79492 394.56445 C 88.839905 384.23298 52.544116 382.02839 16.367188 381.57422 C 16.632375 374.84481 17.073944 368.16232 17.683594 361.52734 z M 627.37891 362.23047 C 654.24114 362.26877 681.05769 363.94051 707.82227 368.5332 L 707.9375 368.54883 L 708.05469 368.55469 C 731.10245 369.93264 753.73244 366.36674 776.22266 363.82812 C 776.68648 369.23346 777.03563 374.67101 777.27148 380.13867 C 759.99405 377.06303 742.37557 376.14115 724.88281 376.33398 L 724.8457 376.33203 L 724.81445 376.33984 C 687.12134 379.06587 649.17711 376.09599 611.35742 380.98047 L 611.32812 380.98047 L 611.30469 380.98828 C 567.20127 388.83118 522.47447 383.68731 477.76172 382.8125 L 477.7207 382.8125 C 466.80664 382.1354 455.89644 381.95435 444.99609 381.8125 C 443.33529 381.7909 441.77478 381.93622 440.30078 382.23047 C 440.67219 381.72024 441.05892 381.20569 441.47266 380.6875 C 442.38587 379.54363 449.6662 372.43218 452.28711 371.88672 C 454.14517 371.46789 454.96957 371.74219 456.23828 371.69141 C 513.45964 369.4009 570.52178 362.14947 627.37891 362.23047 z M 152.51172 367.95898 L 156.7793 369.03125 L 164.26562 369.17773 C 163.78915 369.67308 163.41725 370.22842 163.14062 370.83203 C 163.13863 370.83703 163.13677 370.841 163.13477 370.8457 C 162.73072 371.7334 162.54527 372.73003 162.60742 373.82227 C 162.61242 373.91147 162.62461 374.00327 162.63281 374.09375 C 162.65731 374.35906 162.69521 374.62863 162.74805 374.9043 C 162.76855 375.0118 162.79151 375.11947 162.81641 375.22852 C 162.87871 375.5003 162.95694 375.77764 163.04688 376.05859 C 163.08227 376.16944 163.11258 376.27839 163.15234 376.39062 C 163.28966 376.77752 163.44486 377.16966 163.63477 377.57227 C 163.93524 378.46184 164.23919 379.36128 164.50977 380.26562 C 168.43967 393.00467 174.86486 417.14657 171.16406 443.02148 C 170.68515 446.36998 169.98828 449.59582 169.08984 452.8125 C 168.79037 453.88472 168.4689 454.95489 168.125 456.0293 C 166.7493 460.32751 165.02335 464.67601 162.98047 469.3457 C 157.59797 481.64852 154.61516 495.18621 152.75586 509.27148 C 152.07304 514.44379 151.60732 519.689 151.36719 524.97461 C 151.2071 528.49835 151.14745 532.04102 151.19141 535.58984 C 151.23531 539.13867 151.38288 542.69435 151.63672 546.24805 C 151.89056 549.80174 152.25113 553.35229 152.7207 556.89062 C 154.3642 569.27482 157.34591 581.5037 161.79297 593.14258 C 161.05857 593.54638 158.22769 595.30885 157.53906 595.67773 C 156.24159 592.26926 155.04791 588.81805 153.96094 585.33203 C 152.87414 581.84601 151.89401 578.32581 151.02734 574.77734 C 149.29402 567.6804 148.01081 560.47302 147.21484 553.2168 C 144.78889 531.10112 146.55415 508.53023 152.06836 487.22852 C 153.90643 480.12794 156.1619 473.16889 158.81641 466.41406 L 158.85742 466.32422 L 158.89648 466.23438 C 172.99165 437.22049 167.12445 404.16462 162.01367 387.64453 C 160.19047 381.75138 159.10331 377.12284 157.66992 374.08398 C 157.55008 373.82992 157.42943 373.60621 157.30859 373.37109 C 157.23539 373.22874 157.16335 373.07511 157.08984 372.93945 C 157.08684 372.93345 157.08408 372.92807 157.08008 372.92188 C 156.99098 372.7578 156.90012 372.61159 156.81055 372.45703 C 156.68678 372.24303 156.56408 372.02686 156.43945 371.83008 C 156.36735 371.71657 156.29499 371.61574 156.22266 371.50781 C 156.08948 371.30846 155.95627 371.11109 155.82227 370.92969 C 155.75017 370.83249 155.67781 370.74258 155.60547 370.65039 C 155.45498 370.45763 155.30366 370.27194 155.15234 370.09961 C 155.10834 370.04981 155.06354 370.00321 155.01953 369.95508 C 154.82841 369.74486 154.63743 369.5482 154.44531 369.36719 C 154.44531 369.36719 154.44336 369.36523 154.44336 369.36523 C 154.44336 369.36523 154.44141 369.36328 154.44141 369.36328 C 153.80118 368.76073 153.15618 368.30776 152.51172 367.95898 z M 206.20508 368.65039 C 266.45661 381.71307 326.1096 367.4459 385.80859 371.25 C 399.91938 371.93385 404.58046 373.00185 407.25977 377.10547 C 407.74585 377.68098 408.38903 378.77036 408.51562 379.34375 C 409.02053 381.62923 408.49292 384.16372 407.87891 385.49219 C 407.81031 385.64061 407.7768 385.70965 407.71484 385.8418 C 404.41606 383.71891 400.0516 382.75615 396.76758 382.88281 C 356.99363 384.41681 317.29554 386.67527 277.65039 383.0625 C 244.06214 376.6027 211.0254 382.2454 178.08594 387.72266 C 176.4804 387.98962 174.57673 388.75734 172.95508 389.88086 C 171.83075 385.70115 170.65459 381.87212 169.54102 378.87891 C 169.15751 377.4707 168.63215 376.00404 168.41797 374.8418 C 168.20405 373.67959 168.41864 373.24968 168.33008 373.34961 C 169.64467 371.86017 169.93448 371.85092 170.98047 371.73438 C 172.48032 371.56396 173.54492 370.2647 173.49414 368.82227 C 185.55349 368.94056 193.99182 368.89877 206.20508 368.65039 z M 411.875 372.15039 C 411.878 372.13579 414.48242 372.54883 414.48242 372.54883 C 415.21189 372.68044 416.01734 373.02208 416.69531 373.39648 C 418.26083 374.26101 419.82866 375.19566 421.9707 375.73242 C 421.9603 375.76092 421.94985 375.78986 421.93945 375.81836 L 421.9375 375.81836 C 421.8462 376.06741 421.75727 376.32105 421.66602 376.57031 C 410.32454 407.551 399.43402 440.10923 390.44141 470.95703 C 357.02468 585.58545 343.69796 602.21571 337.04883 666.75391 C 335.89925 677.91171 335.61725 689.2182 340.55664 695.72852 C 354.94193 714.68889 344.54 695.19721 344.7207 686.30859 C 344.98225 673.4362 351.95755 663.60009 358.03125 664.20508 C 364.10563 664.81029 370.46758 676.18582 366.7168 688.50391 C 362.92103 700.96879 353.77497 711.67983 369.00977 697.61133 C 374.96532 692.11162 376.32229 681.00486 376.77148 670.03516 C 379.72937 597.79039 382.85033 536.25529 398.50781 471.84961 C 406.39094 439.42275 417.66151 407.7914 423.67578 392.22852 C 429.69004 376.66564 429.83286 376.28445 429.97852 375.9082 C 432.68103 375.55822 434.76456 374.87058 436.79492 373.81836 C 438.0368 373.17476 439.17049 373.17664 439.34766 373.12305 C 439.30986 373.16015 441.51758 372.44141 441.51758 372.44141 C 441.69303 373.04681 441.57288 373.74088 441.00195 374.29492 C 440.26797 375.01409 439.35563 375.614 438.44922 376.27148 C 437.54281 376.92897 436.65249 377.68708 436.55078 377.81445 C 433.13889 382.08769 431.08449 385.49671 429.84961 388.74805 C 429.35612 390.04745 428.87017 391.36832 428.37305 392.68945 L 426.91016 396.58008 C 423.33363 406.17978 419.88195 415.84404 414.90234 430.90625 C 409.92274 445.96846 405.82217 459.95547 402.39648 474.04688 C 386.99839 537.38543 389.02313 598.20577 386.06641 670.41992 C 385.5971 681.87665 385.30581 695.2186 375.31836 704.44141 C 371.42426 708.03748 369.44443 709.9639 366.68164 711.7207 C 366.03054 712.13479 365.21377 712.69863 363.98047 713.05273 C 362.83784 713.3808 360.05055 714.0772 355.77734 714.0332 C 355.62541 713.86464 355.56051 713.63447 355.71094 713.22266 C 355.53972 710.59978 355.75324 707.95663 356.45703 705.41992 C 357.39881 701.53453 359.16119 697.89515 359.98438 693.98047 C 360.18921 692.04305 360.53744 690.09381 360.41211 688.14062 C 360.20764 686.37682 359.37019 684.63579 358.01172 683.48047 C 357.37782 683.05739 356.57571 682.94043 355.8418 682.83203 C 354.0048 682.51228 351.97766 683.17064 350.94336 684.78711 C 350.39544 685.75758 349.39668 687.10721 350.10156 688.19141 C 351.29298 689.18089 352.0354 687.37715 352.81641 686.73633 C 353.6747 685.73872 355.63298 685.47932 356.10156 686.98633 C 357.28266 689.91871 356.50836 693.1935 355.36328 696.02539 C 353.61268 700.41781 350.98732 704.64806 350.82812 709.50195 C 350.76613 710.87925 350.83112 712.26946 350.66602 713.63867 C 345.89233 712.99196 343.00486 711.69322 340.69727 710.00781 C 338.64668 708.51033 337.64463 707.52724 336.74805 706.36133 C 335.83045 705.16802 335.00231 703.79561 333.14648 701.34961 C 324.9981 690.60959 326.59779 677.42507 327.79492 665.80469 C 331.17711 632.97567 337.57996 612.13518 347.28906 585.26172 C 356.99848 558.3875 370.0165 525.46659 386.66406 468.36133 C 390.57156 454.95788 394.48738 442.48082 398.98438 429 C 403.48146 415.51922 406.8054 405.95779 410.36719 395.96094 L 411.44531 392.95508 C 412.10892 391.09956 412.76133 389.26765 413.44531 387.36719 C 414.20764 385.2488 414.96961 381.04865 414.125 377.22461 C 413.8593 376.02196 413.14074 374.75794 412.47852 373.63281 C 411.81629 372.50769 411.80592 372.42606 411.875 372.15039 z M 732.6582 380.49023 C 747.6716 380.62657 762.69472 381.70318 777.42969 384.36523 C 777.56309 388.51102 777.63867 392.67126 777.63867 396.84961 C 777.63867 400.59293 777.57786 404.32375 777.4707 408.04102 C 774.34086 408.45984 771.21838 408.82905 768.09375 409.04883 C 672.45424 404.24225 576.75884 409.27202 481.48438 413.36914 C 464.2825 411.62496 453.541 411.21734 436.45508 411.45312 C 432.5802 411.50662 429.48499 412.49628 426.90234 413.9375 C 428.66078 409.23106 431.37767 402.89956 434.23828 395.36914 C 434.38379 395.08681 434.50014 394.79213 434.58594 394.48633 L 435.92969 389.70117 L 436.6543 388.25391 C 439.74245 386.67865 442.72342 385.97377 444.64648 385.97852 C 455.64423 386.00502 466.63848 386.28981 477.63086 386.97266 L 477.6543 386.98047 L 477.67773 386.98047 C 522.24925 387.84972 567.12941 393.03394 611.63867 385.12891 L 611.68945 385.12109 C 649.19866 380.2839 687.07879 383.23261 724.9707 380.49219 L 724.9043 380.5 C 727.48766 380.4715 730.07265 380.46693 732.6582 380.49023 z M 246.4082 384.35352 C 256.69964 384.37622 267.00926 385.20246 277.34961 387.19922 L 277.40234 387.20703 L 277.45312 387.21484 C 316.95692 390.81484 356.40709 388.80953 395.79883 387.0957 C 399.06799 386.95349 403.15673 388.14943 406.12695 390.13477 L 403.67188 398.15625 C 402.15316 402.59761 399.73848 409.10725 397.14258 416.57227 C 394.90735 413.97269 391.29059 411.90995 385.02344 412.15039 C 338.30224 414.05183 303.44633 418.50788 256.8125 418.08594 C 231.9926 415.61636 207.15742 414.13972 182.31445 413.22852 C 181.07617 413.18302 179.25665 413.25302 177.44141 413.79492 C 177.34831 413.59457 177.23817 413.40162 177.09961 413.22656 C 176.486 407.23352 175.52684 402.55635 174.37695 397.59961 C 174.52813 397.14811 174.56318 396.66581 174.47852 396.19727 L 174.06641 393.89844 C 175.4134 392.86654 177.04574 392.13166 178.57031 391.87891 C 201.20854 388.12572 223.76703 384.30075 246.4082 384.35352 z M 39.671875 387.69727 C 60.961698 387.69703 92.839288 389.62898 123.40625 398.69531 L 123.40625 398.69727 L 123.58203 398.74805 L 123.76562 398.74023 C 133.43485 398.27925 143.06639 397.23832 152.67383 395.91602 C 153.91643 395.74501 155.74847 395.75476 157.43164 396.14062 L 157.63281 397.875 C 157.71481 398.55943 158.04253 399.19099 159.27734 402.00391 C 160.46519 404.70983 160.7684 408.36846 161.24805 413.23633 C 159.78239 412.72062 158.4697 412.51276 157.93359 412.5 C 110.73192 411.38381 63.510727 411.76542 16.316406 410.77148 C 16.150581 406.15153 16.0625 401.51022 16.0625 396.84961 C 16.0625 393.87025 16.101947 390.90045 16.169922 387.9375 C 19.339648 387.91202 22.932947 387.89897 26.769531 387.94336 C 30.40863 387.80141 34.758839 387.69732 39.671875 387.69727 z M 678.53125 411.83008 C 708.3915 411.73916 738.25047 412.28055 768.09375 413.7832 L 768.17383 413.7832 L 768.25391 413.7832 C 771.2963 413.57012 774.30928 413.22367 777.30273 412.83008 C 776.41774 434.29291 773.75598 455.29502 769.46484 475.69531 C 768.48302 470.13754 767.30914 466.1204 765.65234 463.12109 C 763.79206 459.75308 760.67359 457.39681 757.13281 457.62891 C 753.82308 457.84623 751.30455 459.78519 749.11719 461.84375 C 746.90197 463.92835 744.82019 466.47874 742.74609 469.07812 C 738.60619 474.26662 734.10628 479.80526 731.45898 481.42773 C 730.04038 482.2971 729.9728 482.21983 729.50977 482.00391 C 729.19833 481.85877 727.77428 480.65931 726.38867 477.25781 C 721.04536 464.14172 714.14686 450.75968 704.69336 443.83203 C 702.31316 442.08785 699.70402 440.76628 696.9043 440.11133 C 694.1062 439.45675 691.11686 439.49532 688.16406 440.39258 C 682.31415 442.16986 676.97524 446.96426 671.82812 454.86914 L 671.79688 454.91211 C 671.79688 454.91511 671.79786 454.91592 671.78516 454.91992 L 671.74023 454.98633 C 671.60644 455.18097 671.49765 455.39161 671.41602 455.61328 L 671.37109 455.73242 C 668.71919 462.82221 663.24242 470.59802 657.29492 475.13867 C 654.31665 477.41247 651.25379 478.87022 648.49609 479.32422 C 645.70937 479.78298 643.2925 479.40472 640.66992 477.69336 C 637.63262 475.71308 635.4456 469.52684 632.68359 463.60156 C 631.29942 460.63199 629.5719 457.49451 626.37109 455.50977 C 623.07992 453.4689 618.73368 453.39484 614.19141 455.25195 C 610.74478 456.66247 609.11537 459.73032 607.48828 462.46484 C 605.81399 465.27874 604.19379 468.35526 602.58008 470.62891 C 600.98259 472.87988 599.33368 474.05101 598.74219 474.17188 C 598.36348 474.24937 598.067 474.27107 597.33789 473.92188 C 596.60878 473.57227 595.49658 472.75819 594.08398 471.18164 C 588.60469 465.06629 581.96566 459.67342 575.16406 458.50781 C 571.60477 457.89787 567.52018 458.95763 565.23438 462.33203 C 563.04308 465.56704 562.62676 469.8696 563.25586 475.42773 C 564.22826 484.01913 560.2004 490.4444 553.76367 495.33594 C 547.34947 500.21051 538.50818 502.98356 531.8457 503.07227 C 529.9898 503.09877 529.40113 502.72001 529.24023 502.58398 C 529.05315 502.426 528.88875 502.25856 528.76172 501.19727 C 528.52285 499.20557 529.3571 494.73473 530.32617 490.13867 C 531.29437 485.54636 532.43487 480.51671 531.30078 475.64062 C 530.72198 473.15217 529.3975 470.6777 527.11523 468.9082 C 524.85103 467.15265 521.91622 466.23972 518.47852 466.00781 C 513.99543 465.70507 510.34724 467.15621 507.68555 469.06445 C 505.06924 470.94031 503.27321 473.09059 501.79492 474.4375 C 500.27812 475.81945 499.45243 476.34734 498.06055 476.41602 C 496.71704 476.48212 494.20957 475.91618 490.05859 473.19727 C 487.97777 471.83437 485.70993 468.91387 483.11914 465.43164 C 480.52854 461.94941 477.54779 457.95097 473.4043 454.66992 C 469.46429 451.55 465.34875 448.86138 460.62695 448.49023 C 456.93477 448.20003 453.33175 449.8501 450.60938 453.04492 C 449.16985 454.13135 447.87205 455.73235 446.79883 457.89258 C 444.57863 462.36147 442.65097 465.39293 441.04102 467.36328 C 441.03702 467.36528 441.02118 467.37956 441.01758 467.38086 C 440.70539 467.4882 440.10203 467.08114 439.42383 466.28906 C 437.95253 464.57032 436.03706 461.291 433.56445 458.26367 C 431.07635 455.21866 427.51384 451.99706 422.51953 451.8418 C 418.96443 451.73068 415.83633 452.92451 413.58203 454.93945 C 415.77983 447.66057 418.14663 440.4173 419.58984 436.16016 C 419.60954 436.11936 422.56245 427.03092 424.375 421.45312 C 428.01087 418.45366 432.27009 416.07078 436.01562 416.18945 C 453.2666 416.73612 464.10022 416.33974 481.39844 418.10156 L 481.49219 418.10938 L 481.5957 418.10938 C 547.14072 415.29055 612.83869 412.03009 678.53125 411.83008 z M 16.515625 415.50586 C 63.788666 416.50138 110.93727 416.11764 158.11719 417.23633 C 158.72901 417.25063 160.01047 417.58036 161.30859 418.29492 L 161.40625 421.0957 C 161.42515 421.5726 161.56011 422.03779 162.75977 430.15039 C 163.55335 438.54431 158.91646 439.05018 153.21875 449.95117 C 150.96827 454.30352 149.11723 458.99571 147.33594 463.08398 C 145.55904 467.16285 143.7186 470.6994 142.33008 472.27539 C 140.3631 474.50784 138.73857 475.77667 137.57617 476.38672 C 136.41378 476.99681 135.80266 476.99691 135.32617 476.89648 C 134.45987 476.71393 132.5312 475.0869 130.80078 471.7207 C 127.32581 464.9609 124.92516 453.39475 122.16406 446.29102 C 121.47426 444.51653 120.16168 443.26847 118.70898 442.57031 C 117.36861 441.92602 116.0709 441.77301 115.07031 441.7207 C 114.04421 441.667 113.15109 441.7247 110.64258 441.36719 C 108.13407 441.007 104.90045 441.30789 102.10742 442.5332 C 99.049259 443.87512 96.465963 446.01338 94.119141 448.40234 C 89.42047 453.18545 85.480768 459.23625 81.931641 463.73438 C 80.160667 465.97871 78.463799 467.83751 77.134766 468.87109 C 75.788762 469.91791 75.121064 470.02081 74.763672 469.97266 C 74.404239 469.92426 73.512229 469.62458 72.011719 467.54297 C 70.522849 465.477 68.691812 461.8171 67.648438 458.86914 C 66.605137 455.92118 66.109476 455.16123 62.771484 452.75586 C 59.433519 450.35049 54.614772 448.07583 50.167969 447.44922 C 45.650273 446.81271 41.539844 448.247 38.740234 451.02344 C 33.304635 456.4141 32.043227 464.96677 30.347656 473.20508 C 29.340046 478.09958 28.218669 482.95693 26.785156 486.98047 C 21.190407 463.90748 17.696447 440.01139 16.515625 415.50586 z M 385.52734 416.89062 L 385.52734 416.89258 C 390.53901 416.93218 393.41553 419.32864 395.13086 422.16992 C 394.17735 424.79741 393.06877 427.91221 391.20117 433.41797 C 388.42197 441.61112 385.2172 452.78831 381.15039 466.73828 C 371.98314 498.18448 363.95986 522.13868 358.93555 530.47266 C 353.91135 538.80667 349.60657 537.26297 344.08008 536.96484 C 335.65468 536.51005 329.33029 542.37895 325.58789 544.30273 C 324.62041 544.80004 323.88796 545.05708 323.31445 545.04102 C 322.74083 545.02592 321.14743 543.57164 319.75781 539 C 318.21013 533.90799 317.28315 529.16604 317.68945 525.20312 C 317.89627 523.18385 318.39599 521.36168 319.34961 519.66992 C 319.88524 518.83346 320.48409 518.0217 321.14062 517.23438 C 321.81644 516.50117 322.6004 515.78711 323.5293 515.08984 C 325.61687 513.52281 327.73196 511.79497 330.14648 509.97266 C 330.74342 509.61026 331.29875 509.26023 331.94336 508.88477 L 332.1875 508.47461 C 334.95023 506.49142 338.14039 504.41474 342.17578 502.29688 C 351.35307 497.48025 360.54285 492.64271 366.09961 487.82812 C 369.09189 485.23558 374.18212 480.61585 376.9082 475.69922 C 377.5836 474.48127 378.18593 473.13653 378.40039 471.52734 C 378.61485 469.91815 378.32769 467.96133 377.01562 466.35352 C 375.75507 464.80958 373.95753 464.04497 372.17383 463.70508 C 370.40585 463.36794 368.45896 463.36723 366.14258 463.60156 C 356.9998 464.52656 347.7215 470.52657 338.54883 474.76172 C 333.678 477.01069 330.89072 478.80034 329.10742 479.34766 C 327.32401 479.89501 326.27333 479.84159 322.71484 477.9668 C 321.73746 477.45191 321.12004 476.42897 320.55273 473.97266 C 319.99174 471.54408 319.75468 468.18925 319.06836 464.80469 C 318.38086 461.41411 317.10056 457.50068 313.54688 455.03125 C 309.9818 452.55377 305.0801 452.26556 298.9082 453.85742 C 298.14731 454.05396 295.43037 453.4226 292.17578 451.16992 C 288.89659 448.90005 285.14704 445.44756 281.54688 442.13477 C 277.95186 438.82655 274.56334 435.6355 271.11523 433.65234 C 269.42023 432.67749 267.40137 431.78217 265.0332 432.05078 C 262.37381 432.35239 260.33337 434.27507 259.36328 436.62695 C 255.78407 445.30592 255.89294 456.88967 254.21094 464.24414 C 253.37347 467.90628 251.98104 470.13802 251.24414 470.59961 C 250.81452 470.86871 250.38304 471.03655 249.30273 470.90234 C 248.22243 470.76779 246.54331 470.22674 244.25391 468.96094 C 236.31531 464.57189 227.71719 460.5355 220.00391 460.61914 C 216.07804 460.66414 212.00606 462.1119 209.60156 465.66016 C 207.23649 469.1501 206.73265 473.8145 207.53516 479.61914 C 208.12185 483.86321 207.36542 485.75275 206.23633 487.03125 C 205.13782 488.27524 203.09658 489.20432 200.10938 489.61523 C 194.14679 490.43569 185.36908 488.89991 179.00391 488.10156 C 177.20251 487.87592 176.76718 487.49757 176.34766 486.96484 C 175.96967 486.48488 175.59234 485.51205 175.53516 483.8418 C 175.42139 480.52666 176.78398 474.93382 178.48828 469.18164 C 180.19489 463.42221 182.17965 457.39655 182.84375 451.89258 C 183.17521 449.14702 183.20732 446.42597 182.37695 443.82422 C 175.10635 435.08365 178.32832 432.15277 178.00781 422.22656 C 178.1314 421.86826 178.18157 421.48928 178.15625 421.11133 L 177.96875 418.48633 C 179.43301 417.83058 181.07432 417.91545 182.31445 417.96094 C 207.12171 418.87075 231.90474 420.34448 256.6582 422.81055 L 256.7168 422.81836 L 256.7832 422.81836 C 303.41058 423.2408 338.09898 418.84171 384.49023 416.91797 C 384.844 416.89907 385.19021 416.89072 385.52734 416.89062 z M 268.65625 443.38086 C 270.73978 443.36472 273.33259 445.66194 276.01562 448.13086 C 279.59786 451.42725 283.50111 455.08164 287.52539 457.86719 C 291.52689 460.63683 296.06248 463.00745 300.9375 461.75 C 305.9185 460.46534 307.97308 461.08597 308.88867 461.7207 C 309.78499 462.34357 310.54294 463.80373 311.07227 466.41406 C 311.60034 469.01895 311.81264 472.41514 312.59375 475.79688 C 313.38125 479.20671 315.00299 483.11642 318.9043 485.17188 C 323.6569 487.67564 327.50358 488.24878 330.99609 487.26172 C 333.99996 486.41279 336.59994 484.81397 340.18555 483.03125 C 343.06603 482.09399 345.94547 480.88956 348.77734 479.58203 C 353.93498 477.20067 359.00483 474.50739 363.68945 472.40234 C 364.86891 472.05371 365.96484 471.80644 366.94727 471.70703 C 368.34345 471.56568 369.09667 471.64163 368.68164 473.05273 C 368.26665 474.46393 363.39524 479.36999 360.75195 481.66016 C 356.64115 485.22198 347.4998 490.2853 338.37891 495.07227 C 328.95583 500.01782 323.54788 504.86538 318.61719 508.56641 C 313.18918 512.64093 310.45276 518.0976 309.74414 523.81641 C 309.03555 529.53517 310.16667 535.49994 311.95117 541.37109 C 313.61745 546.85311 315.68684 550.59668 319.21484 552.37109 C 322.81507 554.18164 326.54282 552.9578 329.30664 551.53711 C 334.71942 548.75455 339.64566 544.87663 343.63477 545.0918 C 347.90747 545.32235 349.94543 546.3863 351.00781 547.45508 C 352.07602 548.52994 352.58347 549.95219 352.47266 552.27539 C 352.36192 554.59859 352.13441 555.21972 351.9082 555.8418 C 350.4964 559.72575 349.08408 563.61402 347.67188 567.49805 C 345.67611 572.92084 343.66987 578.36161 341.88477 583.30273 C 332.12708 610.31082 325.50303 631.89341 322.07031 665.21289 C 320.88271 676.73981 318.83761 691.99338 328.56641 704.81641 C 330.2893 707.08718 331.00637 708.31674 332.19141 709.85742 C 333.42077 711.45594 334.99884 712.9628 337.74414 714.96289 C 340.48932 716.9629 344.77814 718.72986 350.8457 719.44336 C 352.25101 723.08543 354.44935 726.3997 357.81445 728.45508 C 360.18278 729.90169 361.31295 732.16353 362.33984 734.73633 C 352.41265 732.50353 342.59083 728.46947 332.33984 723.73047 C 316.48077 716.39898 299.66153 707.70567 279.30273 703.38477 C 258.94383 699.06386 244.75339 687.63851 238.08789 675.7793 C 234.0901 668.666 231.26316 660.43103 231.13477 652.88672 C 231.00626 645.34252 233.35301 638.58977 239.94141 633.32617 C 256.443 620.14276 264.46814 605.7053 268.97461 588.73828 C 273.46662 571.82527 274.87619 559.60625 280.08789 553.89648 C 285.29959 548.18671 288.11239 544.20474 289.61328 540.96289 C 291.11428 537.72104 291.19393 535.4095 292.05664 527.75781 C 292.91924 520.10612 294.58348 511.30473 295.92578 505.78125 C 296.59695 503.01951 297.18031 501.08009 297.59961 499.81641 C 297.80862 499.18451 297.98176 498.72031 298.17188 498.17969 C 298.36197 497.63903 298.43755 497.66573 298.38086 496.82422 C 298.32376 495.98267 297.82843 495.07084 297.82812 495.07031 C 297.82754 495.06978 296.64119 494.20726 296.64062 494.20703 C 296.64004 494.2068 295.31915 494.0293 295.31836 494.0293 C 295.31764 494.02933 294.50042 494.24056 293.4668 494.9668 C 292.43332 495.69288 291.63744 496.57663 291.00195 497.80078 C 289.73105 500.24905 288.46165 504.43316 287.58594 509.15625 C 287.57464 509.18645 284.00586 533.78125 284.00586 533.78125 C 284.02856 535.5396 283.25415 537.27688 281.47656 539.73047 C 279.69894 542.18406 276.83962 545.12353 273.45898 549.48828 C 266.15709 558.91597 264.40157 572.91494 260.77734 586.56055 C 256.83806 601.39258 248.53071 611.61974 241.32422 617.71094 C 234.11772 623.80206 233.68394 624.16658 233.36914 624.4082 C 232.99761 624.10357 232.45081 623.60034 231.66992 622.87305 C 222.48576 614.31174 212.30435 603.22651 206.52734 592.89453 C 199.41496 580.17415 197.2093 567.59811 203.4668 557.10938 C 209.72428 546.62058 212.73297 538.22209 212.51758 531.00977 C 212.30215 523.79741 211.61248 519.78907 211.58398 516.75195 C 211.54998 513.00191 212.51871 510.31547 213.46484 508.45508 C 213.93793 507.52486 214.40375 506.8198 215.03516 504.82617 C 215.66645 502.83258 215.35072 502.08847 214.58594 501.39844 C 213.82123 500.70837 212.41865 500.8074 210.69727 502.20312 C 208.97584 503.5989 208.26948 504.69867 207.57227 506.05469 C 206.17777 508.76676 204.84406 512.4689 204.81836 516.59766 C 204.79566 520.32488 204.77716 524.61266 204.81836 530.39258 C 204.86216 536.1725 201.96359 543.17474 198.62109 550.25391 C 188.36349 565.89253 189.90384 583.11398 197.92773 597.46484 C 204.48393 609.1903 214.46778 621.89352 219.62695 626.96875 C 224.78616 632.04356 225.12784 632.39115 225.37695 632.65625 C 217.07704 645.30663 219.73394 669.23422 225.91211 680.69141 C 232.40759 692.24841 237.77078 697.45924 244.30078 702.65234 C 240.94547 702.55219 237.59043 702.4542 234.22461 702.47461 C 220.06402 702.55961 205.80144 703.7964 191.33594 707.0957 C 187.83227 707.89486 183.90263 708.83161 179.8125 709.81641 C 107.7592 659.76876 53.838124 585.46963 29.832031 498.71094 C 35.006941 492.12686 36.64886 483.03822 38.333984 474.85156 C 40.031975 466.60221 42.173572 459.11 44.484375 456.81836 C 45.74738 455.56575 46.527729 455.16483 49.03125 455.51758 C 51.256636 455.83128 55.113642 457.55807 59.890625 460.74414 C 61.672634 465.52146 63.405958 469.54276 65.396484 472.30469 C 67.646539 475.42677 70.396574 477.60554 73.671875 478.04688 C 76.942754 478.48736 79.843452 477.07988 82.130859 475.30078 C 84.40296 473.53363 86.383647 471.26041 88.332031 468.79102 C 92.229631 463.85129 96.096188 458.00986 99.929688 454.10742 C 101.84579 452.15692 103.74759 450.71443 105.38477 449.99609 C 107.05568 449.26294 108.30434 449.12549 110.01953 449.65039 C 111.30385 450.04354 112.38903 449.90751 112.89844 449.88672 C 113.57444 449.86022 114.20043 449.83682 115.54492 452.73828 C 116.88941 455.64005 119.2552 467.09283 123.55078 475.44922 C 125.75039 479.7281 128.75469 483.83778 133.65039 484.86914 C 138.60599 485.91312 143.62368 483.13417 148.44336 477.66406 C 150.00355 475.37333 150.16227 476.48434 149.61719 478.42773 C 138.056 516.24659 138.19667 557.85236 152.44336 595.65625 C 148.25338 598.33979 143.60747 601.73261 140.01367 606.57422 C 131.31097 608.04971 123.70615 615.41939 124.18555 625.4043 L 124.17383 625.39258 C 124.17383 625.41148 124.18555 625.42641 124.18555 625.44531 C 124.19685 625.56928 124.12687 625.66629 124.13477 625.79102 C 124.15367 626.03064 124.20297 626.26695 124.28125 626.49414 C 124.19245 630.92583 125.27618 635.26474 127.75195 638.86523 C 130.54347 642.92543 135.18972 646.07033 140.80273 646.51953 C 140.87873 646.62649 140.94617 646.7398 141.16992 647.03906 C 141.39367 647.3384 141.68569 647.70456 142.10352 648.21094 C 142.52112 648.71724 142.83088 649.0498 143.33008 649.57031 C 143.82916 650.09079 144.26325 650.50247 144.72266 650.90234 C 145.10654 651.23645 145.5028 651.55276 146.00781 651.92969 C 146.51272 652.30651 146.94515 652.57897 148.83008 653.72266 C 150.71485 654.86619 154.44337 655.95727 156.75977 655.88867 C 159.07609 655.81947 158.14292 655.82197 161.02734 655.69531 C 163.91173 655.5687 171.08293 653.6842 176.26562 649.7832 C 176.66191 649.7371 177.05574 649.701 177.48438 649.61328 C 184.95966 648.07845 190.35755 642.67837 193.14062 636.57617 C 195.89764 630.53195 196.49415 623.48488 194.41016 616.89648 C 193.32615 613.46955 191.05466 610.38247 188.43945 607.58789 C 188.47835 607.39136 188.52255 607.19452 188.83203 605.07031 C 189.14157 602.9461 189.40772 599.15141 185.33594 594.13477 C 181.26414 589.11812 175.43436 587.25653 170.34375 587.55273 C 168.68847 587.64913 167.41851 588.22523 166.00391 588.64453 C 152.18721 550.4453 153.58894 507.49186 168.21094 470.2168 C 172.11024 460.3466 173.95533 455.64499 170.66211 466.86523 C 168.92141 472.74062 167.19013 478.6611 167.37695 484.11719 C 167.47105 486.85942 168.10972 489.68034 169.9375 492.00195 C 171.7917 494.35645 174.67086 495.77776 177.98438 496.19336 C 183.84345 496.92825 193.05099 498.80799 201.20898 497.68555 C 205.29469 497.12342 209.43088 495.71729 212.34766 492.41406 C 215.28658 489.08589 216.39892 484.24693 215.60352 478.49219 C 214.95132 473.77575 215.67162 471.22621 216.3418 470.23828 C 217.0666 469.16864 217.80538 468.78824 220.08398 468.76367 C 224.47459 468.71607 232.83383 471.96866 240.29492 476.09375 C 246.09841 479.30242 251.47155 480.05759 255.56055 477.49609 C 259.56874 474.98532 261.12756 470.51555 262.14648 466.06055 C 264.12178 457.42387 264.49498 446.64232 266.75781 444.24609 C 267.32352 443.64703 267.96174 443.38624 268.65625 443.38086 z M 692.8418 447.79883 C 695.08132 447.72933 697.32121 448.53518 699.86914 450.40234 C 706.58672 455.32507 713.72849 467.80318 718.83398 480.33594 C 720.61225 484.70122 722.80566 487.86905 726.06055 489.38672 C 729.41287 490.94986 733.00239 490.03391 735.70898 488.375 C 740.96268 485.15503 745.09635 479.201 749.11523 474.16406 C 751.13033 471.6387 753.07808 469.32201 754.70898 467.78711 C 756.28161 466.30708 757.72438 465.80026 757.60352 465.79297 C 757.69272 465.86627 758.02615 466.1694 758.51953 467.0625 C 759.47016 468.78336 760.65792 472.45636 761.60352 478.10547 C 761.17224 484.52727 761.87138 491.41957 764.23633 497.38477 C 738.00228 593.55668 675.03822 674.53284 591.33398 724.33008 C 588.21196 724.38963 587.69233 724.16703 587.11719 723.75977 C 586.53918 723.34636 585.77992 722.3523 584.73242 720.76172 L 584.73242 720.75 C 580.49232 714.29139 577.18071 707.28886 575.34961 700.07227 C 572.20531 687.67976 572.76592 674.83841 578.13281 663.77539 C 584.24442 651.17781 581.16773 640.83572 578.375 636.24023 C 575.58208 631.64471 575.62402 631.49664 575.63672 631.29492 C 575.64802 631.09423 575.82193 630.54031 576.44336 629.5918 C 577.06464 628.64329 577.92038 627.7862 578.14258 627.625 C 592.06526 617.52168 601.46065 603.84939 606.91602 590.64062 C 612.37105 577.43191 614.0121 564.75489 612.9375 560.26953 C 612.9262 560.23933 605.71484 533.59375 605.71484 533.59375 C 603.98734 527.35984 600.52177 522.35601 597.43945 518.95508 C 595.89828 517.25463 594.46103 515.95815 593.26953 515.07227 C 592.67373 514.6293 592.17705 514.29512 591.55664 514.00977 C 591.24634 513.8669 590.94419 513.69581 590.23438 513.64062 C 589.87948 513.61423 589.36733 513.60662 588.69922 513.91992 C 588.03111 514.23627 587.34219 515.03722 587.13477 515.74414 C 586.66739 517.33827 587.31916 517.93772 587.54102 518.2832 C 587.76287 518.62865 587.93879 518.81423 588.11719 519.00781 C 588.47397 519.39491 588.8513 519.75433 589.30469 520.1875 C 590.21151 521.05381 591.38297 522.17171 592.61914 523.56836 C 595.09167 526.36166 597.72253 530.20757 598.73242 534.87109 L 604.30273 560.59961 C 605.12013 564.01233 603.91889 575.58087 599.00781 587.49609 C 594.09669 599.41132 585.59925 611.74036 573.15625 620.76562 C 572.14655 621.49806 571.12928 622.57714 570.12109 623.88867 C 570.10219 623.86217 570.09822 623.85468 570.07812 623.83008 L 570.07812 623.81836 C 566.41824 619.4103 562.37231 615.34233 558.52539 611.35742 C 552.22828 604.83441 546.5128 598.5027 543.5625 591.80273 C 540.5252 584.90559 539.493 577.2796 540.3457 575.32422 C 541.19802 573.36884 542.30876 571.46523 543.25977 570.05664 C 543.73527 569.35233 544.17118 568.71906 544.54297 567.94531 C 544.72892 567.5584 544.99584 567.22382 544.99414 566.17383 C 544.99335 565.64881 544.82669 564.76353 544.15234 564.0625 C 543.47781 563.36147 542.57217 563.15213 542.02539 563.13867 L 542.00977 563.13867 C 541.88995 563.13667 541.16456 563.12747 540.48047 563.35352 C 539.79637 563.57726 539.14218 563.97378 538.51758 564.51172 C 537.26837 565.5876 535.99118 567.24166 533.59961 572.24023 C 531.208 577.23881 532.07238 586.736 535.80859 595.2207 C 539.55618 603.73099 546.03197 610.63304 552.41797 617.24805 C 558.80514 623.86403 565.15688 630.23815 569.13086 637.03125 C 572.95506 643.56885 574.41677 652.36059 570.38477 660.58008 C 563.23987 675.14558 562.20972 688.19601 565.75 702.14844 C 567.59849 709.43363 570.07491 716.18838 571.73242 719.53516 C 573.38982 722.88189 573.44707 722.98631 573.63477 723.33398 C 573.31729 723.30378 573.22292 723.28997 572.86719 723.25977 C 536.02859 720.06527 499.57816 723.24847 480.21484 725.58984 C 460.85164 727.92994 459.19195 728.07093 458.24805 728.00781 C 457.30415 727.94471 457.17561 727.83436 456.85352 727.55664 C 456.20922 727.00177 454.96691 724.4423 452.28711 721.09961 C 449.60708 717.75681 447.17832 715.05849 444.82031 712.4668 C 439.73893 706.88213 436.09852 702.20037 435.05469 695.53906 C 434.82754 688.40305 438.49259 682.69507 443.46289 676.72266 C 448.4171 670.76956 454.82406 665.106 460.13086 662.0625 C 466.29436 658.52758 470.42944 654.01109 473.10742 648.70898 C 475.95613 643.0691 475.76606 636.48519 473.33008 630.3125 C 470.88767 621.80527 466.23945 614.76513 461.15625 608.21094 C 458.13176 604.31103 457.12362 597.65093 457.10352 591.95703 C 457.09222 589.1101 457.29162 586.52375 457.47266 584.65625 C 457.56256 583.72256 457.64637 582.97749 457.70117 582.41211 C 457.72767 582.1294 457.75367 581.91352 457.43359 580.75195 C 457.11347 579.59039 456.45813 579.00278 456.45703 579.00195 C 456.45703 579.00112 455.39593 578.5803 455.39453 578.58008 C 455.39453 578.57981 454.27342 578.61039 453.19531 579.45312 C 452.1172 580.29728 451.95662 580.58871 451.79883 580.9043 C 451.48362 581.53544 451.19893 582.27707 450.91992 583.17188 C 450.36191 584.9615 449.86239 587.34915 449.67969 590.23633 C 449.31421 596.0108 450.22649 603.78353 454.56641 612.24805 C 458.41041 619.74584 463.34546 625.96114 465.28516 632.88867 C 465.30026 632.94267 465.31554 632.99711 465.33594 633.05078 L 465.35938 633.10938 L 465.375 633.16406 C 465.3939 633.21886 465.41279 633.27288 465.43359 633.32617 C 467.07172 637.40859 466.63425 641.23188 464.78516 644.89258 C 462.94683 648.53207 459.56762 651.82799 453.99414 655.05469 C 448.42074 658.28138 440.99494 663.7227 437.95703 667.36719 C 434.91924 671.01171 434.81769 671.18825 434.5625 671.51367 C 433.11959 669.61756 431.10402 667.74578 428.22852 667.2168 C 426.62513 666.92162 426.23772 666.68971 425.48242 665.9668 C 424.81382 665.32719 424.99045 665.65386 424.78125 665.13281 C 424.57224 664.6115 424.19657 663.1072 423.80078 660.00391 C 422.94536 653.29759 420.62886 643.38488 421.80664 633.9082 C 421.92229 632.97719 422.67213 630.67855 423.48242 628.54297 C 424.29253 626.40723 425.13456 624.57659 425.46875 622.74609 C 426.04078 619.61339 425.57197 616.17439 424.9375 613.2832 C 424.6204 611.83757 424.24996 610.56476 423.85156 609.52539 C 423.65238 609.00555 423.46331 608.55133 423.16602 608.06445 C 423.01748 607.82105 422.85156 607.56704 422.50781 607.23633 C 422.16388 606.90562 421.51351 606.31648 420.27148 606.35938 C 419.07889 606.40057 417.95171 607.49231 417.66602 608.125 C 417.38028 608.75743 417.37991 609.10905 417.36328 609.41406 C 417.32928 610.02396 417.38577 610.45553 417.45117 610.95703 C 417.58043 611.96023 417.80373 613.12922 418.01172 614.41211 C 418.42781 616.97803 418.64452 620.05357 418.35938 621.18164 C 418.27248 621.52709 417.20712 623.91297 416.13672 626.1582 C 415.06624 628.4032 413.94005 630.57361 413.56055 632.84375 C 411.76187 643.60184 413.12417 650.99699 414.38086 661.20508 C 414.58533 662.86648 415.01499 665.14675 415.64258 667.35547 C 416.27021 669.56404 416.72625 671.57481 418.55078 673.32031 C 420.35407 675.0457 422.65477 676.89404 425.77734 677.46875 C 427.15147 677.72122 426.99862 677.83918 427.48633 679.05078 C 427.97411 680.26227 427.93067 680.66393 427.71289 681.5 C 427.49481 682.33611 426.90033 683.50949 425.99805 686.00391 C 425.09572 688.49839 424.46121 692.1703 424.81641 696.02148 C 425.68071 705.3929 429.01944 712.31926 434.64844 718.50586 C 436.85084 720.92646 438.15349 723.07806 439.2793 725.40625 C 440.06449 727.39016 440.85581 728.91198 441.44141 730.01367 C 440.7979 730.12555 440.54199 730.20378 439.42578 730.33984 C 420.03869 732.70655 400.77011 735.02439 381.63281 736.45898 C 380.19871 736.56632 378.77299 736.62124 377.1582 736.70703 C 375.54364 736.79323 375.21052 736.61823 375.14453 736.57812 C 375.07843 736.53733 374.71179 736.15374 374.04297 734.87305 C 371.41289 729.84265 368.25334 724.00194 363.38477 720.98633 C 362.62886 720.51823 362.14189 719.95884 361.74609 719.37305 C 363.5162 719.1115 364.81046 718.78207 365.54297 718.57227 C 367.70693 717.95265 369.28066 716.87282 369.76562 716.56445 C 373.07601 714.45933 375.36406 712.21961 379.2207 708.6582 C 391.19092 697.60411 391.34165 681.99605 391.80664 670.64258 C 393.26947 634.91848 393.52736 602.1079 395.23828 570.55859 C 395.63627 567.34713 395.52132 565.21631 395.64453 564.89648 C 395.86526 564.31973 395.97057 563.70531 395.95508 563.08789 C 396.04198 559.69493 401.24535 557.85977 403.10352 557.36719 C 408.82175 555.9036 412.44215 556.9053 416.62695 558.88086 C 420.77385 560.83854 425.20646 564.04739 431.05078 566.10742 C 438.94848 568.89123 448.21541 569.45128 456.73242 567.16992 C 465.26489 564.88437 473.17148 559.50548 477.0918 550.51758 C 481.5386 540.32302 480.10946 529.2022 474.95898 520.99609 C 469.80858 512.78998 460.59511 507.38465 450.13281 509.23828 C 446.31904 509.91399 444.68525 509.37362 443.55664 508.58789 C 442.46753 507.82957 441.53689 506.34901 440.69141 504.05469 C 439.02819 499.54212 438.39479 491.78502 432.14258 487.32812 C 427.39466 483.94362 422.47409 481.19288 419.55078 478.17383 C 416.56439 475.0897 415.20443 472.50635 416.55273 466.62109 C 417.11592 464.16274 417.93814 462.22779 418.72266 461.30664 C 419.59267 460.28488 420.06664 459.91792 422.26562 459.98633 C 423.1956 460.01523 424.09794 460.40549 425.0625 461.17383 C 425.18986 461.3228 425.31899 461.46454 425.44531 461.61914 C 427.53838 464.18068 429.35949 467.37549 431.39062 469.74805 C 431.94425 470.39471 432.52193 470.97727 433.14258 471.47266 C 433.17718 471.51356 433.20928 471.55696 433.24414 471.59766 C 434.38885 472.93466 435.77551 474.29722 437.72461 475.11133 C 439.82202 475.98742 442.31585 475.91341 444.51562 474.79883 C 448.61161 472.72383 451.59953 468.24022 455.56641 460.25586 C 456.49043 458.39584 457.32936 457.48649 457.95117 457.06836 C 458.57287 456.65027 459.0511 456.54292 459.99609 456.61719 C 461.65459 456.74758 464.93517 458.35531 468.35156 461.06055 C 471.58075 463.61762 474.16226 467.07925 476.75195 470.56836 C 479.34176 474.05751 481.90958 477.60832 485.58789 480.01758 C 490.52996 483.25471 494.64379 484.73919 498.46289 484.55078 C 502.31839 484.36067 505.21303 482.36203 507.29102 480.46875 C 509.33551 478.60601 510.91567 476.78078 512.44336 475.68555 C 514.02486 474.55165 515.29758 473.96411 517.94336 474.14258 C 520.27907 474.30018 521.48091 474.84333 522.12891 475.3457 C 522.79981 475.86599 523.0888 476.34805 523.35352 477.48633 C 523.85483 479.64187 523.30552 483.99709 522.36523 488.45508 C 521.42466 492.91598 520.1267 497.60779 520.67383 502.17188 C 520.95351 504.50352 521.8733 507.02655 523.98828 508.81445 C 526.09 510.59113 528.88235 511.26156 531.95312 511.2207 C 540.63243 511.10543 550.69342 507.91601 558.69922 501.83203 C 566.72682 495.73134 572.68184 486.21325 571.35742 474.51172 C 570.83902 469.93237 571.62388 467.4237 571.97852 466.90039 C 572.2291 466.53075 572.26161 466.55724 572.40625 466.50977 C 572.55101 466.46247 572.97582 466.39933 573.79492 466.54102 C 576.67144 467.03402 583.31391 471.37327 588.01953 476.625 C 591.83791 480.88657 596.18548 483.02029 600.38477 482.16211 C 604.48147 481.32487 607.15798 478.27324 609.23438 475.34766 C 611.32466 472.40242 613.00302 469.14368 614.49805 466.63086 C 615.22141 465.4151 615.94714 464.36764 616.53516 463.6543 C 617.12336 462.94099 617.77526 462.60765 617.28906 462.80664 C 620.34765 461.55494 621.12756 461.8453 622.08008 462.43555 C 622.90995 462.95013 624.1579 464.58073 625.30469 467.04102 C 627.59308 471.95055 629.44487 480.10257 636.22266 484.52148 C 640.49435 487.30662 645.31335 488.12215 649.82812 487.37891 C 654.32024 486.63937 658.49024 484.48711 662.24414 481.62109 C 669.60254 476.00328 675.55161 467.52713 678.81641 459.08008 C 683.3015 452.26722 687.38605 449.1407 690.52344 448.1875 C 691.33184 447.94221 692.09719 447.82245 692.8418 447.79883 z M 409.95703 481.0332 C 410.47597 480.9572 410.97416 481.19619 411.47461 481.58984 C 411.56091 481.68234 411.64044 481.78014 411.72852 481.87109 C 412.10448 482.25937 412.50299 482.62891 412.9043 482.99609 C 413.16039 483.27682 413.41748 483.56296 413.6875 483.8418 C 417.7722 488.06046 422.91131 490.82385 427.02148 493.69922 C 429.20367 496.80237 430.09415 501.53587 431.69922 505.89062 C 432.64805 508.46492 433.91963 510.92453 436.10156 512.62695 C 436.87409 513.60111 437.78517 514.50754 438.89648 515.28125 C 442.08247 517.49949 446.38132 518.17978 451.54102 517.26562 C 458.50223 516.03227 464.4122 519.57731 468.0918 525.55664 C 471.77068 531.536 472.86025 539.80356 469.61133 547.25195 C 466.79974 553.69775 461.34312 557.49562 454.61133 559.29883 C 447.89545 561.09777 440.03263 560.62869 433.74414 558.41211 C 429.28434 556.84009 425.15639 553.89669 420.08789 551.50391 C 414.98538 549.0951 408.70141 547.50565 401.07031 549.45898 C 399.40951 549.88403 397.91541 550.46553 398.22461 537.84766 C 398.53377 525.22978 401.85431 500.58057 405.5 488.99023 C 407.3229 483.19508 408.70064 481.21708 409.95703 481.0332 z M 171.36328 592.78711 C 171.8103 592.78811 172.26146 592.81449 172.7168 592.86719 C 172.7168 592.86719 172.71875 592.86719 172.71875 592.86719 C 173.17412 592.91999 173.63379 593.00033 174.09375 593.10742 C 174.09375 593.10742 174.0957 593.10742 174.0957 593.10742 C 174.5557 593.2146 175.01572 593.3496 175.47656 593.51367 C 175.47656 593.51367 175.47852 593.51367 175.47852 593.51367 C 176.40084 593.8422 177.32132 594.28734 178.22461 594.85938 C 178.22461 594.85938 178.22656 594.85938 178.22656 594.85938 C 179.58185 595.71785 180.8987 596.86297 182.12695 598.32812 C 182.57388 598.86128 182.90957 599.44119 183.15039 600.06445 C 183.27104 600.37609 183.36763 600.69844 183.44336 601.03125 C 183.51886 601.36407 183.57229 601.70744 183.60742 602.06055 C 183.63692 602.37962 183.64928 602.71532 183.64648 603.0625 C 183.63748 604.10403 183.49902 605.24518 183.33008 606.32227 C 182.58761 605.81719 181.78657 605.34612 180.99609 604.95508 C 180.99609 604.95508 180.99414 604.95508 180.99414 604.95508 C 180.59921 604.75975 180.20721 604.58375 179.82617 604.43359 C 179.82617 604.43359 179.82422 604.43359 179.82422 604.43359 C 179.44329 604.28354 179.07441 604.15823 178.72461 604.06445 C 178.77551 603.24864 178.7102 602.61544 178.625 602.17578 C 178.5398 601.73612 178.43479 601.48999 178.40234 601.45117 C 178.06225 601.04419 177.72787 600.67916 177.39844 600.34961 C 177.06973 600.0207 176.74547 599.72747 176.42578 599.46875 C 176.42578 599.46875 176.42383 599.46875 176.42383 599.46875 C 176.10423 599.21017 175.7907 598.98441 175.47852 598.78906 C 175.47852 598.78906 175.47656 598.78906 175.47656 598.78906 C 175.16447 598.59385 174.8551 598.42798 174.54883 598.28906 C 174.54883 598.28906 174.54688 598.28906 174.54688 598.28906 C 174.24069 598.15026 173.93674 598.03671 173.63477 597.94727 C 173.63477 597.94727 173.63281 597.94727 173.63281 597.94727 C 173.3309 597.85797 173.03171 597.79105 172.73242 597.74414 C 172.73242 597.74414 172.73047 597.74414 172.73047 597.74414 C 172.13067 597.65034 171.53442 597.63494 170.93555 597.66992 C 168.54004 597.80939 165.98188 599.04573 163.82227 600.4375 L 163.78906 600.45703 L 161.35547 601.92188 C 157.62313 604.28455 153.54254 606.93799 150.41406 609.98828 C 149.96712 609.80052 149.52278 609.64607 149.07812 609.51367 C 148.63513 609.38165 148.19102 609.27285 147.74023 609.17969 C 147.73923 609.17943 147.73733 609.17994 147.73633 609.17969 C 147.28551 609.08659 146.82805 609.00788 146.35938 608.9375 C 146.35838 608.93731 146.35647 608.93769 146.35547 608.9375 C 145.88667 608.8672 145.40692 608.80404 144.91016 608.74023 L 145.78711 607.73828 C 146.2638 607.22219 146.75799 606.72123 147.26758 606.23438 C 150.8345 602.82679 155.11098 600.11341 158.75195 597.80859 L 158.7793 597.78906 L 161.18945 596.3457 C 161.19645 596.3397 161.20499 596.33768 161.21289 596.33398 C 161.22639 596.32698 161.23945 596.3197 161.25195 596.3125 L 161.25195 596.31055 L 161.25391 596.30859 L 161.26172 596.30469 C 162.80322 595.31493 164.62606 594.28124 166.68945 593.5918 C 167.92646 593.17876 169.24978 592.88811 170.65039 592.80664 L 170.65039 592.80859 C 170.65139 592.80853 170.6533 592.80866 170.6543 592.80859 C 170.88809 592.79739 171.12451 592.78906 171.36133 592.78906 L 171.36523 592.78906 L 171.36328 592.78711 z M 165.57617 602.17773 C 167.75676 606.96194 170.19086 611.65617 172.88086 616.23828 C 176.89264 623.07148 176.90187 629.67137 173.90625 634.13477 C 173.53179 634.69269 173.11254 635.20999 172.6543 635.68555 C 170.36353 638.06291 167.09318 639.38421 163.52539 639.36719 C 163.16849 639.36519 162.80749 639.34911 162.44531 639.32031 C 161.3589 639.23391 160.25204 639.02531 159.14258 638.68555 C 157.29904 638.121 155.66457 637.18975 154.28906 635.99219 C 154.01399 635.75277 153.75007 635.50403 153.49609 635.24414 C 150.95655 632.64524 149.49246 629.06267 149.50195 625.30469 C 149.50495 624.29034 149.61693 623.26702 149.84375 622.24805 C 149.84375 622.24805 149.84375 622.24609 149.84375 622.24609 C 149.91965 621.90644 150.00826 621.56837 150.10938 621.23047 C 150.52251 621.53392 151.0057 622.02162 151.49609 622.58398 C 152.47689 623.70871 153.48909 625.13 154.03906 625.95508 C 154.31405 626.36762 154.47275 626.63097 154.45508 626.63477 C 154.74634 628.7831 155.75015 630.73381 157.28125 632.14648 C 157.58702 632.42861 157.91337 632.69138 158.25977 632.92773 C 158.25977 632.92773 158.26172 632.92773 158.26172 632.92773 C 158.60813 633.164 158.97334 633.37551 159.35742 633.56055 C 159.35742 633.56055 159.35938 633.56055 159.35938 633.56055 C 159.74347 633.7455 160.14562 633.90495 160.56445 634.0332 C 160.56445 634.0332 160.56641 634.0332 160.56641 634.0332 C 160.8313 634.1143 161.09229 634.18675 161.34961 634.24805 C 161.34961 634.24805 161.35156 634.24805 161.35156 634.24805 C 161.60882 634.30925 161.86192 634.36028 162.11133 634.40234 C 162.11133 634.40234 162.11328 634.40234 162.11328 634.40234 C 162.36264 634.44434 162.60838 634.4765 162.84961 634.5 C 163.09212 634.5236 163.33044 634.53952 163.56445 634.54492 C 164.26465 634.56102 164.9258 634.49692 165.54492 634.36133 C 165.95708 634.27113 166.35115 634.14748 166.72461 633.99609 C 167.65952 633.61683 168.46885 633.05388 169.13672 632.34375 C 169.40424 632.05939 169.65032 631.7528 169.87109 631.42383 C 170.53259 630.43821 170.99992 629.2041 171.15039 627.74609 C 171.17549 627.50309 171.19232 627.25338 171.19922 626.99805 C 171.21292 626.48739 171.18915 625.95315 171.12305 625.39453 C 171.05695 624.83592 170.94814 624.25319 170.79297 623.64844 C 170.4053 622.13654 169.72496 620.4836 168.67969 618.70312 C 166.01278 614.16046 163.59087 609.51205 161.41016 604.78125 L 165.57617 602.17773 z M 173.09375 605.56641 C 173.55275 605.56141 174.00726 605.57678 174.45508 605.61328 C 174.45508 605.61328 174.45703 605.61328 174.45703 605.61328 C 174.90418 605.64978 175.34477 605.70768 175.7793 605.7832 C 175.7793 605.7832 175.78125 605.7832 175.78125 605.7832 C 177.08605 606.0102 178.32954 606.40672 179.49414 606.9375 C 179.49414 606.9375 179.49609 606.9375 179.49609 606.9375 C 180.66065 607.46841 181.74575 608.13412 182.73047 608.89648 C 185.96384 611.39967 188.24989 614.89501 189.38477 618.48242 C 190.62999 622.41878 190.67206 626.65529 189.67773 630.58203 C 189.34629 631.89094 188.89913 633.16527 188.34375 634.38281 C 187.37185 636.51352 186.03708 638.48718 184.375 640.12891 C 182.23803 642.23969 179.56011 643.80207 176.41797 644.44727 C 176.12361 644.50767 175.82524 644.55549 175.52539 644.58984 C 175.22613 644.62414 174.92443 644.645 174.62109 644.6543 C 174.31655 644.6633 174.01029 644.65953 173.70312 644.64453 C 173.39714 644.62953 173.09038 644.60265 172.7832 644.56445 C 172.7832 644.56445 172.78125 644.56445 172.78125 644.56445 C 172.47406 644.52615 172.1663 644.47655 171.85938 644.41602 C 171.85938 644.41602 171.85742 644.41602 171.85742 644.41602 C 171.55048 644.35542 171.24469 644.28317 170.93945 644.20117 C 170.93945 644.20117 170.9375 644.20117 170.9375 644.20117 C 170.63225 644.11917 170.32944 644.02634 170.02734 643.92383 C 170.02734 643.92383 170.02539 643.92383 170.02539 643.92383 C 169.72328 643.82127 169.42251 643.70804 169.125 643.58594 C 169.125 643.58594 169.12305 643.58594 169.12305 643.58594 C 168.846 643.43732 168.57821 643.28185 168.31836 643.12305 C 168.31836 643.12305 168.31641 643.12305 168.31641 643.12305 C 168.05611 642.96394 167.80444 642.79976 167.56055 642.63086 C 167.31598 642.46166 167.08047 642.28993 166.85156 642.11133 C 166.62321 641.93305 166.40313 641.74972 166.18945 641.5625 C 169.57296 640.92399 170.36387 640.14871 171.95898 639.41602 C 172.60717 639.59516 173.26485 639.7042 173.86719 639.74609 C 174.16928 639.76709 174.45727 639.77157 174.72266 639.75977 C 174.98649 639.74797 175.22855 639.71918 175.43945 639.67578 C 177.84739 639.18139 179.88519 637.91624 181.49414 636.11914 C 182.45992 635.04065 183.27273 633.77171 183.91602 632.36133 C 185.63091 628.60149 186.00017 623.93622 184.74023 619.95312 C 184.22005 618.30885 183.31868 616.61403 182.14258 615.13086 C 181.43726 614.24095 180.63227 613.42758 179.75195 612.74609 C 177.65205 611.12029 175.22127 610.19943 172.41406 610.46094 L 170.05664 605.91992 C 170.24599 605.87422 170.36621 605.85442 170.50586 605.82422 C 171.38426 605.65792 172.24646 605.57397 173.09375 605.56641 z M 161.71875 609.35938 L 163.63477 613.83594 C 161.81167 614.61773 160.30778 615.50647 159.08008 616.46484 L 155.59375 613.0957 C 157.27473 611.66489 159.31176 610.39158 161.71875 609.35938 z M 144.50781 611.25781 L 144.50781 611.25977 C 144.50781 611.25977 144.50977 611.25977 144.50977 611.25977 C 144.91316 611.26377 145.31033 611.28015 145.70117 611.31445 C 146.09283 611.34875 146.47714 611.40065 146.85547 611.47461 C 148.41573 611.77881 149.86377 612.32111 151.20898 613.04297 C 151.20898 613.04297 151.21094 613.04297 151.21094 613.04297 C 153.45234 614.24601 155.40602 615.94976 157.10547 617.89062 C 158.01992 618.93499 158.87348 620.0506 159.66602 621.20703 C 160.45855 622.36346 161.19025 623.56028 161.86328 624.77148 C 163.20934 627.19389 164.31862 629.66899 165.20117 631.9668 C 164.85553 632.07662 164.41164 632.12873 163.91797 632.12695 C 163.67013 632.12599 163.40944 632.11158 163.14258 632.08398 C 162.877 632.05668 162.60445 632.01558 162.33203 631.96289 C 162.33203 631.96289 162.33008 631.96289 162.33008 631.96289 C 162.05764 631.91019 161.78481 631.84461 161.51758 631.76758 C 161.51758 631.76758 161.51562 631.76758 161.51562 631.76758 C 161.24842 631.69048 160.98826 631.60038 160.73828 631.5 C 160.73828 631.5 160.73633 631.5 160.73633 631.5 C 160.48641 631.39957 160.24798 631.28872 160.02734 631.16602 C 160.02734 631.16602 160.02539 631.16602 160.02539 631.16602 C 159.80483 631.04326 159.60306 630.90769 159.42383 630.76367 C 158.2566 628.20376 156.81119 625.57128 155.16016 623.27148 C 154.60999 622.50489 154.03675 621.77533 153.44336 621.09766 C 150.31176 617.52105 147.38558 615.61934 142.47852 616.14844 C 138.03209 616.54204 133.8672 619.6968 134.24609 625.08398 L 134.23438 625.54688 C 133.74965 629.55516 135.8299 633.90216 138.76758 635.67578 L 138.85156 635.95312 C 139.26871 637.27305 139.77441 638.6509 140.375 640.02539 C 140.5752 640.48356 140.78645 640.94134 141.00781 641.39648 C 140.01985 641.30438 139.06908 641.08228 138.39258 640.85742 C 138.16709 640.78242 137.97221 640.70776 137.81641 640.63672 C 137.1935 640.3525 137.10583 640.29916 137.01172 640.25195 C 137.01172 640.25195 137.00977 640.25195 137.00977 640.25195 C 136.82691 640.16015 136.64788 640.06658 136.4707 639.9668 C 136.34787 639.8991 136.22566 639.82528 136.10547 639.75195 C 135.97167 639.66955 135.84321 639.58498 135.71289 639.49805 C 130.69209 635.94193 129.29223 631.50836 129.38672 625.16016 C 129.52203 616.06087 135.80907 611.92921 142.00391 611.37891 C 142.43458 611.34081 142.85843 611.30881 143.27539 611.28711 C 143.6925 611.26541 144.10369 611.25401 144.50781 611.25781 z M 173.97852 612.8125 L 173.98047 612.8125 C 174.61972 612.8896 175.33841 613.05421 176.125 613.39453 C 176.125 613.39453 176.12695 613.39453 176.12695 613.39453 C 176.51978 613.56458 176.92849 613.77847 177.35352 614.04688 C 177.35352 614.04688 177.35547 614.04688 177.35547 614.04688 C 177.56784 614.18102 177.78406 614.33135 178.00391 614.49414 C 178.00391 614.49414 178.00586 614.49414 178.00586 614.49414 C 178.22578 614.65703 178.44876 614.83504 178.67578 615.0293 C 178.03292 615.65558 177.20613 616.45849 176.25 617.39453 C 175.49404 615.927 174.70298 614.46171 173.79492 612.99414 C 173.85662 612.93394 173.91836 612.87114 173.97852 612.8125 z M 145.24414 618.50391 L 145.24609 618.50391 C 144.59108 620.7566 144.3636 623.71608 144.58789 626.83398 C 144.78372 629.56216 145.32554 632.41124 146.22852 635.01367 C 146.35751 635.38545 146.49292 635.75265 146.63672 636.11328 C 146.92904 636.84634 147.25051 637.55358 147.59766 638.22852 C 147.9448 638.90345 148.31763 639.54693 148.71484 640.15039 C 148.91321 640.45213 149.11813 640.74403 149.32812 641.02539 C 149.74814 641.58812 150.19112 642.10692 150.6543 642.57812 C 150.88588 642.81373 151.12176 643.03782 151.36328 643.24805 C 151.36328 643.24805 151.36523 643.24805 151.36523 643.24805 C 151.60642 643.45791 151.85084 643.65675 152.09961 643.8418 C 152.09961 643.8418 152.10156 643.8418 152.10156 643.8418 C 152.35031 644.02677 152.60165 644.20012 152.85938 644.35938 C 152.85938 644.35938 152.86133 644.35938 152.86133 644.35938 C 153.11904 644.51855 153.3823 644.66625 153.65039 644.79883 C 153.65039 644.79883 153.65234 644.79883 153.65234 644.79883 C 153.92043 644.93133 154.19279 645.0493 154.47266 645.1543 C 154.47266 645.1543 154.47461 645.1543 154.47461 645.1543 C 154.75449 645.25923 155.04093 645.35122 155.33398 645.42773 C 155.33398 645.42773 155.33594 645.42773 155.33594 645.42773 C 155.62902 645.50423 155.92867 645.56809 156.23633 645.61523 C 156.23633 645.61523 156.23828 645.61523 156.23828 645.61523 C 156.54599 645.66233 156.86186 645.69404 157.18555 645.71094 C 157.51053 645.72794 157.84303 645.72914 158.18555 645.71484 L 158.27734 645.70703 L 158.2793 645.70703 L 158.375 645.71484 C 159.95602 645.76814 162.66366 645.32137 165.3418 644.35352 C 165.67257 644.56011 166.07817 644.79691 166.53711 645.04102 C 166.53711 645.04102 166.53906 645.04102 166.53906 645.04102 C 166.99764 645.28488 167.50879 645.5376 168.05273 645.77148 C 168.05273 645.77148 168.05469 645.77148 168.05469 645.77148 C 168.32643 645.8883 168.60555 646.00001 168.89062 646.10547 C 168.89062 646.10547 168.89258 646.10547 168.89258 646.10547 C 169.17769 646.21089 169.46857 646.31028 169.76172 646.39844 C 169.76172 646.39844 169.76367 646.39844 169.76367 646.39844 C 170.05682 646.48654 170.35255 646.56593 170.64844 646.63086 C 170.64844 646.63086 170.65039 646.63086 170.65039 646.63086 C 170.94625 646.69576 171.24186 646.74742 171.53516 646.7832 L 170.12305 647.57812 C 169.87795 647.70428 169.62958 647.8137 169.38281 647.93164 C 169.11146 648.0613 168.84101 648.19857 168.56836 648.31836 C 168.56836 648.31836 168.56641 648.32031 168.56641 648.32031 C 168.25644 648.45646 167.94536 648.57379 167.63477 648.69727 C 164.28997 650.02726 160.94127 650.63653 158.2793 650.55664 C 157.78631 650.57334 157.30054 650.56666 156.82227 650.53516 C 156.34527 650.50406 155.87499 650.44916 155.41406 650.37305 C 155.41406 650.37305 155.41211 650.37305 155.41211 650.37305 C 154.9512 650.29685 154.50006 650.19862 154.05664 650.08008 C 154.05664 650.08008 154.05469 650.08008 154.05469 650.08008 C 153.61129 649.96148 153.17644 649.82044 152.75195 649.66211 C 152.75195 649.66211 152.75 649.66211 152.75 649.66211 C 152.32553 649.50373 151.91194 649.32633 151.50781 649.13086 C 151.50781 649.13086 151.50586 649.13086 151.50586 649.13086 C 151.10174 648.93533 150.70853 648.72021 150.32617 648.49023 C 150.32617 648.49023 150.32422 648.49023 150.32422 648.49023 C 149.55903 648.02987 148.83935 647.50239 148.16992 646.91992 C 148.16992 646.91992 148.16797 646.91992 148.16797 646.91992 C 147.83004 646.62578 147.50469 646.31695 147.18945 645.99805 C 144.98054 643.7632 143.32151 640.94713 142.11133 637.91211 C 139.69626 631.85553 138.96952 624.91461 140.06641 619.23633 C 141.25857 618.66636 142.50109 618.49631 145.24414 618.50391 z M 166.63867 620.00977 C 166.85657 620.39022 167.06555 620.77478 167.26172 621.16602 C 167.85022 622.33974 168.32556 623.57012 168.59766 624.90234 C 168.24087 625.25233 167.88327 625.60244 167.52539 625.95312 C 166.99805 626.4696 166.46945 626.98538 165.94531 627.49805 C 165.2683 625.9648 164.45394 624.36861 163.64648 622.93945 C 163.8056 622.78449 163.96247 622.62762 164.12109 622.47266 C 164.96499 621.64634 165.81059 620.82127 166.63867 620.00977 z M 178.27148 629.3418 C 178.66082 630.25853 178.93806 631.16581 179.10938 632.09766 C 179.19467 632.56427 179.25382 633.03591 179.28711 633.51953 C 179.32041 634.00315 179.32735 634.49837 179.31055 635.00781 C 178.65829 635.63101 177.77094 636.23252 176.68359 636.67969 C 176.24866 636.85855 175.78219 637.01393 175.28516 637.13477 C 175.03664 637.19517 174.78081 637.24635 174.51758 637.28906 C 175.12927 636.56026 175.89444 635.65078 176.59375 634.38477 C 177.29263 633.11953 177.92639 631.49811 178.27148 629.3418 z M 470.68945 631.2207 L 470.71289 631.2793 C 470.71289 631.2906 470.72472 631.30546 470.72852 631.31836 L 470.72852 631.33008 C 470.72852 631.31118 470.70477 631.2997 470.69727 631.2793 C 470.68597 631.2604 470.69525 631.24506 470.68555 631.22656 L 470.68945 631.2207 z M 150.23438 635.14648 C 150.89926 636.02982 151.5395 636.74178 152.16016 637.33789 C 152.46993 637.63541 152.77435 637.90454 153.07617 638.15039 C 153.07617 638.15039 153.07812 638.15039 153.07812 638.15039 C 153.37988 638.39613 153.6768 638.6208 153.97266 638.82812 C 153.20549 639.23733 152.39981 639.6033 151.57031 639.92188 C 150.172 638.1486 149.61775 636.86069 149.04688 635.5625 C 149.43804 635.43853 149.86708 635.28773 150.23438 635.14648 z M 234.34961 718.74414 C 247.63237 718.66814 261.14304 719.66401 275.06836 720.94531 C 292.23874 722.52504 308.33349 730.56104 325.50195 738.49805 C 342.67577 746.43774 361.20674 754.30016 382.82227 752.67969 C 444.37411 748.06498 504.89922 735.17119 564.33594 738.94727 C 561.77263 740.20391 559.193 741.43248 556.59766 742.63281 C 512.53246 744.32994 441.13754 748.54526 422.86523 752.71289 C 410.9542 755.42963 397.52251 758.46233 383.81641 760.75977 C 380.57435 761.30319 377.31903 761.80551 374.0625 762.25195 C 364.17401 763.60764 354.29472 764.45642 344.88477 764.39453 C 343.96945 764.38853 343.05835 764.37516 342.15234 764.35156 C 341.24763 764.32806 340.34771 764.29551 339.45312 764.25391 C 339.45312 764.25391 339.45117 764.25391 339.45117 764.25391 C 338.5566 764.21221 337.6668 764.16021 336.7832 764.09961 C 336.7832 764.09961 336.78125 764.09961 336.78125 764.09961 C 335.89766 764.03901 335.02021 763.96887 334.14844 763.88867 C 334.14844 763.88867 334.14648 763.88867 334.14648 763.88867 C 333.03 763.78595 331.91978 763.65645 330.81445 763.50391 C 330.81445 763.50391 330.8125 763.50391 330.8125 763.50391 C 329.70718 763.35134 328.60698 763.17557 327.51172 762.97656 C 327.51172 762.97656 327.50977 762.97656 327.50977 762.97656 C 326.41451 762.77753 325.32456 762.55459 324.23828 762.3125 C 324.23828 762.3125 324.23633 762.3125 324.23633 762.3125 C 323.15004 762.07039 322.06668 761.80717 320.98828 761.52539 C 320.98828 761.52539 320.98633 761.52539 320.98633 761.52539 C 319.90792 761.24358 318.83333 760.9431 317.76172 760.625 C 317.76172 760.625 317.75977 760.625 317.75977 760.625 C 316.68815 760.30688 315.62061 759.97017 314.55469 759.61914 C 314.55469 759.61914 314.55273 759.61914 314.55273 759.61914 C 312.4203 758.91685 310.29782 758.15158 308.18164 757.33789 C 308.18164 757.33789 308.17969 757.33789 308.17969 757.33789 C 299.71271 754.08214 291.34151 750.04343 282.78516 746.08789 C 277.77224 743.77038 272.68262 741.48043 267.46875 739.44141 C 267.46875 739.44141 267.4668 739.44141 267.4668 739.44141 C 265.38158 738.62595 263.2766 737.85025 261.14844 737.12891 C 261.14844 737.12891 261.14648 737.12891 261.14648 737.12891 C 260.08269 736.76835 259.01318 736.42158 257.9375 736.08984 C 257.9375 736.08984 257.93555 736.08984 257.93555 736.08984 C 253.63104 734.76244 249.22886 733.67925 244.70312 732.95508 C 244.70312 732.95508 244.70117 732.95508 244.70117 732.95508 C 243.57021 732.77414 242.43187 732.61489 241.28516 732.48047 C 241.28516 732.48047 241.2832 732.48047 241.2832 732.48047 C 238.98917 732.21165 236.6625 732.0399 234.30078 731.97852 C 234.30078 731.97852 234.29883 731.97852 234.29883 731.97852 C 233.11763 731.94782 231.9278 731.9444 230.72852 731.9707 C 229.44922 731.9972 228.16016 732.0607 226.85938 732.1582 C 223.77174 732.38969 220.68542 732.64917 217.60156 732.92188 C 211.2031 729.50367 204.9118 725.91288 198.73828 722.14648 C 210.53662 719.7692 222.35016 718.81325 234.34961 718.74414 z M 237.36914 742.75586 C 239.29377 742.90669 241.20306 743.13406 243.09961 743.44141 C 243.09961 743.44141 243.10156 743.44141 243.10156 743.44141 C 244.09556 743.60251 245.08649 743.78412 246.07422 743.98438 C 246.07422 743.98438 246.07617 743.98438 246.07617 743.98438 C 247.0639 744.18464 248.04875 744.40386 249.03125 744.64062 C 249.03125 744.64062 249.0332 744.64062 249.0332 744.64062 C 250.99882 745.11437 252.95534 745.65973 254.90625 746.26367 C 254.90625 746.26367 254.9082 746.26367 254.9082 746.26367 C 255.88337 746.56557 256.85704 746.88243 257.83008 747.21289 C 257.83008 747.21289 257.83203 747.21289 257.83203 747.21289 C 259.77871 747.87405 261.72162 748.59003 263.66602 749.34961 C 263.66602 749.34961 263.66797 749.34961 263.66797 749.34961 C 266.58488 750.48914 269.50436 751.72785 272.43945 753.0293 C 272.43945 753.0293 272.44141 753.0293 272.44141 753.0293 C 274.39798 753.89687 276.36092 754.79398 278.33594 755.70703 C 278.33594 755.70703 278.33789 755.70703 278.33789 755.70703 C 279.35027 756.17506 280.38461 756.66149 281.40234 757.13672 C 282.61128 757.70139 283.81722 758.26076 285.03516 758.83008 C 286.4968 759.51299 287.95048 760.18543 289.42773 760.86523 C 290.24637 761.24224 291.06458 761.61471 291.88867 761.98828 C 293.27237 762.615 294.66744 763.22968 296.06836 763.83984 C 296.75614 764.1397 297.44936 764.43363 298.14062 764.72852 C 277.10872 759.10416 256.79699 751.7229 237.36914 742.75586 z M 528.80664 754.16992 C 487.69793 769.34567 443.24646 777.63867 396.84961 777.63867 C 380.72977 777.63867 364.84755 776.63346 349.25586 774.69141 C 352.08208 774.55488 354.90845 774.34607 357.73242 774.08203 C 360.59563 773.81432 363.45361 773.50059 366.30859 773.1543 C 369.37405 772.7866 372.43412 772.39031 375.48242 771.99414 C 389.73693 769.92613 412.23952 765.53663 426.46094 762.29297 C 435.18317 760.30354 453.85385 758.52692 475.57031 757.04492 C 482.08115 756.6006 488.89547 756.19492 495.77539 755.80664 C 506.82857 755.18284 518.05635 754.63701 528.80664 754.16992 z "
       style="opacity:1;fill:#000000;stroke-width:5.13755;stroke-linecap:round;stroke-linejoin:round"
       id="path844" />
    <g
       id="g1104"
       style="opacity:1" />
  </g>
</svg>
