<?xml version="1.0" encoding="UTF-8" standalone="no"?>
<svg
   xmlns:dc="http://purl.org/dc/elements/1.1/"
   xmlns:cc="http://creativecommons.org/ns#"
   xmlns:rdf="http://www.w3.org/1999/02/22-rdf-syntax-ns#"
   xmlns:svg="http://www.w3.org/2000/svg"
   xmlns="http://www.w3.org/2000/svg"
   xmlns:sodipodi="http://sodipodi.sourceforge.net/DTD/sodipodi-0.dtd"
   xmlns:inkscape="http://www.inkscape.org/namespaces/inkscape"
   sodipodi:docname="digestive.svg"
   inkscape:version="1.0 (4035a4fb49, 2020-05-01)"
   id="svg8"
   version="1.1"
   viewBox="0 0 210 210"
   height="210mm"
   width="210mm"
   inkscape:export-filename="digestive.png"
   inkscape:export-xdpi="12.0952"
   inkscape:export-ydpi="12.0952">
  <defs
     id="defs2" />
  <sodipodi:namedview
     inkscape:window-maximized="0"
     inkscape:window-y="0"
     inkscape:window-x="531"
     inkscape:window-height="1040"
     inkscape:window-width="1373"
     showgrid="false"
     inkscape:document-rotation="0"
     inkscape:current-layer="layer1"
     inkscape:document-units="mm"
     inkscape:cy="381.05388"
     inkscape:cx="427.61114"
     inkscape:zoom="0.7"
     inkscape:pageshadow="2"
     inkscape:pageopacity="0.0"
     borderopacity="1.0"
     bordercolor="#666666"
     pagecolor="#ffffff"
     id="base"
     inkscape:snap-global="false" />
  <metadata
     id="metadata5">
    <rdf:RDF>
      <cc:Work
         rdf:about="">
        <dc:format>image/svg+xml</dc:format>
        <dc:type
           rdf:resource="http://purl.org/dc/dcmitype/StillImage" />
        <dc:title />
      </cc:Work>
    </rdf:RDF>
  </metadata>
  <g
     id="layer1"
     inkscape:groupmode="layer"
     inkscape:label="Layer 1">
    <path
       transform="scale(0.26458333)"
       d="M 396.84961 0 C 177.7166 1.4317603e-06 6.4218663e-06 177.71659 0 396.84961 C 0 615.98265 177.71659 793.70117 396.84961 793.70117 C 615.98261 793.70113 793.70117 615.98261 793.70117 396.84961 C 793.70117 177.7166 615.98261 2.1055298e-05 396.84961 0 z M 371.04297 16.929688 C 373.06597 30.71737 375.18446 44.834527 377.29102 58.587891 C 382.40345 91.96621 386.00047 125.77742 393.95898 158.59375 C 396.39568 168.64139 397.87636 183.96536 400.07812 195.32812 C 401.04194 198.63847 401.11798 200.92232 399.63281 203.64062 C 398.34842 205.78966 397.23832 207.69667 396.39844 209.56445 C 394.96297 213.01577 394.48678 217.23232 397.41992 213.99805 C 398.43234 212.52839 398.5773 212.4078 399.69336 211 C 402.30339 207.47991 403.07795 208.73705 406.08203 210.11133 C 407.15795 210.57355 408.36345 210.85193 409.67578 210.97266 C 411.63649 210.70095 413.04545 214.59022 412.11523 216.88086 C 411.87334 217.9486 411.54783 219.17908 411.14062 220.66406 C 409.48289 228.10619 409.55626 229.91989 414.81445 222.00195 C 415.81474 219.53396 416.62696 217.20239 417.18164 214.92188 C 417.68254 209.5034 419.08939 210.0553 423.50195 208.58203 C 432.23557 205.65152 441.90262 200.68329 449.51758 196.98047 C 477.99673 183.13228 497.00774 158.02657 526.28906 145.9668 C 548.40115 136.85974 574.78042 129.41115 598.51562 132.33008 C 625.89963 135.69773 657.00999 150.98931 676.80273 170.21094 C 709.43321 201.89984 733.87004 241.4223 732.36133 286.88281 C 729.00216 388.10095 704.57063 497.86666 661.65039 578.81836 C 641.6441 616.55214 595.96321 658.68363 550.54297 686.41406 C 518.88315 705.74332 474.44062 721.93876 437.39648 723.86133 C 380.20853 726.82935 317.17743 729.16581 258.59961 710.13672 C 228.83071 700.46623 203.49111 680.85824 189.73633 652.74219 C 182.4798 637.90917 186.75131 613.27636 188.07227 596.81641 C 188.13928 595.98121 188.23215 595.15509 188.33594 594.33398 C 192.39052 579.98002 196.69748 565.49251 210.53711 555.98828 C 223.97665 546.75883 220.16252 520.07501 203.18555 513.01758 C 200.10872 511.73851 197.32545 509.43757 195.01953 508.39453 C 185.08387 503.86802 177.7203 502.04558 194.83008 510.68555 C 196.9169 511.69389 199.51337 513.96535 202.1582 515.21875 C 215.53772 521.55936 219.63931 544.48795 206.31641 553.45703 L 206.29492 553.48047 L 206.27148 553.49414 C 202.23639 556.35728 198.86878 560.04972 196.00586 564.24023 C 197.26536 558.18071 197.6694 552.03801 195.96875 545.48242 C 195.91644 545.28097 195.84722 545.09461 195.79102 544.89648 C 195.22658 539.11581 192.29237 534.14744 189.46875 528.39844 C 186.1739 521.69004 180.25462 518.13828 173.90039 515.05664 C 167.54616 511.975 162.27908 510.41077 153.01758 507.07031 C 143.75607 503.72985 140.22377 504.07057 152.31641 509.52148 C 159.84321 512.82139 165.99904 515.93208 171.8418 518.76562 C 177.30394 521.41466 182.02508 522.55077 184.48242 529.82617 C 180.52734 527.12502 175.90673 525.03964 171.01172 523.26953 C 153.98901 517.11393 132.90389 518.10177 116.75977 526.28906 C 102.53076 533.50509 91.323916 545.53409 83.841797 559.625 C 77.093956 572.33306 77.068086 587.60158 75.990234 602.06445 C 56.522755 571.6786 41.260477 538.33834 31.007812 502.86719 C 38.220305 493.11785 44.993394 486.0352 55.324219 477.56836 C 79.318905 457.90299 104.8251 442.18736 135.5957 438.23242 C 168.60642 433.98956 205.21029 440.48331 235.36523 454.56836 C 258.31389 465.2874 285.99858 501.33757 298.50977 508.22852 C 295.21394 509.77264 291.68111 511.13799 288.07617 511.85156 C 281.49956 513.15331 274.00268 513.17039 268.51367 509.2207 C 248.64383 495.17443 252.74798 501.18731 266.5332 512.40234 C 273.3774 517.32718 281.44346 517.78038 288.84961 516.31445 C 295.91377 514.91618 302.5264 511.82763 307.69727 509.00391 C 312.7167 507.64074 317.25733 504.152 322.95312 503.00586 C 332.1372 501.15767 341.88674 500.80767 350.63867 497.64258 C 354.77174 495.33529 356.72133 495.42566 361.00781 496.60352 C 363.07945 497.17532 365.11564 497.83224 366.94531 498.99414 C 368.4046 499.91873 369.38326 501.51653 370.5957 502.79492 C 371.80815 504.07338 375.00148 508.58858 376.32031 508.55078 C 379.13552 507.92754 372.67513 496.84033 369.63867 494.87891 C 368.23063 493.92631 366.70346 493.25949 365.12305 492.71875 C 362.40902 491.65425 362.01979 490.7189 364.92383 487.13867 C 369.1174 481.94734 372.58617 475.81802 376.78711 470.73047 C 382.54782 463.75388 389.00527 457.16557 394.41211 449.91602 C 396.31045 446.32573 399.34592 445.4948 403.0957 445.30469 C 406.22814 445.16636 409.37095 445.22268 414.25977 446.90234 C 417.05934 448.05227 423.40303 450.0782 415.31836 443.67969 C 410.98902 442.1921 407.89011 440.72355 404.5918 440.43555 C 401.1214 440.02566 401.12438 439.40208 402.69141 435.94336 C 404.28032 432.43241 405.65876 428.79999 406.78906 425.09375 C 407.17439 423.46432 409.33759 421.77219 410.61133 421.90039 C 414.93023 421.93063 414.78475 420.19471 412.50195 419.72461 C 410.55134 419.18765 408.72676 417.76255 409.37695 413.89844 C 409.73109 411.63684 409.98284 409.36473 410.12109 407.0918 C 411.73469 380.56787 408.99465 352.49057 398 328.29883 C 388.70637 307.84912 366.34113 295.90832 354.56445 276.78125 C 340.16915 253.40113 330.72641 227.90351 324.76367 201.01953 C 312.79592 147.06097 301.62981 83.613743 295.39648 29.720703 C 319.72178 23.019084 345.02275 18.669146 371.04297 16.929688 z M 261.35547 601.62891 C 226.33429 601.5125 215.65802 605.97253 202.37891 608.11133 C 201.2612 623.80143 200.58778 640.53002 203.3125 646.09961 C 215.06568 670.12418 236.81228 687.16373 263.26758 695.75781 C 318.46862 713.68993 379.5853 711.72515 436.60938 708.76562 C 469.88985 707.03842 513.16935 691.51717 542.66406 673.50977 C 571.22595 656.07186 604.48728 627.7485 626.03516 603.82617 C 591.469 614.73385 570.38993 617.3826 527.93359 611.85156 C 487.14009 606.53713 462.52037 598.70455 405 613.82617 C 346.69084 623.86169 296.37665 601.74543 261.35547 601.62891 z "
       style="fill:#000000;stroke-width:5.17912;stroke-linecap:round;stroke-linejoin:round"
       id="path849" />
  </g>
</svg>
