<?xml version="1.0" encoding="UTF-8" standalone="no"?>
<svg
   xmlns:dc="http://purl.org/dc/elements/1.1/"
   xmlns:cc="http://creativecommons.org/ns#"
   xmlns:rdf="http://www.w3.org/1999/02/22-rdf-syntax-ns#"
   xmlns:svg="http://www.w3.org/2000/svg"
   xmlns="http://www.w3.org/2000/svg"
   xmlns:sodipodi="http://sodipodi.sourceforge.net/DTD/sodipodi-0.dtd"
   xmlns:inkscape="http://www.inkscape.org/namespaces/inkscape"
   inkscape:export-ydpi="12.0952"
   inkscape:export-xdpi="12.0952"
   inkscape:export-filename="eye_and_ear.png"
   width="210mm"
   height="210mm"
   viewBox="0 0 210 210"
   version="1.1"
   id="svg8"
   inkscape:version="1.0 (4035a4fb49, 2020-05-01)"
   sodipodi:docname="eye_and_ear.svg">
  <defs
     id="defs2">
    <inkscape:path-effect
       end_linecap_type="zerowidth"
       scale_width="11"
       miter_limit="3.6"
       linejoin_type="round"
       start_linecap_type="zerowidth"
       interpolator_beta="0"
       interpolator_type="CentripetalCatmullRom"
       sort_points="true"
       offset_points="0.2,0.1322915 | 1.5,0.1322915 | 2.8,0.1322915"
       lpeversion="1"
       is_visible="true"
       id="path-effect883"
       effect="powerstroke" />
    <inkscape:path-effect
       effect="skeletal"
       id="path-effect870"
       is_visible="true"
       lpeversion="1"
       pattern="m 670.97649,89.958336 a 2.2077553,14.174108 0 0 1 -2.20775,14.174104 2.2077553,14.174108 0 0 1 -2.20776,-14.174104 2.2077553,14.174108 0 0 1 2.20776,-14.174108 2.2077553,14.174108 0 0 1 2.20775,14.174108 z"
       copytype="repeated_stretched"
       prop_scale="1"
       scale_y_rel="false"
       spacing="0.3"
       normal_offset="3.1"
       tang_offset="0"
       prop_units="false"
       vertical_pattern="false"
       hide_knot="false"
       fuse_tolerance="0" />
    <inkscape:path-effect
       fuse_tolerance="0"
       hide_knot="false"
       vertical_pattern="false"
       prop_units="false"
       tang_offset="0"
       normal_offset="3.1"
       spacing="0.3"
       scale_y_rel="false"
       prop_scale="1"
       copytype="repeated_stretched"
       pattern="m 670.97649,89.958336 a 2.2077553,14.174108 0 0 1 -2.20775,14.174104 2.2077553,14.174108 0 0 1 -2.20776,-14.174104 2.2077553,14.174108 0 0 1 2.20776,-14.174108 2.2077553,14.174108 0 0 1 2.20775,14.174108 z"
       lpeversion="1"
       is_visible="true"
       id="path-effect849"
       effect="skeletal" />
    <inkscape:path-effect
       effect="skeletal"
       id="path-effect882"
       is_visible="true"
       lpeversion="1"
       pattern="m 662.02661,75.370003 h 2.55391 v 29.666917 h -2.55391 z"
       copytype="repeated_stretched"
       prop_scale="1.28"
       scale_y_rel="false"
       spacing="1.9"
       normal_offset="0"
       tang_offset="0"
       prop_units="false"
       vertical_pattern="false"
       hide_knot="false"
       fuse_tolerance="0" />
  </defs>
  <sodipodi:namedview
     inkscape:snap-global="false"
     id="base"
     pagecolor="#ffffff"
     bordercolor="#666666"
     borderopacity="1.0"
     inkscape:pageopacity="0.0"
     inkscape:pageshadow="2"
     inkscape:zoom="0.49497474"
     inkscape:cx="228.8698"
     inkscape:cy="421.98246"
     inkscape:document-units="mm"
     inkscape:current-layer="layer1"
     inkscape:document-rotation="0"
     showgrid="false"
     inkscape:window-width="1920"
     inkscape:window-height="1017"
     inkscape:window-x="-8"
     inkscape:window-y="-8"
     inkscape:window-maximized="1" />
  <metadata
     id="metadata5">
    <rdf:RDF>
      <cc:Work
         rdf:about="">
        <dc:format>image/svg+xml</dc:format>
        <dc:type
           rdf:resource="http://purl.org/dc/dcmitype/StillImage" />
        <dc:title />
      </cc:Work>
    </rdf:RDF>
  </metadata>
  <g
     inkscape:label="Layer 1"
     inkscape:groupmode="layer"
     id="layer1">
    <path
       transform="scale(0.26458333)"
       d="M 396.63867 0 C 177.54724 0.11688547 0.0003994398 177.75815 0 396.84961 C -0.0001971016 463.70414 16.874699 528.81671 48.255859 586.50195 L 53.810547 596.38672 C 70.887213 625.74661 91.803776 653.03415 116.23438 677.46484 C 190.65808 751.88896 291.59827 793.70096 396.84961 793.70117 C 502.10128 793.70148 603.04263 751.89097 677.4668 677.4668 C 751.89097 603.04263 793.70148 502.10128 793.70117 396.84961 C 793.70104 329.99556 776.82438 264.88401 745.44336 207.19922 L 739.89258 197.31836 C 722.81512 167.95625 701.89722 140.66659 677.46484 116.23438 C 603.04073 41.810609 502.10095 -0.0003103037 396.84961 0 L 396.63867 0 z M 365.68945 125.60938 C 384.92115 125.67927 427.41793 131.3878 441.00586 141.66797 C 448.11439 147.04604 435.5712 163.13461 426.59766 165.01758 C 407.0852 169.11197 371.66198 165.85495 358.53906 149.61719 C 353.52555 143.41367 352.57463 126.40706 360.52539 125.77148 C 361.95918 125.65659 363.69997 125.60106 365.68945 125.60938 z M 264.83398 128.42188 C 254.99378 145.3388 249.35352 165.00166 249.35352 185.98242 C 249.35352 249.30159 300.68477 300.631 364.00391 300.63086 C 427.32302 300.631 478.65234 249.30159 478.65234 185.98242 C 478.65234 167.16336 474.11956 149.40252 466.08398 133.73438 C 523.29692 156.77315 569.1168 192.39617 582.86328 208.74805 C 585.3702 211.76718 588.70757 214.79267 588.91016 217.69727 C 589.12045 220.71074 586.09461 223.62144 582.96289 227.79688 C 562.27765 252.886 474.47019 308.25776 378.73633 308.70898 C 239.71443 309.36424 209.0348 285.20773 187.04688 274.91602 C 176.31941 269.89491 171.02338 265.39785 163.16016 257.0625 C 158.69351 252.22658 154.33864 246.69886 150.4668 240.94531 C 146.78596 235.47569 143.53948 229.77311 140.95508 224.32422 C 133.53732 208.5298 136.6841 203.12779 153.26758 194.02734 C 172.60682 180.87991 190.24607 168.31858 212.48242 154.08789 C 229.18996 143.39546 246.75557 134.89276 264.83398 128.42188 z M 324.35742 170.35156 C 327.23227 172.28111 328.84525 173.57578 328.71875 173.86133 C 328.5197 174.31096 323.18117 173.28714 315.25586 171.16797 C 318.19687 170.85968 321.23224 170.58812 324.35742 170.35156 z M 400.77734 171.17578 C 402.99245 171.39006 405.16564 171.62297 407.30273 171.87109 C 401.84135 173.26564 398.31398 173.90138 398.14844 173.53711 C 398.04669 173.31363 399.01053 172.45979 400.77734 171.17578 z M 311.10352 171.63281 C 313.47088 172.56085 315.7013 173.44812 317.53125 174.20117 C 323.69938 176.73962 327.13067 178.33347 326.99219 178.92578 C 326.83152 179.61194 310.92252 178.54823 291.65039 175.22656 C 291.32771 175.17116 291.01398 175.10909 290.69336 175.05273 C 296.79417 173.6746 303.61498 172.53168 311.10352 171.63281 z M 412.43359 172.50195 C 418.71694 173.33676 424.61301 174.32387 430.05273 175.45703 C 413.24272 178.27535 400.10178 179.23729 399.94531 178.60742 C 399.79787 178.01349 403.2093 176.38275 409.35156 173.78125 C 410.26145 173.39591 411.37559 172.93958 412.43359 172.50195 z M 288.82812 175.48438 C 289.72658 175.61847 290.63087 175.75708 291.54297 175.9043 C 300.37308 177.33054 310.10065 179.41823 316.1875 180.80273 C 322.71529 182.28751 326.42925 183.25593 326.43945 183.81055 C 326.44985 184.36834 322.75677 184.70022 316.08594 185.10352 C 309.96654 185.47343 299.78092 185.98244 290.82812 185.98242 C 282.61886 185.98242 275.02208 185.57021 268.75 184.50586 C 272.96114 181.03396 278.38043 178.32832 284.93164 176.47461 C 286.18988 176.13178 287.49553 175.80382 288.82812 175.48438 z M 431.89844 175.84961 C 439.43251 177.49663 446.04899 179.43049 451.54688 181.63672 C 453.36116 182.32175 454.98845 183.07028 456.47656 183.86719 C 450.57638 184.79098 443.63657 185.20993 436.1875 185.29297 C 427.24041 185.39277 417.07184 184.99697 410.94727 184.69336 C 404.27648 184.36259 400.57508 184.06853 400.57617 183.50781 C 400.57617 182.95013 404.27366 181.94002 410.78125 180.38477 C 416.0662 179.12173 424.09284 177.30247 431.89844 175.84961 z M 436.18359 185.98242 C 445.82815 185.98242 454.64723 186.54237 461.43945 188.07227 C 461.93438 188.18399 462.37679 188.30841 462.83789 188.42773 C 465.38752 190.9316 467.02856 193.74569 467.99219 196.79102 C 466.1539 197.41163 463.64065 197.84698 460.52734 198.02734 C 453.61527 198.428 444.87671 197.57815 435.46875 196.05859 C 417.14439 193.09889 400.59494 189.31427 400.57227 188.1543 C 400.56177 187.59648 404.25683 187.26466 410.92773 186.86133 C 417.04698 186.49138 427.23088 185.98242 436.18359 185.98242 z M 294.22656 186.65625 C 302.25059 186.66905 310.70554 187.00567 316.06445 187.27148 C 322.73532 187.60222 326.43673 187.89631 326.43555 188.45703 C 326.43555 189.62258 309.93721 193.58647 291.65039 196.73828 C 282.262 198.35645 273.53641 199.29676 266.625 198.9707 C 263.76503 198.83578 261.40783 198.48034 259.61328 197.95898 C 260.5582 194.86543 261.99985 192.03477 263.92578 189.48828 C 264.4741 189.33572 265.01871 189.18267 265.61719 189.04102 C 272.38716 187.43854 281.19106 186.77932 290.82422 186.67188 C 291.94266 186.65798 294.22656 187.80256 294.22656 186.65625 z M 401.66016 192.70312 L 401.66016 192.70508 L 401.66211 192.70508 C 403.37575 192.70508 406.3889 192.95156 410.52344 193.38672 C 416.67477 194.0342 426.5587 195.22111 435.36133 196.73828 C 454.02501 199.9551 468.89942 205.25375 468.74219 209.89648 C 468.74192 209.90148 468.74219 209.90772 468.74219 209.91602 C 468.72329 210.05857 468.70424 210.2028 468.68164 210.3457 C 468.17779 212.35855 464.05388 213.24656 457.33789 212.5293 C 450.49135 211.79811 442.00212 209.56512 432.96875 206.56445 C 414.43878 200.40926 399.85563 193.75451 400.02344 193.03711 C 400.07554 192.81472 400.63417 192.71144 401.66016 192.70312 z M 325.42383 193.03516 C 326.45283 193.03316 327.01265 193.13396 327.06836 193.35742 C 327.24822 194.08221 312.73876 200.8791 294.26367 207.21875 C 285.25906 210.30865 276.7876 212.62754 269.94922 213.42773 C 263.23621 214.21325 259.10514 213.36593 258.58789 211.35742 C 257.37077 206.63056 272.5401 200.93359 291.76367 197.41211 C 300.55199 195.8022 310.41488 194.51309 316.56445 193.80273 C 320.69615 193.32551 323.70894 193.03779 325.42383 193.03516 z M 398.53516 198.00586 C 398.53516 200.09173 415.44929 201.28206 432.75 207.21875 C 451.22165 213.55732 465.42881 221.4373 463.62695 225.86133 C 462.85718 227.75133 458.66532 227.97576 452.11914 226.23242 C 445.45534 224.45777 437.35178 220.96245 428.83594 216.62695 C 411.32867 207.71388 397.93467 198.91267 398.29297 198.10352 C 398.31677 198.05472 398.39683 198.02216 398.53516 198.00586 z M 328.65625 198.2793 C 328.71905 198.2753 328.84627 198.38918 328.86328 198.42578 C 329.23328 199.23893 315.92116 208.16797 298.49023 217.24609 C 290.01213 221.66156 281.93719 225.23617 275.28906 227.07422 C 268.75794 228.87999 264.56361 228.69568 263.77734 226.81445 C 261.93767 222.41247 276.07447 214.39355 294.48633 207.87305 C 311.73031 201.76618 326.54163 198.1158 328.62109 198.33203 L 328.62109 198.33008 C 328.62109 198.29518 328.63525 198.2807 328.65625 198.2793 z M 395.83398 203.08984 C 397.98223 203.08384 412.23129 208.76303 428.52344 217.24805 C 445.91939 226.30807 458.88362 236.246 456.51367 240.30273 C 455.4963 242.04436 451.31221 241.63866 445.05664 238.95508 C 438.69173 236.22462 431.12033 231.58735 423.26367 226.0625 C 407.1043 214.69921 395.03676 204.01232 395.57031 203.16797 C 395.60321 203.11607 395.83398 203.23274 395.83398 203.08984 z M 331.41602 203.35156 C 331.48332 203.34056 331.62098 203.44506 331.64648 203.48438 C 332.19023 204.32895 320.21138 215.12807 304.14844 226.63672 C 296.3384 232.23233 288.8049 236.93825 282.46289 239.72656 C 276.2298 242.46709 272.05007 242.91115 271.01758 241.17969 C 268.61349 237.14779 281.49062 227.08839 298.80859 217.86523 C 315.02788 209.2272 331.37891 205.5594 331.37891 203.4082 C 331.37891 203.3724 331.39362 203.35516 331.41602 203.35156 z M 392.08789 207.99609 C 392.11119 207.98059 392.13086 207.97415 392.13086 207.99805 C 392.13086 208.04595 392.23642 207.99005 392.30859 207.99805 C 394.47263 208.23909 407.83973 215.87478 422.86328 226.63867 C 438.89672 238.12619 450.39982 249.83389 447.51562 253.48047 C 444.63612 257.12103 430.92096 248.19277 416.42383 234.69531 C 401.91929 221.19092 391.35193 208.87043 392.02734 208.04883 C 392.03774 208.03603 392.06459 208.01149 392.08789 207.99609 z M 334.95703 208.29883 C 335.02593 208.29083 335.08543 208.29083 335.13086 208.29883 C 335.17706 208.30683 335.21356 208.32391 335.23438 208.34961 C 335.91732 209.16784 325.45163 221.58267 311.0625 235.21289 C 296.68011 248.83664 283.03776 257.88502 280.12695 254.27148 C 277.21162 250.65244 288.61577 238.84293 304.55273 227.21094 C 319.50199 216.29986 332.81524 208.54091 334.95703 208.29883 z M 387.95703 212.53125 C 389.43358 212.43875 402.01697 222.01556 415.94922 235.21289 C 430.32866 248.83387 440.16812 262.0233 436.81836 265.2168 C 433.46713 268.41176 421.05642 257.68194 408.5 242.33984 C 395.94547 227.00006 387.07759 213.31641 387.84961 212.57227 C 387.87601 212.54997 387.90931 212.53385 387.95703 212.53125 z M 339.33789 212.80273 C 339.38549 212.80573 339.42259 212.81714 339.44531 212.83984 C 340.22177 213.57735 331.47143 227.34078 319.05078 242.78711 C 316.83045 245.54829 314.6163 248.15343 312.45312 250.56641 C 312.92789 250.63551 313.40417 250.7176 313.88281 250.83008 C 315.6457 248.35647 317.55092 245.81203 319.5918 243.22852 C 331.51315 228.138 342.56714 216.87913 344 216.75195 C 344.0456 216.74695 344.0817 216.75699 344.10742 216.77539 C 344.9247 217.3845 338.10019 232.21605 327.93555 249.17969 C 326.62626 251.3647 325.30937 253.47067 323.99805 255.48242 C 324.2957 255.66764 324.58345 255.85269 324.875 256.03906 C 326.01497 253.91764 327.23363 251.74434 328.52734 249.54102 C 338.25456 232.97466 347.6101 220.32913 348.93359 219.96875 C 348.97579 219.95815 349.01139 219.95811 349.03711 219.97461 C 349.8387 220.41801 345.16359 236.0184 337.53906 254.21094 C 336.256 257.27242 334.93801 260.1938 333.61523 262.95117 C 333.93987 263.29616 334.25993 263.64648 334.57227 264.00391 C 335.63152 260.9477 336.83414 257.75509 338.16992 254.48242 C 341.62203 246.02439 345.81289 237.10822 348.63086 231.40234 C 351.61186 225.36628 353.46192 222.04298 354.05664 222.25195 C 354.78712 222.50865 352.47719 238.55183 347.67773 257.70117 C 345.97603 264.49095 344.0919 270.79173 342.01367 276.13672 C 343.49854 279.47324 345.63755 283.92615 343.13867 286.23438 C 340.95919 288.24753 338.22282 288.82991 335.24414 288.54883 C 333.88421 290.00608 332.66024 290.61285 331.69336 290.28906 C 330.69551 289.95496 330.09455 288.90693 329.83984 287.28125 C 326.74045 286.1963 323.60848 284.59047 320.68555 282.98633 C 319.20289 284.18708 317.90896 284.6172 316.89062 284.10156 C 315.83205 283.56558 315.41682 282.1726 315.54688 280.11719 C 312.93928 278.65316 310.18973 276.94059 307.76562 274.92578 C 305.84413 276.23787 304.28272 276.64589 303.24219 275.91602 C 301.99082 275.03835 302.01317 272.87149 303.03516 269.8125 C 302.03126 268.29121 301.28357 266.64848 300.91016 264.87109 C 300.72726 264.00158 300.63688 263.06464 300.63867 262.10156 C 296.0551 265.78207 292.50947 267.38955 290.92969 265.91016 C 287.55193 262.74697 297.27664 249.47329 311.54102 235.72656 C 325.36211 222.40686 339.33789 214.28085 339.33789 212.80273 z M 383.46484 216.41406 C 384.89213 216.67832 396.66325 228.73725 407.96094 242.78711 C 414.01064 250.31043 419.16575 257.61714 422.35352 263.8457 C 425.48697 269.96813 426.21993 274.16747 424.59375 275.33008 C 420.81411 278.03219 409.99066 265.70152 399.66602 248.8125 C 389.34939 231.93667 382.39463 217.16346 383.21094 216.54492 C 383.23724 216.52492 383.32031 216.56984 383.32031 216.52344 L 383.32031 216.52148 C 383.32031 216.43138 383.36971 216.39645 383.46484 216.41406 z M 378.39453 219.79102 C 379.72698 220.136 389.20042 232.69813 399.07617 249.17969 C 404.03276 257.45179 408.1327 265.37901 410.42578 271.97656 C 412.6791 278.45974 412.81234 282.7142 411.02734 283.63867 C 406.86128 285.79638 397.90658 272.08011 390.10352 253.9375 C 382.309 235.81479 377.48875 220.25158 378.29297 219.79688 C 378.31947 219.78098 378.35137 219.78102 378.39453 219.79102 z M 373.27344 222.13867 C 374.03878 221.8594 381.82895 235.97264 389.47266 254.21094 C 393.19327 263.08855 396.11732 271.49255 397.42969 278.3418 C 398.71851 285.06817 398.21471 289.29557 396.29297 289.95898 C 391.78361 291.51574 384.98298 276.63509 379.99219 257.52734 C 375.00438 238.4312 372.53683 222.40743 373.27344 222.13867 z M 363.5957 223.36914 C 363.6254 223.35424 363.64844 223.3507 363.64844 223.375 C 363.64844 224.49072 367.24421 240.65968 368.83398 259.46289 C 369.65034 269.118 369.85531 278.04006 368.94531 285.03711 C 368.05311 291.89638 366.17114 295.84263 364.04297 295.91406 C 363.86377 295.92006 363.68459 295.89816 363.50586 295.84766 C 361.49724 295.16184 360.10067 291.86264 359.26758 286.83008 C 357.50164 287.49712 355.31175 287.2004 353.43555 286.32422 C 351.53376 291.76408 349.3256 294.6258 347.4707 294.29883 C 342.68265 293.45438 343.72656 277.0646 348.33594 257.86523 C 350.45487 249.03919 353.27274 239.47233 355.14648 233.43164 C 357.14565 226.98665 358.41782 223.36264 358.98633 223.42969 C 359.60107 223.50189 359.85666 239.60553 358.17773 259.46289 C 357.83025 263.57366 357.38817 267.51394 356.8457 271.2168 C 357.35008 271.10999 357.85261 271.05683 358.34766 271.0625 C 358.39016 267.42523 358.55508 263.55209 358.85352 259.51367 C 360.18463 241.49645 362.45384 224.84596 363.50586 223.43359 C 363.52956 223.41029 363.566 223.38404 363.5957 223.36914 z M 368.33203 223.39258 C 368.98523 223.30518 374.54112 238.5801 379.33398 257.70312 C 381.67463 267.04223 383.29798 275.77296 383.54297 282.75586 C 383.78307 289.60762 382.60653 293.73431 380.57031 294.11328 C 378.53541 294.49218 376.02667 291.05138 373.94336 284.51758 C 371.81616 277.84592 370.4286 269.05842 369.50977 259.40625 C 368.65255 250.4013 368.18755 240.23211 367.98047 233.99805 C 367.75625 227.25319 367.7593 223.46934 368.33203 223.39258 z M 122.36914 228.82422 C 123.95764 228.90632 125.15497 229.59939 125.49609 230.95117 C 128.77141 238.40345 131.80227 243.03602 136.65039 250.24023 C 139.29648 254.1723 142.15844 257.98187 145.12695 261.65234 C 150.87864 271.31621 113.30465 263.4178 108.66211 261.61523 C 98.034105 257.02894 91.300815 255.31643 101.26953 244.21289 C 106.25892 238.88637 111.12817 234.66426 115.29492 231.4375 C 117.63872 229.62245 120.32679 228.71867 122.36914 228.82422 z M 542.98633 368.33789 C 559.32114 368.24619 575.95219 374.71432 590.28711 382.53516 C 610.91154 393.78738 630.37318 410.10684 641.81445 430.62695 C 658.30548 460.20399 666.38934 496.70163 661.73633 530.24414 C 654.27747 584.01185 624.39937 635.36019 587.53711 675.20703 C 561.98527 702.82767 528.57331 728.75527 491.35547 734.28906 C 470.75224 737.35252 445.87605 731.85716 432.27148 716.08398 C 425.35072 708.0599 424.73752 697.82491 424.71484 687.22852 C 424.69784 679.60918 427.66692 671.91216 429.49609 664.24414 C 429.47409 661.274 428.62736 658.16594 426.77539 655.96875 C 422.08704 650.40668 421.15995 652.30341 418.1875 645.66406 C 407.2034 621.13047 404.36085 576.83629 402.04102 548.10742 C 399.69639 519.07203 401.7175 493.57415 418.5293 469.78516 C 425.05922 460.54519 432.6628 468.26072 440.23047 459.84961 C 445.09669 454.44111 449.21174 446.41383 452.40234 439.22656 C 457.56144 425.43628 464.60829 412.29394 474.46484 403.14453 C 491.89217 386.96755 512.42565 371.8102 536.01172 368.79297 C 538.32562 368.49694 540.65273 368.35074 542.98633 368.33789 z M 528.13867 400.7832 C 517.75994 400.7294 508.66161 402.06313 501.77539 405.81836 C 490.6341 411.89395 485.13505 426.97136 483.66406 440.53711 C 481.50943 460.40707 484.87903 481.44667 490.72656 498.45312 C 493.46181 506.40801 498.13863 511.62995 502.4375 516.73242 C 506.56437 521.63069 510.24716 526.49384 516.00977 529.9707 C 518.41483 531.42178 521.3045 533.15466 523.98438 534.18945 C 525.3242 534.70687 526.61498 535.04802 527.79102 535.08203 C 528.96705 535.11543 530.06036 534.81464 530.85742 534.01758 C 532.21832 532.6568 535.14413 529.89551 538.64062 527.41406 C 542.13722 524.93261 546.21032 522.75108 549.78711 522.48047 C 555.47163 522.05089 560.81115 526.25508 565.99609 529.28906 C 568.80829 530.93456 574.02369 535.01558 578.49219 538.66797 C 582.96057 542.32043 586.33008 547.55078 586.33008 547.55078 C 587.65325 549.55416 589.32022 554.06227 589.48047 559.11523 C 589.83091 570.15939 583.14865 582.79387 573.72266 588.58203 C 560.83961 596.49307 553.53748 599.77893 543.07812 603.30859 C 531.86319 607.0933 519.53965 604.1455 508.1875 608.64062 C 500.73699 611.59085 495.19397 617.35686 489.58398 622.60742 C 483.72031 628.03751 477.39513 633.64174 470.92773 630.875 C 464.46033 628.10825 459.54386 621.78558 460.82031 615.55859 C 463.49629 609.33205 467.76112 603.75687 472.37891 598.84961 C 477.86542 592.74492 483.31992 585.48096 484.14062 577.06641 C 484.96543 571.71278 482.69812 564.19172 488.57227 561.14062 C 489.49048 560.82239 490.57375 560.66301 491.75781 560.62695 C 496.88876 560.4707 503.91404 562.6469 507.3457 564.39648 C 510.77736 566.14605 512.59224 567.16626 514.71289 568.09961 C 516.73154 568.98799 518.37973 569.75013 519.39062 570.1582 C 520.43385 570.54636 521.67622 570.42616 520.51953 569.21289 C 517.58084 566.70336 506.69294 557.64535 498.0625 555.18945 C 493.75928 553.96492 489.24922 554.44084 485.47461 555.63672 C 481.7 556.83252 478.66136 558.7167 477.23633 560.51562 C 474.50305 563.96626 474.1256 568.91595 473.63086 574.05664 C 473.13619 579.19737 472.54231 584.54004 469.6543 588.88672 C 466.12826 594.19389 461.0548 598.61008 456.5332 602.64062 C 452.01157 606.67126 448.01878 610.2942 446.75781 614.25586 C 445.5156 618.15966 445.54637 621.0521 446.62891 623.67188 C 447.71136 626.2916 449.70988 628.68297 452.5293 631.56641 C 457.14384 636.28579 466.8301 636.88986 472.03516 636.22266 C 477.73809 635.37933 486.30681 629.76533 491.08984 624.16211 C 496.7244 618.88846 502.192 613.23875 509.39453 610.38672 C 520.38619 606.03437 532.67938 608.96973 544.23438 605.07031 C 554.73679 601.5261 562.15783 598.18579 575.07812 590.25195 C 584.87228 584.2377 592.5034 570.58121 592.13867 559.08203 C 591.77134 547.50677 583.89242 538.8058 576.39062 530.26758 C 569.01097 521.86818 564.82578 517.08157 554.21094 513.29883 C 551.21385 512.23077 546.59955 511.43907 541.99805 510.60938 C 537.39659 509.77966 532.80509 508.91427 530.00586 507.8125 C 516.7802 502.60662 502.31775 496.53111 497.45312 486.58203 C 496.24986 484.12099 495.50473 482.21543 494.65234 475.60547 C 493.79995 468.99551 501.33888 458.64591 502.58594 449.26953 C 502.87227 436.74274 504.98299 420.89934 518.95312 416.46289 C 526.34993 414.45161 534.01046 413.54374 541.67578 413.63867 C 554.45132 413.79688 567.23883 416.74304 578.83203 422.02344 C 585.17597 425.77495 593.02085 428.61231 598.66992 433.56641 C 603.11641 436.37566 607.14184 439.94646 610.41602 443.98633 C 612.38307 446.41343 614.26259 448.93601 616.06055 451.5293 C 616.80878 452.648 617.59977 453.82796 621.76562 460.2168 C 625.93146 466.60567 631.75466 480.06768 634.35547 493.92188 C 638.23221 514.57263 635.28275 534.32989 630.39453 554.86523 C 628.48825 562.87417 625.89001 570.77228 622.62109 578.37109 C 619.87627 583.99003 617.83507 588.99279 617.10742 589.44531 C 617.10742 589.44531 617.10547 589.44531 617.10547 589.44531 C 608.83662 600.71562 597.98549 611.24418 584.28516 616.58398 C 573.13808 621.04615 575.7626 616.51708 561.48438 617.77344 C 553.36779 618.64136 540.61144 619.80335 531.1582 622.05859 C 519.69592 624.79316 515.43159 630.23672 515.48828 631.12695 C 515.54728 632.05418 527.10081 626.58348 539.18555 625.52344 C 553.43637 624.2734 565.76116 624.31862 569.32031 628.12305 C 571.16922 630.15175 573.96072 630.51399 576.79688 630.17383 C 579.63297 629.83394 582.5838 628.79953 584.96094 627.9082 C 598.48658 622.83668 606.95174 610.47631 614.73242 598.52344 C 623.28515 585.38448 629.03612 570.31548 632.66016 555.08984 C 637.55771 534.51447 641.39496 512.56267 637.47461 491.67969 C 634.63335 476.54427 627.99829 461.9126 619.16992 449.12695 C 615.58217 443.74835 610.00534 435.50292 606.78711 432.01562 C 596.78474 421.17664 581.29334 406.85656 562.18945 404.04297 C 550.17611 402.2737 538.51756 400.83687 528.13867 400.7832 z "
       style="fill:#000000;stroke-width:5.17912;stroke-linecap:round;stroke-linejoin:round"
       id="path844" />
  </g>
</svg>
