<?xml version="1.0" encoding="UTF-8" standalone="no"?>
<svg
   xmlns:dc="http://purl.org/dc/elements/1.1/"
   xmlns:cc="http://creativecommons.org/ns#"
   xmlns:rdf="http://www.w3.org/1999/02/22-rdf-syntax-ns#"
   xmlns:svg="http://www.w3.org/2000/svg"
   xmlns="http://www.w3.org/2000/svg"
   xmlns:sodipodi="http://sodipodi.sourceforge.net/DTD/sodipodi-0.dtd"
   xmlns:inkscape="http://www.inkscape.org/namespaces/inkscape"
   sodipodi:docname="appendages.svg"
   inkscape:version="1.0 (4035a4fb49, 2020-05-01)"
   id="svg8"
   version="1.1"
   viewBox="0 0 210 210"
   height="210mm"
   width="210mm"
   inkscape:export-filename="appendages.png"
   inkscape:export-xdpi="12.1"
   inkscape:export-ydpi="12.1">
  <defs
     id="defs2" />
  <sodipodi:namedview
     inkscape:window-maximized="0"
     inkscape:window-y="0"
     inkscape:window-x="649"
     inkscape:window-height="1040"
     inkscape:window-width="1255"
     showgrid="false"
     inkscape:document-rotation="0"
     inkscape:current-layer="layer1"
     inkscape:document-units="mm"
     inkscape:cy="483.28284"
     inkscape:cx="571.15807"
     inkscape:zoom="0.49497474"
     inkscape:pageshadow="2"
     inkscape:pageopacity="0.0"
     borderopacity="1.0"
     bordercolor="#666666"
     pagecolor="#ffffff"
     id="base"
     inkscape:snap-global="false"
     showguides="false" />
  <metadata
     id="metadata5">
    <rdf:RDF>
      <cc:Work
         rdf:about="">
        <dc:format>image/svg+xml</dc:format>
        <dc:type
           rdf:resource="http://purl.org/dc/dcmitype/StillImage" />
        <dc:title />
      </cc:Work>
    </rdf:RDF>
  </metadata>
  <g
     id="layer1"
     inkscape:groupmode="layer"
     inkscape:label="Layer 1">
    <path
       transform="scale(0.26458333)"
       d="M 396.84961 0 A 396.85036 396.85036 0 0 0 0 396.84961 A 396.85036 396.85036 0 0 0 396.84961 793.70117 A 396.85036 396.85036 0 0 0 793.70117 396.84961 A 396.85036 396.85036 0 0 0 396.84961 0 z M 448.19922 50.34375 L 448.20117 50.34375 C 450.74752 50.367176 452.30762 50.739035 454.33594 51.861328 L 454.33789 51.861328 C 466.91809 60.256369 473.99437 70.065158 478.58203 83.410156 C 481.85249 91.617094 485.01167 100.77361 486.76953 108.20117 C 493.13928 132.4588 497.21658 150.05368 501.62695 171.50781 C 502.43872 177.13322 503.53213 180.99565 504.64062 186.09766 C 506.77217 194.93753 507.97056 203.88255 506.4668 211.61133 C 504.59971 219.43856 503.47853 225.68606 501.64648 233.52148 C 498.30156 247.8268 493.56908 261.14079 489.24023 275.17969 C 483.43662 294.00175 477.18684 315.56658 473.70117 331.24023 C 472.91896 334.75736 475.83316 340.01835 475.49414 343.60547 C 475.76525 354.63167 476.13993 365.97522 475.31641 368.09961 C 474.73954 369.58716 474.30837 373.2559 471.94727 374.21289 C 471.16744 374.52987 470.4818 374.71245 469.10938 374.73438 L 469.56445 370.66602 C 469.48055 369.31437 469.33248 368.80396 469.05469 368.84766 C 468.77727 368.89112 468.36691 369.4862 467.75391 370.33984 L 466.7207 375.61523 C 466.72017 375.61629 466.71875 375.61861 466.71875 375.61914 C 466.33513 376.74647 465.83965 377.89553 464.92383 378.79492 C 463.83151 379.86763 462.663 380.30478 461.89258 380.43555 C 461.63746 380.37848 461.38478 380.32345 461.12891 380.25391 C 461.44556 378.62346 461.54458 376.35613 461.74414 374.09961 C 462.36372 369.76227 460.78062 371.70628 459.80664 373.64453 C 459.5988 376.93039 459.18621 379.63328 458.34375 381.12109 C 457.70837 381.91113 457.14856 382.34819 456.12695 382.48047 C 455.01985 382.60179 454.21071 382.42133 453.33008 381.68164 L 452.96094 375.38477 C 452.97606 373.14799 452.09412 370.56675 450.4707 375.62305 L 450.08398 382.41211 L 450.01562 383.63281 C 450.05985 386.01271 448.7887 387.91495 446.40234 387.94141 C 443.94886 387.96786 443.63651 384.26279 443.54883 383.26367 C 443.27149 380.01925 442.99975 379.33157 442.99219 375.26758 L 442.98047 372.32227 L 442.9082 356.89062 C 440.50257 353.13399 439.21554 351.98623 440.52148 356.89062 L 439.79102 372.35352 C 438.23771 372.30759 437.63828 371.8597 436.78906 370.97852 C 436.07983 370.23772 435.50408 368.9881 435.42773 366.88477 C 435.35706 364.9409 435.8899 362.42432 435.7168 360.47461 C 435.98541 354.81552 436.10938 352.27614 436.10938 348.96875 C 436.45369 344.56915 440.93176 338.11684 444.07031 334.11328 C 446.26569 331.68596 448.09352 329.3655 450.20117 325.39062 C 451.55568 322.06212 452.56474 320.93515 454.07031 317.42188 C 456.83844 310.58372 456.10418 309.90981 457.88086 304.69727 C 460.72647 295.15456 463.42179 279.42584 464.21484 273.17188 C 465.19522 265.44056 465.89768 244.50711 468.19922 232.24023 C 469.38225 221.51939 470.5004 210.45158 477.49219 203.35742 C 480.01782 200.51707 479.31456 200.13287 476.20703 201.95312 C 475.69294 202.303 474.80871 203.03925 474.43945 203.35938 C 472.01269 193.20505 466.61956 183.73931 463.35352 175.19141 C 460.54759 167.71282 457.53409 155.99736 455.54492 148.45312 C 455.41037 147.80438 453.94266 142.74378 453.16211 137.74805 C 452.80041 135.43224 452.07483 133.07334 451.22852 130.6582 C 449.89737 126.93653 447.24083 122.25686 444.86328 119.33984 C 443.0451 117.07017 440.25624 113.83777 439.38086 112.71094 C 438.13785 111.11076 436.69347 109.04801 434.92578 103.6875 C 433.1581 98.326989 428.38459 81.777376 430.20508 68.712891 C 431.2243 61.398927 433.46174 56.451502 439.71875 52.529297 C 442.49701 50.787736 445.6522 50.320317 448.19922 50.34375 z M 320.08008 58.183594 C 320.0574 59.588372 319.97822 60.94587 319.77148 61.986328 C 318.34714 69.153484 313.02596 75.122626 311.38867 82.244141 C 307.88705 97.474197 308.34207 113.41759 308.59375 129.04297 C 308.79293 141.38993 311.02943 158.82762 312.4043 170.64062 C 311.27521 178.22766 310.94384 183.28554 309.36328 191.08203 C 308.33729 196.14307 305.6353 200.7497 304.46484 205.7793 C 302.8212 212.84225 301.52539 227.33398 301.52539 227.33398 L 301.31641 227.11523 C 300.20357 241.46013 295.96369 256.53225 294.47656 260.98633 C 290.48678 271.95411 285.5984 286.05598 283.33008 295.34766 C 281.38305 305.35402 279.87835 312.07949 279.17773 320.10742 C 280.28083 324.1887 280.3369 329.07494 282.76562 333.75 C 285.97837 339.93399 286.30522 341.97768 284.77734 348.33594 C 283.98951 351.61431 283.45659 353.33006 283.47852 357.78906 C 283.48215 358.93761 282.48001 359.90364 281.33984 360.24414 C 279.99989 360.66057 279.62133 360.46496 278.35938 359.55078 C 277.49081 358.64202 277.28071 357.07874 277.07812 355.75586 C 276.8831 354.48332 277.02544 351.88452 276.94531 349.79688 C 276.90449 348.75298 276.85203 347.72141 276.66797 346.69922 C 276.48277 345.67709 275.80089 344.16298 274.5332 343.22266 C 272.7216 341.87897 269.24163 340.43478 267.42383 337.78125 C 266.96578 337.29031 266.60169 337.05405 266.32812 337.02344 L 266.33008 337.02148 C 265.51015 336.92153 265.93824 338.63608 266.60938 340.71289 C 268.22354 343.49976 270.85882 345.97052 271.49219 346.55859 C 272.12558 347.1467 271.57309 348.84513 271.60938 349.77539 C 271.63583 350.4225 271.43202 351.44748 271.44336 352.16797 C 270.51129 352.63593 268.5624 352.91357 267.46094 352.99219 C 265.85237 353.10682 263.74005 353.53812 262.5625 353.28516 C 259.9632 353.5388 257.6917 354.94177 261.91797 356.10938 C 264.0777 356.47675 265.18391 357.46671 267.07812 357.33008 C 265.6314 358.53486 265.17049 361.09052 264.51172 363.0293 C 263.78748 367.58877 265.35296 367.74696 267.35547 364.03711 C 267.96707 362.23708 270.20153 360.86777 272.20898 359.95312 C 272.56237 360.77753 272.40158 360.59468 273.39258 361.7168 C 275.45631 364.05402 277.80664 364.66406 277.80664 364.66406 C 277.80664 364.66406 274.72859 367.52121 273.98633 368.08984 C 270.45201 371.00262 270.78179 371.74898 266.29492 372.66797 C 264.2621 373.08436 262.95414 372.78076 261.29297 371.53711 C 253.96647 364.68246 251.46605 363.74776 249.53906 360.12891 C 248.34804 357.8921 249.4352 354.78352 249.87891 352.67578 C 251.20451 346.36576 252.05441 340.10265 253.46289 333.81055 C 255.26988 325.73866 257.73031 319.2308 258.58789 310.98047 C 261.45557 278.2981 263.32621 261.59129 269.62695 231.31836 C 271.62471 215.55069 276.19082 202.32061 279.16016 188.23633 C 280.63308 180.96037 282.60578 168.25241 282.58008 165.4043 C 282.56118 163.01707 282.92169 148.39773 284.08008 139.78711 C 284.3677 134.25604 285.83287 126.82192 286.13281 121.39648 C 286.52218 114.36004 287.85636 106.53017 288.74414 99.539062 C 292.14617 78.452602 300.57938 73.771123 311.50781 64.230469 C 314.70608 61.380301 317.56491 59.399989 320.08008 58.183594 z M 431.24414 234.70898 L 431.24805 234.70898 C 432.74425 234.67774 434.68558 235.24504 436.31641 235.84961 C 437.821 237.05012 438.93745 238.22011 439.69336 239.11914 C 443.51594 247.43765 447.834 254.42083 450.82617 264.73242 C 453.70228 274.64404 453.79498 285.69657 454.08789 294.54102 C 452.84337 300.69112 449.88873 309.22018 448.32227 314.86523 C 447.23497 318.05282 445.42798 320.58467 444.34375 323.55469 C 443.20762 326.53224 442.68858 327.44313 440.13086 329.97266 C 436.46646 333.43685 431.42619 340.9202 431.61328 347.79492 C 431.61328 351.6538 430.01029 355.11575 429.76953 360.19336 L 429.74609 360.43945 L 429.77344 360.6875 C 429.90345 361.76895 429.38075 364.63176 429.4707 367.09961 C 429.56028 369.55492 430.31028 372.31959 432.14062 374.69141 C 433.33367 376.27171 434.82272 377.11363 436.22852 377.47461 C 436.63183 377.57658 436.39659 378.11606 436.77734 378.17578 C 436.77734 380.61928 436.33325 382.73664 437.50781 385.50586 C 438.99332 389.0085 440.21481 390.51625 442.29688 391.61719 C 443.62583 392.31999 444.78467 392.32341 445.92578 392.38086 C 446.94489 392.43264 447.9007 392.36644 448.98633 392.06445 C 451.61952 391.33776 452.62285 390.3619 454.03711 388.05469 C 455.18888 388.23195 456.79622 388.35265 457.77148 388.08203 C 459.35794 387.63495 460.38034 387.44014 461.78516 386.49609 C 462.29789 386.53578 462.76235 386.54335 463.22266 386.55469 C 463.67261 393.99344 464.11328 410.32503 464.43945 417.72852 C 465.09203 432.56339 463.59295 434.58849 463.68555 449.4375 C 463.73884 457.99696 463.74701 466.57394 464.43945 475.10547 C 465.0554 482.69673 466.66895 490.17879 467.45898 497.75391 C 468.15287 504.40538 468.58024 509.68005 470.41406 516.11133 C 472.28122 522.65981 476.0944 527.4088 478.4043 533.81445 C 483.01967 542.21275 486.21162 561.86239 487.10938 571.99023 C 489.17262 595.2657 488.55504 603.1741 489.66406 621.07031 C 490.82929 639.87679 490.23698 672.15429 490.86328 688.6582 C 490.95282 691.03061 493.3797 693.49372 494.16406 695.73438 C 495.25223 698.84251 493.37004 700.61514 494.35352 703.75781 C 495.54747 707.57207 502.72209 716.64215 504.79297 720.06055 C 510.47099 729.43291 510.61373 726.03847 516.37891 735.35742 C 518.27566 738.42337 521.09922 740.92826 522.99609 743.99414 C 525.33823 747.78006 523.4488 750.12769 521.41602 750.02148 C 522.1794 751.43624 521.92296 753.0178 520.88477 754.00781 C 520.04522 754.80828 518.63659 755.17307 517.48633 754.76367 C 517.35102 755.74446 516.57515 757.04586 515.62305 757.5293 C 513.93171 758.38835 511.51776 758.27135 510.0332 757.40625 C 510.07667 758.80426 509.98029 759.87051 509.04883 760.79688 C 507.46815 762.36901 504.00464 761.44723 502.08203 760.31836 C 500.91132 759.63064 499.6366 758.23234 498.62305 757.12891 L 498.65625 757.10938 C 497.70165 755.98236 496.25704 755.55504 496.70703 757.9375 C 496.97462 760.58427 497.14568 763.21757 492.74219 765.58008 C 490.4112 766.83061 486.98502 766.27558 484.71484 764.91797 C 482.19617 763.41164 481.81181 759.70375 479.47266 757.93164 C 478.32901 757.06522 476.57425 755.30021 475.46484 754.39062 C 471.83661 750.957 471.88484 745.6182 470.76758 738.61719 C 469.51988 735.72955 468.2613 732.79727 466.92188 729.95117 C 464.1655 723.54461 469.12298 719.75216 466.51367 711.69141 C 465.69008 708.57579 463.76791 706.21277 462.65234 703.18945 C 461.30169 699.52819 462.2313 695.09749 462.2793 691.19531 C 462.33376 686.78468 461.34042 682.59236 461.04297 678.19141 C 460.42052 668.98346 458.52813 648.14828 456.36133 639.04688 C 454.03866 629.29078 448.39269 617.32319 445.21094 607.8125 C 442.09305 598.49302 438.30651 584.24142 437.17383 574.35742 C 435.8211 562.5532 435.87474 558.09556 433.48438 546.45703 C 432.81986 543.22183 432.43665 539.39044 431.125 536.35938 C 428.03822 529.22593 423.89504 524.5638 421.4043 517.20117 C 419.73367 512.26246 418.10376 502.95364 417.72656 501.06641 C 417.34899 499.17899 416.61037 493.77954 415.74414 490.21484 C 414.11637 483.51707 411.1211 474.54676 409.61133 470.39453 C 408.10148 466.24238 403.86635 455.25015 400.36133 441.70508 C 396.92226 428.41429 389.03961 408.20633 387.15234 404.43164 C 385.26492 400.65699 379.87809 385.38032 377.65625 379.71484 C 376.80041 377.53246 376.43022 376.5648 376.05469 375.58594 C 374.54062 370.68613 371.00036 358.52923 370.88281 351.32031 C 370.65037 337.08239 374.05517 322.76986 378.7832 309.33789 C 382.37821 299.12489 388.02974 285.55787 393.39648 276.1543 C 400.46413 263.77034 406.41072 254.39326 416.32227 244.14258 C 420.2899 240.03916 425.00461 235.63828 430.64453 234.75977 C 430.83404 234.73051 431.03513 234.71352 431.24414 234.70898 z M 312.91797 243.11133 L 317.25586 267.21094 L 324.93555 301.00586 C 326.44918 306.30344 332.93452 321.69489 339.25 333.40234 C 342.31077 339.07642 345.97736 345.69845 349.24219 349.96094 C 353.68582 355.76246 362.11885 364.30032 363.38477 366.80078 C 367.77742 377.30062 366.05048 387.87636 366.40039 398.89648 C 366.24581 411.78275 365.50754 424.86517 364.69336 431.29883 C 364.0243 437.73242 363.58603 445.70445 361.61523 458.79492 C 360.2645 467.76707 358.42256 477.41658 358.25781 486.48828 C 358.13914 493.03121 355.03942 498.35374 354.91016 504.89648 C 354.82512 509.18103 357.16213 516.77784 358.13672 522.33594 C 359.45498 531.3444 360.09401 540.21562 361.2832 550.93164 C 362.58574 562.56665 362.20557 574.46716 361.19141 586.13086 C 360.18425 597.71035 356.10796 624.7078 355.1582 628.6582 C 353.70248 634.7138 352.87948 656.26745 352.33984 666.74219 C 351.92421 674.80895 352.21591 677.98774 353.2832 685.99414 C 353.90901 690.69066 355.37635 695.62975 355.92578 700.33594 C 356.56845 705.8404 356.73414 713.14728 355.02734 715.2832 C 349.81575 722.24131 339.38742 721.40373 333.08789 724.12109 C 327.21662 727.29352 327.71264 728.14323 322.58008 732.4082 C 318.742 735.59775 316.15712 738.72185 311.38086 740.16797 C 306.56392 741.62634 300.52751 741.37198 295.68359 742.73828 C 291.28052 743.98023 288.10419 746.41645 283.56641 746.99805 C 279.08624 747.57223 274.06871 746.97898 272.76172 743.15039 C 272.0834 741.50051 272.14324 740.4886 272.70703 739.10938 C 273.33084 737.95363 273.4581 737.85323 272.18164 736.89062 C 271.84299 736.18831 271.54192 735.47811 271.95117 734.05859 C 272.15451 733.35356 270.62475 733.70538 270.67773 731.65234 C 270.72423 729.86467 272.72496 728.67358 274.07422 727.5 C 276.63031 725.27647 279.85827 723.96523 282.75781 722.21289 C 285.26946 720.69499 287.92771 719.40682 290.30469 717.68555 C 295.28997 714.07549 299.94474 709.97923 304.27344 705.60352 C 310.3011 699.51043 314.07728 695.92248 318.74219 688.73242 C 321.71158 684.15564 321.1433 682.68357 321.76562 678.91406 C 323.32342 669.47594 322.86659 659.69984 322.99219 650.13477 C 323.29342 627.23695 323.10853 594.15885 321.25781 571.33398 C 320.24784 558.88089 318.02855 546.12326 316.83008 533.49219 C 315.23946 528.20731 314.51443 524.53931 311.49023 520.04492 C 308.64886 515.82266 306.31105 509.61911 306.29102 505.61523 C 306.24983 498.56812 305.54136 497.8812 306.99023 484.20898 C 305.09704 475.88851 303.70288 466.56012 302.23242 458.44922 C 300.03277 446.31573 300.72091 436.76057 299.41992 424.49805 C 297.07796 402.42568 296.4204 376.53058 297.29688 354.35156 C 297.83931 340.62497 300.19922 312.67639 300.19922 310.78906 C 301.10804 295.23294 307.1036 275.76923 307.97266 265.97266 C 308.65876 260.20131 312.27065 246.85282 312.91797 243.11133 z "
       style="fill:#000000;stroke:none;stroke-width:2.64567;stroke-linejoin:round"
       id="path865" />
    <path
       style="fill:#ffffff;stroke:none;stroke-width:0.264583px;stroke-linecap:butt;stroke-linejoin:miter;stroke-opacity:1"
       d="m -28.437758,55.772394 c 0,0 -1.47159,-12.96811 -2.05445,-19.550457 -0.53828,-6.079024 0.60542,-8.31808 3.39843,-13.942157 1.52974,-3.080361 4.33871,-6.443083 5.03564,-7.242248 1.91864,-2.200071 2.85316,-2.775853 4.7542,-2.938876 1.87349,-0.16066 3.70508,1.535343 4.17519,2.783455 0.70831,1.880532 1.78937,11.200096 1.78937,11.200096 l -8.88055,23.062914 z"
       id="path891"
       sodipodi:nodetypes="csssssccc" />
  </g>
</svg>
