<?xml version="1.0" encoding="UTF-8" standalone="no"?>
<svg
   xmlns:dc="http://purl.org/dc/elements/1.1/"
   xmlns:cc="http://creativecommons.org/ns#"
   xmlns:rdf="http://www.w3.org/1999/02/22-rdf-syntax-ns#"
   xmlns:svg="http://www.w3.org/2000/svg"
   xmlns="http://www.w3.org/2000/svg"
   xmlns:sodipodi="http://sodipodi.sourceforge.net/DTD/sodipodi-0.dtd"
   xmlns:inkscape="http://www.inkscape.org/namespaces/inkscape"
   inkscape:export-ydpi="12.095238"
   inkscape:export-xdpi="12.095238"
   inkscape:export-filename="in_silico.png"
   width="210mm"
   height="210mm"
   viewBox="0 0 210 210"
   version="1.1"
   id="svg8"
   inkscape:version="1.0 (4035a4fb49, 2020-05-01)"
   sodipodi:docname="in_silico.svg">
  <defs
     id="defs2">
    <inkscape:path-effect
       effect="perspective-envelope"
       up_left_point="96.235415,54.314574"
       up_right_point="166.80317,56.204455"
       down_left_point="96.502685,109.77578"
       down_right_point="166.80317,108.45286"
       id="path-effect1994"
       is_visible="true"
       lpeversion="1"
       deform_type="perspective"
       horizontal_mirror="false"
       vertical_mirror="false"
       overflow_perspective="false" />
    <inkscape:path-effect
       effect="perspective-envelope"
       up_left_point="37.632966,24.809931"
       up_right_point="90.724554,27.749896"
       down_left_point="36.029348,78.056002"
       down_right_point="90.724554,76.719654"
       id="path-effect1989"
       is_visible="true"
       lpeversion="1"
       deform_type="perspective"
       horizontal_mirror="false"
       vertical_mirror="false"
       overflow_perspective="false" />
    <inkscape:path-effect
       effect="perspective-envelope"
       up_left_point="348.87359,46.441054"
       up_right_point="434.70396,30.94403"
       down_left_point="353.03133,122.96851"
       down_right_point="438.8617,100.28994"
       id="path-effect1953"
       is_visible="true"
       lpeversion="1"
       deform_type="perspective"
       horizontal_mirror="false"
       vertical_mirror="false"
       overflow_perspective="false" />
    <inkscape:path-effect
       down_right_point="191.31346,179.55966"
       down_left_point="17.156723,180.69359"
       up_right_point="169.95781,131.30982"
       up_left_point="35.866545,131.30982"
       effect="perspective-envelope"
       id="path-effect1887"
       is_visible="true"
       lpeversion="1"
       deform_type="perspective"
       horizontal_mirror="false"
       vertical_mirror="false"
       overflow_perspective="false" />
    <inkscape:path-effect
       effect="fillet_chamfer"
       id="path-effect1865"
       is_visible="true"
       lpeversion="1"
       satellites_param="F,0,0,1,0,1.5875,0,1 @ F,0,0,1,0,1.5875,0,1 @ F,0,0,1,0,1.5875,0,1 @ F,0,0,1,0,1.5875,0,1 | F,0,0,1,0,1.5875,0,1 @ F,0,0,1,0,1.5875,0,1 @ F,0,0,1,0,1.5875,0,1 @ F,0,0,1,0,1.5875,0,1 | F,0,0,1,0,1.5875,0,1 @ F,0,0,1,0,1.5875,0,1 @ F,0,0,1,0,1.5875,0,1 @ F,0,0,1,0,1.5875,0,1 | F,0,0,1,0,1.5875,0,1 @ F,0,0,1,0,1.5875,0,1 @ F,0,0,1,0,1.5875,0,1 @ F,0,0,1,0,1.5875,0,1 | F,0,0,1,0,1.5875,0,1 @ F,0,0,1,0,1.5875,0,1 @ F,0,0,1,0,1.5875,0,1 @ F,0,0,1,0,1.5875,0,1 | F,0,0,1,0,1.5875,0,1 @ F,0,0,1,0,1.5875,0,1 @ F,0,0,1,0,1.5875,0,1 @ F,0,0,1,0,1.5875,0,1 | F,0,0,1,0,1.5875,0,1 @ F,0,0,1,0,1.5875,0,1 @ F,0,0,1,0,1.5875,0,1 @ F,0,0,1,0,1.5875,0,1 | F,0,0,1,0,1.5875,0,1 @ F,0,0,1,0,1.5875,0,1 @ F,0,0,1,0,1.5875,0,1 @ F,0,0,1,0,1.5875,0,1 | F,0,0,1,0,1.5875,0,1 @ F,0,0,1,0,1.5875,0,1 @ F,0,0,1,0,1.5875,0,1 @ F,0,0,1,0,1.5875,0,1 | F,0,0,1,0,1.5875,0,1 @ F,0,0,1,0,1.5875,0,1 @ F,0,0,1,0,1.5875,0,1 @ F,0,0,1,0,1.5875,0,1 | F,0,0,1,0,1.5875,0,1 @ F,0,0,1,0,1.5875,0,1 @ F,0,0,1,0,1.5875,0,1 @ F,0,0,1,0,1.5875,0,1 | F,0,0,1,0,1.5875,0,1 @ F,0,0,1,0,1.5875,0,1 @ F,0,0,1,0,1.5875,0,1 @ F,0,0,1,0,1.5875,0,1 | F,0,0,1,0,1.5875,0,1 @ F,0,0,1,0,1.5875,0,1 @ F,0,0,1,0,1.5875,0,1 @ F,0,0,1,0,1.5875,0,1 | F,0,0,1,0,1.5875,0,1 @ F,0,0,1,0,1.5875,0,1 @ F,0,0,1,0,1.5875,0,1 @ F,0,0,1,0,1.5875,0,1 | F,0,0,1,0,1.5875,0,1 @ F,0,0,1,0,1.5875,0,1 @ F,0,0,1,0,1.5875,0,1 @ F,0,0,1,0,1.5875,0,1 | F,0,0,1,0,1.5875,0,1 @ F,0,0,1,0,1.5875,0,1 @ F,0,0,1,0,1.5875,0,1 @ F,0,0,1,0,1.5875,0,1 | F,0,0,1,0,1.5875,0,1 @ F,0,0,1,0,1.5875,0,1 @ F,0,0,1,0,1.5875,0,1 @ F,0,0,1,0,1.5875,0,1 | F,0,0,1,0,1.5875,0,1 @ F,0,0,1,0,1.5875,0,1 @ F,0,0,1,0,1.5875,0,1 @ F,0,0,1,0,1.5875,0,1 | F,0,0,1,0,1.5875,0,1 @ F,0,0,1,0,1.5875,0,1 @ F,0,0,1,0,1.5875,0,1 @ F,0,0,1,0,1.5875,0,1 | F,0,0,1,0,1.5875,0,1 @ F,0,0,1,0,1.5875,0,1 @ F,0,0,1,0,1.5875,0,1 @ F,0,0,1,0,1.5875,0,1 | F,0,0,1,0,1.5875,0,1 @ F,0,0,1,0,1.5875,0,1 @ F,0,0,1,0,1.5875,0,1 @ F,0,0,1,0,1.5875,0,1 | F,0,0,1,0,1.5875,0,1 @ F,0,0,1,0,1.5875,0,1 @ F,0,0,1,0,1.5875,0,1 @ F,0,0,1,0,1.5875,0,1 | F,0,0,1,0,1.5875,0,1 @ F,0,0,1,0,1.5875,0,1 @ F,0,0,1,0,1.5875,0,1 @ F,0,0,1,0,1.5875,0,1 | F,0,0,1,0,1.5875,0,1 @ F,0,0,1,0,1.5875,0,1 @ F,0,0,1,0,1.5875,0,1 @ F,0,0,1,0,1.5875,0,1 | F,0,0,1,0,1.5875,0,1 @ F,0,0,1,0,1.5875,0,1 @ F,0,0,1,0,1.5875,0,1 @ F,0,0,1,0,1.5875,0,1 | F,0,0,1,0,1.5875,0,1 @ F,0,0,1,0,1.5875,0,1 @ F,0,0,1,0,1.5875,0,1 @ F,0,0,1,0,1.5875,0,1 | F,0,0,1,0,1.5875,0,1 @ F,0,0,1,0,1.5875,0,1 @ F,0,0,1,0,1.5875,0,1 @ F,0,0,1,0,1.5875,0,1 | F,0,0,1,0,1.5875,0,1 @ F,0,0,1,0,1.5875,0,1 @ F,0,0,1,0,1.5875,0,1 @ F,0,0,1,0,1.5875,0,1 | F,0,0,1,0,1.5875,0,1 @ F,0,0,1,0,1.5875,0,1 @ F,0,0,1,0,1.5875,0,1 @ F,0,0,1,0,1.5875,0,1 | F,0,0,1,0,1.5875,0,1 @ F,0,0,1,0,1.5875,0,1 @ F,0,0,1,0,1.5875,0,1 @ F,0,0,1,0,1.5875,0,1 | F,0,0,1,0,1.5875,0,1 @ F,0,0,1,0,1.5875,0,1 @ F,0,0,1,0,1.5875,0,1 @ F,0,0,1,0,1.5875,0,1 | F,0,0,1,0,1.5875,0,1 @ F,0,0,1,0,1.5875,0,1 @ F,0,0,1,0,1.5875,0,1 @ F,0,0,1,0,1.5875,0,1 | F,0,0,1,0,1.5875,0,1 @ F,0,0,1,0,1.5875,0,1 @ F,0,0,1,0,1.5875,0,1 @ F,0,0,1,0,1.5875,0,1 | F,0,0,1,0,1.5875,0,1 @ F,0,0,1,0,1.5875,0,1 @ F,0,0,1,0,1.5875,0,1 @ F,0,0,1,0,1.5875,0,1 | F,0,0,1,0,1.5875,0,1 @ F,0,0,1,0,1.5875,0,1 @ F,0,0,1,0,1.5875,0,1 @ F,0,0,1,0,1.5875,0,1 | F,0,0,1,0,1.5875,0,1 @ F,0,0,1,0,1.5875,0,1 @ F,0,0,1,0,1.5875,0,1 @ F,0,0,1,0,1.5875,0,1 | F,0,0,1,0,1.5875,0,1 @ F,0,0,1,0,1.5875,0,1 @ F,0,0,1,0,1.5875,0,1 @ F,0,0,1,0,1.5875,0,1 | F,0,0,1,0,1.5875,0,1 @ F,0,0,1,0,1.5875,0,1 @ F,0,0,1,0,1.5875,0,1 @ F,0,0,1,0,1.5875,0,1 | F,0,0,1,0,1.5875,0,1 @ F,0,0,1,0,1.5875,0,1 @ F,0,0,1,0,1.5875,0,1 @ F,0,0,1,0,1.5875,0,1 | F,0,0,1,0,1.5875,0,1 @ F,0,0,1,0,1.5875,0,1 @ F,0,0,1,0,1.5875,0,1 @ F,0,0,1,0,1.5875,0,1 | F,0,0,1,0,1.5875,0,1 @ F,0,0,1,0,1.5875,0,1 @ F,0,0,1,0,1.5875,0,1 @ F,0,0,1,0,1.5875,0,1 | F,0,0,1,0,1.5875,0,1 @ F,0,0,1,0,1.5875,0,1 @ F,0,0,1,0,1.5875,0,1 @ F,0,0,1,0,1.5875,0,1 | F,0,0,1,0,1.5875,0,1 @ F,0,0,1,0,1.5875,0,1 @ F,0,0,1,0,1.5875,0,1 @ F,0,0,1,0,1.5875,0,1 | F,0,0,1,0,1.5875,0,1 @ F,0,0,1,0,1.5875,0,1 @ F,0,0,1,0,1.5875,0,1 @ F,0,0,1,0,1.5875,0,1 | F,0,0,1,0,1.5875,0,1 @ F,0,0,1,0,1.5875,0,1 @ F,0,0,1,0,1.5875,0,1 @ F,0,0,1,0,1.5875,0,1 | F,0,0,1,0,1.5875,0,1 @ F,0,0,1,0,1.5875,0,1 @ F,0,0,1,0,1.5875,0,1 @ F,0,0,1,0,1.5875,0,1 | F,0,0,1,0,1.5875,0,1 @ F,0,0,1,0,1.5875,0,1 @ F,0,0,1,0,1.5875,0,1 @ F,0,0,1,0,1.5875,0,1 | F,0,0,1,0,1.5875,0,1 @ F,0,0,1,0,1.5875,0,1 @ F,0,0,1,0,1.5875,0,1 @ F,0,0,1,0,1.5875,0,1 | F,0,0,1,0,1.5875,0,1 @ F,0,0,1,0,1.5875,0,1 @ F,0,0,1,0,1.5875,0,1 @ F,0,0,1,0,1.5875,0,1 | F,0,0,1,0,1.5875,0,1 @ F,0,0,1,0,1.5875,0,1 @ F,0,0,1,0,1.5875,0,1 @ F,0,0,1,0,1.5875,0,1 | F,0,0,1,0,1.5875,0,1 @ F,0,0,1,0,1.5875,0,1 @ F,0,0,1,0,1.5875,0,1 @ F,0,0,1,0,1.5875,0,1 | F,0,0,1,0,1.5875,0,1 @ F,0,0,1,0,1.5875,0,1 @ F,0,0,1,0,1.5875,0,1 @ F,0,0,1,0,1.5875,0,1 | F,0,0,1,0,1.5875,0,1 @ F,0,0,1,0,1.5875,0,1 @ F,0,0,1,0,1.5875,0,1 @ F,0,0,1,0,1.5875,0,1 | F,0,0,1,0,1.5875,0,1 @ F,0,0,1,0,1.5875,0,1 @ F,0,0,1,0,1.5875,0,1 @ F,0,0,1,0,1.5875,0,1 | F,0,0,1,0,1.5875,0,1 @ F,0,0,1,0,1.5875,0,1 @ F,0,0,1,0,1.5875,0,1 @ F,0,0,1,0,1.5875,0,1 | F,0,0,1,0,1.5875,0,1 @ F,0,0,1,0,1.5875,0,1 @ F,0,0,1,0,1.5875,0,1 @ F,0,0,1,0,1.5875,0,1 | F,0,0,1,0,1.5875,0,1 @ F,0,0,1,0,1.5875,0,1 @ F,0,0,1,0,1.5875,0,1 @ F,0,0,1,0,1.5875,0,1 | F,0,0,1,0,1.5875,0,1 @ F,0,0,1,0,1.5875,0,1 @ F,0,0,1,0,1.5875,0,1 @ F,0,0,1,0,1.5875,0,1 | F,0,0,1,0,1.5875,0,1 @ F,0,0,1,0,1.5875,0,1 @ F,0,0,1,0,1.5875,0,1 @ F,0,0,1,0,1.5875,0,1 | F,0,0,1,0,1.5875,0,1 @ F,0,0,1,0,1.5875,0,1 @ F,0,0,1,0,1.5875,0,1 @ F,0,0,1,0,1.5875,0,1 | F,0,0,1,0,1.5875,0,1 @ F,0,0,1,0,1.5875,0,1 @ F,0,0,1,0,1.5875,0,1 @ F,0,0,1,0,1.5875,0,1 | F,0,0,1,0,1.5875,0,1 @ F,0,0,1,0,1.5875,0,1 @ F,0,0,1,0,1.5875,0,1 @ F,0,0,1,0,1.5875,0,1 | F,0,0,1,0,1.5875,0,1 @ F,0,0,1,0,1.5875,0,1 @ F,0,0,1,0,1.5875,0,1 @ F,0,0,1,0,1.5875,0,1 | F,0,0,1,0,1.5875,0,1 @ F,0,0,1,0,1.5875,0,1 @ F,0,0,1,0,1.5875,0,1 @ F,0,0,1,0,1.5875,0,1 | F,0,0,1,0,1.5875,0,1 @ F,0,0,1,0,1.5875,0,1 @ F,0,0,1,0,1.5875,0,1 @ F,0,0,1,0,1.5875,0,1 | F,0,0,1,0,1.5875,0,1 @ F,0,0,1,0,1.5875,0,1 @ F,0,0,1,0,1.5875,0,1 @ F,0,0,1,0,1.5875,0,1 | F,0,0,1,0,1.5875,0,1 @ F,0,0,1,0,1.5875,0,1 @ F,0,0,1,0,1.5875,0,1 @ F,0,0,1,0,1.5875,0,1 | F,0,0,1,0,1.5875,0,1 @ F,0,0,1,0,1.5875,0,1 @ F,0,0,1,0,1.5875,0,1 @ F,0,0,1,0,1.5875,0,1 | F,0,0,1,0,1.5875,0,1 @ F,0,0,1,0,1.5875,0,1 @ F,0,0,1,0,1.5875,0,1 @ F,0,0,1,0,1.5875,0,1 | F,0,0,1,0,1.5875,0,1 @ F,0,0,1,0,1.5875,0,1 @ F,0,0,1,0,1.5875,0,1 @ F,0,0,1,0,1.5875,0,1 | F,0,0,1,0,1.5875,0,1 @ F,0,0,1,0,1.5875,0,1 @ F,0,0,1,0,1.5875,0,1 @ F,0,0,1,0,1.5875,0,1 | F,0,0,1,0,1.5875,0,1 @ F,0,0,1,0,1.5875,0,1 @ F,0,0,1,0,1.5875,0,1 @ F,0,0,1,0,1.5875,0,1 | F,0,0,1,0,1.5875,0,1 @ F,0,0,1,0,1.5875,0,1 @ F,0,0,1,0,1.5875,0,1 @ F,0,0,1,0,1.5875,0,1 | F,0,0,1,0,1.5875,0,1 @ F,0,0,1,0,1.5875,0,1 @ F,0,0,1,0,1.5875,0,1 @ F,0,0,1,0,1.5875,0,1 | F,0,0,1,0,1.5875,0,1 @ F,0,0,1,0,1.5875,0,1 @ F,0,0,1,0,1.5875,0,1 @ F,0,0,1,0,1.5875,0,1 | F,0,0,1,0,1.5875,0,1 @ F,0,0,1,0,1.5875,0,1 @ F,0,0,1,0,1.5875,0,1 @ F,0,0,1,0,1.5875,0,1 | F,0,0,1,0,1.5875,0,1 @ F,0,0,1,0,1.5875,0,1 @ F,0,0,1,0,1.5875,0,1 @ F,0,0,1,0,1.5875,0,1 | F,0,0,1,0,1.5875,0,1 @ F,0,0,1,0,1.5875,0,1 @ F,0,0,1,0,1.5875,0,1 @ F,0,0,1,0,1.5875,0,1 | F,0,0,1,0,1.5875,0,1 @ F,0,0,1,0,1.5875,0,1 @ F,0,0,1,0,1.5875,0,1 @ F,0,0,1,0,1.5875,0,1 | F,0,0,1,0,1.5875,0,1 @ F,0,0,1,0,1.5875,0,1 @ F,0,0,1,0,1.5875,0,1 @ F,0,0,1,0,1.5875,0,1"
       unit="px"
       method="auto"
       mode="F"
       radius="6"
       chamfer_steps="1"
       flexible="false"
       use_knot_distance="true"
       apply_no_radius="true"
       apply_with_radius="true"
       only_selected="false"
       hide_knots="false" />
    <marker
       inkscape:stockid="DotS"
       orient="auto"
       refY="0.0"
       refX="0.0"
       id="marker5556"
       style="overflow:visible"
       inkscape:isstock="true">
      <path
         id="path5554"
         d="M -2.5,-1.0 C -2.5,1.7600000 -4.7400000,4.0 -7.5,4.0 C -10.260000,4.0 -12.5,1.7600000 -12.5,-1.0 C -12.5,-3.7600000 -10.260000,-6.0 -7.5,-6.0 C -4.7400000,-6.0 -2.5,-3.7600000 -2.5,-1.0 z "
         style="fill-rule:evenodd;stroke:#ffffff;stroke-width:1pt;stroke-opacity:1;fill:#ffffff;fill-opacity:1"
         transform="scale(0.2) translate(7.4, 1)" />
    </marker>
    <marker
       inkscape:stockid="DotS"
       orient="auto"
       refY="0.0"
       refX="0.0"
       id="marker5546"
       style="overflow:visible"
       inkscape:isstock="true">
      <path
         id="path5544"
         d="M -2.5,-1.0 C -2.5,1.7600000 -4.7400000,4.0 -7.5,4.0 C -10.260000,4.0 -12.5,1.7600000 -12.5,-1.0 C -12.5,-3.7600000 -10.260000,-6.0 -7.5,-6.0 C -4.7400000,-6.0 -2.5,-3.7600000 -2.5,-1.0 z "
         style="fill-rule:evenodd;stroke:#ffffff;stroke-width:1pt;stroke-opacity:1;fill:#ffffff;fill-opacity:1"
         transform="scale(0.2) translate(7.4, 1)" />
    </marker>
    <marker
       inkscape:isstock="true"
       style="overflow:visible"
       id="marker5536"
       refX="0.0"
       refY="0.0"
       orient="auto"
       inkscape:stockid="DotS">
      <path
         transform="scale(0.2) translate(7.4, 1)"
         style="fill-rule:evenodd;stroke:#ffffff;stroke-width:1pt;stroke-opacity:1;fill:#ffffff;fill-opacity:1"
         d="M -2.5,-1.0 C -2.5,1.7600000 -4.7400000,4.0 -7.5,4.0 C -10.260000,4.0 -12.5,1.7600000 -12.5,-1.0 C -12.5,-3.7600000 -10.260000,-6.0 -7.5,-6.0 C -4.7400000,-6.0 -2.5,-3.7600000 -2.5,-1.0 z "
         id="path5534" />
    </marker>
    <marker
       inkscape:stockid="DotS"
       orient="auto"
       refY="0.0"
       refX="0.0"
       id="marker5526"
       style="overflow:visible"
       inkscape:isstock="true">
      <path
         id="path5524"
         d="M -2.5,-1.0 C -2.5,1.7600000 -4.7400000,4.0 -7.5,4.0 C -10.260000,4.0 -12.5,1.7600000 -12.5,-1.0 C -12.5,-3.7600000 -10.260000,-6.0 -7.5,-6.0 C -4.7400000,-6.0 -2.5,-3.7600000 -2.5,-1.0 z "
         style="fill-rule:evenodd;stroke:#ffffff;stroke-width:1pt;stroke-opacity:1;fill:#ffffff;fill-opacity:1"
         transform="scale(0.2) translate(7.4, 1)" />
    </marker>
    <marker
       inkscape:stockid="DotS"
       orient="auto"
       refY="0.0"
       refX="0.0"
       id="marker5516"
       style="overflow:visible"
       inkscape:isstock="true">
      <path
         id="path5514"
         d="M -2.5,-1.0 C -2.5,1.7600000 -4.7400000,4.0 -7.5,4.0 C -10.260000,4.0 -12.5,1.7600000 -12.5,-1.0 C -12.5,-3.7600000 -10.260000,-6.0 -7.5,-6.0 C -4.7400000,-6.0 -2.5,-3.7600000 -2.5,-1.0 z "
         style="fill-rule:evenodd;stroke:#ffffff;stroke-width:1pt;stroke-opacity:1;fill:#ffffff;fill-opacity:1"
         transform="scale(0.2) translate(7.4, 1)" />
    </marker>
    <marker
       inkscape:isstock="true"
       style="overflow:visible"
       id="marker5506"
       refX="0.0"
       refY="0.0"
       orient="auto"
       inkscape:stockid="DotS">
      <path
         transform="scale(0.2) translate(7.4, 1)"
         style="fill-rule:evenodd;stroke:#ffffff;stroke-width:1pt;stroke-opacity:1;fill:#ffffff;fill-opacity:1"
         d="M -2.5,-1.0 C -2.5,1.7600000 -4.7400000,4.0 -7.5,4.0 C -10.260000,4.0 -12.5,1.7600000 -12.5,-1.0 C -12.5,-3.7600000 -10.260000,-6.0 -7.5,-6.0 C -4.7400000,-6.0 -2.5,-3.7600000 -2.5,-1.0 z "
         id="path5504" />
    </marker>
    <marker
       inkscape:isstock="true"
       style="overflow:visible"
       id="marker3926"
       refX="0.0"
       refY="0.0"
       orient="auto"
       inkscape:stockid="DotS">
      <path
         transform="scale(0.2) translate(7.4, 1)"
         style="fill-rule:evenodd;stroke:#ffffff;stroke-width:1pt;stroke-opacity:1;fill:#ffffff;fill-opacity:1"
         d="M -2.5,-1.0 C -2.5,1.7600000 -4.7400000,4.0 -7.5,4.0 C -10.260000,4.0 -12.5,1.7600000 -12.5,-1.0 C -12.5,-3.7600000 -10.260000,-6.0 -7.5,-6.0 C -4.7400000,-6.0 -2.5,-3.7600000 -2.5,-1.0 z "
         id="path3924" />
    </marker>
    <marker
       inkscape:isstock="true"
       style="overflow:visible"
       id="marker3916"
       refX="0.0"
       refY="0.0"
       orient="auto"
       inkscape:stockid="DotS">
      <path
         transform="scale(0.2) translate(7.4, 1)"
         style="fill-rule:evenodd;stroke:#ffffff;stroke-width:1pt;stroke-opacity:1;fill:#ffffff;fill-opacity:1"
         d="M -2.5,-1.0 C -2.5,1.7600000 -4.7400000,4.0 -7.5,4.0 C -10.260000,4.0 -12.5,1.7600000 -12.5,-1.0 C -12.5,-3.7600000 -10.260000,-6.0 -7.5,-6.0 C -4.7400000,-6.0 -2.5,-3.7600000 -2.5,-1.0 z "
         id="path3914" />
    </marker>
    <marker
       inkscape:isstock="true"
       style="overflow:visible"
       id="marker3576"
       refX="0.0"
       refY="0.0"
       orient="auto"
       inkscape:stockid="DotS">
      <path
         transform="scale(0.2) translate(7.4, 1)"
         style="fill-rule:evenodd;stroke:#ffffff;stroke-width:1pt;stroke-opacity:1;fill:#ffffff;fill-opacity:1"
         d="M -2.5,-1.0 C -2.5,1.7600000 -4.7400000,4.0 -7.5,4.0 C -10.260000,4.0 -12.5,1.7600000 -12.5,-1.0 C -12.5,-3.7600000 -10.260000,-6.0 -7.5,-6.0 C -4.7400000,-6.0 -2.5,-3.7600000 -2.5,-1.0 z "
         id="path3574" />
    </marker>
    <marker
       inkscape:isstock="true"
       style="overflow:visible"
       id="marker3566"
       refX="0.0"
       refY="0.0"
       orient="auto"
       inkscape:stockid="DotS">
      <path
         transform="scale(0.2) translate(7.4, 1)"
         style="fill-rule:evenodd;stroke:#ffffff;stroke-width:1pt;stroke-opacity:1;fill:#ffffff;fill-opacity:1"
         d="M -2.5,-1.0 C -2.5,1.7600000 -4.7400000,4.0 -7.5,4.0 C -10.260000,4.0 -12.5,1.7600000 -12.5,-1.0 C -12.5,-3.7600000 -10.260000,-6.0 -7.5,-6.0 C -4.7400000,-6.0 -2.5,-3.7600000 -2.5,-1.0 z "
         id="path3564" />
    </marker>
    <marker
       inkscape:isstock="true"
       style="overflow:visible"
       id="marker3284"
       refX="0.0"
       refY="0.0"
       orient="auto"
       inkscape:stockid="DotS">
      <path
         transform="scale(0.2) translate(7.4, 1)"
         style="fill-rule:evenodd;stroke:#ffffff;stroke-width:1pt;stroke-opacity:1;fill:#ffffff;fill-opacity:1"
         d="M -2.5,-1.0 C -2.5,1.7600000 -4.7400000,4.0 -7.5,4.0 C -10.260000,4.0 -12.5,1.7600000 -12.5,-1.0 C -12.5,-3.7600000 -10.260000,-6.0 -7.5,-6.0 C -4.7400000,-6.0 -2.5,-3.7600000 -2.5,-1.0 z "
         id="path3282" />
    </marker>
    <marker
       inkscape:isstock="true"
       style="overflow:visible"
       id="marker3274"
       refX="0.0"
       refY="0.0"
       orient="auto"
       inkscape:stockid="DotS">
      <path
         transform="scale(0.2) translate(7.4, 1)"
         style="fill-rule:evenodd;stroke:#ffffff;stroke-width:1pt;stroke-opacity:1;fill:#ffffff;fill-opacity:1"
         d="M -2.5,-1.0 C -2.5,1.7600000 -4.7400000,4.0 -7.5,4.0 C -10.260000,4.0 -12.5,1.7600000 -12.5,-1.0 C -12.5,-3.7600000 -10.260000,-6.0 -7.5,-6.0 C -4.7400000,-6.0 -2.5,-3.7600000 -2.5,-1.0 z "
         id="path3272" />
    </marker>
  </defs>
  <sodipodi:namedview
     inkscape:snap-global="false"
     id="base"
     pagecolor="#ffffff"
     bordercolor="#666666"
     borderopacity="1.0"
     inkscape:pageopacity="0.0"
     inkscape:pageshadow="2"
     inkscape:zoom="0.35"
     inkscape:cx="538.10283"
     inkscape:cy="759.16057"
     inkscape:document-units="mm"
     inkscape:current-layer="layer1"
     inkscape:document-rotation="0"
     showgrid="false"
     inkscape:window-width="1308"
     inkscape:window-height="1040"
     inkscape:window-x="596"
     inkscape:window-y="0"
     inkscape:window-maximized="0" />
  <metadata
     id="metadata5">
    <rdf:RDF>
      <cc:Work
         rdf:about="">
        <dc:format>image/svg+xml</dc:format>
        <dc:type
           rdf:resource="http://purl.org/dc/dcmitype/StillImage" />
        <dc:title />
      </cc:Work>
    </rdf:RDF>
  </metadata>
  <g
     inkscape:label="Layer 1"
     inkscape:groupmode="layer"
     id="layer1">
    <path
       id="path2326"
       style="color:#000000;font-style:normal;font-variant:normal;font-weight:normal;font-stretch:normal;font-size:medium;line-height:normal;font-family:sans-serif;font-variant-ligatures:normal;font-variant-position:normal;font-variant-caps:normal;font-variant-numeric:normal;font-variant-alternates:normal;font-variant-east-asian:normal;font-feature-settings:normal;font-variation-settings:normal;text-indent:0;text-align:start;text-decoration:none;text-decoration-line:none;text-decoration-style:solid;text-decoration-color:#000000;letter-spacing:normal;word-spacing:normal;text-transform:none;writing-mode:lr-tb;direction:ltr;text-orientation:mixed;dominant-baseline:auto;baseline-shift:baseline;text-anchor:start;white-space:normal;shape-padding:0;shape-margin:0;inline-size:0;clip-rule:nonzero;display:inline;overflow:visible;visibility:visible;isolation:auto;mix-blend-mode:normal;color-interpolation:sRGB;color-interpolation-filters:linearRGB;solid-color:#000000;solid-opacity:1;vector-effect:none;fill:#000000;fill-opacity:1;fill-rule:nonzero;stroke:none;stroke-width:1;stroke-linecap:round;stroke-linejoin:round;stroke-miterlimit:4;stroke-dasharray:none;stroke-dashoffset:0;stroke-opacity:1;color-rendering:auto;image-rendering:auto;shape-rendering:auto;text-rendering:auto;enable-background:accumulate;stop-color:#000000"
       d="m 32.286071,24.952999 c -1.107999,0 -1.999877,0.891878 -1.999877,1.999878 V 126.0662 c 0.215661,-0.0481 0.440478,-0.0731 0.671793,-0.0723 l 16.675467,0.0605 v -1.91461 H 161.17949 v 2.32699 l 17.04392,0.062 c 0.29727,0.001 0.57911,0.0453 0.8444,0.12299 V 26.952877 c 0,-1.108 -0.8924,-1.999878 -2.0004,-1.999878 z m 1.079005,3.212724 H 175.98893 c 0.554,0 0.99994,0.445939 0.99993,0.99994 V 110.3452 c 0,0.554 -0.44593,0.99994 -0.99993,0.99994 H 33.365076 c -0.554001,0 -0.99994,-0.44594 -0.99994,-0.99994 V 29.165663 c 0,-0.554001 0.445939,-0.99994 0.99994,-0.99994 z m 4.61832,3.503662 c -0.79602,0 -1.453139,0.657101 -1.453139,1.453142 v 8.02173 c 0,0.796042 0.657119,1.453142 1.453139,1.453142 h 4.044715 l -0.02067,2.054657 h -4.024045 c -0.79602,0 -1.453139,0.655034 -1.453139,1.451072 v 8.023284 c 0,0.796038 0.657119,1.451075 1.453139,1.451075 h 3.912942 l -0.02119,2.054654 h -3.891754 c -0.79602,0 -1.453139,0.657103 -1.453139,1.453142 v 8.021732 c 0,0.796039 0.657119,1.453142 1.453139,1.453142 h 3.78065 l -0.02067,2.054654 h -3.759978 c -0.79602,0 -1.453139,0.655034 -1.453139,1.451075 v 8.023281 c 0,0.796041 0.657119,1.453142 1.453139,1.453142 h 3.648358 l -0.02067,2.053105 h -3.627686 c -0.79602,0 -1.453139,0.657117 -1.453139,1.45314 v 8.023283 c 0,0.796041 0.657119,1.451075 1.453139,1.451075 h 6.49573 c 0.796036,0 1.453139,-0.655034 1.453139,-1.451075 v -4.728393 l 5.37745,-0.01964 -0.121438,11.403954 a 0.50005001,0.50005001 0 0 0 0.501777,0.505912 l 43.275395,-0.154 0.06304,6.80321 a 0.4999728,0.50012758 0 0 0 0.501261,0.49506 l 74.020808,-0.21033 a 0.4999728,0.50012758 0 0 0 0.49919,-0.50177 l -0.19482,-51.088356 h 2.06758 c 0.79604,0 1.45107,-0.655037 1.45107,-1.451075 v -8.023284 c 0,-0.796038 -0.65503,-1.451072 -1.45107,-1.451072 h -6.4978 c -0.79604,0 -1.45107,0.655029 -1.45107,1.451072 v 4.8426 l -1.80092,-0.0021 v -4.840531 c 0,-0.796038 -0.65711,-1.451072 -1.45315,-1.451072 h -6.49831 c -0.79604,0 -1.45107,0.655034 -1.45107,1.451072 v 4.830713 l -38.65346,-0.04031 -0.009,-5.624462 a 0.50005001,0.50005001 0 0 0 -0.50178,-0.500229 l -14.388272,0.06925 -0.01344,-8.941572 a 0.4999728,0.50012758 0 0 0 -0.501261,-0.499711 l -52.770939,0.264068 v -2.538347 c 0,-0.796041 -0.657103,-1.453142 -1.453139,-1.453142 z m 104.273224,0 c -0.79604,0 -1.45314,0.657104 -1.45314,1.453142 v 8.02173 c 0,0.796039 0.6571,1.453142 1.45314,1.453142 h 6.49624 c 0.79603,0 1.45314,-0.657103 1.45314,-1.453142 v -8.02173 c 0,-0.796038 -0.65711,-1.453142 -1.45314,-1.453142 z m 11.96464,0 c -0.79604,0 -1.45107,0.657104 -1.45107,1.453142 v 8.02173 c 0,0.796039 0.65503,1.453142 1.45107,1.453142 h 6.49831 c 0.79604,0 1.45315,-0.657103 1.45315,-1.453142 v -8.02173 c 0,-0.796038 -0.65711,-1.453142 -1.45315,-1.453142 z m 11.20345,0 c -0.79604,0 -1.45107,0.657098 -1.45107,1.453142 v 8.02173 c 0,0.796047 0.65503,1.453142 1.45107,1.453142 h 6.4978 c 0.79604,0 1.45107,-0.657103 1.45107,-1.453142 v -8.02173 c 0,-0.796038 -0.65503,-1.453142 -1.45107,-1.453142 z m -127.441314,0.99994 h 6.49573 c 0.259477,0 0.453202,0.194001 0.453202,0.453202 v 2.542995 l -2.340943,0.01189 a 0.4999728,0.50012758 0 0 0 -0.497644,0.495575 l -0.05529,5.423959 h -4.055052 c -0.259458,0 -0.453202,-0.193485 -0.453202,-0.452687 v -8.02173 c 0,-0.259201 0.193744,-0.453202 0.453202,-0.453202 z m 104.273224,0 h 6.49624 c 0.25947,0 0.45321,0.193998 0.45321,0.453202 v 8.02173 c 0,0.259205 -0.19374,0.452687 -0.45321,0.452687 h -6.49624 c -0.25948,0 -0.4532,-0.193482 -0.4532,-0.452687 v -8.02173 c 0,-0.259204 0.19372,-0.453204 0.4532,-0.453202 z m 11.96464,0 h 6.49831 c 0.25948,0 0.45321,0.193998 0.45321,0.453202 v 8.02173 c 0,0.259205 -0.19373,0.452687 -0.45321,0.452687 h -6.49831 c -0.25948,0 -0.45113,-0.193482 -0.45113,-0.452687 v -8.02173 c 0,-0.259204 0.19165,-0.453204 0.45113,-0.453202 z m 11.20345,0 h 6.4978 c 0.25947,0 0.45113,0.193998 0.45113,0.453202 v 8.02173 c 0,0.259205 -0.19166,0.452687 -0.45113,0.452687 h -6.4978 c -0.25947,0 -0.45113,-0.19349 -0.45113,-0.452687 v -8.02173 c 0,-0.259196 0.19166,-0.453204 0.45113,-0.453202 z m -67.21915,3.728453 0.0217,14.47922 -3.215307,-0.0036 a 0.4999728,0.50012758 0 0 0 -0.499195,0.503327 l 0.107487,11.582757 -0.146243,0.01447 -20.828703,-0.01137 c -0.01134,-0.03419 -0.0304,-0.08728 -0.04134,-0.120406 -0.294812,-0.89271 -1.822405,-5.929456 -3.815271,-10.748698 -0.996431,-2.409622 -2.109412,-4.771083 -3.270086,-6.577378 -0.580334,-0.903144 -1.171816,-1.669666 -1.786969,-2.237073 -0.615154,-0.567402 -1.267116,-0.955225 -1.980758,-0.996836 -0.720233,-0.04199 -1.367565,0.365133 -1.978173,0.95963 -0.610611,0.594498 -1.212768,1.415952 -1.828314,2.39417 -1.23109,1.956432 -2.504228,4.544803 -3.763078,7.130314 -1.258832,2.585511 -2.501797,5.16785 -3.635436,7.070887 -0.56682,0.951518 -1.110589,1.734243 -1.589051,2.247923 -0.478461,0.513678 -0.873717,0.705604 -1.074869,0.699699 l -2.106332,-0.06201 a 0.49992279,0.50007755 0 0 0 -0.513662,0.486791 0.49992279,0.50007755 0 0 0 0.484724,0.514181 l 2.106332,0.06201 c 0.191979,0.0056 0.374883,-0.02679 0.551903,-0.08526 l 23.440429,0.01292 c 0.697209,2.070077 1.932411,5.49864 3.490227,8.597924 0.844727,1.680589 1.773732,3.244096 2.772958,4.418851 0.999225,1.174758 2.08966,2.008931 3.31556,2.012281 0.645551,0.0018 1.239954,-0.298593 1.774568,-0.747242 0.534612,-0.448648 1.029859,-1.056034 1.516187,-1.768882 0.972658,-1.425734 1.901195,-3.279928 2.810163,-5.120103 0.908971,-1.840174 1.799376,-3.667778 2.647384,-4.996593 0.424005,-0.664405 0.839176,-1.202713 1.214914,-1.548227 0.375734,-0.345514 0.68417,-0.47719 0.920355,-0.470255 l 0.03307,0.0021 1.288812,-0.129706 0.21549,23.198066 -52.27226,0.19327 0.517797,-50.678559 z M 62.69145,43.28108 c 0.375449,0.0219 0.845436,0.256765 1.363742,0.734838 0.518305,0.478073 1.072247,1.182547 1.623673,2.040702 1.10285,1.716307 2.204003,4.041444 3.187917,6.420797 1.900251,4.595278 3.337621,9.284224 3.725873,10.484631 l -22.081857,-0.0124 c 0.05979,-0.05955 0.119512,-0.119798 0.1788,-0.183451 0.563634,-0.605121 1.128461,-1.432917 1.714624,-2.416908 1.172327,-1.967979 2.416776,-4.562726 3.674195,-7.1453 1.257419,-2.582572 2.527435,-5.153382 3.711919,-7.035745 0.59224,-0.941183 1.165791,-1.710062 1.679482,-2.210202 0.513694,-0.500139 0.939922,-0.693388 1.221632,-0.67696 z m -24.708054,2.370913 h 4.013711 l -0.09095,8.925554 h -3.92276 c -0.259458,0 -0.453202,-0.191936 -0.453202,-0.451135 v -8.023284 c 0,-0.259199 0.193744,-0.451135 0.453202,-0.451135 z m 116.237864,0 h 6.49831 c 0.25948,0 0.45321,0.191936 0.45321,0.451135 v 4.839499 l -7.40265,-0.0078 V 46.10308 c 0,-0.259199 0.19165,-0.451135 0.45113,-0.451135 z m 11.20345,0 h 6.4978 c 0.25947,0 0.45113,0.191936 0.45113,0.451135 v 8.023284 c 0,0.259201 -0.19166,0.451135 -0.45113,0.451135 h -2.07119 l -0.0119,-3.128491 a 0.4999728,0.50012758 0 0 0 -0.49919,-0.497644 l -4.36666,-0.0047 V 46.10308 c 0,-0.259193 0.19166,-0.451135 0.45113,-0.451135 z m -52.3167,0.118856 0.008,5.121653 -13.889072,-0.01447 -0.0078,-5.040519 z m -17.592725,6.101437 73.325235,0.07855 0.20671,54.219944 -73.022414,0.20412 z M 37.983396,58.63208 h 3.881935 l -0.09095,8.928137 h -3.790985 c -0.259458,0 -0.453202,-0.194003 -0.453202,-0.453202 v -8.021732 c 0,-0.259199 0.193744,-0.453203 0.453202,-0.453203 z m 92.353024,1.088822 a 0.49992279,0.50007755 0 0 0 -0.50747,0.493511 0.49992279,0.50007755 0 0 0 0.49093,0.507463 l 1.65158,0.02481 0.0325,7.391278 -1.77043,-0.02739 a 0.50501907,0.49512217 45.760865 0 0 -0.49713,0.493509 l 0.0729,16.420187 a 0.50501907,0.49512217 45.760865 0 0 0.50126,0.509529 l 1.77095,0.02687 0.046,10.610723 1.00046,-0.0041 -0.0476,-10.591082 1.62833,0.0248 a 0.50501907,0.49512217 45.760865 0 0 0.49712,-0.493511 l -0.0729,-16.420187 a 0.50501907,0.49512217 45.760865 0 0 -0.50126,-0.509011 l -1.62677,-0.02481 -0.0331,-7.391796 1.62936,0.02429 a 0.49992279,0.50007755 0 0 0 0.50747,-0.490927 0.49992279,0.50007755 0 0 0 -0.49093,-0.507978 z m 13.54542,0.208772 a 0.49992279,0.50007755 0 0 0 -0.50746,0.490926 0.49992279,0.50007755 0 0 0 0.49093,0.507982 l 1.65209,0.02532 0.0357,8.326623 -1.76992,-0.02687 a 0.50501907,0.49512217 45.760865 0 0 -0.49713,0.493509 l 0.10025,22.550045 a 0.50501907,0.49512217 45.760865 0 0 0.50127,0.506945 l 1.76992,0.02739 0.0243,5.482352 -1.63091,-0.02532 a 0.49992279,0.50007755 0 0 0 -0.50746,0.493512 0.49992279,0.50007755 0 0 0 0.49299,0.50746 l 4.2814,0.06615 a 0.49992279,0.50007755 0 0 0 0.50746,-0.492993 0.49992279,0.50007755 0 0 0 -0.49299,-0.507979 l -1.64951,-0.02532 -0.0243,-5.482355 1.62729,0.02481 a 0.50501907,0.49512217 45.760865 0 0 0.49713,-0.491958 l -0.0997,-22.549527 a 0.50501907,0.49512217 45.760865 0 0 -0.50178,-0.50953 l -1.62781,-0.0248 -0.0372,-8.326626 1.63245,0.02532 a 0.49992279,0.50007755 0 0 0 0.50747,-0.491445 0.49992279,0.50007755 0 0 0 -0.493,-0.507463 z m 13.54491,0.208256 a 0.49992279,0.50007755 0 0 0 -0.50746,0.491445 0.49992279,0.50007755 0 0 0 0.49093,0.50746 l 1.65054,0.02532 0.0171,3.54862 -1.76991,-0.02687 a 0.50502388,0.49512688 45.760865 0 0 -0.49713,0.493509 l 0.0724,16.420187 a 0.50502388,0.49512688 45.760865 0 0 0.50177,0.506944 l 1.76992,0.02739 0.0568,12.859163 -1.62987,-0.02532 a 0.49992279,0.50007755 0 0 0 -0.50746,0.493509 0.49992279,0.50007755 0 0 0 0.49093,0.507463 l 4.28087,0.06408 a 0.49992279,0.50007755 0 0 0 0.50798,-0.490926 0.49992279,0.50007755 0 0 0 -0.49144,-0.507979 l -1.65055,-0.02532 -0.0579,-12.859678 1.62884,0.02532 a 0.50502388,0.49512688 45.760865 0 0 0.49713,-0.491959 l -0.0729,-16.419671 a 0.50502388,0.49512688 45.760865 0 0 -0.50126,-0.509529 l -1.62936,-0.02481 -0.015,-3.54862 1.63194,0.02532 a 0.49992279,0.50007755 0 0 0 0.50747,-0.493509 0.49992279,0.50007755 0 0 0 -0.493,-0.507463 z m -54.17033,1.764752 a 0.49992279,0.50007755 0 0 0 -0.50747,0.490924 0.49992279,0.50007755 0 0 0 0.493,0.507982 l 1.65002,0.02532 0.0398,8.743135 -1.76992,-0.02739 a 0.50501907,0.49512217 45.760865 0 0 -0.4992,0.491443 l 0.0868,19.538857 a 0.50501907,0.49512217 45.760865 0 0 0.50333,0.506947 l 1.7694,0.02739 0.0289,6.521564 -1.63143,-0.02532 a 0.49992279,0.50007755 0 0 0 -0.50746,0.493509 0.49992279,0.50007755 0 0 0 0.49299,0.507463 l 4.2814,0.06615 a 0.49992279,0.50007755 0 0 0 0.50746,-0.493509 0.49992279,0.50007755 0 0 0 -0.49351,-0.507463 l -1.649,-0.02532 -0.0289,-6.521567 1.62625,0.02481 a 0.50501907,0.49512217 45.760865 0 0 0.49713,-0.491961 l -0.0863,-19.538341 a 0.50501907,0.49512217 45.760865 0 0 -0.50178,-0.506945 l -1.62729,-0.0248 -0.0377,-8.743138 1.63039,0.02532 a 0.49992279,0.50007755 0 0 0 0.50746,-0.491445 0.49992279,0.50007755 0 0 0 -0.49299,-0.50746 z m -29.354286,1.811258 17.924489,0.0098 c -0.03883,0.03324 -0.07767,0.06574 -0.115756,0.100769 -0.481451,0.442725 -0.932262,1.042938 -1.382344,1.748214 -0.900171,1.410549 -1.792105,3.253517 -2.69906,5.089612 -0.906955,1.836094 -1.828691,3.663026 -2.739885,4.998661 -0.455596,0.667817 -0.908412,1.212284 -1.332735,1.568379 -0.424326,0.356095 -0.798187,0.513017 -1.128615,0.512114 -0.749178,-0.002 -1.64643,-0.587041 -2.558499,-1.659331 -0.912061,-1.072288 -1.816733,-2.581715 -2.640666,-4.22093 -1.444959,-2.874753 -2.618825,-6.07259 -3.326929,-8.147307 z m 83.911156,1.978174 3.39566,0.05219 0.0682,15.421279 -3.39566,-0.05219 z m -41.02127,0.98857 a 0.49992279,0.50007755 0 0 0 -0.47697,0.490927 0.49992279,0.50007755 0 0 0 0.49299,0.507978 l 4.2814,0.06563 a 0.49992279,0.50007755 0 0 0 0.50746,-0.490926 0.49992279,0.50007755 0 0 0 -0.49351,-0.507979 l -4.28088,-0.06563 a 0.49992279,0.50007755 0 0 0 -0.0305,0 z m 2.66496,1.050065 -0.99839,0.0041 0.0419,9.44077 -1.76941,-0.02687 a 0.50502388,0.49512688 45.760865 0 0 -0.49919,0.491443 l 0.0532,12.059213 a 0.50502388,0.49512688 45.760865 0 0 0.50384,0.506947 l 1.76889,0.02739 0.0238,5.483902 -1.63143,-0.02532 a 0.49992279,0.50007755 0 0 0 -0.50746,0.493511 0.49992279,0.50007755 0 0 0 0.49299,0.50746 l 4.2814,0.06408 a 0.49992279,0.50007755 0 0 0 0.50746,-0.491443 0.49992279,0.50007755 0 0 0 -0.49093,-0.507463 l -1.65106,-0.02532 -0.0243,-5.483903 1.62678,0.0248 a 0.50502388,0.49512688 45.760865 0 0 0.49712,-0.491959 l -0.0537,-12.058695 a 0.50502388,0.49512688 45.760865 0 0 -0.50126,-0.507463 l -1.62781,-0.0248 z m 11.28199,1.388547 3.39618,0.05219 0.0682,15.420765 -3.39565,-0.05219 z m 13.55008,1.142566 3.39566,0.05219 0.0956,21.549071 -3.39566,-0.05219 z M 37.983396,71.614751 h 3.749643 l -0.09095,8.927621 h -3.658693 c -0.259458,0 -0.453202,-0.194004 -0.453202,-0.453205 v -8.023281 c 0,-0.259201 0.193744,-0.451135 0.453202,-0.451135 z m 65.682294,1.036629 3.39773,0.05219 0.0817,18.535303 -3.39773,-0.05219 z m 13.56868,5.50354 3.39773,0.05219 0.0491,11.05824 -3.39772,-0.05219 z m -79.250974,6.440432 h 3.617352 l -0.03307,3.257166 a 0.4999728,0.50012758 0 0 0 0.501777,0.505396 l 2.862876,-0.01085 v 4.724776 c 0,0.259199 -0.193725,0.451136 -0.453202,0.451136 h -6.49573 c -0.259458,0 -0.453202,-0.191937 -0.453202,-0.451136 v -8.023283 c 0,-0.259181 0.193744,-0.453202 0.453202,-0.453202 z M 94.854345,88.162578 94.956146,99.079741 52.1939,99.231668 52.310171,88.32019 Z m 35.643305,8.15299 a 0.49992279,0.50007755 0 0 0 -0.50747,0.493508 0.49992279,0.50007755 0 0 0 0.493,0.507463 l 4.28139,0.06408 a 0.49992279,0.50007755 0 0 0 0.50746,-0.491443 0.49992279,0.50007755 0 0 0 -0.49351,-0.507463 z m -92.514254,0.261998 c -0.79602,0 -1.453139,0.657103 -1.453139,1.453142 v 8.021732 c 0,0.79604 0.657114,1.45314 1.453139,1.45314 h 6.49573 c 0.796041,0 1.453139,-0.6571 1.453139,-1.45314 v -8.021732 c 0,-0.796039 -0.657103,-1.453142 -1.453139,-1.453142 z m 0,0.99994 h 6.49573 c 0.259477,0 0.453202,0.194003 0.453202,0.453202 v 8.021732 c 0,0.25919 -0.19373,0.45268 -0.453202,0.45268 h -6.49573 c -0.259453,0 -0.453202,-0.19349 -0.453202,-0.45268 v -8.021732 c 0,-0.259199 0.193744,-0.453202 0.453202,-0.453202 z m 10.877891,27.601934 v 1.93579 l -17.906917,-0.0651 c -0.642432,-0.002 -1.374945,0.4688 -1.603521,1.06919 l -18.964216,49.8135 c -0.4031544,0.94132 -0.4536359,1.44505 0.04754,2.33215 0.0061,0.009 0.655893,0.75994 1.142566,0.74053 -0.02795,-0.0119 0.79694,0.0253 1.582332,0.0253 H 197.03002 c 0.86084,0 1.41549,-0.0523 1.8495,-0.26355 0.53014,-0.25809 0.83612,-0.81287 0.83612,-0.81287 0.50532,-1.01385 0.31449,-1.57282 -0.1912,-2.82722 L 180.091,128.92081 c -0.28655,-0.71079 -1.10483,-1.33357 -1.8712,-1.33635 l -18.17409,-0.0662 v -2.33887 z M 37.791161,130.3538 H 170.10556 c 0.48366,0 1.04307,0.38508 1.25574,0.86558 l 10.06812,22.74745 c 0.27746,0.62687 0.0544,1.13591 -0.50178,1.13791 l -152.566393,0.5085 c -0.579364,0.002 -0.848715,-0.51599 -0.605647,-1.15755 l 8.797395,-23.22081 c 0.185351,-0.48924 0.737071,-0.88108 1.238166,-0.88108 z m 128.794719,0.46095 c -0.2035,-8e-5 -0.30137,0.16312 -0.21807,0.36484 l 0.72347,1.75441 c 0.0851,0.20657 0.32165,0.37432 0.52813,0.37414 l 3.67833,-0.001 c 0.20627,2e-5 0.29999,-0.16769 0.20929,-0.37414 l -0.76946,-1.75338 c -0.0884,-0.20161 -0.32493,-0.36444 -0.52814,-0.36432 h -3.62355 z m -1.43557,5.2e-4 -6.83628,5.1e-4 v 5.2e-4 c -0.20393,-9e-5 -0.31039,0.1634 -0.23719,0.36535 l 0.6351,1.75597 c 0.0747,0.20681 0.30362,0.37484 0.51057,0.37465 l 6.94014,-0.003 c 0.20663,2e-5 0.30558,-0.16754 0.22118,-0.37413 l -0.71624,-1.75494 c -0.0822,-0.20175 -0.31379,-0.36494 -0.51728,-0.36483 z m -8.27495,5.1e-4 -8.13438,5.2e-4 c -0.20449,-9e-5 -0.32082,0.16365 -0.25942,0.36587 l 0.5333,1.75855 c 0.0627,0.20709 0.28238,0.37535 0.48989,0.37517 l 8.25738,-0.003 c 0.20715,2e-5 0.31481,-0.16834 0.24081,-0.37517 l -0.62786,-1.75648 c -0.0721,-0.20197 -0.29577,-0.36547 -0.49972,-0.36536 z m -16.84083,0.001 v 5.2e-4 c -0.20499,-8e-5 -0.32975,0.16341 -0.27905,0.36586 l 0.44028,1.76062 c 0.0517,0.20733 0.26226,0.37587 0.47026,0.37569 l 7.37474,-0.003 c 0.20761,2e-5 0.32555,-0.16807 0.26355,-0.37517 l -0.52607,-1.75907 c -0.0603,-0.20224 -0.27507,-0.36546 -0.47955,-0.36535 z m -1.44539,5.2e-4 -7.37991,5.1e-4 c -0.20543,-9e-5 -0.33962,0.1637 -0.29972,0.36639 l 0.34571,1.76268 c 0.0406,0.20758 0.24263,0.37638 0.45114,0.3762 l 7.49256,-0.003 c 0.20815,2e-5 0.33532,-0.16833 0.28422,-0.37568 l -0.43304,-1.76114 c -0.0496,-0.20247 -0.256,-0.36598 -0.46096,-0.36586 z m -8.8284,5.1e-4 -7.10086,5.2e-4 c -0.20588,-9e-5 -0.34918,0.16398 -0.31988,0.3669 l 0.25425,1.76475 c 0.0298,0.20783 0.22354,0.3769 0.43253,0.37672 l 7.20938,-0.003 c 0.20845,-1.9e-4 0.3448,-0.16875 0.30489,-0.3762 l -0.33848,-1.7632 c -0.0387,-0.20256 -0.23649,-0.3663 -0.44183,-0.36639 z m -8.55297,5.2e-4 -7.5153,5.2e-4 c -0.2062,1.1e-4 -0.35823,0.16439 -0.34003,0.36741 l 0.1571,1.76682 c 0.0184,0.20793 0.20351,0.37721 0.41289,0.37724 l 7.63003,-0.003 c 0.2091,2e-5 0.35466,-0.16887 0.32556,-0.37672 l -0.24598,-1.76527 c -0.0282,-0.20294 -0.21834,-0.36701 -0.42427,-0.3669 z m -8.96947,5.2e-4 -7.43314,5.1e-4 c -0.20686,-9e-5 -0.36873,0.16453 -0.36174,0.36794 l 0.062,1.76888 c 0.007,0.20834 0.18323,0.37795 0.39326,0.37776 l 7.54735,-0.003 c 0.2096,2e-5 0.36506,-0.16914 0.34726,-0.37724 l -0.14986,-1.76734 c -0.0171,-0.20318 -0.19872,-0.36753 -0.40514,-0.36741 z m -8.89197,5.1e-4 -6.948927,5.2e-4 h -5.16e-4 c -0.207317,-9e-5 -0.378074,0.16481 -0.381373,0.36845 l -0.02894,1.77095 c -0.0036,0.20858 0.164147,0.37794 0.374655,0.37776 l 7.055901,-0.003 c 0.2101,2e-5 0.37445,-0.16939 0.36845,-0.37775 l -0.0537,-1.7694 c -0.006,-0.20343 -0.17859,-0.36805 -0.38551,-0.36794 z m -8.411372,5.2e-4 -7.769034,5.2e-4 c -0.207823,-9e-5 -0.388316,0.16455 -0.403075,0.36845 l -0.129193,1.77353 c -0.01534,0.20885 0.142947,0.37847 0.353986,0.37828 l 7.888923,-0.003 c 0.210576,3e-5 0.384407,-0.16967 0.388606,-0.37827 l 0.03721,-1.77095 c 0.0044,-0.20366 -0.160031,-0.36856 -0.367422,-0.36845 z m -9.235093,5.2e-4 -7.586618,5.1e-4 c -0.20819,1.3e-4 -0.398213,0.16498 -0.424264,0.36897 l -0.227375,1.7756 c -0.02691,0.20895 0.122452,0.37876 0.33383,0.37879 l 7.703923,-0.003 c 0.211092,2e-5 0.395314,-0.16941 0.411342,-0.37827 l 0.136943,-1.77353 c 0.01587,-0.20392 -0.139874,-0.36909 -0.347781,-0.36897 z m -9.055777,5.1e-4 -7.000092,5.2e-4 c -0.20878,-9e-5 -0.407747,0.16563 -0.444416,0.37 l -0.320394,1.77767 c -0.03779,0.20934 0.103693,0.37898 0.315743,0.37879 l 7.108611,-0.003 c 0.211606,2e-5 0.405426,-0.17019 0.433049,-0.37931 l 0.235643,-1.7756 c 0.02719,-0.20416 -0.119732,-0.36961 -0.328144,-0.36949 z m -8.471318,5.2e-4 -7.82433,5.2e-4 c -0.209185,1.2e-4 -0.417822,0.16553 -0.466122,0.37 l -0.421679,1.77974 c -0.04971,0.20946 0.08218,0.37979 0.294555,0.37982 l 7.945768,-0.003 c 0.212087,2e-5 0.415229,-0.16995 0.453721,-0.37931 l 0.327628,-1.77818 c 0.0378,-0.20439 -0.100653,-0.3696 -0.309541,-0.36949 z m -9.300726,5.2e-4 -7.439337,5.1e-4 c -0.209781,-9e-5 -0.428276,0.16565 -0.487826,0.37052 l -0.518832,1.78232 c -0.06124,0.20987 0.06182,0.38001 0.274918,0.37983 l 7.555095,-0.003 c 0.212611,2e-5 0.426016,-0.17019 0.476456,-0.37982 l 0.429432,-1.78025 c 0.04947,-0.20464 -0.0805,-0.37013 -0.289906,-0.37 z m -8.917284,5.1e-4 -7.253822,5.2e-4 c -0.210259,-9e-5 -0.437935,0.16593 -0.508495,0.37104 l -0.614949,1.78438 c -0.07252,0.21012 0.04167,0.38053 0.25528,0.38034 l 7.366992,-0.003 c 0.213117,2e-5 0.436221,-0.17045 0.498163,-0.38034 l 0.527098,-1.78232 c 0.06069,-0.20489 -0.06036,-0.37063 -0.270267,-0.37052 z m -12.137244,5.2e-4 c -0.210452,1.2e-4 -0.443196,0.16594 -0.519864,0.37104 l -0.668695,1.78542 c -0.07878,0.21009 0.03078,0.38082 0.24443,0.38085 l 3.453019,-0.001 c 0.213611,1e-5 0.446119,-0.17073 0.519348,-0.38086 l 0.623218,-1.78438 c 0.07171,-0.20513 -0.04126,-0.37115 -0.251664,-0.37104 l -3.399792,5.2e-4 z m 133.871934,3.38119 -5.56401,0.003 c -0.2077,0 -0.30795,0.16972 -0.22375,0.37982 l 0.78599,1.96009 c 0.0865,0.21559 0.32807,0.39096 0.53899,0.39067 l 5.65392,-0.005 c 0.21069,-8e-5 0.30482,-0.17527 0.21032,-0.39067 l -0.85938,-1.95802 c -0.0922,-0.20992 -0.33484,-0.38004 -0.54208,-0.37982 z m -7.07554,0.003 -5.1077,0.003 c -0.208,0 -0.31516,0.17004 -0.23926,0.38034 l 0.709,1.96215 c 0.0781,0.21579 0.31269,0.39098 0.524,0.39068 l 5.1909,-0.005 c 0.21106,-8e-5 0.31277,-0.17558 0.22737,-0.39119 l -0.77721,-1.96009 c -0.0834,-0.21013 -0.31946,-0.38003 -0.5271,-0.37982 z m -6.6213,0.004 -7.69152,0.004 c -0.20853,0 -0.32537,0.17029 -0.26097,0.38085 l 0.60152,1.96422 c 0.0663,0.21607 0.292,0.39149 0.50384,0.3912 l 7.81658,-0.007 c 0.21151,-7e-5 0.32039,-0.17589 0.24339,-0.39171 l -0.70021,-1.96216 c -0.0751,-0.21032 -0.30462,-0.38002 -0.51263,-0.37982 z m -9.20926,0.005 -7.50807,0.004 v 5.1e-4 c -0.20899,0 -0.33577,0.17056 -0.28267,0.38138 l 0.49661,1.9668 c 0.0547,0.21635 0.27133,0.392 0.4837,0.39171 l 7.63054,-0.007 c 0.21197,-9e-5 0.33071,-0.17561 0.26561,-0.39171 l -0.59273,-1.96474 c -0.0636,-0.21059 -0.28445,-0.38056 -0.49299,-0.38034 z m -9.0289,0.004 -9.02478,0.005 v -5.2e-4 c -0.20962,1e-5 -0.34737,0.17076 -0.30747,0.38189 l 0.3731,1.9699 c 0.0411,0.21667 0.24693,0.39252 0.45992,0.39223 l 9.17205,-0.008 c 0.21254,-8e-5 0.34134,-0.17586 0.28784,-0.39222 l -0.48783,-1.96681 c -0.0523,-0.21085 -0.26378,-0.38158 -0.47283,-0.38137 z m -10.54975,0.006 -7.88944,0.004 c -0.21013,0 -0.3577,0.17101 -0.32969,0.38241 l 0.26199,1.97197 c 0.0289,0.21696 0.22571,0.39303 0.43925,0.39274 l 8.01812,-0.007 c 0.21311,-8e-5 0.35358,-0.17656 0.31367,-0.39325 l -0.3638,-1.96991 c -0.0391,-0.21116 -0.24046,-0.38158 -0.4501,-0.38137 z m -9.41648,0.005 -8.11423,0.004 c -0.21066,2e-5 -0.36875,0.17125 -0.35295,0.38293 l 0.14831,1.97507 c 0.0164,0.21725 0.20344,0.39356 0.41755,0.39326 l 8.24807,-0.007 c 0.21365,-8e-5 0.36421,-0.17627 0.33641,-0.39326 l -0.25321,-1.97248 c -0.0272,-0.21143 -0.21977,-0.38211 -0.42995,-0.38189 z m -9.64799,0.005 -8.47855,0.004 v 0.001 c -0.21123,0 -0.37972,0.17146 -0.37672,0.38343 l 0.0305,1.97766 c 0.003,0.21756 0.18012,0.39407 0.39481,0.39378 l 8.61807,-0.008 c 0.21422,-7e-5 0.37549,-0.1765 0.36019,-0.39378 l -0.13953,-1.97507 c -0.015,-0.21171 -0.19804,-0.38314 -0.40876,-0.38292 z m -10.01386,0.005 -7.469308,0.004 c -0.211576,2.2e-4 -0.390125,0.17188 -0.398425,0.38395 l -0.07648,1.98025 c -0.0083,0.21767 0.159592,0.39436 0.374653,0.39429 l 7.59282,-0.007 c 0.21462,-2.6e-4 0.38667,-0.17686 0.38447,-0.39429 l -0.0212,-1.97817 c -0.002,-0.21184 -0.17539,-0.38292 -0.38654,-0.38292 z m -9.010815,0.005 -8.659421,0.004 v 0.001 c -0.212159,2.2e-4 -0.400955,0.1721 -0.422196,0.38447 l -0.197921,1.98282 c -0.02164,0.21798 0.135752,0.39488 0.351401,0.39481 l 8.802563,-0.008 c 0.215297,-9e-5 0.397711,-0.17747 0.40721,-0.39533 l 0.08578,-1.98024 c 0.0091,-0.21226 -0.15561,-0.38366 -0.367419,-0.38344 z m -10.202479,0.005 -8.614979,0.004 v 0.001 c -0.21286,0 -0.413297,0.17217 -0.447516,0.38499 l -0.318328,1.98541 c -0.03497,0.21846 0.111715,0.39563 0.328147,0.39532 l 8.758121,-0.008 c 0.215884,-8e-5 0.409175,-0.17767 0.432014,-0.39584 l 0.207224,-1.98282 c 0.02209,-0.21256 -0.132291,-0.38469 -0.344683,-0.38447 z m -10.164236,0.005 -8.012948,0.004 c -0.213397,1e-5 -0.423797,0.17239 -0.470255,0.3855 l -0.433049,1.988 c -0.04754,0.21874 0.08996,0.39665 0.306957,0.39635 l 8.146274,-0.007 c 0.216472,-8e-5 0.421185,-0.17788 0.457335,-0.39636 l 0.328147,-1.98593 c 0.03507,-0.21284 -0.10949,-0.38469 -0.322461,-0.38447 z m -9.563758,0.005 -7.409368,0.004 v 5.1e-4 c -0.213897,1e-5 -0.434009,0.17267 -0.491959,0.38603 l -0.540019,1.99057 c -0.05933,0.21902 0.06876,0.39666 0.286289,0.39636 l 7.532357,-0.007 c 0.216916,-2.6e-4 0.432427,-0.17825 0.481108,-0.39687 l 0.441833,-1.98851 c 0.04727,-0.21297 -0.08693,-0.38498 -0.300241,-0.38499 z m -8.963795,0.004 -8.890929,0.005 v -5.1e-4 c -0.2144,2.2e-4 -0.445942,0.17303 -0.517281,0.38654 l -0.665592,1.99367 c -0.07308,0.21918 0.04409,0.39746 0.261999,0.3974 l 9.039759,-0.008 c 0.217543,-9e-5 0.443325,-0.17784 0.503844,-0.39688 l 0.54932,-1.99109 c 0.05881,-0.21338 -0.06709,-0.38624 -0.28112,-0.38602 z m -10.450007,0.006 -5.237922,0.003 c -0.214794,2.2e-4 -0.453729,0.17334 -0.533818,0.38706 l -0.747242,1.99522 c -0.08206,0.21938 0.02819,0.39746 0.246497,0.39739 l 5.325774,-0.005 c 0.218149,-8e-5 0.455361,-0.17853 0.529682,-0.39791 l 0.674894,-1.99419 c 0.07225,-0.21369 -0.04323,-0.38623 -0.257865,-0.38602 z m 131.5191,3.59719 -6.66574,0.007 v -0.001 c -0.21227,1e-4 -0.31408,0.17791 -0.22738,0.39739 l 0.80874,2.04587 c 0.089,0.22549 0.33664,0.40866 0.55242,0.40824 l 6.77581,-0.009 c 0.2158,-1.9e-4 0.30933,-0.18352 0.21033,-0.40876 l -0.89659,-2.04381 c -0.0963,-0.21925 -0.34585,-0.39617 -0.55759,-0.39584 z m -8.21035,0.008 -8.54677,0.009 c -0.21276,1.1e-4 -0.32598,0.1776 -0.25218,0.39739 l 0.68885,2.04897 c 0.0758,0.22581 0.3133,0.40917 0.52969,0.40876 l 8.68887,-0.0119 c 0.21592,-1.8e-4 0.31919,-0.18377 0.23099,-0.40928 l -0.79995,-2.04639 c -0.0859,-0.21951 -0.32729,-0.39668 -0.5395,-0.39636 z m -10.09551,0.0109 -8.29251,0.008 v 5.2e-4 c -0.21336,1.1e-4 -0.33664,0.17781 -0.27544,0.39791 l 0.57154,2.05207 c 0.0629,0.22613 0.28997,0.40969 0.50695,0.40928 l 8.42998,-0.0119 c 0.21655,-1.8e-4 0.33131,-0.18395 0.25631,-0.40979 l -0.67955,-2.04897 c -0.073,-0.21982 -0.30449,-0.39773 -0.51728,-0.39739 z m -9.84281,0.01 -8.7359,0.009 c -0.21397,1.1e-4 -0.34876,0.17853 -0.30075,0.39894 l 0.44855,2.05466 c 0.0493,0.22646 0.2661,0.4102 0.48369,0.40979 l 8.88163,-0.0124 c 0.21694,-5.3e-4 0.3426,-0.18433 0.2806,-0.41031 l -0.56224,-2.05207 c -0.0603,-0.21997 -0.28231,-0.39749 -0.49558,-0.3974 z m -10.29084,0.0108 -8.05687,0.008 v 5.1e-4 c -0.21448,1.1e-4 -0.35971,0.17823 -0.32402,0.39894 l 0.33332,2.05776 c 0.0366,0.22677 0.24331,0.41073 0.46147,0.41031 l 8.19226,-0.0114 c 0.21772,-1.9e-4 0.35443,-0.18434 0.30593,-0.41082 l -0.43925,-2.05518 c -0.0472,-0.22043 -0.25888,-0.39823 -0.47284,-0.39791 z m -9.61595,0.009 -9.76736,0.0103 v -5.1e-4 c -0.21512,1e-4 -0.3725,0.17943 -0.3514,0.40049 l 0.1974,2.06034 c 0.0216,0.22715 0.21679,0.41176 0.43563,0.41134 l 9.93066,-0.0139 c 0.21828,-1.9e-4 0.36601,-0.18455 0.33021,-0.41135 l -0.32401,-2.05775 c -0.0348,-0.22074 -0.23661,-0.39927 -0.45113,-0.39894 z m -11.33316,0.0124 -8.38347,0.008 v 5.2e-4 c -0.21568,1e-4 -0.38368,0.17912 -0.37569,0.40049 l 0.077,2.06396 c 0.008,0.22748 0.19345,0.41177 0.4129,0.41134 l 8.52454,-0.0119 c 0.21895,-1.9e-4 0.37944,-0.18468 0.35863,-0.41186 l -0.18758,-2.06137 c -0.0202,-0.22108 -0.21115,-0.39927 -0.42633,-0.39894 z m -9.95133,0.01 -7.840865,0.008 c -0.216223,1.1e-4 -0.394425,0.17987 -0.398425,0.40153 l -0.03669,2.06602 c -0.0041,0.22778 0.171177,0.4128 0.391189,0.41238 l 7.972641,-0.0109 c 0.21937,-5.2e-4 0.39144,-0.18556 0.38344,-0.41289 l -0.0677,-2.06396 c -0.007,-0.22123 -0.18799,-0.40007 -0.40359,-0.39997 z m -9.412347,0.009 -9.422162,0.01 v -5.2e-4 c -0.216847,1.1e-4 -0.407535,0.18004 -0.425815,0.40204 l -0.170016,2.06964 c -0.01881,0.22813 0.145196,0.41332 0.365871,0.4129 l 9.581843,-0.0134 c 0.220089,-1.9e-4 0.40231,-0.18561 0.40721,-0.41341 l 0.04599,-2.06705 c 0.0048,-0.22169 -0.166619,-0.40031 -0.382924,-0.39998 z m -11.000361,0.0119 -8.380884,0.008 v 5.1e-4 c -0.217416,1.1e-4 -0.419359,0.18025 -0.450617,0.40256 l -0.290423,2.07274 c -0.03217,0.22846 0.120822,0.41384 0.342099,0.41342 l 8.522994,-0.0119 c 0.220736,-1.9e-4 0.415991,-0.18627 0.435631,-0.41445 l 0.179318,-2.06964 c 0.01916,-0.22201 -0.141173,-0.40133 -0.358118,-0.40101 z m -9.961147,0.01 -7.832598,0.008 c -0.217837,2.7e-4 -0.429827,0.18012 -0.473356,0.40256 l -0.405143,2.07533 c -0.04478,0.2286 0.09824,0.41411 0.319876,0.41393 l 7.965921,-0.0109 c 0.221327,-2e-4 0.427448,-0.18595 0.460439,-0.41444 l 0.300238,-2.07326 c 0.03214,-0.22234 -0.117853,-0.40186 -0.335377,-0.40153 z m -9.419064,0.01 -8.780859,0.009 c -0.218448,2.6e-4 -0.441568,0.18083 -0.498679,0.40359 l -0.532267,2.07843 c -0.05874,0.22894 0.07386,0.41463 0.296105,0.41444 l 8.930206,-0.0124 c 0.22188,-1.9e-4 0.439074,-0.18668 0.484725,-0.41548 l 0.414962,-2.07533 c 0.04445,-0.22262 -0.09612,-0.40237 -0.314193,-0.40204 z m -10.371979,0.0103 -9.66711,0.01 c -0.219189,1.1e-4 -0.455149,0.18084 -0.527097,0.4041 l -0.670246,2.08153 c -0.07399,0.22948 0.04711,0.4159 0.27027,0.41548 l 9.831959,-0.014 c 0.22249,-2e-4 0.451458,-0.18687 0.511079,-0.416 l 0.542084,-2.07842 c 0.05805,-0.22294 -0.07225,-0.40289 -0.290939,-0.40256 z m -11.262359,0.0119 -7.379912,0.007 v 5.1e-4 c -0.219633,2.7e-4 -0.465085,0.18073 -0.548804,0.40411 l -0.780315,2.08463 c -0.08609,0.2296 0.02511,0.41567 0.248566,0.41548 l 7.506001,-0.0103 c 0.223163,-2e-4 0.465188,-0.18701 0.540018,-0.41651 l 0.679545,-2.08204 c 0.07285,-0.22329 -0.04576,-0.40342 -0.265099,-0.40308 z m 132.438427,3.69383 -10.88409,0.0165 c -0.21719,2.2e-4 -0.32405,0.1859 -0.23875,0.41548 l 0.79685,2.14302 c 0.0878,0.23587 0.33837,0.42739 0.55914,0.42685 l 11.06806,-0.0217 c 0.22051,-2.6e-4 0.31514,-0.19189 0.21188,-0.42736 l -0.93897,-2.1394 c -0.10068,-0.22921 -0.35768,-0.41386 -0.57412,-0.41342 z m -12.46436,0.0186 -9.28832,0.0145 c -0.2178,2.2e-4 -0.33672,0.18604 -0.26561,0.41599 l 0.66455,2.14664 c 0.0733,0.23625 0.31238,0.4279 0.53382,0.42736 l 9.44645,-0.0181 c 0.22095,-2.7e-4 0.32948,-0.1925 0.24288,-0.4284 l -0.78755,-2.14302 c -0.0845,-0.22961 -0.32904,-0.41541 -0.54622,-0.41496 z m -10.87272,0.017 -9.09867,0.0134 c -0.21842,2.2e-4 -0.34917,0.18672 -0.29197,0.41703 l 0.53433,2.14974 c 0.0589,0.23661 0.28693,0.42842 0.50902,0.42788 l 9.25318,-0.0176 c 0.22134,-5.3e-4 0.34227,-0.19282 0.27027,-0.42892 l -0.65474,-2.14664 c -0.0702,-0.2298 -0.30369,-0.41516 -0.52142,-0.41496 z m -10.68823,0.016 -9.7069,0.015 c -0.21908,2.2e-4 -0.3627,0.18687 -0.3204,0.41754 l 0.39584,2.15336 c 0.0436,0.23701 0.25988,0.42894 0.48266,0.4284 l 9.87278,-0.0191 c 0.22228,-2.7e-4 0.35536,-0.19279 0.29766,-0.42943 l -0.52452,-2.14974 c -0.0563,-0.23033 -0.27868,-0.41645 -0.49712,-0.416 z m -11.30112,0.0176 -8.07548,0.0119 c -0.21964,2e-4 -0.37428,0.18757 -0.34468,0.41857 l 0.27698,2.15595 c 0.0306,0.23735 0.23655,0.42998 0.45992,0.42943 l 8.21449,-0.016 c 0.22291,-2.7e-4 0.369,-0.19291 0.32659,-0.42995 l -0.38602,-2.15388 c -0.0414,-0.23069 -0.25269,-0.41643 -0.4718,-0.41599 z m -9.67228,0.0145 -9.42837,0.0145 c -0.22009,5.3e-4 -0.38603,0.18739 -0.37103,0.41858 l 0.14107,2.16007 c 0.0156,0.23755 0.20967,0.43025 0.43357,0.42995 l 9.59011,-0.0186 c 0.22329,-5.3e-4 0.38019,-0.19378 0.35089,-0.43098 l -0.26717,-2.15646 c -0.0287,-0.23085 -0.22951,-0.41723 -0.44907,-0.41703 z m -11.03085,0.017 -9.296076,0.0139 c -0.220748,5.3e-4 -0.399019,0.18807 -0.398426,0.41962 l 0.0062,2.16317 c 7.94e-4,0.23793 0.183171,0.43077 0.407728,0.43047 l 9.456274,-0.0181 c 0.22397,-5.3e-4 0.3936,-0.19392 0.3793,-0.4315 l -0.13126,-2.16007 c -0.0141,-0.23121 -0.20355,-0.41776 -0.42374,-0.41755 z m -10.90373,0.0165 -8.267713,0.0124 c -0.221337,5.3e-4 -0.410721,0.18826 -0.423227,0.42013 l -0.116274,2.16628 c -0.0127,0.23828 0.159321,0.4318 0.384474,0.43149 l 8.410855,-0.0165 c 0.224642,-5.3e-4 0.40672,-0.19406 0.40721,-0.43202 l 0.0036,-2.16369 c 2.64e-4,-0.23157 -0.178113,-0.41827 -0.398942,-0.41806 z m -9.877949,0.015 -10.41125,0.016 c -0.222189,2.2e-4 -0.425696,0.1882 -0.454237,0.42064 l -0.265618,2.16989 c -0.02917,0.23889 0.130495,0.43257 0.356569,0.43202 l 10.592117,-0.0202 c 0.225404,-2.7e-4 0.419079,-0.19456 0.433049,-0.43305 l 0.126608,-2.16628 c 0.01344,-0.23207 -0.155657,-0.41955 -0.377238,-0.41909 z m -12.026656,0.0181 -7.764902,0.0119 c -0.222736,2.3e-4 -0.436419,0.18893 -0.47749,0.42168 l -0.382405,2.17299 c -0.04205,0.2392 0.107177,0.43309 0.33383,0.43253 l 7.899775,-0.0155 c 0.226129,-2.7e-4 0.434131,-0.19467 0.464572,-0.43357 l 0.275952,-2.16989 c 0.02946,-0.23246 -0.127032,-0.42058 -0.349332,-0.42013 z m -9.385474,0.0145 -10.433987,0.016 c -0.223443,2.3e-4 -0.45076,0.18906 -0.507981,0.4222 l -0.5333,2.17661 c -0.05865,0.23961 0.07801,0.43413 0.305409,0.43356 l 10.615887,-0.0207 c 0.226576,-5.2e-4 0.445053,-0.19502 0.488344,-0.43408 l 0.39274,-2.17351 c 0.04197,-0.2326 -0.104458,-0.42035 -0.327112,-0.42013 z m -12.060246,0.0186 -9.514146,0.0145 c -0.224005,5.2e-4 -0.463746,0.18937 -0.535885,0.42271 l -0.673346,2.18023 c -0.07398,0.23983 0.05069,0.43439 0.278538,0.43408 l 9.680545,-0.0186 c 0.227426,-2.7e-4 0.460452,-0.19548 0.520383,-0.43512 l 0.543634,-2.17713 c 0.05816,-0.23317 -0.07614,-0.42109 -0.299723,-0.42064 z m -11.145057,0.017 -9.84229,0.015 c -0.224695,5.3e-4 -0.477235,0.18951 -0.564825,0.42323 l -0.81752,2.18385 c -0.08987,0.24023 0.02209,0.43543 0.250629,0.43512 l 10.014892,-0.0196 c 0.228015,-5.3e-4 0.473535,-0.19577 0.548804,-0.43563 l 0.683681,-2.18023 c 0.07308,-0.23337 -0.04936,-0.42189 -0.273371,-0.42168 z m 133.177402,3.80442 -16.48065,0.0341 c -0.22261,2.6e-4 -0.33665,0.19501 -0.25425,0.43563 l 0.7674,2.24327 c 0.0845,0.24735 0.33691,0.44769 0.56327,0.447 l 16.7659,-0.0419 c 0.22542,-5.2e-4 0.32028,-0.20132 0.21188,-0.44803 l -0.98186,-2.23707 c -0.10522,-0.24001 -0.3702,-0.43362 -0.59169,-0.43305 z m -18.09709,0.0372 -10.79831,0.0222 c -0.22308,5.3e-4 -0.35105,0.19578 -0.28525,0.43666 l 0.61237,2.24741 c 0.0674,0.24764 0.30627,0.44846 0.5333,0.44803 l 10.98641,-0.0274 c 0.22656,-5.2e-4 0.34198,-0.20168 0.25838,-0.44906 l -0.75706,-2.24328 c -0.0811,-0.24065 -0.32725,-0.43518 -0.54984,-0.4346 z m -12.42043,0.0258 -8.73176,0.0181 c -0.22376,5.3e-4 -0.363,0.19593 -0.3111,0.43718 l 0.48266,2.25051 c 0.0531,0.24802 0.28083,0.4495 0.5085,0.44907 l 8.88369,-0.0222 c 0.22733,-5.3e-4 0.35796,-0.20226 0.29146,-0.4501 l -0.60255,-2.24741 c -0.0645,-0.24109 -0.29757,-0.4357 -0.5209,-0.43512 z m -10.35957,0.0212 -8.96638,0.0186 c -0.22435,5.3e-4 -0.37556,0.19661 -0.33796,0.43822 l 0.34985,2.25413 c 0.0384,0.2484 0.25485,0.45001 0.48317,0.44958 l 9.12296,-0.0227 c 0.22767,-7.9e-4 0.36949,-0.20308 0.31729,-0.45113 l -0.47232,-2.25051 c -0.0505,-0.24127 -0.27276,-0.43648 -0.49661,-0.43615 z m -10.59884,0.0222 -9.06094,0.0186 c -0.22519,2.6e-4 -0.38907,0.19656 -0.36587,0.43873 l 0.21497,2.25774 c 0.0236,0.24899 0.22873,0.4508 0.45786,0.4501 l 9.2201,-0.0227 c 0.22836,-8e-4 0.38322,-0.20322 0.34572,-0.45166 l -0.33952,-2.25464 c -0.0363,-0.24165 -0.24784,-0.43648 -0.47232,-0.43615 z m -10.69909,0.0217 -9.15965,0.0191 c -0.22566,5.2e-4 -0.40174,0.19738 -0.39273,0.43976 l 0.0785,2.26085 c 0.009,0.24922 0.20185,0.45157 0.4315,0.45113 l 9.32088,-0.0232 c 0.22923,-5.3e-4 0.39684,-0.20315 0.37414,-0.45217 l -0.20516,-2.25826 c -0.0219,-0.2422 -0.22226,-0.43778 -0.44752,-0.43719 z m -10.79934,0.0227 -9.115205,0.0186 c -0.226472,2.6e-4 -0.41516,0.19735 -0.421161,0.44028 l -0.05736,2.26498 c -0.0064,0.24979 0.17518,0.45234 0.405659,0.45165 l 9.276437,-0.0233 c 0.22972,-7.9e-4 0.41004,-0.20396 0.40204,-0.4532 l -0.0687,-2.26136 c -0.007,-0.24241 -0.19592,-0.43804 -0.42168,-0.4377 z m -10.76058,0.0222 -8.997902,0.0186 c -0.22711,2.6e-4 -0.42804,0.19749 -0.448551,0.4408 l -0.192235,2.26808 c -0.02135,0.25019 0.148666,0.45338 0.37982,0.45268 l 9.157065,-0.0232 c 0.230563,-5.3e-4 0.423682,-0.2039 0.430982,-0.45372 l 0.0677,-2.26498 c 0.0074,-0.24296 -0.170309,-0.43881 -0.396875,-0.43822 z m -10.649997,0.0217 -9.666076,0.0202 c -0.227788,2.7e-4 -0.441521,0.19761 -0.477491,0.44132 l -0.336412,2.27221 c -0.03724,0.25061 0.120562,0.4539 0.352433,0.4532 l 9.837642,-0.0243 c 0.231074,-7.9e-4 0.43612,-0.20471 0.458369,-0.45475 l 0.203089,-2.26859 c 0.02188,-0.24316 -0.144526,-0.43959 -0.371554,-0.43925 z m -11.320238,0.0238 -9.411313,0.0191 c -0.228336,5.3e-4 -0.454306,0.19843 -0.505394,0.44235 l -0.478007,2.27583 c -0.0528,0.25083 0.0927,0.45416 0.325043,0.45372 l 9.578226,-0.0238 c 0.231923,-5.3e-4 0.451218,-0.20463 0.489376,-0.45527 l 0.347266,-2.27221 c 0.03736,-0.24374 -0.117287,-0.44036 -0.345197,-0.43977 z m -11.070642,0.0227 -9.077481,0.0186 c -0.229095,2.6e-4 -0.46794,0.19839 -0.533818,0.44287 l -0.615469,2.27944 c -0.068,0.25142 0.06595,0.45546 0.299207,0.45476 l 9.239231,-0.0233 c 0.232609,-5.3e-4 0.465071,-0.20473 0.51883,-0.45578 l 0.48886,-2.27635 c 0.05253,-0.24413 -0.09077,-0.44087 -0.31936,-0.44028 z m -10.743531,0.0222 -17.021183,0.0351 c -0.230142,5.3e-4 -0.490804,0.19894 -0.582393,0.4439 l -0.855763,2.28565 c -0.09445,0.25193 0.01852,0.45623 0.252699,0.45578 l 17.326075,-0.0429 c 0.233273,-5.3e-4 0.47883,-0.20537 0.54777,-0.45682 l 0.626319,-2.27945 c 0.06728,-0.24451 -0.06428,-0.44191 -0.293524,-0.44131 z m 129.349208,3.92844 -10.46448,0.0274 c -0.22738,5.3e-4 -0.33488,0.20497 -0.23977,0.45682 l 1.22679,3.25303 c 0.0987,0.26144 0.36716,0.47319 0.59945,0.47232 l 10.70167,-0.0341 c 0.23177,-5.3e-4 0.32635,-0.21341 0.21188,-0.47439 l -1.42524,-3.24735 c -0.11023,-0.25143 -0.38367,-0.45445 -0.6103,-0.45372 z m -12.26695,0.032 -8.94467,0.0238 c -0.22806,5.3e-4 -0.34809,0.20508 -0.26769,0.45734 l 1.03715,3.2582 c 0.0834,0.26188 0.3401,0.47423 0.57309,0.47335 l 9.14776,-0.0295 c 0.23218,-8e-4 0.34143,-0.21363 0.24443,-0.47491 l -1.20923,-3.25355 c -0.0935,-0.25171 -0.35352,-0.45521 -0.58084,-0.45475 z m -10.75283,0.0284 -9.7591,0.0258 c -0.2285,7.9e-4 -0.36164,0.20534 -0.29714,0.45785 l 0.83251,3.2644 c 0.0669,0.26214 0.31052,0.47447 0.54415,0.47388 l 9.98131,-0.032 c 0.2332,-5.3e-4 0.35578,-0.21403 0.27388,-0.47594 l -1.01957,-3.25872 c -0.0788,-0.25229 -0.32799,-0.45599 -0.55604,-0.45527 z m -11.57242,0.0305 -7.94112,0.0212 v -5.2e-4 c -0.22912,7.9e-4 -0.37356,0.20602 -0.32246,0.45889 l 0.65887,3.26905 c 0.053,0.26254 0.28562,0.47552 0.51987,0.47491 l 8.12302,-0.0264 c 0.23388,-5.3e-4 0.37029,-0.21409 0.30489,-0.47646 l -0.81494,-3.26491 c -0.0629,-0.25273 -0.29936,-0.45652 -0.52813,-0.45579 z m -9.7591,0.0258 -8.2274,0.0217 c -0.22994,5.3e-4 -0.38612,0.20597 -0.34882,0.45941 l 0.48008,3.2737 c 0.0387,0.26314 0.26054,0.4763 0.49557,0.47542 l 8.41551,-0.0269 c 0.23456,-5.3e-4 0.38275,-0.21472 0.33125,-0.47749 l -0.64131,-3.26957 c -0.0495,-0.2531 -0.27551,-0.45702 -0.50488,-0.4563 z m -10.05003,0.0264 -49.212498,0.12971 c -0.233053,5.3e-4 -0.448987,0.20715 -0.482658,0.46251 l -0.436666,3.29954 c -0.03502,0.26521 0.129583,0.47994 0.367935,0.47904 l 50.348347,-0.16072 c 0.23516,-5.3e-4 0.39574,-0.21534 0.35864,-0.47852 l -0.46199,-3.27422 c -0.0357,-0.25348 -0.25111,-0.45805 -0.48111,-0.45734 z m -51.060448,0.13436 -8.658902,0.0227 c -0.233575,7.9e-4 -0.462204,0.20796 -0.510564,0.46354 l -0.626835,3.3047 c -0.05028,0.26545 0.102251,0.48018 0.341066,0.47956 l 8.860957,-0.0279 c 0.238421,-5.3e-4 0.46152,-0.21689 0.49816,-0.48214 l 0.454753,-3.29955 c 0.03533,-0.25539 -0.125447,-0.46169 -0.358635,-0.46095 z m -10.511502,0.0274 -8.149373,0.0217 c -0.234312,5.3e-4 -0.474985,0.20845 -0.537435,0.46457 l -0.808736,3.30937 c -0.06492,0.26603 0.07708,0.48148 0.316776,0.48058 l 8.339026,-0.0269 c 0.238974,-7.9e-4 0.475189,-0.21717 0.5271,-0.48265 l 0.644922,-3.30523 c 0.05003,-0.25561 -0.09866,-0.46194 -0.33228,-0.46147 z m -10.007142,0.0269 -8.55245,0.0222 c -0.23495,5.3e-4 -0.488219,0.20855 -0.56534,0.46509 l -0.997871,3.31453 c -0.08016,0.26646 0.04952,0.48252 0.289904,0.48162 l 8.752438,-0.0284 c 0.239739,-5.3e-4 0.488444,-0.2171 0.555006,-0.48317 l 0.826823,-3.30988 c 0.06413,-0.25618 -0.07404,-0.46273 -0.30851,-0.46199 z m -10.415902,0.0269 -11.567253,0.0305 c -0.235701,8e-4 -0.504438,0.20927 -0.600479,0.46612 l -1.243852,3.32125 c -0.09981,0.26681 0.01482,0.48276 0.2558,0.48214 l 11.839069,-0.0377 c 0.240319,-8e-4 0.501161,-0.21792 0.582912,-0.48421 l 1.016992,-3.31504 c 0.07875,-0.25639 -0.04831,-0.46351 -0.283189,-0.46303 z m 89.490144,8.11062 c 0.68017,-0.003 1.34504,0.57888 1.47226,1.29139 l 3.1688,17.74621 c 0.15294,0.85656 -0.34139,1.5701 -1.09451,1.57509 l -58.052266,0.37828 c -0.765025,0.005 -1.318472,-0.70795 -1.22473,-1.57303 l 1.940449,-17.91002 c 0.07786,-0.71858 0.711081,-1.30855 1.400947,-1.31155 z m 0.14676,0.85318 -52.623659,0.2036 c -0.245901,0.001 -0.451933,0.19245 -0.478523,0.44804 l -1.862937,17.90743 c -0.03185,0.30613 0.148971,0.5353 0.419098,0.5333 l 57.767531,-0.36793 c 0.26597,-0.002 0.42538,-0.23112 0.37259,-0.53434 l -3.09284,-17.74879 c -0.0442,-0.25349 -0.25881,-0.44225 -0.50126,-0.44131 z m 68.96995,21.22506 c -0.12782,0.40302 -0.45984,1.1317 -1.28364,1.53272 -0.73981,0.36013 -1.53568,0.40101 -2.43655,0.40101 H 13.15804 c -0.625218,0 -1.725307,0.0284 -2.106848,-0.13384 -0.551501,-0.23452 -1.3697644,-0.71238 -1.7146242,-1.20251 -0.024283,-0.0345 -0.048151,-0.074 -0.072347,-0.11214 -0.1675665,0.89094 1.1126812,1.71914 1.9125452,2.25051 1.998101,1.32737 4.550111,1.87068 6.948929,1.87068 H 191.58332 c 2.70516,0 5.68897,-0.65448 7.75095,-2.40553 0.63328,-0.53779 1.39596,-1.39513 1.41645,-2.2009 z" />
  </g>
</svg>
