<?xml version="1.0" encoding="UTF-8" standalone="no"?>
<svg
   xmlns:dc="http://purl.org/dc/elements/1.1/"
   xmlns:cc="http://creativecommons.org/ns#"
   xmlns:rdf="http://www.w3.org/1999/02/22-rdf-syntax-ns#"
   xmlns:svg="http://www.w3.org/2000/svg"
   xmlns="http://www.w3.org/2000/svg"
   xmlns:sodipodi="http://sodipodi.sourceforge.net/DTD/sodipodi-0.dtd"
   xmlns:inkscape="http://www.inkscape.org/namespaces/inkscape"
   width="210mm"
   height="210mm"
   viewBox="0 0 210 210"
   version="1.1"
   id="svg8"
   inkscape:version="1.0 (4035a4fb49, 2020-05-01)"
   sodipodi:docname="in_vitro_biochemical.svg"
   inkscape:export-filename="invitro_biochem.png"
   inkscape:export-xdpi="12.1"
   inkscape:export-ydpi="12.1">
  <defs
     id="defs2">
    <marker
       inkscape:stockid="DotS"
       orient="auto"
       refY="0.0"
       refX="0.0"
       id="marker5556"
       style="overflow:visible"
       inkscape:isstock="true">
      <path
         id="path5554"
         d="M -2.5,-1.0 C -2.5,1.7600000 -4.7400000,4.0 -7.5,4.0 C -10.260000,4.0 -12.5,1.7600000 -12.5,-1.0 C -12.5,-3.7600000 -10.260000,-6.0 -7.5,-6.0 C -4.7400000,-6.0 -2.5,-3.7600000 -2.5,-1.0 z "
         style="fill-rule:evenodd;stroke:#ffffff;stroke-width:1pt;stroke-opacity:1;fill:#ffffff;fill-opacity:1"
         transform="scale(0.2) translate(7.4, 1)" />
    </marker>
    <marker
       inkscape:stockid="DotS"
       orient="auto"
       refY="0.0"
       refX="0.0"
       id="marker5546"
       style="overflow:visible"
       inkscape:isstock="true">
      <path
         id="path5544"
         d="M -2.5,-1.0 C -2.5,1.7600000 -4.7400000,4.0 -7.5,4.0 C -10.260000,4.0 -12.5,1.7600000 -12.5,-1.0 C -12.5,-3.7600000 -10.260000,-6.0 -7.5,-6.0 C -4.7400000,-6.0 -2.5,-3.7600000 -2.5,-1.0 z "
         style="fill-rule:evenodd;stroke:#ffffff;stroke-width:1pt;stroke-opacity:1;fill:#ffffff;fill-opacity:1"
         transform="scale(0.2) translate(7.4, 1)" />
    </marker>
    <marker
       inkscape:isstock="true"
       style="overflow:visible"
       id="marker5536"
       refX="0.0"
       refY="0.0"
       orient="auto"
       inkscape:stockid="DotS">
      <path
         transform="scale(0.2) translate(7.4, 1)"
         style="fill-rule:evenodd;stroke:#ffffff;stroke-width:1pt;stroke-opacity:1;fill:#ffffff;fill-opacity:1"
         d="M -2.5,-1.0 C -2.5,1.7600000 -4.7400000,4.0 -7.5,4.0 C -10.260000,4.0 -12.5,1.7600000 -12.5,-1.0 C -12.5,-3.7600000 -10.260000,-6.0 -7.5,-6.0 C -4.7400000,-6.0 -2.5,-3.7600000 -2.5,-1.0 z "
         id="path5534" />
    </marker>
    <marker
       inkscape:stockid="DotS"
       orient="auto"
       refY="0.0"
       refX="0.0"
       id="marker5526"
       style="overflow:visible"
       inkscape:isstock="true">
      <path
         id="path5524"
         d="M -2.5,-1.0 C -2.5,1.7600000 -4.7400000,4.0 -7.5,4.0 C -10.260000,4.0 -12.5,1.7600000 -12.5,-1.0 C -12.5,-3.7600000 -10.260000,-6.0 -7.5,-6.0 C -4.7400000,-6.0 -2.5,-3.7600000 -2.5,-1.0 z "
         style="fill-rule:evenodd;stroke:#ffffff;stroke-width:1pt;stroke-opacity:1;fill:#ffffff;fill-opacity:1"
         transform="scale(0.2) translate(7.4, 1)" />
    </marker>
    <marker
       inkscape:stockid="DotS"
       orient="auto"
       refY="0.0"
       refX="0.0"
       id="marker5516"
       style="overflow:visible"
       inkscape:isstock="true">
      <path
         id="path5514"
         d="M -2.5,-1.0 C -2.5,1.7600000 -4.7400000,4.0 -7.5,4.0 C -10.260000,4.0 -12.5,1.7600000 -12.5,-1.0 C -12.5,-3.7600000 -10.260000,-6.0 -7.5,-6.0 C -4.7400000,-6.0 -2.5,-3.7600000 -2.5,-1.0 z "
         style="fill-rule:evenodd;stroke:#ffffff;stroke-width:1pt;stroke-opacity:1;fill:#ffffff;fill-opacity:1"
         transform="scale(0.2) translate(7.4, 1)" />
    </marker>
    <marker
       inkscape:isstock="true"
       style="overflow:visible"
       id="marker5506"
       refX="0.0"
       refY="0.0"
       orient="auto"
       inkscape:stockid="DotS">
      <path
         transform="scale(0.2) translate(7.4, 1)"
         style="fill-rule:evenodd;stroke:#ffffff;stroke-width:1pt;stroke-opacity:1;fill:#ffffff;fill-opacity:1"
         d="M -2.5,-1.0 C -2.5,1.7600000 -4.7400000,4.0 -7.5,4.0 C -10.260000,4.0 -12.5,1.7600000 -12.5,-1.0 C -12.5,-3.7600000 -10.260000,-6.0 -7.5,-6.0 C -4.7400000,-6.0 -2.5,-3.7600000 -2.5,-1.0 z "
         id="path5504" />
    </marker>
    <marker
       inkscape:isstock="true"
       style="overflow:visible"
       id="marker3926"
       refX="0.0"
       refY="0.0"
       orient="auto"
       inkscape:stockid="DotS">
      <path
         transform="scale(0.2) translate(7.4, 1)"
         style="fill-rule:evenodd;stroke:#ffffff;stroke-width:1pt;stroke-opacity:1;fill:#ffffff;fill-opacity:1"
         d="M -2.5,-1.0 C -2.5,1.7600000 -4.7400000,4.0 -7.5,4.0 C -10.260000,4.0 -12.5,1.7600000 -12.5,-1.0 C -12.5,-3.7600000 -10.260000,-6.0 -7.5,-6.0 C -4.7400000,-6.0 -2.5,-3.7600000 -2.5,-1.0 z "
         id="path3924" />
    </marker>
    <marker
       inkscape:isstock="true"
       style="overflow:visible"
       id="marker3916"
       refX="0.0"
       refY="0.0"
       orient="auto"
       inkscape:stockid="DotS">
      <path
         transform="scale(0.2) translate(7.4, 1)"
         style="fill-rule:evenodd;stroke:#ffffff;stroke-width:1pt;stroke-opacity:1;fill:#ffffff;fill-opacity:1"
         d="M -2.5,-1.0 C -2.5,1.7600000 -4.7400000,4.0 -7.5,4.0 C -10.260000,4.0 -12.5,1.7600000 -12.5,-1.0 C -12.5,-3.7600000 -10.260000,-6.0 -7.5,-6.0 C -4.7400000,-6.0 -2.5,-3.7600000 -2.5,-1.0 z "
         id="path3914" />
    </marker>
    <marker
       inkscape:isstock="true"
       style="overflow:visible"
       id="marker3576"
       refX="0.0"
       refY="0.0"
       orient="auto"
       inkscape:stockid="DotS">
      <path
         transform="scale(0.2) translate(7.4, 1)"
         style="fill-rule:evenodd;stroke:#ffffff;stroke-width:1pt;stroke-opacity:1;fill:#ffffff;fill-opacity:1"
         d="M -2.5,-1.0 C -2.5,1.7600000 -4.7400000,4.0 -7.5,4.0 C -10.260000,4.0 -12.5,1.7600000 -12.5,-1.0 C -12.5,-3.7600000 -10.260000,-6.0 -7.5,-6.0 C -4.7400000,-6.0 -2.5,-3.7600000 -2.5,-1.0 z "
         id="path3574" />
    </marker>
    <marker
       inkscape:isstock="true"
       style="overflow:visible"
       id="marker3566"
       refX="0.0"
       refY="0.0"
       orient="auto"
       inkscape:stockid="DotS">
      <path
         transform="scale(0.2) translate(7.4, 1)"
         style="fill-rule:evenodd;stroke:#ffffff;stroke-width:1pt;stroke-opacity:1;fill:#ffffff;fill-opacity:1"
         d="M -2.5,-1.0 C -2.5,1.7600000 -4.7400000,4.0 -7.5,4.0 C -10.260000,4.0 -12.5,1.7600000 -12.5,-1.0 C -12.5,-3.7600000 -10.260000,-6.0 -7.5,-6.0 C -4.7400000,-6.0 -2.5,-3.7600000 -2.5,-1.0 z "
         id="path3564" />
    </marker>
    <marker
       inkscape:isstock="true"
       style="overflow:visible"
       id="marker3284"
       refX="0.0"
       refY="0.0"
       orient="auto"
       inkscape:stockid="DotS">
      <path
         transform="scale(0.2) translate(7.4, 1)"
         style="fill-rule:evenodd;stroke:#ffffff;stroke-width:1pt;stroke-opacity:1;fill:#ffffff;fill-opacity:1"
         d="M -2.5,-1.0 C -2.5,1.7600000 -4.7400000,4.0 -7.5,4.0 C -10.260000,4.0 -12.5,1.7600000 -12.5,-1.0 C -12.5,-3.7600000 -10.260000,-6.0 -7.5,-6.0 C -4.7400000,-6.0 -2.5,-3.7600000 -2.5,-1.0 z "
         id="path3282" />
    </marker>
    <marker
       inkscape:isstock="true"
       style="overflow:visible"
       id="marker3274"
       refX="0.0"
       refY="0.0"
       orient="auto"
       inkscape:stockid="DotS">
      <path
         transform="scale(0.2) translate(7.4, 1)"
         style="fill-rule:evenodd;stroke:#ffffff;stroke-width:1pt;stroke-opacity:1;fill:#ffffff;fill-opacity:1"
         d="M -2.5,-1.0 C -2.5,1.7600000 -4.7400000,4.0 -7.5,4.0 C -10.260000,4.0 -12.5,1.7600000 -12.5,-1.0 C -12.5,-3.7600000 -10.260000,-6.0 -7.5,-6.0 C -4.7400000,-6.0 -2.5,-3.7600000 -2.5,-1.0 z "
         id="path3272" />
    </marker>
  </defs>
  <sodipodi:namedview
     inkscape:snap-global="false"
     id="base"
     pagecolor="#ffffff"
     bordercolor="#666666"
     borderopacity="1.0"
     inkscape:pageopacity="0.0"
     inkscape:pageshadow="2"
     inkscape:zoom="0.49497474"
     inkscape:cx="405.10265"
     inkscape:cy="217.91628"
     inkscape:document-units="mm"
     inkscape:current-layer="layer1"
     inkscape:document-rotation="0"
     showgrid="false"
     inkscape:window-width="1308"
     inkscape:window-height="1040"
     inkscape:window-x="596"
     inkscape:window-y="0"
     inkscape:window-maximized="0" />
  <metadata
     id="metadata5">
    <rdf:RDF>
      <cc:Work
         rdf:about="">
        <dc:format>image/svg+xml</dc:format>
        <dc:type
           rdf:resource="http://purl.org/dc/dcmitype/StillImage" />
        <dc:title></dc:title>
      </cc:Work>
    </rdf:RDF>
  </metadata>
  <g
     inkscape:label="Layer 1"
     inkscape:groupmode="layer"
     id="layer1">
    <path
       transform="scale(0.26458333)"
       d="M 377.19922 35.349609 C 365.29185 35.349609 355.51564 45.125834 355.51562 57.033203 C 355.51563 67.916667 363.71072 76.925294 374.20703 78.410156 L 374.20703 242.0918 C 374.20703 252.82572 373.08033 256.76236 371.54688 258.61328 C 370.01338 260.4642 365.89476 262.25585 357.54883 265.68164 A 6.1066669 6.1066669 0 0 0 357.53906 265.68555 C 326.78604 278.36893 299.59595 296.70719 277.09375 319.15625 L 277.09375 265.96875 C 286.11631 263.42614 292.91992 255.4469 292.91992 245.64648 C 292.91992 233.84722 283.2497 224.16601 271.44727 224.16602 L 113.15039 224.16602 C 101.34796 224.16602 91.667969 233.84405 91.667969 245.64648 C 91.667969 255.44953 98.477682 263.42681 107.50195 265.96875 L 107.50195 669.00586 C 107.50195 715.88546 145.4192 753.80078 192.29883 753.80078 C 239.17844 753.80078 277.09375 715.88546 277.09375 669.00586 L 277.09375 649.83789 C 322.10918 694.71538 385.24644 722.60937 455.08594 722.60938 C 591.52482 722.60938 702.491 616.06733 702.49023 484.50586 C 702.48937 387.49933 641.41061 300.90389 549.51562 264.42383 A 6.1066669 6.1066669 0 0 0 548.84961 264.20312 C 541.77844 262.30248 539.22464 260.86429 538.04102 259.12695 C 536.8574 257.38962 535.96289 253.16213 535.96289 244.30078 L 535.96289 78.410156 C 546.46013 76.926129 554.65625 67.91732 554.65625 57.033203 C 554.65625 45.125843 544.88003 35.349609 532.97266 35.349609 L 377.19922 35.349609 z M 377.19922 41.455078 L 532.97266 41.455078 C 541.6026 41.455078 548.55078 48.403272 548.55078 57.033203 C 548.55078 65.663134 541.6026 72.609375 532.97266 72.609375 L 443.08008 72.609375 C 438.85542 72.709033 438.23851 77.438489 443.08008 77.589844 L 529.85742 77.589844 L 529.85742 244.30078 C 529.85742 262.59438 532.42305 266.11055 547.26367 270.09961 C 636.94408 305.70054 696.38393 390.06125 696.38477 484.50586 C 696.38552 612.63506 588.35208 716.50391 455.08594 716.50391 C 383.78345 716.50392 319.71482 686.76145 275.54102 639.48633 L 275.54102 620.14062 C 317.2386 670.74788 382.3286 703.25588 455.08594 703.25586 C 581.46831 703.2559 683.13556 605.18825 683.13477 484.50586 C 683.13439 441.48981 670.04394 400.6733 646.91406 366.18164 C 614.94292 361.096 582.97116 359.43945 551 359.59375 C 459.35891 360.03603 367.18415 375.35009 275.54102 367.4375 L 275.54102 329.51367 C 298.54715 304.86661 327.13751 284.82869 359.86719 271.33008 C 376.29243 264.58793 380.3125 264.29662 380.3125 242.0918 L 380.3125 77.589844 L 403.64062 77.589844 C 406.91303 77.456593 407.12109 72.636845 403.64062 72.609375 L 377.19922 72.609375 C 368.56929 72.609375 361.62109 65.663134 361.62109 57.033203 C 361.62109 48.403272 368.56929 41.455078 377.19922 41.455078 z M 113.14648 229.81641 L 271.44531 229.81641 C 280.21508 229.81641 287.27539 236.87671 287.27539 245.64648 C 287.27539 254.41625 280.21508 261.47656 271.44531 261.47656 L 163.14648 261.47656 C 159.52673 261.44708 159.78712 265.70331 163.14648 265.67383 L 271.44531 265.67383 L 271.44531 669.00391 C 271.44531 712.85274 236.14571 748.1543 192.29688 748.1543 C 148.44801 748.1543 113.14648 712.85274 113.14648 669.00391 L 113.14648 265.67383 L 132.98828 265.67383 C 136.19009 265.7938 135.99989 261.57714 132.98828 261.47656 L 113.14648 261.47656 C 104.37672 261.47656 97.316406 254.41625 97.316406 245.64648 C 97.316406 236.87671 104.37672 229.81641 113.14648 229.81641 z M 156.5293 307.07812 C 146.5898 307.19238 136.21331 308.694 125.11328 312.60156 L 125.11328 667.63086 C 125.11328 704.85017 155.07754 734.8125 192.29688 734.8125 C 229.51618 734.8125 259.47852 704.85017 259.47852 667.63086 L 259.47852 312.60156 C 221.96259 323.96345 192.02751 306.67008 156.5293 307.07812 z M 219.17578 384.25 A 3.6171213 3.6171213 0 0 1 219.48633 384.25781 A 3.6171213 3.6171213 0 0 1 222.85156 388.10352 C 222.5276 392.95478 221.60474 397.46057 220.2168 401.69141 C 221.30882 402.94924 222.03628 404.54357 222.19531 406.32227 C 222.59741 410.81953 219.25116 414.81469 214.75391 415.2168 C 214.41595 415.24701 214.08293 415.24921 213.75195 415.23828 C 210.24256 420.78621 205.95132 425.83858 201.30664 430.61133 C 201.47099 431.14632 201.58498 431.70455 201.63672 432.2832 C 202.03881 436.78046 198.69256 440.77563 194.19531 441.17773 C 192.96979 441.28731 191.78574 441.11051 190.69727 440.7168 C 187.93506 443.20528 185.15702 445.65666 182.42773 448.0957 C 180.23678 450.05367 178.07736 452.01128 175.97266 453.98438 C 174.51259 451.96732 172.52062 450.38932 170.21875 449.46094 C 172.64765 447.16742 175.12233 444.92003 177.60742 442.69922 C 179.54549 440.96725 181.4725 439.25608 183.38672 437.54492 L 152.625 440.29492 C 152.43513 440.78374 152.19851 441.24901 151.92188 441.68945 C 153.67344 444.09546 155.62634 446.35776 157.75195 448.51562 C 159.04032 449.82356 160.39808 451.08818 161.80664 452.32031 A 8.1829055 8.2470123 84.890796 0 1 164.77344 451.48047 A 8.1829055 8.2470123 84.890796 0 1 173.7168 458.89648 A 8.1829055 8.2470123 84.890796 0 1 173.58789 461.22852 C 178.12553 464.28907 182.8943 467.22879 187.72852 470.18164 C 189.6842 471.37622 191.64371 472.591 193.60156 473.80469 C 194.61536 473.20647 195.7686 472.81072 197.01562 472.69922 C 201.51289 472.29708 205.50806 475.6434 205.91016 480.14062 C 205.96317 480.73359 205.94807 481.31632 205.87695 481.88477 C 210.57533 485.24417 215.06231 488.85468 219.08789 492.94141 C 219.67715 493.53961 220.25566 494.1478 220.82422 494.76758 C 221.16078 494.69347 221.50347 494.63304 221.85547 494.60156 C 226.35273 494.19942 230.3479 497.54575 230.75 502.04297 C 230.91066 503.8399 230.46665 505.55067 229.59766 506.99023 C 231.45682 510.4292 233.00127 514.13584 234.15039 518.15039 C 237.36 519.03228 239.85705 521.82492 240.16992 525.32422 C 240.45037 528.46088 238.90492 531.34957 236.41992 532.94922 C 236.54361 536.81929 236.30154 540.50696 235.73633 544.02148 C 237.35179 545.36817 238.45489 547.32991 238.65625 549.58203 C 239.05426 554.03363 235.77779 557.98713 231.34961 558.45703 C 230.17333 561.03631 228.8302 563.51111 227.33984 565.88086 C 226.35895 567.44052 225.31393 568.95524 224.22461 570.4375 C 222.80842 568.41776 220.8678 566.82067 218.61328 565.85352 C 219.52948 564.59745 220.40468 563.32485 221.2207 562.02734 C 222.45879 560.05875 223.57148 558.0394 224.55664 555.95898 C 224.15378 555.53715 223.79918 555.07027 223.49219 554.56836 L 191.91406 557.39062 C 193.19115 558.17717 194.45041 558.96725 195.73828 559.75391 C 200.46356 562.64022 205.22729 565.55815 209.84961 568.6582 A 8.1829055 8.2470124 84.890796 0 1 212.91797 567.76758 A 8.1829055 8.2470124 84.890796 0 1 221.85938 575.18359 A 8.1829055 8.2470124 84.890796 0 1 221.72852 577.53125 C 223.58717 579.11868 225.38208 580.77207 227.0957 582.51172 C 229.40026 584.85127 231.55071 587.35601 233.50195 590.04297 C 233.58925 590.03234 233.67351 590.01375 233.76172 590.00586 C 238.25898 589.60372 242.25611 592.94216 242.6582 597.43945 C 242.86062 599.70334 242.11206 601.83987 240.74805 603.45703 C 241.98788 606.75957 242.94651 610.28571 243.58398 614.05469 C 246.45504 615.12505 248.61999 617.76436 248.91016 621.00977 C 249.22189 624.49643 247.28063 627.67237 244.29883 629.11523 C 244.05018 632.30221 243.54536 635.3569 242.8125 638.2832 A 3.6171213 3.6171213 0 0 1 238.42773 640.91016 A 3.6171213 3.6171213 0 0 1 235.79297 636.52539 C 236.39166 634.13484 236.80876 631.64226 237.03711 629.03516 C 235.68681 628.34539 234.54481 627.29285 233.75 625.99219 L 173.0957 631.41406 C 172.02575 634.17444 169.50149 636.25451 166.38672 636.60938 C 165.42417 639.51141 164.71387 642.54214 164.32031 645.73828 A 3.6171213 3.6171213 0 0 1 160.29102 648.88281 A 3.6171213 3.6171213 0 0 1 157.14648 644.85156 C 157.61059 641.08248 158.44334 637.53057 159.56641 634.1543 C 158.30757 632.85209 157.4661 631.13175 157.29297 629.19531 C 156.89088 624.69805 160.22931 620.70289 164.72656 620.30078 C 165.25468 620.25356 165.77587 620.26251 166.28516 620.31445 C 169.72977 614.97036 173.8805 610.08053 178.37891 605.46289 C 178.10708 604.76305 177.92161 604.01587 177.85156 603.23242 C 177.44947 598.73516 180.7879 594.73999 185.28516 594.33789 C 186.73673 594.20809 188.13384 594.4733 189.37695 595.03711 C 192.37185 592.34774 195.38566 589.70121 198.33008 587.05859 C 199.49885 586.00962 200.65565 584.96105 201.80078 583.9082 C 202.91966 586.11014 204.63873 587.94075 206.7207 589.2207 C 205.54077 590.30399 204.35421 591.38106 203.16406 592.44922 C 201.12772 594.27684 199.09243 596.0825 197.07422 597.88477 L 226.85742 595.22266 C 227.02417 594.79346 227.22486 594.38073 227.45898 593.98828 C 225.78873 591.74133 223.9428 589.6216 221.94336 587.5918 C 220.47029 586.09635 218.90973 584.65547 217.28125 583.25781 A 8.1829055 8.2470124 84.890796 0 1 214.375 584.06836 A 8.1829055 8.2470124 84.890796 0 1 205.43164 576.65234 A 8.1829055 8.2470124 84.890796 0 1 205.52734 574.48828 C 201.16299 571.56815 196.59534 568.75299 191.9668 565.92578 C 189.68521 564.53213 187.39465 563.12168 185.11328 561.69922 C 184.05365 562.36395 182.83257 562.80131 181.50586 562.91992 C 177.0086 563.32206 173.01343 559.98359 172.61133 555.48633 C 172.5481 554.77917 172.58721 554.0883 172.69922 553.41797 C 168.40877 550.2857 164.31287 546.92773 160.60742 543.16602 C 159.84026 542.3872 159.09679 541.58512 158.36523 540.76953 C 157.97797 540.86292 157.58396 540.93812 157.17578 540.97461 C 152.67852 541.37675 148.68139 538.03828 148.2793 533.54102 C 148.10573 531.59977 148.63185 529.75374 149.64453 528.24805 C 147.91838 524.91529 146.48234 521.33802 145.41406 517.47461 C 142.07744 516.68071 139.45633 513.8328 139.13477 510.23633 C 138.84018 506.9415 140.55607 503.91766 143.26172 502.375 C 143.18876 498.58219 143.46401 494.96403 144.05469 491.51562 C 142.424 490.16835 141.30799 488.20065 141.10547 485.93555 C 140.70338 481.43832 144.04181 477.43531 148.53906 477.0332 C 148.5719 477.03027 148.60394 477.03183 148.63672 477.0293 C 149.84549 474.45546 151.21779 471.98546 152.73828 469.62109 C 153.09551 469.0656 153.4624 468.51794 153.83398 467.97266 C 155.04046 470.17861 156.85874 471.99324 159.03516 473.21484 C 158.9656 473.32159 158.8911 473.42616 158.82227 473.5332 C 157.53215 475.53935 156.37129 477.59746 155.34375 479.71875 C 155.68619 480.09735 155.99136 480.5082 156.25977 480.94727 L 186.94922 478.20312 C 185.94758 477.58805 184.96478 476.96907 183.95703 476.35352 C 178.98959 473.31928 173.97921 470.25103 169.13672 466.9707 A 8.1829055 8.2470123 84.890796 0 1 166.23242 467.78125 A 8.1829055 8.2470123 84.890796 0 1 157.28906 460.36523 A 8.1829055 8.2470123 84.890796 0 1 157.40625 458.08789 C 155.74793 456.64883 154.13747 455.15891 152.59766 453.5957 C 150.13407 451.0947 147.85397 448.39985 145.79883 445.5 C 145.77172 445.50269 145.74595 445.50929 145.71875 445.51172 C 141.22149 445.91386 137.22632 442.57542 136.82422 438.07812 C 136.6215 435.8108 137.37029 433.67282 138.73828 432.05664 C 137.54626 428.76639 136.63015 425.25816 136.03125 421.50977 C 133.09382 420.47256 130.86497 417.80337 130.57031 414.50781 C 130.2484 410.90729 132.33223 407.63262 135.48242 406.26172 C 135.88754 401.80232 136.77843 397.59638 138.10742 393.64648 A 3.6171213 3.6171213 0 0 1 141.4668 391.1875 A 3.6171213 3.6171213 0 0 1 142.69141 391.37305 A 3.6171213 3.6171213 0 0 1 144.96484 395.95703 C 143.83932 399.30221 143.07117 402.83636 142.70508 406.61133 C 143.94485 407.30057 144.9893 408.30712 145.73438 409.52539 L 206.38867 404.10352 C 207.48498 401.28515 210.09495 399.16735 213.29883 398.88086 C 213.37089 398.87442 213.44188 398.87758 213.51367 398.87305 C 214.62889 395.33881 215.36668 391.60839 215.63281 387.62305 A 3.6171213 3.6171213 0 0 1 219.17578 384.25 z M 377.81445 399.31836 C 379.08057 399.31636 380.34144 399.48103 381.56445 399.80859 C 389.24634 401.86718 393.80485 409.76347 391.74609 417.44531 C 390.09586 423.60112 384.59547 427.93994 378.22461 428.11133 L 376.23633 435.52734 C 382.05632 439.20487 384.80735 446.24075 383.02539 452.89062 C 382.47809 454.93389 381.52416 456.84574 380.2207 458.51172 L 391.0625 473.77344 C 394.46464 472.12082 398.34847 471.74984 402.00195 472.72852 C 405.95275 473.78792 409.33525 476.34512 411.43164 479.85742 L 429.68359 474.75 C 429.72739 473.69466 429.88724 472.64734 430.16016 471.62695 C 432.21788 463.94427 440.11445 459.38473 447.79688 461.44336 C 455.47875 463.50195 460.03728 471.39824 457.97852 479.08008 L 457.97656 479.08789 L 472.71289 494.1543 C 475.96436 492.48586 479.71992 492.08559 483.25 493.03125 C 487.94186 494.28885 491.71218 497.77857 493.32812 502.35938 L 509.30273 498.1582 C 508.92743 496.03656 509.02211 493.85842 509.58008 491.77734 C 511.24905 485.55207 516.77114 481.13456 523.21094 480.87305 L 528.55078 460.94727 C 522.7494 457.26446 520.01127 450.24118 521.78906 443.60352 C 524.03671 435.21532 532.65855 430.23721 541.04688 432.48438 C 549.43506 434.73201 554.41318 443.35386 552.16602 451.74219 C 550.38145 458.40408 544.4641 463.12561 537.57227 463.38672 L 532.18945 483.47656 C 537.30756 487.01748 539.64819 493.39284 538.03711 499.4043 C 537.50499 501.39061 536.56291 503.24351 535.27148 504.84375 L 548.36719 518.22656 C 552.08779 514.42772 557.5669 512.92881 562.70312 514.30469 C 566.07822 515.20976 569.02168 517.28514 571.00781 520.16016 L 585.28711 516.33203 C 585.34631 515.88797 585.4344 515.44823 585.55078 515.01562 C 587.02565 509.51353 592.68129 506.24849 598.18359 507.72266 C 603.68571 509.19752 606.95073 514.85317 605.47656 520.35547 C 604.00256 525.85837 598.34664 529.12443 592.84375 527.65039 C 591.18359 527.20552 589.66091 526.35287 588.41406 525.16992 L 573.60938 529.14062 C 573.56518 530.22435 573.40142 531.29988 573.12109 532.34766 C 571.01525 540.20661 562.9369 544.87015 555.07812 542.76367 C 554.80568 542.69007 554.53537 542.60866 554.26758 542.51953 L 549.81836 558.61719 C 557.33052 560.99519 561.64125 568.86363 559.60156 576.47461 C 559.19994 577.97181 558.56451 579.39624 557.71875 580.69531 L 576.91016 600.0918 C 580.42873 598.21499 584.52894 597.74514 588.38086 598.77734 C 596.76906 601.02499 601.74717 609.64683 599.5 618.03516 C 597.25235 626.42336 588.63052 631.40146 580.24219 629.1543 C 571.85399 626.90665 566.87588 618.28481 569.12305 609.89648 C 569.41523 608.80355 569.8245 607.74534 570.34375 606.74023 L 550.3457 586.52734 C 547.52258 587.53993 544.45763 587.66667 541.56055 586.89062 C 537.08803 585.69234 533.43918 582.46088 531.70898 578.16602 L 514.44141 582.70312 C 514.74507 584.71006 514.6307 586.7581 514.10547 588.71875 C 512.49382 594.72965 507.27873 599.07934 501.07617 599.58594 L 500.20703 602.83008 C 502.92995 605.43422 504.0164 609.31579 503.04102 612.95508 C 501.56618 618.45817 495.90919 621.72347 490.40625 620.24805 C 484.90413 618.77319 481.6391 613.11753 483.11328 607.61523 C 484.14769 603.75511 487.31867 600.83981 491.25195 600.13281 L 491.99805 597.34961 C 486.5533 593.90254 483.9811 587.31655 485.64844 581.0918 C 486.17615 579.12333 487.10657 577.28576 488.38086 575.69531 L 476.17578 563.2168 C 472.54889 565.97266 467.8511 566.89563 463.45117 565.7168 C 460.52657 564.93288 457.91456 563.26679 455.9707 560.94531 L 443.07617 564.4707 C 443.02617 564.74718 442.96495 565.02149 442.89258 565.29297 C 441.41858 570.79587 435.76266 574.06193 430.25977 572.58789 C 424.75588 571.11392 421.48955 565.45665 422.96484 559.95312 C 424.43968 554.45005 430.09668 551.18474 435.59961 552.66016 C 437.4316 553.15124 439.09273 554.13791 440.40039 555.51172 L 452.54883 552.18945 C 452.47653 550.66815 452.64063 549.14485 453.03516 547.67383 C 455.03195 540.22428 462.43671 535.57599 470.01367 537.01562 L 474.41211 521.10742 C 467.22833 518.49977 463.23173 510.83143 465.20898 503.44922 C 465.44945 502.55073 465.77447 501.67704 466.17969 500.83984 L 452.59961 486.95312 C 449.07675 489.54359 444.56765 490.39296 440.34375 489.26172 C 437.11315 488.39603 434.28464 486.43279 432.34375 483.70898 L 413.62305 488.94922 C 413.55555 489.97623 413.38746 490.99413 413.12109 491.98828 C 411.33873 498.63729 405.43882 503.35406 398.56055 503.62891 L 396.05664 512.97266 C 398.94481 515.56738 400.13137 519.56408 399.12695 523.31445 C 397.65211 528.81754 391.99512 532.08284 386.49219 530.60742 C 380.99007 529.13256 377.72505 523.47691 379.19922 517.97461 C 380.20402 514.22466 383.22921 511.35645 387.02734 510.55273 L 389.53125 501.21094 C 383.71126 497.53341 380.96023 490.49755 382.74219 483.84766 C 383.07835 482.59413 383.5684 481.38703 384.20117 480.25391 L 372.53125 463.82617 C 369.68629 464.71616 366.64697 464.77915 363.76758 464.00781 C 358.96749 462.72211 355.0576 459.24311 353.22266 454.625 L 335.44336 456.94531 C 333.79563 462.80612 328.64017 466.99743 322.56641 467.41406 L 321.08203 472.95508 C 324.29232 475.51128 325.68205 479.72727 324.62109 483.69141 C 323.14712 489.19529 317.48986 492.46162 311.98633 490.98633 C 306.48421 489.51147 303.21919 483.85582 304.69336 478.35352 C 305.63962 474.82121 308.38535 472.05392 311.91016 471.08008 L 313.54102 464.99219 C 308.43837 461.55783 306.08043 455.26162 307.67188 449.32031 C 309.73045 441.63843 317.62675 437.07992 325.30859 439.13867 C 329.65027 440.30244 333.19946 443.42685 334.9043 447.58594 L 352.51562 445.28711 C 352.55672 445.10731 352.60102 444.92824 352.64844 444.75 C 354.43008 438.10022 360.33016 433.38252 367.20898 433.10742 L 369.29883 425.3125 C 364.52523 421.79755 362.39351 415.71633 363.92773 409.99023 C 365.61279 403.70332 371.30564 399.32839 377.81445 399.31836 z M 207.03125 411.30859 L 146.37891 416.72852 C 145.75587 418.3315 144.64582 419.70634 143.20898 420.64648 C 143.70052 423.68103 144.41714 426.51083 145.33984 429.16602 C 148.11364 429.28507 150.58141 430.80735 151.97852 433.08984 L 185.82812 430.06445 C 186.92237 427.24629 189.53064 425.12825 192.73438 424.8418 C 193.98961 424.72955 195.20178 424.91871 196.3125 425.33398 C 200.48508 421.02699 204.26362 416.57414 207.34766 411.78906 C 207.23636 411.633 207.1317 411.47273 207.03125 411.30859 z M 367.67188 437.83789 C 362.76236 437.91169 358.49839 441.23549 357.22852 445.97852 C 355.65942 451.83678 359.13606 457.85794 364.99414 459.42773 C 370.85304 460.99808 376.87555 457.52117 378.44531 451.66211 C 380.01441 445.80384 376.53777 439.78268 370.67969 438.21289 C 369.79015 437.97405 368.87411 437.84806 367.95312 437.83789 C 367.86004 437.83689 367.76692 437.83689 367.67383 437.83789 L 367.67188 437.83789 z M 314.5293 475.18164 C 311.93312 475.23804 309.68584 477.00147 309.01367 479.50977 C 308.17877 482.62608 310.02822 485.82917 313.14453 486.66406 C 316.26025 487.4991 319.46307 485.65068 320.29883 482.53516 C 321.13499 479.41822 319.28526 476.21377 316.16797 475.37891 C 315.63384 475.23593 315.08211 475.16951 314.5293 475.18164 z M 397.76758 476.93555 C 392.85861 477.00915 388.59483 480.33197 387.32422 485.07422 C 385.75387 490.93312 389.23078 496.95563 395.08984 498.52539 C 400.94811 500.09449 406.96927 496.61785 408.53906 490.75977 C 410.10816 484.9015 406.63152 478.88034 400.77344 477.31055 C 399.88391 477.07171 398.96784 476.94572 398.04688 476.93555 C 397.95378 476.93455 397.86068 476.93455 397.76758 476.93555 z M 523.64453 484.60938 C 518.73556 484.68296 514.47178 488.0058 513.20117 492.74805 C 511.63082 498.60695 515.10774 504.62947 520.9668 506.19922 C 526.82507 507.76832 532.84624 504.29168 534.41602 498.43359 C 535.9865 492.57528 532.51061 486.55304 526.65234 484.98242 C 525.6718 484.71966 524.65956 484.59411 523.64453 484.60938 z M 190.75586 485.125 L 156.90625 488.14844 C 155.93851 490.64254 153.78238 492.57955 151.07617 493.19141 C 150.63589 495.96767 150.42698 498.8783 150.47852 501.95117 C 152.05919 502.62238 153.39393 503.78143 154.29102 505.25 L 214.95117 499.82227 C 215.01825 499.64961 215.08969 499.47961 215.16797 499.3125 C 214.76211 498.87856 214.35293 498.44523 213.93359 498.01953 C 210.3541 494.38567 206.25818 491.08161 201.87695 487.9375 C 200.86639 488.53118 199.71806 488.92416 198.47656 489.03516 C 195.2738 489.32154 192.3331 487.70248 190.75586 485.125 z M 479.27344 496.2793 C 474.36447 496.3529 470.10069 499.67572 468.83008 504.41797 C 467.25973 510.27687 470.73664 516.29938 476.5957 517.86914 C 482.45397 519.43824 488.47513 515.9616 490.04492 510.10352 C 491.61528 504.24462 488.13836 498.2221 482.2793 496.65234 C 481.29939 496.38976 480.28781 496.26422 479.27344 496.2793 z M 514.00586 506.58594 L 493.38086 512.00977 C 491.89417 516.37687 488.44752 519.79532 484.06836 521.24609 L 478.38281 541.82422 C 481.59152 545.51658 482.75802 550.56092 481.49609 555.28711 L 496.44922 570.57812 C 498.83317 570.0078 501.32175 570.04131 503.68945 570.67578 C 506.0535 571.3097 508.22234 572.52266 510 574.20508 L 531.20508 568.62891 C 532.4678 564.19226 535.73585 560.60326 540.03516 558.93164 L 546.31445 536.20117 C 544.69539 533.54563 543.95837 530.44577 544.20898 527.3457 L 527.17578 509.93164 C 524.81 510.48731 522.3435 510.44906 519.99609 509.82031 C 517.7742 509.22468 515.72268 508.11698 514.00586 506.58594 z M 215.59375 507.02734 L 154.93555 512.45117 C 154.41454 513.7934 153.55454 514.97811 152.44336 515.87891 C 153.32067 519.02134 154.47484 521.9236 155.85938 524.64062 C 159.00587 524.41571 161.8865 526.01588 163.44141 528.55273 L 224.36328 523.10742 C 224.91364 521.68976 225.84339 520.45151 227.04492 519.5332 C 226.13154 516.44329 224.95324 513.58218 223.54297 510.90625 C 223.46697 510.91518 223.39309 510.93064 223.31641 510.9375 C 220.11138 511.22409 217.17017 509.60588 215.59375 507.02734 z M 595.38672 511.8457 C 592.79054 511.9021 590.54326 513.66553 589.87109 516.17383 C 589.03619 519.29014 590.88564 522.49325 594.00195 523.32812 C 597.11826 524.16303 600.32135 522.31358 601.15625 519.19727 C 601.99116 516.08096 600.14171 512.87786 597.02539 512.04297 C 596.49126 511.89999 595.93953 511.83357 595.38672 511.8457 z M 389.0332 514.80273 C 386.4372 514.86023 384.19076 516.62443 383.51953 519.13281 C 382.68462 522.24912 384.53407 525.45222 387.65039 526.28711 C 390.7667 527.12202 393.9698 525.27257 394.80469 522.15625 C 395.6396 519.03994 393.79015 515.83684 390.67383 515.00195 C 390.20544 514.87621 389.72321 514.80929 389.23828 514.80273 C 389.17058 514.80173 389.10286 514.80173 389.03516 514.80273 L 389.0332 514.80273 z M 558.72656 517.55273 C 553.81759 517.62633 549.5538 520.94916 548.2832 525.69141 C 546.71285 531.55031 550.18977 537.57283 556.04883 539.14258 C 561.9071 540.71168 567.92827 537.23504 569.49805 531.37695 C 571.06853 525.51864 567.59263 519.4964 561.73438 517.92578 C 560.75383 517.66301 559.74159 517.53747 558.72656 517.55273 z M 225.00586 530.31055 L 164.08789 535.75781 C 164.03705 535.88845 163.98699 536.019 163.92969 536.14648 C 164.52629 536.80192 165.13265 537.45126 165.75977 538.08789 C 169.0951 541.47387 172.87879 544.57539 176.92188 547.52734 C 177.86518 547.02169 178.92091 546.69283 180.05078 546.5918 C 183.25297 546.30546 186.19403 547.92156 187.77148 550.49609 L 222.85156 547.36133 C 223.82596 544.86158 225.99488 542.92234 228.71289 542.31836 C 229.10922 539.60159 229.28479 536.75445 229.21289 533.75391 C 227.46262 533.11638 225.97634 531.89733 225.00586 530.31055 z M 467.09961 540.50586 C 462.19064 540.57946 457.92686 543.90228 456.65625 548.64453 C 455.0859 554.50343 458.56282 560.52595 464.42188 562.0957 C 470.28012 563.6648 476.3013 560.18816 477.87109 554.33008 C 479.44144 548.47118 475.96453 542.44867 470.10547 540.87891 C 469.12556 540.61632 468.11398 540.49078 467.09961 540.50586 z M 432.80273 556.7832 C 430.20655 556.8396 427.95927 558.60304 427.28711 561.11133 C 426.45221 564.22764 428.30166 567.43075 431.41797 568.26562 C 434.53428 569.10053 437.73737 567.25108 438.57227 564.13477 C 439.40718 561.01846 437.55773 557.81536 434.44141 556.98047 C 433.90727 556.83749 433.35554 556.77107 432.80273 556.7832 z M 545.20898 561.67969 C 540.30001 561.75329 536.03623 565.07611 534.76562 569.81836 C 533.19516 575.67667 536.67103 581.69891 542.5293 583.26953 C 548.3882 584.83988 554.41071 581.36297 555.98047 575.50391 C 557.55083 569.64501 554.07391 563.62248 548.21484 562.05273 C 547.23493 561.79015 546.22335 561.66461 545.20898 561.67969 z M 499.71289 573.92383 C 494.80392 573.99743 490.54014 577.32025 489.26953 582.0625 C 487.69918 587.9214 491.1761 593.94392 497.03516 595.51367 C 502.89343 597.08277 508.91459 593.60613 510.48438 587.74805 C 512.05484 581.88974 508.57897 575.86748 502.7207 574.29688 C 501.74016 574.03411 500.72792 573.90857 499.71289 573.92383 z M 227.50195 602.42773 L 193.6543 605.45508 C 192.56075 608.2726 189.95097 610.38728 186.74609 610.67383 C 185.71303 610.7662 184.71024 610.65255 183.76758 610.38086 C 179.47954 614.77546 175.6074 619.32108 172.44141 624.20117 C 172.4431 624.20393 172.44558 624.20623 172.44727 624.20898 L 233.11133 618.7832 C 233.74945 617.1441 234.8989 615.74507 236.38281 614.80469 C 235.85773 611.79359 235.10097 608.99239 234.14648 606.35742 C 231.37031 606.23957 228.90004 604.71375 227.50195 602.42773 z M 492.94727 604.44336 C 490.35126 604.50086 488.10482 606.26505 487.43359 608.77344 C 486.59869 611.88975 488.44814 615.09284 491.56445 615.92773 C 494.68076 616.76264 497.88385 614.91317 498.71875 611.79688 C 499.55366 608.68057 497.70421 605.47747 494.58789 604.64258 C 494.12013 604.517 493.63857 604.45008 493.1543 604.44336 C 493.0866 604.44236 493.01887 604.44236 492.95117 604.44336 L 492.94727 604.44336 z "
       style="fill:#000000;fill-opacity:1;stroke:none;stroke-width:4.67323;stroke-linecap:round;stroke-linejoin:round;stroke-miterlimit:4;stroke-dasharray:none;stroke-dashoffset:0;stroke-opacity:1"
       id="path3663" />
    <g
       transform="matrix(1.0826133,0,0,1.0826133,-13.303985,-5.5547374)"
       style="stroke-width:2;stroke-miterlimit:4;stroke-dasharray:none"
       id="g11871" />
    <g
       id="g1653"
       style="stroke:#d40000;stroke-width:2;stroke-miterlimit:4;stroke-dasharray:none"
       transform="matrix(1.0826133,0,0,1.0826133,-13.303985,-5.5547374)" />
    <path
       id="path3665"
       d="m 105.83873,10.178547 c 2.93997,0.267269 19.77795,0 19.77795,0"
       style="fill:none;stroke:#000000;stroke-width:1.5;stroke-linecap:butt;stroke-linejoin:miter;stroke-miterlimit:4;stroke-dasharray:none;stroke-opacity:1" />
    <path
       style="fill:none;stroke:#000000;stroke-width:1.5;stroke-linecap:butt;stroke-linejoin:miter;stroke-miterlimit:4;stroke-dasharray:none;stroke-opacity:1"
       d="m 43.431294,60.024315 c 2.93997,0.267269 19.77795,0 19.77795,0"
       id="path3667" />
  </g>
</svg>
