<?xml version="1.0" encoding="UTF-8" standalone="no"?>
<svg
   xmlns:dc="http://purl.org/dc/elements/1.1/"
   xmlns:cc="http://creativecommons.org/ns#"
   xmlns:rdf="http://www.w3.org/1999/02/22-rdf-syntax-ns#"
   xmlns:svg="http://www.w3.org/2000/svg"
   xmlns="http://www.w3.org/2000/svg"
   xmlns:sodipodi="http://sodipodi.sourceforge.net/DTD/sodipodi-0.dtd"
   xmlns:inkscape="http://www.inkscape.org/namespaces/inkscape"
   sodipodi:docname="in_vitro_structural.svg"
   inkscape:version="1.0 (4035a4fb49, 2020-05-01)"
   id="svg8"
   version="1.1"
   viewBox="0 0 210 210"
   height="210mm"
   width="210mm"
   inkscape:export-filename="in_vitro_structural.png"
   inkscape:export-xdpi="12.1"
   inkscape:export-ydpi="12.1">
  <defs
     id="defs2" />
  <sodipodi:namedview
     inkscape:window-maximized="0"
     inkscape:window-y="0"
     inkscape:window-x="655"
     inkscape:window-height="1001"
     inkscape:window-width="1248"
     showgrid="false"
     inkscape:document-rotation="0"
     inkscape:current-layer="layer1"
     inkscape:document-units="mm"
     inkscape:cy="500.21776"
     inkscape:cx="459.85401"
     inkscape:zoom="0.49497474"
     inkscape:pageshadow="2"
     inkscape:pageopacity="0.0"
     borderopacity="1.0"
     bordercolor="#666666"
     pagecolor="#ffffff"
     id="base"
     inkscape:snap-global="false" />
  <metadata
     id="metadata5">
    <rdf:RDF>
      <cc:Work
         rdf:about="">
        <dc:format>image/svg+xml</dc:format>
        <dc:type
           rdf:resource="http://purl.org/dc/dcmitype/StillImage" />
        <dc:title />
      </cc:Work>
    </rdf:RDF>
  </metadata>
  <g
     id="layer1"
     inkscape:groupmode="layer"
     inkscape:label="Layer 1">
    <path
       d="m 167.21769,12.153313 c -0.47364,0.0084 -0.9513,0.04429 -1.43282,0.103404 -1.28404,0.15763 -2.5971,0.481965 -3.94211,0.893523 -2.69002,0.823117 -5.40705,2.077116 -7.63445,3.745903 -2.32004,1.738207 -3.71934,3.885917 -4.956,5.668169 -1.23667,1.782252 -2.2937,3.188853 -3.68598,4.110736 -0.72465,0.479817 -3.68454,1.744133 -6.16292,2.629132 -0.88536,0.316161 -1.68404,0.587512 -2.40376,0.827766 l -4.38224,-3.615452 -0.43695,0.194613 c 0,0 -8.99226,4.025828 -16.95732,7.913907 -0.82058,-0.375552 -1.60728,-0.734968 -1.60728,-0.734968 -1.19147,-0.65257 -1.02776,-0.36956 -1.09821,0.842084 l -0.0737,1.264722 c -0.4788,0.239889 -0.95152,0.477843 -1.41002,0.711635 -4.04549,-0.781059 -22.780637,-4.376799 -33.500473,-5.983156 -12.834875,-1.923292 -30.295296,-4.007282 -38.647382,-4.659576 -0.04212,-0.0033 -0.08461,-0.0033 -0.127267,-5.43e-4 -0.298643,0.01967 -0.600409,0.179795 -0.762545,0.359 -0.185296,0.204805 -0.26081,0.403185 -0.3187,0.579597 -0.11578,0.352819 -0.15161,0.67975 -0.184006,0.823525 -0.481047,2.134939 -0.213187,4.240814 0.0042,6.250419 -2.20435,-0.43405 -6.028365,-1.025021 -10.657049,-1.060032 -1.050969,-0.008 -2.142935,0.01271 -3.266529,0.07053 -5.556136,-0.153348 -11.083352,1.348868 -14.6346841,5.032891 -1.7857834,1.852529 -2.9879819,4.366162 -3.0586589,7.168864 -0.070673,2.802703 0.9255962,5.766834 2.938285,8.792585 10.525453,15.823307 7.687569,11.435441 16.464683,21.90165 2.644423,3.15332 4.209345,5.439547 4.888126,6.836376 0.320342,0.659216 0.42587,1.000798 0.464527,1.161846 -0.153671,0.08531 -0.544748,0.33064 -1.34055,0.578007 -1.203089,0.373966 -2.988026,0.74664 -4.980395,1.320927 -1.129069,0.325447 -4.48855,-0.564638 -7.65195,-1.509177 -1.5817,-0.47227 -3.09469,-0.985583 -5.014333,-0.727546 -0.959822,0.129019 -2.1200474,0.58641 -2.9382851,1.501225 -0.818238,0.914816 -1.1691437,2.076235 -1.2567653,3.172668 -0.2819696,3.528377 1.5732254,6.517464 3.8143084,8.726299 2.241088,2.208834 4.994816,3.827494 7.583543,4.826084 4.241637,1.6362 8.637107,1.15248 12.636058,0.0838 L 27.889099,101.005 c -1.089209,-0.28748 -2.012414,-1.009938 -2.553301,-1.998097 l -0.983671,-1.79606 c -1.249501,-0.0205 -2.422756,-0.201225 -3.469626,-0.605051 -1.880881,-0.725542 -4.117382,-2.067199 -5.653852,-3.581514 -1.294338,-1.275711 -1.870642,-2.505724 -2.00234,-3.617575 0.463206,0.0636 0.855092,0.0836 1.823635,0.372786 2.104057,0.628238 4.779027,1.84225 7.742098,1.911663 l 3.264407,5.960353 c 0.835595,1.430626 1.551342,1.858972 3.030554,2.341719 L 42.179101,103.448 c 1.507062,0.39812 3.051701,-0.50102 3.449476,-2.00817 0.396713,-1.507021 -0.503325,-3.050444 -2.010295,-3.447355 L 32.582084,95.078584 c -1.247033,-0.242605 -1.872363,-0.681695 -2.608453,-2.025673 l -1.349034,-2.462623 c 0.795856,-0.199769 1.583896,-0.403359 2.347022,-0.640577 1.632608,-0.507481 3.451792,-1.142518 4.595944,-3.080402 1.144149,-1.937882 0.741625,-4.329202 -0.32082,-6.515556 C 34.184297,78.167399 32.39565,75.679749 29.608798,72.35659 20.715013,61.751244 24.037787,66.774086 13.516903,50.957645 c -1.55002,-2.330211 -2.028271,-4.160569 -1.993855,-5.525524 0.03442,-1.364955 0.516453,-2.392064 1.481074,-3.392734 1.92924,-2.001346 6.128968,-3.448336 10.48789,-3.313195 l 0.121965,0.0042 0.120373,-0.0064 c 6.458558,-0.351396 11.642707,0.639829 13.513671,1.063211 -0.277596,1.045531 -0.640838,2.129656 -0.955036,3.232062 -0.556023,1.950898 -0.952136,4.021203 -0.11666,6.024517 0.279622,0.670478 0.854936,0.873818 1.224949,1.008063 3.880274,1.407807 8.003478,0.974734 11.923358,0.834133 l 31.840171,3.813777 c -3.514833,2.273566 -7.026583,4.546614 -10.557888,6.778049 -4.300013,2.717181 -12.553773,7.838023 -15.841072,9.874884 l -0.01803,0.01007 -0.01803,0.01219 c -0.524333,0.365859 -0.798343,0.504888 -0.813979,0.537175 -0.08779,-0.05962 -0.258004,-0.203096 -0.498994,-0.431118 l -2.090366,-1.976357 -0.02226,-0.02175 c -0.378058,-0.388212 -0.644083,-0.665659 -0.9036,-0.873903 -0.132974,-0.106703 -0.261949,-0.209579 -0.498994,-0.280517 -0.237044,-0.07094 -0.65737,-0.0099 -0.878143,0.178174 -0.441547,0.376185 -0.385212,0.638637 -0.460815,0.938067 -0.07561,0.299431 -0.155746,0.65491 -0.294837,1.098211 l -5.768921,18.38536 c -0.587184,0.515838 -1.220048,1.066008 -1.888862,1.634854 -1.234446,1.049975 -2.54513,2.12418 -3.657874,2.960028 -0.533146,0.400476 -1.06114,0.74423 -1.464105,0.996397 l 6.980085,1.842193 c 0.605375,-0.494036 1.211365,-0.999625 1.799241,-1.499631 0.685992,-0.583462 1.336255,-1.148502 1.937646,-1.67675 l 17.729932,-6.197919 h 0.0022 c 0.507489,-0.181416 0.886163,-0.285814 1.192601,-0.37862 0.153221,-0.0464 0.289122,-0.08813 0.436953,-0.154312 0.147828,-0.06618 0.342363,-0.154398 0.506946,-0.41309 0.164586,-0.258645 0.15684,-0.631115 0.08803,-0.8336 -0.06881,-0.202482 -0.155479,-0.325376 -0.2487,-0.457101 -0.186444,-0.263456 -0.428275,-0.548198 -0.761484,-0.977837 l -1.082303,-1.393047 -0.02175,-0.02598 c -0.07682,-0.08319 -0.07406,-0.09168 -0.126206,-0.154312 0.12222,-0.07102 0.226806,-0.131622 0.406726,-0.240745 l 3.848247,-2.334826 0.04772,-0.04189 c 0,0 0.858516,-0.738324 2.167786,-1.851739 0.292515,-0.183906 0.870071,-0.543461 1.203736,-0.752999 l -0.19302,4.836159 c -0.0853,1.019247 -0.375018,1.66463 -1.064273,2.323689 -0.879061,0.840361 -2.180164,2.074068 -3.805825,3.577805 -1.440376,1.332344 -2.91422,2.670651 -4.062479,3.653633 -0.574133,0.491489 -1.071786,0.897035 -1.965752,1.357518 -0.893964,0.460481 -1.598861,1.733247 -1.382972,3.027902 0.256584,1.536711 1.709545,2.574775 3.246378,2.318918 0.928474,-0.154743 1.073791,-0.367562 1.341081,-0.531341 0.267287,-0.163779 0.497664,-0.329502 0.747694,-0.517024 0.500061,-0.375047 1.057292,-0.833446 1.683111,-1.369185 1.251638,-1.071479 2.758274,-2.4373 4.226867,-3.795749 2.937189,-2.7169 5.714306,-5.399318 5.714306,-5.399318 0.770492,-0.708451 0.812032,-1.519989 0.880796,-2.415427 L 77.365953,73.365621 C 85.206629,68.480363 96.15069,61.739741 103.70976,57.399934 l 5.8368,0.675048 c 0.0328,0.02378 0.0646,0.04772 0.0986,0.06788 l -0.43749,3.247968 c 0.034,0.46889 0.43549,0.877913 1.1995,0.616715 0,0 5.71844,-1.917828 8.60539,-2.399519 5.20084,-0.867764 10.52473,-0.692109 15.76949,-1.234492 3.08868,-0.319438 8.04413,-0.983644 11.11839,-1.405246 0.8114,0.151138 1.79419,0.324751 2.91283,0.491041 2.63031,0.391004 5.66681,0.783278 8.2973,0.418922 3.33188,-0.461507 6.33133,-1.708893 9.04288,-2.986011 7.03378,-3.312874 11.75049,-8.970147 17.26222,-10.852724 1.49751,-0.51148 2.96933,-0.714082 3.87636,-0.483084 4.22381,1.075703 8.64881,3.587799 10.24342,6.760016 1.37806,2.741394 0.61298,7.225858 -0.7111,11.297629 -1.19052,3.661051 -2.8498,6.194001 -5.87657,7.972771 -1.1589,0.681064 -2.4003,0.66056 -4.42148,0.410967 -2.02118,-0.249594 -4.64326,-0.801292 -7.61801,-0.02226 -0.68795,0.180151 -1.87872,0.512857 -3.10214,0.950263 -1.22343,0.437406 -2.34793,0.677741 -3.65205,1.966279 -1.01684,1.004726 -1.32549,2.016615 -1.60303,2.990254 -0.27756,0.97364 -0.43201,1.947847 -0.53718,2.849727 -0.0785,0.673378 -0.0986,1.398912 -0.0928,2.044233 -1.07106,0.37269 -2.13377,0.770088 -3.18752,1.183585 -1.59892,0.627437 -3.25695,1.206644 -4.66222,2.194301 -0.31733,0.223027 -0.65303,0.47436 -0.823,0.822996 -0.98885,2.028311 -0.94733,4.466094 -0.82299,6.719186 0.14235,2.579399 1.08752,5.05418 1.7828,7.542182 0.31962,1.143749 0.80589,2.670129 1.29495,4.172779 -1.1936,-0.82958 -2.42467,-1.66452 -3.76871,-2.49656 -2.24806,-1.391726 -3.95344,-2.434292 -6.52616,-3.322742 -2.48146,-0.856931 -4.40506,-1.540485 -7.17099,-1.058438 -4.0531,0.706379 -9.20838,4.27861 -12.54644,6.34322 -3.07401,1.9013 -10.70063,7.0361 -14.31174,11.40793 -0.31058,0.37599 -0.54302,0.83672 -0.73974,1.23873 -0.19672,0.40203 -0.33673,0.73762 -0.33673,0.73762 -0.0439,0.10568 -0.0636,0.21981 -0.0578,0.33408 -0.0717,0.10734 -0.13871,0.21796 -0.19833,0.33302 -0.61885,1.19434 -0.68133,1.60321 -0.68565,2.94836 -0.0107,3.33562 0.75496,6.91936 0.823,10.42213 0.0323,1.66679 0.23319,4.44033 0.38339,6.36549 -1.98675,-1.11114 -4.02894,-2.14461 -6.15444,-3.00192 0.24481,-2.26117 0.40249,-3.98505 0.40249,-3.98505 0.11288,-1.24324 -0.60444,-2.41315 -1.76372,-2.87625 l -14.444311,-5.76786 -9.700421,-9.00098 c -0.470484,-0.43634 -1.075462,-0.69932 -1.715458,-0.74558 l -12.206,-0.87973 c -0.09537,-0.007 -0.190777,-0.009 -0.286352,-0.006 -1.844713,0.0542 -3.141908,1.83565 -2.627539,3.60803 l 2.511409,8.63774 c 0.225448,0.77599 0.772371,1.41813 1.502814,1.76371 l 13.96335,6.59404 c 1.011191,0.47796 2.209228,0.31361 3.054416,-0.41893 l 4.479811,-3.88429 11.389891,4.54767 c -0.015,0.15472 -0.0317,0.32545 -0.0461,0.47726 -2.44619,-0.74735 -4.95843,-1.3223 -7.529984,-1.51926 -1.415411,-0.10841 -2.803485,0.11479 -4.104902,0.40461 -4.934126,1.09876 -9.38257,3.95353 -13.79472,5.75831 -2.606373,1.06615 -5.284941,2.13785 -7.768081,3.64356 -2.053271,1.24505 -5.433785,4.14467 -5.433785,4.14467 -0.108648,0.093 -0.189257,0.21433 -0.232793,0.35052 -1.663839,1.74872 -2.580498,3.42856 -3.016767,5.87021 -0.612944,3.43044 0.09983,7.98257 0.822996,11.39149 0.684023,3.22444 2.064522,6.43543 2.418079,9.71262 0.163066,1.51147 -0.03079,3.73658 -0.256655,5.54673 -0.10319,-0.0598 -0.204225,-0.12155 -0.308094,-0.18083 -4.589352,-2.61896 -9.486982,-4.58293 -13.483975,-7.69596 -1.753064,-1.36535 -3.022523,-3.54736 -5.022818,-5.21902 -1.565137,-1.30798 -3.222035,-3.06942 -5.543554,-3.6478 -0.766569,-0.19099 -1.517255,-0.1688 -2.232483,-0.062 -0.715224,0.1068 -1.393335,0.29802 -2.012412,0.44861 -2.59785,0.63189 -5.13648,1.52687 -7.580893,2.61694 0.05174,-3.79394 0.130571,-9.09948 0.139463,-9.68982 l 3.585228,-9.97299 10.469861,-10.00692 c 0.622034,-0.59417 0.943073,-1.4371 0.873902,-2.29453 l -0.581186,-7.17522 c -0.121808,-1.49785 -1.383681,-2.64496 -2.886318,-2.62383 -0.0085,1.4e-4 -0.017,2.6e-4 -0.02544,5.4e-4 -0.472918,0.0108 -0.935751,0.13888 -1.346913,0.37279 l -11.247784,6.39943 c -0.459919,0.26161 -0.83811,0.64585 -1.092376,1.10987 l -5.623627,10.28002 c -0.931301,1.70524 0.07544,3.8225 1.985901,4.17649 l 3.112746,0.57536 -2.760109,7.67634 c -0.106388,0.29586 -0.163186,0.60726 -0.1681,0.92163 0,0 -0.164369,10.50568 -0.186658,13.25277 -3.024172,1.781 -5.962204,3.83126 -8.383207,6.43443 -0.407803,0.43849 -1.056539,1.03004 -1.170329,1.98643 -0.10662,0.8961 0.25608,1.70893 0.747165,2.31891 1.119275,1.39031 2.651589,2.17455 4.151037,2.85397 1.49945,0.67942 2.985338,1.26532 4.132477,2.12643 4.10461,3.08115 7.202685,7.64968 11.646554,10.86863 3.609065,2.61425 7.505165,5.124 11.852832,6.50973 3.875077,1.23509 8.067534,1.75632 12.13335,1.3888 6.168051,-0.55753 11.604448,-3.22352 17.088295,-5.63953 4.227418,-1.86248 11.563828,-6.85441 11.563828,-6.85441 0.14908,-0.10086 0.258097,-0.25078 0.308094,-0.42369 0.301402,-0.2654 0.589983,-0.57031 0.838903,-0.92269 1.818773,-2.57474 3.004017,-5.91428 3.324329,-9.0503 0.410416,-4.01816 0.205433,-8.95942 -0.903067,-12.8434 -1.019274,-3.57134 -2.210271,-8.95986 -3.066613,-13.02687 4.220943,2.83929 8.317844,5.88239 12.509853,8.86735 3.12808,2.22738 6.49696,4.16728 9.12347,6.71229 2.21348,2.14479 3.42831,4.53604 6.01657,6.98857 0.4611,0.43694 1.09442,0.98985 1.82151,1.39464 0.72709,0.40479 1.64391,0.71473 2.52944,0.29271 4.50922,-2.14887 10.845,-6.74827 16.11576,-10.82461 2.63534,-2.03818 4.99721,-3.94328 6.70009,-5.33728 0.85145,-0.69697 1.53816,-1.26579 2.01242,-1.65925 0.23713,-0.19673 0.42194,-0.35173 0.54513,-0.45339 0.061,-0.0504 0.1046,-0.0876 0.13204,-0.10976 0.20078,-0.13597 0.32575,-0.3586 0.33726,-0.60081 0.55689,-1.26892 0.14704,-2.89436 -0.0551,-4.29422 -0.37814,-2.61809 -1.5905,-5.30984 -2.1943,-7.88527 -1.23356,-5.26156 -1.6257,-10.38637 -2.60527,-15.70108 -0.3093,-1.67812 -0.87629,-4.18185 -1.34214,-6.17724 1.40607,1.17848 2.48795,2.15988 2.89745,2.51088 0.22254,0.19075 0.50557,0.36827 0.95822,0.65914 0.45265,0.29088 1.03834,0.65732 1.71546,1.07435 1.35424,0.83404 3.06952,1.87183 4.76616,2.9001 1.69664,1.02827 3.37434,2.04694 4.6495,2.84019 0.63758,0.39662 1.17499,0.73716 1.55743,0.99003 0.19119,0.12644 0.34441,0.23103 0.44491,0.30438 0.10046,0.0734 0.19287,0.20452 0.0562,0.0223 0.22104,0.29473 0.36787,0.34571 0.60133,0.49104 0.23347,0.1453 0.52537,0.30747 0.86967,0.4852 0.68857,0.35546 1.58843,0.77235 2.59943,1.19419 2.02199,0.84371 4.46403,1.69926 6.49965,2.03416 0.86555,0.14239 1.8073,0.13309 2.69966,-0.16598 4.74942,-1.59173 8.44736,-5.15295 12.16146,-8.07935 3.30314,-2.60261 6.47165,-5.43697 9.28786,-8.59373 0.66393,-0.7442 1.57493,-2.14445 1.57493,-2.14445 0.0332,-0.0502 0.0605,-0.10413 0.0811,-0.16068 0.0103,-0.0194 0.0228,-0.0386 0.0313,-0.0578 0.88981,-2.00762 0.10584,-4.41961 -0.27468,-6.58237 -0.4985,-2.83331 -1.5118,-5.56692 -2.60527,-8.22784 -1.63954,-3.98974 -4.22716,-7.541475 -5.89672,-11.518749 -0.83922,-1.999215 -1.61952,-4.047273 -2.05696,-6.170874 -0.54606,-2.650902 0.87449,-5.879372 -0.68565,-8.091024 -0.31838,-0.451321 -0.96199,-0.603208 -1.50812,-0.685653 -0.40154,-0.06062 -0.80498,-0.08562 -1.20904,-0.08378 -1.75094,0.008 -3.51774,0.527029 -5.23599,0.906779 -0.0429,0.0095 -0.0854,0.02061 -0.12833,0.03023 0.0821,-0.619927 0.19428,-1.232043 0.32241,-1.68152 0.0589,-0.206745 0.12946,-0.356973 0.18348,-0.465585 0.23692,-0.108303 0.87907,-0.487102 1.54418,-0.724893 0.96983,-0.346743 2.05507,-0.651938 2.63337,-0.803377 1.46128,-0.382663 3.23729,-0.11445 5.4953,0.164387 2.258,0.27884 5.17665,0.495834 7.97117,-1.146468 4.36192,-2.563402 6.9256,-6.604492 8.38533,-11.093469 1.4488,-4.455335 3.03624,-10.308601 0.38711,-15.578585 -2.77855,-5.527451 -8.68138,-8.367222 -13.89335,-9.69459 -1.32718,-0.337998 -2.60589,-0.353574 -3.8,-0.200446 -1.19411,0.153128 -2.30289,0.475791 -3.29304,0.813982 -7.54683,2.577675 -12.39331,8.520141 -17.84341,11.087108 -2.51922,1.186525 -5.01797,2.167427 -7.41332,2.49921 -1.20698,0.167181 -3.97593,-0.02885 -6.33527,-0.35953 l -1.04412,-0.562097 c 0,0 -10.29097,-5.5275 -16.08341,-8.427219 4.87527,-2.060512 9.90087,-4.081569 9.90087,-4.081569 l -2.02249,-4.044982 c 0.18828,-0.06616 0.35753,-0.122548 0.55043,-0.191432 2.60573,-0.93047 5.40313,-1.930054 7.37992,-3.238954 2.45311,-1.624306 3.93942,-3.771089 5.20682,-5.597642 1.26742,-1.826555 2.33257,-3.342406 3.70348,-4.369512 1.50969,-1.131081 3.76803,-2.214615 5.90255,-2.867758 2.13454,-0.653142 4.24516,-0.79668 4.9226,-0.657548 4.60332,0.945444 10.13525,5.118799 10.13525,5.118799 2.36765,-0.541652 3.47439,-2.063734 3.51523,-4.415116 0,0 -5.81483,-4.856897 -12.51462,-6.232919 -0.76737,-0.157604 -1.54543,-0.21982 -2.33482,-0.205749 z M 39.973671,28.75905 c 8.566435,0.72325 24.926411,2.677862 37.177973,4.513748 11.848171,1.775439 35.606756,6.385639 35.606756,6.385639 l -10e-4,-5.43e-4 0.86383,0.168631 c 0.615,0.119953 1.19478,-0.32954 1.23184,-0.955036 l 0.0896,-1.52827 c 2.63527,1.202675 10.98663,5.020546 16.16878,7.589378 3.75502,1.861389 8.54708,4.410412 11.74201,6.118376 -4.59038,0.697002 -13.40439,2.015828 -19.66652,2.689584 -1.52391,0.163958 -3.24906,0.135043 -5.10024,0.395059 -2.09376,0.29409 -4.8444,0.916838 -6.35223,1.266842 l 0.40407,-1.886739 c 0.1298,-0.605445 -0.29729,-1.1887 -0.91367,-1.247752 l -0.86012,-0.08219 h -0.001 c 0,0 -26.718378,-2.525562 -40.210653,-3.301528 C 64.206531,48.54226 58.305998,48.54926 52.478696,48.299878 47.324858,48.079317 42.39168,49.030975 38.455425,47.681572 38.146579,46.60964 38.31259,45.328034 38.769881,43.723556 c 0.50804,-1.782541 1.337071,-3.835109 1.470469,-6.119438 0.201352,-3.448026 -0.652953,-6.479495 -0.266731,-8.845082 z m 92.242839,0.765727 4.61822,3.809536 c -2.20464,0.941496 -6.2188,2.665145 -9.19189,4.087401 -0.64466,0.308393 -2.15778,1.103687 -2.79776,1.412669 -2.2998,-1.080221 -4.31953,-2.012187 -6.23875,-2.897455 6.09138,-2.908589 12.52364,-5.923396 13.61018,-6.412151 z m -46.903316,25.436501 9.06992,1.086544 c -3.090632,2.092395 -7.660365,5.324537 -10.665004,7.534227 -6.012242,4.421562 -16.860207,13.78194 -17.053295,13.948502 l -3.671664,2.226647 c -0.215093,0.130458 -0.419248,0.238707 -0.654897,0.386576 -0.153671,0.09643 -0.684835,0.426046 -0.975187,1.014956 -0.396843,0.804908 -0.219999,1.476511 0.08909,2.029384 0.167558,0.299795 0.363182,0.512165 0.553083,0.722773 5.43e-4,8.15e-4 0.0011,0.0019 0.0016,0.0027 0.01591,0.02511 0.03291,0.04953 0.05091,0.07318 l 0.56687,0.730725 -18.090524,6.325718 5.907325,-18.831327 1.20533,1.139575 5.43e-4,5.43e-4 c 0.269196,0.254711 0.526237,0.498358 0.865948,0.721713 h 5.43e-4 c 0.395344,0.259897 0.920606,0.487893 1.582356,0.435359 0.513701,-0.04088 0.972811,-0.231524 1.3029,-0.440132 0.322519,-0.203823 0.541568,-0.395762 0.786405,-0.56846 3.315879,-2.054615 11.492742,-7.126209 15.79812,-9.846782 3.965281,-2.505661 9.402316,-6.153682 13.329666,-8.692358 z M 180.91802,79.80015 c 0.36747,0.0014 0.72664,0.04682 1.01814,0.194614 0.284,0.144003 0.49716,0.432288 0.39505,0.73391 -0.21005,0.62044 -5.42016,2.797837 -8.5041,3.697647 -2.88954,0.843089 -6.22252,1.823622 -9.23219,1.778028 -0.4558,-0.0069 -1.04898,0.0071 -1.2154,-0.417331 -0.14887,-0.37957 0.0746,-0.544245 0.38763,-0.805494 0.48998,-0.408925 0.94978,-0.612176 1.53941,-0.856404 1.39666,-0.578526 3.09024,-1.255126 4.67548,-1.805076 0.017,0.245111 0.0308,0.396121 0.0308,0.396121 0.89373,1.775832 5.02198,0.516498 5.43855,-0.620959 0,0 0.005,-0.60277 0.0562,-1.41426 1.42735,-0.369027 2.86741,-0.671146 4.34141,-0.808676 0.3254,-0.03036 0.70156,-0.07334 1.06905,-0.07212 z m -32.95853,19.142601 c 1.35373,0.01667 2.53183,0.434319 4.40822,1.082299 2.32206,0.80189 3.76649,1.69011 6.00967,3.07882 4.2462,2.62872 7.54953,5.4442 12.20335,8.06132 6.38796,3.59233 12.96065,7.58505 20.38929,9.6177 0.0136,0.004 0.0266,0.009 0.0403,0.0127 v -5.4e-4 c 8.1e-4,2.7e-4 0.001,2.7e-4 0.002,5.4e-4 0.0162,0.004 0.032,0.005 0.0483,0.009 -2.54538,2.76518 -5.38051,5.30746 -8.37154,7.66414 -3.84403,3.02877 -7.3713,6.3147 -11.38672,7.66044 -0.36778,0.12325 -0.93225,0.15554 -1.46516,0.0679 v 5.5e-4 c -1.65048,-0.27153 -4.01872,-1.0773 -5.9243,-1.87242 -0.95401,-0.39808 -1.80634,-0.79447 -2.41119,-1.1067 -0.30355,-0.1567 -0.55167,-0.2961 -0.68936,-0.3818 0.002,0.001 -0.0246,-0.0175 -0.0779,-0.0631 -0.0134,-0.0114 -0.0153,-0.0174 -0.0891,-0.0705 -0.0184,-0.0133 -0.0417,-0.0301 -0.0896,-0.0578 -0.007,-0.004 -0.0207,-0.01 -0.0286,-0.0143 -0.0687,-0.0518 -0.21467,-0.20038 -0.21477,-0.20045 -0.15083,-0.11009 -0.32916,-0.23367 -0.54194,-0.37438 -0.4215,-0.27871 -0.97111,-0.6248 -1.61789,-1.02715 -1.2957,-0.80602 -2.97824,-1.82766 -4.67601,-2.85662 -1.69768,-1.02887 -3.40998,-2.06492 -4.74973,-2.89003 -0.66996,-0.41261 -1.24798,-0.77333 -1.67515,-1.04783 -0.20769,-0.13346 -0.39184,-0.25749 -0.52392,-0.3484 -0.066,-0.0455 -0.11894,-0.0825 -0.15431,-0.10765 -0.012,-0.009 -0.0182,-0.0133 -0.0254,-0.0186 -0.39013,-0.33575 -2.10017,-1.89296 -4.1574,-3.54598 -2.0698,-1.66311 -4.51176,-3.47562 -6.79714,-4.5164 -3.98836,-1.81632 -7.91956,-2.07837 -12.00714,-2.03999 3.64075,-3.36594 9.10496,-7.13572 11.45883,-8.59161 1.6944,-1.048 3.81591,-2.40895 5.91316,-3.5778 -0.45663,0.22704 -0.54746,0.283 0.0567,-0.0323 -0.0189,0.0105 -0.0378,0.0218 -0.0567,0.0323 1.22823,-0.61069 5.31043,-2.552871 7.20121,-2.54535 z m -93.635367,1.771669 c -4.899178,2.2e-4 -8.870609,3.97189 -8.870533,8.87106 -7.6e-5,4.89918 3.971355,8.87085 8.870533,8.87107 4.899387,7e-5 8.871141,-3.97168 8.871065,-8.87107 7.6e-5,-4.89938 -3.971678,-8.87114 -8.871065,-8.87106 z m 22.098917,15.61305 7.173105,0.51703 7.024626,6.51767 -2.024079,1.75364 -11.149152,-5.26515 z m 114.86037,2.42975 c 0.94405,0 1.88614,0.002 5.5e-4,0.004 -1.12598,-0.002 -1.86118,-0.002 -5.5e-4,-0.004 z m -150.480912,10.32085 0.110299,1.35275 -9.119236,8.71622 -0.980489,-0.1803 3.341298,-6.10671 z m 57.813315,3.6775 h 5.43e-4 c 0.130379,0.003 0.259042,0.009 0.385514,0.0186 2.14136,0.16401 4.29298,0.65551 6.44185,1.28434 -0.0512,0.46572 -0.093,0.86962 -0.17128,1.51925 -0.20183,1.67404 -0.43374,3.39816 -0.66073,4.73488 -0.11319,0.66657 -0.22902,1.24561 -0.32029,1.62425 -0.0335,0.1387 -0.0822,0.27547 -0.11931,0.38021 -0.009,0.0262 -0.0159,0.0399 -0.0361,0.10977 -0.0101,0.0349 -0.0593,-0.032 -0.0414,0.34627 0.002,0.0473 0.0265,0.18969 0.0265,0.18984 0,2e-5 0.0155,0.0362 0.0207,0.0483 -0.0113,0.79699 0.22479,1.53948 0.62627,2.12271 0.50054,0.72716 1.20442,1.2363 1.94878,1.56115 0.74435,0.32484 1.53583,0.47539 2.30778,0.39028 0.76945,-0.0848 1.60133,-0.46405 2.02408,-1.25729 0.47263,-0.85535 0.60281,-1.50169 0.74292,-2.08294 v -5.5e-4 c 0.15725,-0.65253 0.29365,-1.3661 0.42529,-2.14127 0.24774,-1.45897 0.47034,-3.15016 0.67133,-4.7948 2.45324,1.11653 4.85986,2.42573 7.23303,3.85673 2.95544,1.7821 5.82405,3.61228 8.25488,5.80604 3.11282,2.80926 4.79154,6.55611 8.83182,9.68611 1.47374,1.14171 3.2021,2.16594 5.13683,2.75746 -1.59518,1.29756 -3.42534,2.78134 -5.64272,4.49625 -5.14752,3.98104 -11.40503,8.45904 -15.4651,10.43433 -0.0488,-0.005 -0.17322,-0.0129 -0.35582,-0.11454 -0.38179,-0.21255 -0.92087,-0.65497 -1.30078,-1.01496 -2.25779,-2.13943 -3.45796,-4.50559 -5.998,-6.96682 -2.93883,-2.84762 -6.43788,-4.83716 -9.42203,-6.96206 -6.146877,-4.37694 -12.182882,-8.97684 -18.847762,-12.88688 -2.821144,-1.65505 -5.707353,-3.55048 -9.242792,-4.30959 1.943013,-1.04536 4.028756,-1.94881 6.202694,-2.83806 4.713326,-1.92799 9.068834,-4.66953 13.379509,-5.62946 1.039096,-0.23138 2.049967,-0.38584 2.963739,-0.36748 z m -56.298302,29.97252 c 0.208433,-2.1e-4 0.386428,0.0207 0.533461,0.0573 v -5.5e-4 c 1.340202,0.3339 2.815325,1.70309 4.51481,3.12336 1.511401,1.26308 2.821417,3.50825 5.090162,5.27523 4.37864,3.41026 9.41281,5.40363 13.789419,7.90118 5.628263,3.21183 10.624846,7.78192 17.494487,9.92155 -2.183219,1.37814 -4.675506,2.8914 -6.683655,3.77613 -5.5424,2.44181 -10.721952,4.93146 -16.284919,5.43431 -3.687989,0.33336 -7.55598,-0.14465 -11.118393,-1.28009 -3.911222,-1.24662 -7.597873,-3.58658 -11.12529,-6.14171 -3.944856,-2.85748 -7.048803,-7.41787 -11.610493,-10.84212 -1.530624,-1.14897 -3.210464,-1.77741 -4.615032,-2.41384 -1.405971,-0.63706 -2.524051,-1.27278 -3.208728,-2.12324 -0.08016,-0.0996 -0.132501,-0.31799 -0.165448,-0.36218 0.0099,-0.0186 0.0082,-0.0238 0.02333,-0.0451 0.09231,-0.12973 0.253214,-0.32082 0.447027,-0.52922 2.624702,-2.82219 6.060609,-5.04602 9.634139,-7.01826 3.408055,-1.88093 7.061324,-3.37538 10.801814,-4.2852 1.602643,-0.36996 -0.05738,-0.12092 2.483306,-0.44756 z"
       style="fill:#000000;stroke:none;stroke-width:0.264999;stroke-linecap:butt;stroke-linejoin:miter;stroke-miterlimit:4;stroke-dasharray:none;stroke-opacity:1"
       id="path859" />
  </g>
</svg>
