<?xml version="1.0" encoding="UTF-8" standalone="no"?>
<svg
   xmlns:dc="http://purl.org/dc/elements/1.1/"
   xmlns:cc="http://creativecommons.org/ns#"
   xmlns:rdf="http://www.w3.org/1999/02/22-rdf-syntax-ns#"
   xmlns:svg="http://www.w3.org/2000/svg"
   xmlns="http://www.w3.org/2000/svg"
   xmlns:sodipodi="http://sodipodi.sourceforge.net/DTD/sodipodi-0.dtd"
   xmlns:inkscape="http://www.inkscape.org/namespaces/inkscape"
   inkscape:export-ydpi="12.095238"
   inkscape:export-xdpi="12.095238"
   inkscape:export-filename="C:\Users\art\Dropbox\projects\scientific\Yamamoto at Baylor\doc types\in_vitro_cells.png"
   sodipodi:docname="in_vitro_cells.svg"
   inkscape:version="1.0 (4035a4fb49, 2020-05-01)"
   id="svg8"
   version="1.1"
   viewBox="0 0 210 210"
   height="210mm"
   width="210mm">
  <defs
     id="defs2" />
  <sodipodi:namedview
     inkscape:window-maximized="0"
     inkscape:window-y="18"
     inkscape:window-x="252"
     inkscape:window-height="1040"
     inkscape:window-width="1308"
     showgrid="false"
     inkscape:document-rotation="0"
     inkscape:current-layer="layer1"
     inkscape:document-units="mm"
     inkscape:cy="532.58818"
     inkscape:cx="443.18668"
     inkscape:zoom="0.49497475"
     inkscape:pageshadow="2"
     inkscape:pageopacity="0.0"
     borderopacity="1.0"
     bordercolor="#666666"
     pagecolor="#ffffff"
     id="base"
     inkscape:snap-global="false" />
  <metadata
     id="metadata5">
    <rdf:RDF>
      <cc:Work
         rdf:about="">
        <dc:format>image/svg+xml</dc:format>
        <dc:type
           rdf:resource="http://purl.org/dc/dcmitype/StillImage" />
        <dc:title></dc:title>
      </cc:Work>
    </rdf:RDF>
  </metadata>
  <g
     id="layer1"
     inkscape:groupmode="layer"
     inkscape:label="Layer 1">
    <path
       transform="scale(0.26458333)"
       d="M 396.84961 72.017578 C 204.27017 72.017582 47.443367 202.08557 47.443359 363.36523 L 47.443359 430.33398 C 47.443348 591.61361 204.27016 721.68359 396.84961 721.68359 C 589.42909 721.68359 746.25781 591.61364 746.25781 430.33398 L 746.25781 363.36523 C 746.25781 202.08556 589.42909 72.017567 396.84961 72.017578 z M 396.84961 79.703125 C 585.97377 79.703117 738.57227 207.07746 738.57227 363.36523 L 738.57227 430.33398 C 738.57227 586.62176 585.97377 713.99805 396.84961 713.99805 C 207.72546 713.99805 55.128895 586.62172 55.128906 430.33398 L 55.128906 363.36523 C 55.12891 207.07747 207.72547 79.703129 396.84961 79.703125 z M 396.84961 88.091797 C 261.32359 88.091797 146.21456 155.8999 95.328125 253.21484 C 78.584663 283.31299 67.529293 317.85916 67.529297 362.92969 C 67.529297 363.87311 67.539443 364.81469 67.550781 365.75586 C 67.565899 365.58227 67.585916 365.40984 67.601562 365.23633 C 67.599058 364.79547 67.591797 364.35541 67.591797 363.91406 L 67.730469 363.91406 C 72.003875 319.25621 89.07499 277.63527 115.875 241.56445 C 116.09142 238.0294 116.4199 234.97776 116.95898 232.30859 C 118.22201 226.05503 120.59715 221.19874 124.94727 214.45898 C 182.91494 140.6746 282.42002 91.871094 396.84961 91.871094 A 1.8897638 1.8897638 0 0 0 398.74023 89.982422 A 1.8897638 1.8897638 0 0 0 396.84961 88.091797 z M 396.84961 114.83203 C 216.38316 114.83204 69.902344 236.45995 69.902344 386.08008 C 69.902344 386.43233 69.864311 386.75868 69.777344 387.04102 C 83.89787 526.85786 224.84433 636.82812 396.84961 636.82812 C 569.54828 636.82812 710.9424 525.97045 724.0918 385.34961 C 724.0214 363.33289 720.74975 341.93343 714.68359 321.43555 C 714.64619 321.30912 714.60793 321.183 714.57031 321.05664 C 713.24809 316.61664 711.79394 312.22054 710.21094 307.86914 C 710.15202 307.70713 710.09443 307.54469 710.03516 307.38281 C 709.50783 305.94311 708.96942 304.50764 708.41406 303.07812 C 708.41354 303.07678 708.41263 303.07557 708.41211 303.07422 C 708.4101 303.06904 708.40826 303.06378 708.40625 303.05859 C 707.24709 300.07565 706.02744 297.11485 704.74805 294.17773 C 704.14152 292.78533 703.51987 291.39935 702.88672 290.01758 C 702.85101 289.93965 702.81704 289.8611 702.78125 289.7832 C 702.78121 289.7856 702.78129 289.78862 702.78125 289.79102 C 655.82899 187.60121 536.42641 114.83202 396.84961 114.83203 z M 396.84961 155.29297 C 534.51534 155.29296 652.56204 225.56466 701.86133 325.66016 C 701.84124 327.33563 701.82632 329.07302 701.81641 330.85352 A 1.8897638 1.8897638 0 0 1 700.83594 330.8125 C 700.39687 330.34115 699.95422 329.88395 699.50781 329.43945 C 651.58787 229.74474 534.20164 159.07224 396.84961 159.07227 C 355.90861 159.07227 316.73934 165.34871 280.65234 176.80273 A 1.8897638 1.8897638 0 0 1 278.27539 175.57031 A 1.8897638 1.8897638 0 0 1 279.50781 173.19336 C 315.96703 161.62119 355.52234 155.29297 396.84961 155.29297 z M 652.22656 189.93945 A 1.8897638 1.8897638 0 0 0 650.97266 190.47266 A 1.8897638 1.8897638 0 0 0 650.92773 193.14453 C 670.54069 213.43916 686.7088 236.12784 698.74414 260.5957 C 701.2658 267.77464 702.32876 273.56336 702.67383 280.30469 C 702.68139 280.46513 702.68189 280.64647 702.68945 280.80859 C 714.73175 304.88925 722.78831 330.69519 726.12695 357.67188 C 725.39236 311.367 714.88057 280.84193 696.63672 248.375 C 685.15145 227.55021 670.66926 208.1321 653.64453 190.51562 A 1.8897638 1.8897638 0 0 0 652.22656 189.93945 z M 474.22266 212.73047 C 480.27572 212.7403 486.33515 213.24776 492.28125 214.17969 C 518.91981 218.35466 556.5229 230.49634 570.2207 235.83008 C 593.59761 244.93271 573.25563 249.15229 563.64062 255.17578 C 556.55156 259.75594 517.19203 283.23384 496.61133 290.67578 C 485.21911 294.79518 474.55354 293.19615 462.56836 291.43359 C 434.00481 287.23303 395.57727 260.48531 381.14258 256.03711 C 367.15807 251.72762 364.28137 248.79092 379.69922 244.24219 C 396.52662 239.2776 429.01891 219.12164 456.19727 214.26758 C 462.12224 213.20941 468.16955 212.72078 474.22266 212.73047 z M 472.49414 242.11914 C 471.84875 242.13766 471.20565 242.18763 470.57031 242.26953 C 466.21078 242.83151 460.2416 243.93128 455.20508 246.16406 C 452.68678 247.28046 450.36496 248.67425 448.62891 250.67578 C 446.89286 252.67731 445.86208 255.49723 446.36328 258.43359 C 446.8189 261.10273 448.79617 262.61711 450.9082 263.83594 C 453.02028 265.05476 455.59055 265.99402 458.38086 266.74023 C 463.96152 268.23266 470.31677 268.93916 475.23828 268.24609 C 479.30044 267.67405 483.78974 266.77495 487.51367 265.08398 C 489.37566 264.23852 491.07962 263.1954 492.40234 261.68555 C 493.72507 260.17569 494.57918 258.04548 494.37305 255.82812 C 493.96028 251.38962 490.48013 248.15067 486.40039 245.80469 C 482.32073 243.45871 477.32759 241.98172 472.49414 242.11914 z M 472.6543 247.78711 C 476.15871 247.68748 480.38471 248.88466 483.57422 250.71875 C 486.76372 252.55284 488.60281 254.99989 488.72852 256.35156 C 488.78937 257.00566 488.67031 257.34032 488.13672 257.94922 C 487.60328 258.55812 486.5684 259.28597 485.16797 259.92188 C 482.36707 261.19365 478.23581 262.09958 474.44922 262.63281 C 470.82439 263.14327 464.76037 262.57801 459.8457 261.26367 C 457.38837 260.60651 455.18986 259.76121 453.74219 258.92578 C 452.29448 258.09035 451.91931 257.282 451.95312 257.48047 C 451.73317 256.19178 452.0136 255.42645 452.91211 254.39062 C 453.81054 253.35484 455.44665 252.25881 457.50195 251.34766 C 461.61257 249.52535 467.25187 248.41207 471.29688 247.89062 C 471.73518 247.83417 472.18794 247.80038 472.6543 247.78711 z M 344.82422 257.8125 C 357.39562 257.74243 375.80853 259.50373 384.55469 265.49219 C 402.42055 277.72492 446.4266 295.81193 458.70508 297.58008 L 473.12891 299.65625 C 479.86346 300.62604 462.99044 305.16901 456.57031 307.42188 C 442.83506 312.24159 389.03108 336.0275 362.11719 337.66602 C 350.10199 338.39753 337.8 337.39491 326.20312 334.16797 C 299.60523 326.76689 266.53788 300.49776 252.88086 289.48438 C 244.93051 283.07303 245.68608 282.73388 254.18359 279.57422 C 268.3411 274.30999 311.00723 259.42936 339.83984 257.94727 C 341.35212 257.86952 343.0283 257.82252 344.82422 257.8125 z M 371.99219 284.61719 C 367.31114 284.65925 361.94096 285.4272 357.42773 286.8125 C 355.17113 287.50515 353.13139 288.33637 351.43164 289.45508 C 349.73189 290.57379 348.13573 292.10469 347.83203 294.42773 C 347.44816 297.36386 348.50193 300.12972 350.21484 302.17383 C 351.92776 304.21793 354.22171 305.70919 356.7207 306.90625 C 361.71869 309.30037 367.63467 310.51449 372.16016 310.91797 C 377.05548 311.35548 383.21833 310.48662 388.55469 308.66992 C 391.22288 307.76157 393.6709 306.62321 395.65625 305.10352 C 397.64156 303.58381 399.33391 301.501 399.47852 298.80859 C 399.61647 296.24259 398.21222 294.09722 396.50977 292.52734 C 394.80728 290.95748 392.66596 289.73272 390.32031 288.67969 C 385.62901 286.57362 380.1233 285.21155 375.81055 284.77539 C 374.61134 284.65407 373.3304 284.60517 371.99219 284.61719 z M 372.04297 290.28516 C 373.20654 290.27457 374.29274 290.32032 375.24023 290.41602 C 378.81342 290.77738 384.02394 292.06658 388 293.85156 C 389.98803 294.74405 391.66909 295.77601 392.66602 296.69531 C 393.66298 297.61462 393.83522 298.19024 393.81836 298.50391 C 393.79568 298.90849 393.45323 299.6506 392.21094 300.60156 C 390.96857 301.55253 388.99764 302.52958 386.72656 303.30273 C 382.18444 304.84904 376.39476 305.60296 372.66406 305.26953 C 368.74896 304.92049 363.22438 303.73512 359.16992 301.79297 C 357.14269 300.82189 355.50639 299.66192 354.56055 298.5332 C 353.62171 297.41285 353.29009 296.48797 353.45312 295.18945 C 353.47694 295.19087 353.67977 294.76337 354.54883 294.19141 C 355.54203 293.53771 357.17026 292.82222 359.0918 292.23242 C 362.93486 291.05282 367.96777 290.32178 372.04297 290.28516 z M 218.34375 370.98828 C 224.39682 370.97694 230.44418 371.46525 236.36914 372.52344 C 263.54753 377.37752 312.21537 396.40349 324.34766 409.125 C 328.01515 412.97063 318.75228 414.51526 313.97266 416.83789 C 299.26667 423.98415 258.56156 445.49084 229.99805 449.69141 C 218.01286 451.45395 207.34725 453.05301 195.95508 448.93359 C 175.37434 441.49163 137.09477 416.74867 126.51758 413.02734 C 103.22839 404.83061 105.38262 398.68679 122.3457 394.08594 C 136.53273 390.23804 173.64658 376.61049 200.28516 372.43555 C 206.23128 371.50363 212.29068 370.99796 218.34375 370.98828 z M 235.45508 393.07812 C 230.74063 393.07617 225.38069 393.92341 220.86133 395.56641 C 218.60164 396.38792 216.54744 397.39829 214.86328 398.76172 C 213.17913 400.12515 211.76142 401.99267 211.54297 404.3418 C 211.30505 406.90054 212.62572 409.09924 214.26562 410.73438 C 215.90557 412.36943 217.99601 413.67651 220.29883 414.82031 C 224.90447 417.10787 230.35421 418.68265 234.64648 419.28711 C 239.42437 419.9599 245.64434 419.60686 251.09375 418.44727 C 253.81845 417.86749 256.32989 417.09459 258.42383 415.99414 C 260.51776 414.89369 262.53186 413.37584 262.98242 410.73633 C 263.48068 407.81736 262.53422 405.01177 260.90234 402.90234 C 259.27047 400.79291 257.03635 399.21377 254.58594 397.91992 C 249.68512 395.33231 243.82219 393.88943 239.31641 393.30859 C 238.09817 393.15174 236.80257 393.07888 235.45508 393.07812 z M 235.45117 398.74609 C 236.59344 398.74659 237.66076 398.80988 238.58984 398.92969 C 242.4886 399.43225 247.96361 400.83433 251.93945 402.93359 C 253.92738 403.98321 255.51684 405.2082 256.41797 406.37305 C 257.3191 407.5379 257.61553 408.47707 257.39258 409.7832 C 257.4213 409.61426 257.14989 410.25936 255.78516 410.97656 C 254.42041 411.6938 252.3003 412.39419 249.91211 412.90234 C 245.13572 413.9187 239.20396 414.20447 235.43555 413.67383 C 231.87902 413.17297 226.72387 411.68105 222.82031 409.74219 C 220.86854 408.77274 219.22791 407.67626 218.26758 406.71875 C 217.30725 405.76124 217.15842 405.17795 217.1875 404.86523 C 217.22038 404.51223 217.47432 403.94137 218.42969 403.16797 C 219.38505 402.39453 220.93862 401.5708 222.79883 400.89453 C 226.51924 399.54195 231.45151 398.74443 235.45117 398.74609 z M 544.51758 427.0625 C 549.68922 426.97935 554.90666 427.75456 560.4668 428.57227 C 584.02433 432.03662 617.59595 449.77414 629.72461 455.66797 C 633.66658 457.58355 641.30405 458.85572 638.2793 462.02734 C 628.27334 472.51931 588.13583 488.21145 565.7207 492.21484 C 555.94756 493.96031 545.76896 493.82439 535.96094 492.28711 C 513.991 488.84385 483.38035 472.61297 471.67969 469.43945 C 457.68954 465.64492 455.91553 460.57854 475.12305 453.81836 C 483.84654 450.74919 515.41697 435.33499 532.39062 429.19727 C 536.50124 427.71089 540.49525 427.12709 544.51758 427.0625 z M 68.869141 441.61719 C 68.919446 442.58255 68.974785 443.54704 69.037109 444.50977 C 71.025594 453.76889 74.741894 465.02678 78.800781 476.70703 C 94.012733 509.83705 116.52718 540.00028 144.71289 565.82812 L 144.71289 554.95312 C 143.21541 553.58411 141.73321 552.20383 140.26758 550.81055 C 138.78038 549.39674 137.3112 547.9697 135.85742 546.53125 C 135.85578 546.52966 135.85345 546.52886 135.85156 546.52734 C 134.41465 545.10552 132.99557 543.67005 131.5918 542.22461 C 131.56534 542.19815 131.53833 542.17017 131.51172 542.14258 C 130.17522 540.76532 128.85481 539.37687 127.54883 537.97852 C 127.42369 537.84472 127.2987 537.71053 127.17383 537.57617 C 125.89034 536.19687 124.62258 534.80765 123.36914 533.4082 C 123.2793 533.30805 123.18926 533.20796 123.09961 533.10742 C 121.79861 531.65091 120.51413 530.1849 119.24609 528.70703 C 119.2306 528.68813 119.21471 528.66935 119.19922 528.65234 C 117.90651 527.14503 116.63099 525.62678 115.37305 524.09766 C 115.33865 524.0557 115.30389 524.01461 115.26953 523.97266 C 94.821756 499.08828 79.012137 471.3516 68.869141 441.61719 z M 724.83008 441.64258 C 724.82991 441.64583 724.83025 441.64909 724.83008 441.65234 C 724.83094 441.64981 724.83117 441.64706 724.83203 441.64453 L 724.83008 441.64258 z M 724.83008 441.65234 C 724.21368 443.4586 723.57206 445.25554 722.91406 447.04688 C 722.89516 447.09675 722.87985 447.14738 722.86133 447.19727 C 722.85377 447.21994 722.8435 447.2398 722.83594 447.26172 C 722.2133 448.95189 721.56946 450.63399 720.91016 452.31055 C 720.82512 452.52674 720.74205 452.74317 720.65625 452.95898 C 720.01294 454.58157 719.35112 456.19717 718.67383 457.80664 C 718.58199 458.02472 718.49104 458.24309 718.39844 458.46094 C 717.71842 460.06414 717.02206 461.66022 716.30859 463.25 C 716.20126 463.48924 716.09052 463.72789 715.98242 463.9668 C 715.26854 465.54449 714.53946 467.11557 713.79297 468.67969 C 713.68676 468.90192 713.58119 469.12369 713.47461 469.3457 C 712.70393 470.94864 711.91982 472.54646 711.11523 474.13477 C 711.06081 474.24248 711.00402 474.34931 710.94922 474.45703 C 710.09391 476.13964 709.22303 477.81468 708.33008 479.48047 C 702.73241 489.92289 696.40159 500.03096 689.38867 509.75977 C 688.30769 511.25941 687.20686 512.74709 686.09375 514.22852 C 685.96978 514.3933 685.84896 514.55997 685.72461 514.72461 C 684.67749 516.11185 683.61208 517.48846 682.53711 518.85938 C 682.33642 519.11524 682.13711 519.37168 681.93555 519.62695 C 680.9051 520.93184 679.86008 522.22785 678.80469 523.51758 C 678.54768 523.83166 678.29165 524.14589 678.0332 524.45898 C 676.97203 525.7447 675.89832 527.02271 674.8125 528.29297 C 674.57893 528.56623 674.34407 528.83875 674.10938 529.11133 C 673.02461 530.37086 671.92911 531.62316 670.82031 532.86719 C 670.53609 533.18618 670.25061 533.50437 669.96484 533.82227 C 668.83688 535.07684 667.69902 536.32414 666.54688 537.5625 C 666.36054 537.76281 666.17307 537.96236 665.98633 538.16211 C 664.77348 539.45853 663.54963 540.74715 662.31055 542.02539 C 662.09738 542.24536 661.88197 542.46415 661.66797 542.68359 C 660.40852 543.97498 659.13954 545.25883 657.85352 546.53125 L 657.8418 546.54102 C 657.8229 546.55991 657.80758 546.57517 657.78906 546.5918 C 650.63967 553.66159 643.08343 560.43584 635.15039 566.89062 C 635.00639 567.00779 634.86504 567.12735 634.7207 567.24414 C 633.43366 568.28767 632.13088 569.31712 630.82422 570.34375 C 630.41225 570.66728 630.00374 570.99439 629.58984 571.31641 C 628.40458 572.23846 627.2068 573.14865 626.00586 574.05664 C 625.47083 574.4612 624.93852 574.86781 624.40039 575.26953 C 623.23002 576.14328 622.0482 577.00682 620.86328 577.86719 C 620.29265 578.28157 619.7224 578.69613 619.14844 579.10742 C 617.95766 579.96054 616.75772 580.80495 615.55273 581.64453 C 614.97991 582.04372 614.40608 582.4418 613.83008 582.83789 C 612.61908 583.67048 611.40268 584.49753 610.17773 585.31641 C 609.60763 585.69753 609.03594 586.07697 608.46289 586.45508 C 607.20242 587.28673 605.93698 588.11267 604.66211 588.92969 C 604.08475 589.2997 603.50214 589.66422 602.92188 590.03125 C 601.68378 590.81429 600.44266 591.59407 599.19141 592.36328 C 598.50656 592.78432 597.8157 593.19839 597.12695 593.61523 C 595.94532 594.33032 594.76332 595.04536 593.57031 595.74805 C 592.87276 596.15896 592.16816 596.56211 591.4668 596.96875 C 590.21929 597.69192 588.97246 598.41543 587.71289 599.125 C 587.16966 599.43114 586.61968 599.72967 586.07422 600.0332 C 584.69318 600.80154 583.31314 601.57033 581.91797 602.32227 C 581.89907 602.3336 581.87783 602.34608 581.85742 602.35742 C 581.55544 602.51994 581.24798 602.67601 580.94531 602.83789 C 577.53418 604.6628 574.08469 606.44277 570.5918 608.16797 C 570.48786 608.21937 570.38556 608.2732 570.28125 608.32422 C 570.27747 608.32679 570.2694 608.32825 570.26562 608.33203 C 568.93925 608.98551 567.5996 609.62091 566.26172 610.25977 C 565.55589 610.5969 564.85549 610.94046 564.14648 611.27344 C 562.9441 611.8381 561.73095 612.38857 560.51953 612.94141 C 559.63338 613.34585 558.75028 613.75428 557.85938 614.15234 C 556.75228 614.64693 555.63588 615.12863 554.52148 615.61328 C 553.52751 616.04562 552.53488 616.47989 551.53516 616.9043 C 550.38183 617.39386 549.22135 617.87266 548.06055 618.35156 C 547.1312 618.73496 546.20169 619.11759 545.26758 619.49414 C 544.09521 619.96673 542.9181 620.43286 541.73828 620.89453 C 540.7265 621.29051 539.7125 621.68242 538.69531 622.07031 C 537.5813 622.49513 536.46419 622.91505 535.34375 623.33008 C 534.2817 623.72353 533.21619 624.11141 532.14844 624.49609 C 531.02346 624.90133 529.8968 625.30384 528.76562 625.69922 C 527.69346 626.07415 526.61679 626.44071 525.53906 626.80664 C 524.4266 627.18422 523.31364 627.56152 522.19531 627.92969 C 521.11357 628.28572 520.0266 628.63328 518.93945 628.98047 C 517.74221 629.36277 516.5455 629.74585 515.3418 630.11719 C 514.34786 630.42371 513.34786 630.72038 512.34961 631.01953 C 511.13181 631.38463 509.91556 631.75182 508.69141 632.10547 C 507.55611 632.43353 506.41414 632.74813 505.27344 633.06641 C 504.1372 633.38351 503.00481 633.7064 501.86328 634.01367 C 500.52703 634.37348 499.18129 634.71618 497.83789 635.0625 C 496.90382 635.30326 495.97455 635.55285 495.03711 635.78711 C 492.785 636.34988 490.52334 636.89314 488.25195 637.41797 C 488.24995 637.41842 488.24792 637.41943 488.24414 637.41992 C 487.27806 637.64291 486.30347 637.84819 485.33398 638.06445 C 483.93582 638.37626 482.53992 638.69282 481.13477 638.99023 C 480.10462 639.20831 479.06706 639.41088 478.0332 639.62109 C 476.74283 639.88339 475.45432 640.15026 474.1582 640.40039 C 472.95567 640.63245 471.74643 640.84887 470.53906 641.07031 C 469.3696 641.28461 468.20127 641.50256 467.02734 641.70703 C 465.81767 641.91755 464.60303 642.11643 463.38867 642.31641 C 462.20073 642.51219 461.01268 642.70727 459.82031 642.89258 C 458.65161 643.07437 457.4795 643.24634 456.30664 643.41797 C 455.02617 643.60543 453.74433 643.78951 452.45898 643.96484 C 451.32309 644.1198 450.18453 644.26832 449.04492 644.41406 C 447.75743 644.57885 446.46793 644.73798 445.17578 644.89062 C 444.02707 645.02631 442.87699 645.15708 441.72461 645.2832 C 440.42748 645.42531 439.12788 645.55948 437.82617 645.68945 C 436.63808 645.80775 435.44965 645.92316 434.25781 646.03125 C 433.00452 646.14501 431.74753 646.24914 430.49023 646.35156 C 429.29345 646.44907 428.09686 646.54784 426.89648 646.63477 C 425.51979 646.73492 424.13912 646.82203 422.75781 646.9082 C 421.66334 646.97661 420.56997 647.04966 419.47266 647.10938 C 418.06263 647.18609 416.64706 647.24585 415.23242 647.30859 C 414.12838 647.35735 413.02672 647.41307 411.91992 647.45312 C 410.41113 647.50793 408.89659 647.54386 407.38281 647.58203 C 406.38517 647.60849 405.39035 647.64201 404.39062 647.66016 C 401.8825 647.70551 399.36879 647.73047 396.84766 647.73047 C 394.37097 647.73047 391.9016 647.70406 389.4375 647.66211 C 388.16728 647.63943 386.9035 647.59847 385.63672 647.56445 C 384.42958 647.53044 383.21959 647.50598 382.01562 647.46289 C 380.72141 647.41678 379.43306 647.35275 378.14258 647.29492 C 376.95317 647.24125 375.76233 647.19436 374.57617 647.13086 C 373.40288 647.06774 372.23452 646.98858 371.06445 646.91602 C 369.74039 646.83362 368.4155 646.75307 367.0957 646.6582 C 365.92309 646.57392 364.75514 646.4773 363.58594 646.38281 C 362.3597 646.28379 361.13257 646.18578 359.91016 646.07617 C 358.65451 645.96354 357.40387 645.83881 356.15234 645.71484 C 354.95119 645.59579 353.75002 645.47887 352.55273 645.34961 C 351.3521 645.21997 350.15566 645.07941 348.95898 644.93945 C 347.74329 644.79734 346.52795 644.65296 345.31641 644.5 C 344.15523 644.35335 342.99714 644.19914 341.83984 644.04297 C 340.55972 643.87024 339.28117 643.69451 338.00586 643.50977 C 336.89168 643.34838 335.78035 643.18018 334.66992 643.00977 C 333.43253 642.82003 332.19751 642.62475 330.96484 642.42383 C 329.80528 642.23485 328.64752 642.04248 327.49219 641.84375 C 326.26423 641.63247 325.03951 641.4136 323.81641 641.19141 C 322.70347 640.9892 321.59125 640.78538 320.48242 640.57422 C 319.22539 640.33497 317.9724 640.0869 316.7207 639.83594 C 315.64171 639.61975 314.56325 639.40258 313.48828 639.17773 C 312.25699 638.91997 311.03063 638.65345 309.80469 638.38477 C 308.67944 638.13834 307.55427 637.89263 306.43359 637.63672 C 305.32482 637.38349 304.22142 637.11972 303.11719 636.85742 C 301.89944 636.56829 300.68091 636.2806 299.46875 635.98047 C 298.41257 635.71893 297.36242 635.4456 296.31055 635.17578 C 295.10026 634.86548 293.88811 634.55763 292.68359 634.23633 C 291.62438 633.95362 290.57227 633.65814 289.51758 633.36719 C 288.31781 633.0361 287.11569 632.71085 285.92188 632.36914 C 284.95246 632.09172 283.99083 631.80019 283.02539 631.51562 C 281.73345 631.13492 280.43904 630.75853 279.1543 630.36523 C 278.6096 630.19856 278.07073 630.02242 277.52734 629.85352 C 273.72543 628.67109 269.94919 627.44335 266.21289 626.15234 C 264.43979 625.53968 262.67972 624.90627 260.92188 624.26953 C 260.5649 624.14027 260.20401 624.01707 259.84766 623.88672 C 258.14985 623.26593 256.46446 622.62738 254.78125 621.98438 C 254.35947 621.82299 253.93453 621.66654 253.51367 621.50391 C 252.10753 620.96086 250.71212 620.40221 249.31641 619.84375 C 248.55282 619.53836 247.7858 619.23788 247.02539 618.92773 C 245.73987 618.40344 244.46388 617.86542 243.1875 617.32812 C 242.40327 616.9978 241.61668 616.67099 240.83594 616.33594 C 239.52396 615.77298 238.22191 615.19777 236.91992 614.62109 C 236.1616 614.28509 235.40138 613.95186 234.64648 613.61133 C 234.20366 613.41139 233.76541 613.20577 233.32422 613.00391 L 233.32422 623.98438 C 281.85159 646.13591 337.58877 658.75195 396.89258 658.75195 C 540.13399 658.75195 662.58955 585.17935 712.81641 481.31445 C 717.65552 469.98555 721.85739 456.28887 724.49414 446.98242 C 724.62807 445.21041 724.73684 443.43339 724.83008 441.65234 z M 536.04102 444.78125 L 536.04102 444.7832 C 534.30621 444.76053 532.64958 444.83995 531.13867 445.05273 C 527.53399 445.56036 523.01249 446.86754 519.15234 448.78516 C 517.22233 449.74395 515.4589 450.84002 514.04688 452.24805 C 512.63477 453.65611 511.44368 455.61076 511.6582 457.91797 C 511.88271 460.33203 513.46664 462.10811 515.21875 463.34375 C 516.97086 464.57939 519.0687 465.45003 521.33203 466.12305 C 525.85877 467.46905 530.99937 467.99422 535.12109 467.46289 C 538.8903 466.97703 543.75965 465.78229 547.88281 463.60547 C 549.94439 462.51704 551.84388 461.18382 553.25391 459.36133 C 554.66393 457.53884 555.50147 455.06247 555.06641 452.51367 C 554.73041 450.54499 553.38494 449.27342 552.02344 448.38867 C 550.66194 447.50396 549.08811 446.88658 547.35742 446.37695 C 543.89605 445.35769 539.8001 444.83004 536.04102 444.78125 z M 535.9668 450.44922 L 535.9668 450.45117 C 539.22513 450.4935 542.97908 450.99874 545.75586 451.81641 C 547.14427 452.22524 548.28839 452.72527 548.93359 453.14453 C 549.33683 453.40645 549.45696 453.5714 549.48633 453.5957 C 549.60576 454.45717 549.41564 455.05944 548.76953 455.89453 C 548.09031 456.77244 546.83545 457.75143 545.23633 458.5957 C 542.03813 460.28421 537.55686 461.43609 534.39453 461.84375 C 531.43229 462.2256 526.6698 461.79839 522.94727 460.69141 C 521.086 460.13793 519.47373 459.40927 518.48633 458.71289 C 517.49889 458.01655 517.31509 457.52933 517.30273 457.39648 C 517.29895 457.33563 517.31786 456.99609 518.05078 456.26562 C 518.78337 455.53517 520.09673 454.64768 521.67578 453.86328 C 524.83384 452.29444 529.05919 451.07192 531.92773 450.66797 C 533.06001 450.50847 534.46277 450.42994 535.9668 450.44922 z M 71.892578 468.67773 C 80.721154 519.92061 106.6547 566.56588 144.71289 604.49805 L 144.71289 571.16992 C 114.90168 544.46306 91.114215 513.00967 75.183594 478.28711 A 1.970616 1.970616 0 0 1 75.117188 478.10938 C 74.009931 474.92394 72.932895 471.78077 71.892578 468.67773 z M 721.75781 468.9707 C 720.11326 473.70214 718.32336 478.47417 716.42773 482.9082 A 1.970616 1.970616 0 0 1 716.39062 482.99023 C 665.40118 588.47742 541.50266 662.69531 396.89453 662.69531 C 337.70834 662.69531 281.99555 650.25498 233.32617 628.33398 L 233.32617 666.46875 C 281.47296 689.52372 337.30835 702.71289 396.84961 702.71289 C 562.08632 702.71293 698.8072 601.15269 721.75781 468.9707 z M 438.70703 473.25977 C 443.75901 473.2711 448.46753 473.5587 452.21289 474.10938 C 480.77637 478.30989 521.84681 497.15366 535.44336 503.73242 C 543.60434 507.68108 544.32334 508.09146 535.80273 513.72266 C 521.16595 523.39602 485.76242 546.42131 458.58398 551.27539 C 446.73411 553.39193 434.39424 553.22892 422.50195 551.36523 C 395.86339 547.19025 344.76701 521.52411 331.54883 515.42773 C 325.37036 512.57816 309.69884 510.30921 316.32031 508.74414 L 330.35352 505.42578 C 341.92125 502.69167 386.40567 484.8365 406.98633 477.39453 C 414.81849 474.56246 427.59261 473.23938 438.70703 473.26172 L 438.70703 473.25977 z M 413.86719 497.41797 C 409.53279 497.44443 403.92213 498.27874 399.05273 499.93164 C 396.61804 500.75811 394.37257 501.77395 392.5293 503.17578 C 390.68647 504.57723 389.08461 506.5818 388.97852 509.14844 C 388.86778 511.84248 390.35466 514.07686 392.1875 515.77734 C 394.02038 517.47787 396.35142 518.84358 398.92188 520 C 404.06274 522.31281 410.11654 523.75806 415.03125 523.78516 C 419.57481 523.81161 425.57918 523.16303 430.78125 521.25195 C 433.38228 520.29645 435.80464 519.02935 437.70312 517.15625 C 439.60162 515.28315 440.91325 512.62922 440.80859 509.66992 C 440.71373 506.99402 438.92062 505.21942 436.99219 503.84961 C 435.06372 502.47983 432.67768 501.38117 430.05469 500.44336 C 424.80874 498.56766 418.69209 497.38815 413.86719 497.41797 z M 413.90234 503.08594 C 417.70787 503.06326 423.54846 504.13723 428.14648 505.78125 C 430.4455 506.60326 432.4521 507.57989 433.70898 508.47266 C 434.96583 509.36538 435.15058 510.04024 435.14453 509.86914 C 435.1914 511.19337 434.7711 512.08484 433.72266 513.11914 C 432.67429 514.15345 430.93617 515.15454 428.82617 515.92969 C 424.60614 517.47997 418.99294 518.13998 415.0625 518.11719 C 411.31695 518.09829 405.62379 516.79868 401.24805 514.83008 C 399.06015 513.84578 397.19186 512.68518 396.04492 511.62109 C 394.89802 510.55701 394.62595 509.7876 394.64258 509.38281 L 394.64258 509.38086 C 394.65392 509.06716 394.88147 508.51033 395.96094 507.68945 C 397.04029 506.86862 398.81145 506.00124 400.875 505.30078 C 405.00209 503.89986 410.3107 503.1082 413.90234 503.08594 z M 154.90625 563.86914 L 154.90625 574.75977 C 160.71122 579.6377 166.72625 584.34211 172.94336 588.86133 L 172.94336 577.94141 C 166.72829 573.4316 160.71211 568.73831 154.90625 563.86914 z M 154.90625 579.92969 L 154.90625 614.19336 C 160.67841 619.42676 166.70174 624.46313 172.94336 629.30859 L 172.94336 593.75391 C 166.73659 589.32264 160.71843 584.71366 154.90625 579.92969 z M 209.01758 600.79688 L 209.01758 611.75391 C 214.90412 614.99961 220.91652 618.09962 227.05273 621.04297 L 227.05273 610.07227 C 226.24221 609.68256 225.4303 609.29444 224.62305 608.90039 C 223.96525 608.57913 223.30731 608.25829 222.65234 607.93359 C 221.34225 607.2842 220.03893 606.62642 218.74023 605.96289 C 218.03423 605.60195 217.32955 605.23995 216.62695 604.875 C 215.33147 604.20221 214.04159 603.52272 212.75781 602.83594 C 212.15079 602.51128 211.54579 602.18338 210.94141 601.85547 C 210.29706 601.50586 209.65894 601.14957 209.01758 600.79688 z M 209.01758 616.2832 L 209.01758 653.61719 C 214.8912 657.03214 220.9067 660.29057 227.05273 663.38672 L 227.05273 625.44336 C 220.91966 622.54163 214.90856 619.48378 209.01758 616.2832 z "
       style="color:#000000;font-style:normal;font-variant:normal;font-weight:normal;font-stretch:normal;font-size:medium;line-height:normal;font-family:sans-serif;font-variant-ligatures:normal;font-variant-position:normal;font-variant-caps:normal;font-variant-numeric:normal;font-variant-alternates:normal;font-variant-east-asian:normal;font-feature-settings:normal;font-variation-settings:normal;text-indent:0;text-align:start;text-decoration:none;text-decoration-line:none;text-decoration-style:solid;text-decoration-color:#000000;letter-spacing:normal;word-spacing:normal;text-transform:none;writing-mode:lr-tb;direction:ltr;text-orientation:mixed;dominant-baseline:auto;baseline-shift:baseline;text-anchor:start;white-space:normal;shape-padding:0;shape-margin:0;inline-size:0;clip-rule:nonzero;display:inline;overflow:visible;visibility:visible;isolation:auto;mix-blend-mode:normal;color-interpolation:sRGB;color-interpolation-filters:linearRGB;solid-color:#000000;solid-opacity:1;vector-effect:none;fill:#000000;fill-opacity:1;fill-rule:nonzero;stroke:none;stroke-width:7.68472;stroke-linecap:round;stroke-linejoin:round;stroke-miterlimit:4;stroke-dasharray:none;stroke-dashoffset:0;stroke-opacity:1;color-rendering:auto;image-rendering:auto;shape-rendering:auto;text-rendering:auto;enable-background:accumulate;stop-color:#000000"
       id="path1524" />
  </g>
</svg>
