<?xml version="1.0" encoding="UTF-8" standalone="no"?>
<!-- Created with Inkscape (http://www.inkscape.org/) -->

<svg
   width="14.64389mm"
   height="12.4813mm"
   viewBox="0 0 14.64389 12.4813"
   version="1.1"
   id="svg2389"
   inkscape:version="1.1.2 (0a00cf5339, 2022-02-04)"
   sodipodi:docname="brain.svg"
   xmlns:inkscape="http://www.inkscape.org/namespaces/inkscape"
   xmlns:sodipodi="http://sodipodi.sourceforge.net/DTD/sodipodi-0.dtd"
   xmlns="http://www.w3.org/2000/svg"
   xmlns:svg="http://www.w3.org/2000/svg">
  <sodipodi:namedview
     id="namedview2391"
     pagecolor="#ffffff"
     bordercolor="#666666"
     borderopacity="1.0"
     inkscape:pageshadow="2"
     inkscape:pageopacity="0.0"
     inkscape:pagecheckerboard="0"
     inkscape:document-units="mm"
     showgrid="false"
     inkscape:zoom="0.68862935"
     inkscape:cx="497.3648"
     inkscape:cy="437.82624"
     inkscape:window-width="1920"
     inkscape:window-height="1011"
     inkscape:window-x="0"
     inkscape:window-y="0"
     inkscape:window-maximized="1"
     inkscape:current-layer="layer1" />
  <defs
     id="defs2386">
    <clipPath
       clipPathUnits="userSpaceOnUse"
       id="clipPath368">
      <path
         d="m 24.568,530.656 h 50.4 v 50.4 h -50.4 z"
         id="path366" />
    </clipPath>
  </defs>
  <g
     inkscape:label="Calque 1"
     inkscape:groupmode="layer"
     id="layer1"
     transform="translate(26.532812,-32.565303)">
    <g
       id="g362"
       transform="matrix(0.35277777,0,0,-0.35277777,-36.678485,235.00632)">
      <g
         id="g364"
         clip-path="url(#clipPath368)">
        <g
           id="g370"
           transform="translate(69.208,552.4395)">
          <path
             d="m 0,0 c 1.505,2.181 1.402,5.142 -0.259,7.219 0.207,0.623 0.311,1.246 0.311,1.87 0,2.96 -2.128,5.453 -4.983,6.024 -0.882,2.545 -3.218,4.207 -5.917,4.207 -0.467,0 -0.986,-0.052 -1.454,-0.156 -1.09,1.299 -2.699,2.078 -4.36,2.233 -1.713,0.104 -3.374,-0.467 -4.62,-1.609 -1.609,1.09 -3.633,1.402 -5.45,0.831 -1.869,-0.572 -3.322,-1.974 -3.997,-3.844 h -0.363 c -3.426,0 -6.177,-2.7 -6.229,-6.128 v -0.312 c -2.076,-1.143 -3.27,-3.376 -3.114,-5.765 0.207,-3.272 3.114,-5.713 6.436,-5.713 h 8.046 c 3.426,0 6.229,-2.752 6.281,-6.18 v -6.648 h 4.1 v 4.675 0.675 c 0,1.921 -0.052,4.362 1.298,5.92 0.83,0.883 1.765,1.662 2.751,2.337 0.778,0.468 1.453,1.039 2.024,1.714 0.26,0.416 0.52,0.831 0.675,1.247 -1.09,0.415 -2.232,0.571 -3.374,0.415 -0.571,-0.052 -1.09,0.312 -1.194,0.883 -0.052,0.571 0.312,1.091 0.883,1.195 1.401,0.207 2.802,0.052 4.152,-0.468 0,0.156 0,0.26 0.052,0.416 0.052,0.831 -0.052,1.662 -0.311,2.441 -0.727,1.87 -2.544,2.7 -4.257,3.375 -0.311,0.104 -0.623,0.209 -1.038,0.312 l -0.311,0.104 h -0.052 c -0.415,-0.052 -0.779,-0.156 -1.194,-0.312 l -0.467,-0.104 -0.519,-0.104 c -0.882,-1.038 -1.35,-2.388 -1.246,-3.791 0.104,-1.402 0.779,-2.648 1.817,-3.531 0.415,-0.364 0.415,-0.987 0.104,-1.454 -0.312,-0.364 -0.935,-0.416 -1.35,-0.104 -0.623,0.519 -1.142,1.194 -1.557,1.922 h -0.104 c -1.454,0.259 -3.114,0.519 -4.464,1.401 -0.467,0.312 -0.571,0.935 -0.26,1.403 0.312,0.467 0.935,0.623 1.402,0.311 0.779,-0.467 1.661,-0.779 2.595,-0.883 -0.104,0.26 -0.155,0.52 -0.207,0.831 -0.104,1.143 0.103,2.337 0.571,3.376 -0.727,-0.104 -1.402,-0.155 -2.129,-0.155 -0.622,0 -1.245,0.051 -1.868,0.155 -1.142,-1.402 -2.751,-2.44 -4.516,-2.856 -2.336,-1.195 -4.516,-2.701 -4.516,-5.246 0,-0.571 -0.467,-1.038 -1.038,-1.038 -0.571,0 -1.038,0.467 -1.038,1.038 0.051,1.974 0.934,3.792 2.439,5.038 -1.245,0.156 -2.388,0.675 -3.218,1.61 -0.363,0.468 -0.259,1.091 0.156,1.454 0.415,0.364 1.09,0.312 1.453,-0.104 0.415,-0.519 1.609,-0.986 3.323,-0.935 1.712,0 3.425,0.624 4.723,1.766 -1.506,0.624 -2.751,1.766 -3.53,3.22 -0.311,0.52 -0.104,1.143 0.364,1.403 0.519,0.312 1.141,0.104 1.401,-0.364 1.557,-2.804 4.827,-3.583 9.966,-2.389 -0.934,0.779 -1.609,2.026 -1.557,3.999 0,0.571 0.519,1.039 1.09,0.987 0.571,0 1.038,-0.52 0.986,-1.091 -0.104,-2.337 1.194,-2.804 3.27,-3.428 0.312,-0.103 0.623,-0.155 0.934,-0.259 0.572,1.298 1.713,2.285 3.115,2.649 0.571,0.155 1.142,-0.208 1.298,-0.779 0.155,-0.572 -0.208,-1.143 -0.779,-1.299 -0.727,-0.208 -1.298,-0.675 -1.661,-1.35 v -0.104 c 1.609,-0.779 3.011,-1.922 3.737,-3.843 0.156,-0.416 0.26,-0.831 0.312,-1.247 0.207,0.156 0.363,0.364 0.467,0.624 0.363,0.778 0.623,1.558 0.727,2.44 0.052,0.364 0.311,0.676 0.675,0.831 0.363,0.156 0.778,0.052 1.038,-0.208 0.311,-0.259 0.415,-0.623 0.311,-1.038 C -3.374,8.673 -3.685,7.635 -4.204,6.7 -4.723,5.817 -5.502,5.09 -6.436,4.57 -6.54,3.272 -6.955,1.974 -7.578,0.831 c 0.675,-0.779 1.401,-1.454 2.284,-1.974 0.311,-0.207 0.519,-0.571 0.519,-0.935 0,-0.363 -0.208,-0.727 -0.571,-0.882 -0.363,-0.156 -0.727,-0.156 -1.038,0.052 -0.883,0.571 -1.713,1.298 -2.44,2.077 -0.519,-0.416 -1.09,-0.831 -1.609,-1.194 -0.882,-0.572 -1.661,-1.195 -2.336,-1.974 -0.83,-0.987 -0.778,-2.909 -0.778,-4.57 v -0.727 -4.675 h 4.152 c 0,6.752 3.218,7.116 3.634,7.22 1.349,0.363 4.931,2.232 5.709,6.076 C 0.052,-0.467 0,-0.208 0,0 -0.052,0 -0.052,0 0,0"
             style="fill:#000000;fill-opacity:1;fill-rule:nonzero;stroke:none"
             id="path372" />
        </g>
      </g>
    </g>
  </g>
</svg>
