<?xml version="1.0" encoding="UTF-8" standalone="no"?>
<!-- Created with Inkscape (http://www.inkscape.org/) -->

<svg
   width="19.388905mm"
   height="13.027126mm"
   viewBox="0 0 19.388905 13.027126"
   version="1.1"
   id="svg3254"
   inkscape:version="1.1.2 (0a00cf5339, 2022-02-04)"
   sodipodi:docname="hepatoblastoma.svg"
   xmlns:inkscape="http://www.inkscape.org/namespaces/inkscape"
   xmlns:sodipodi="http://sodipodi.sourceforge.net/DTD/sodipodi-0.dtd"
   xmlns="http://www.w3.org/2000/svg"
   xmlns:svg="http://www.w3.org/2000/svg">
  <sodipodi:namedview
     id="namedview3256"
     pagecolor="#ffffff"
     bordercolor="#666666"
     borderopacity="1.0"
     inkscape:pageshadow="2"
     inkscape:pageopacity="0.0"
     inkscape:pagecheckerboard="0"
     inkscape:document-units="mm"
     showgrid="false"
     inkscape:zoom="2.7545174"
     inkscape:cx="-69.8852"
     inkscape:cy="-35.03336"
     inkscape:window-width="1920"
     inkscape:window-height="1011"
     inkscape:window-x="0"
     inkscape:window-y="0"
     inkscape:window-maximized="1"
     inkscape:current-layer="g504" />
  <defs
     id="defs3251">
    <clipPath
       clipPathUnits="userSpaceOnUse"
       id="clipPath508">
      <path
         d="M 0,792 H 612 V 0 H 0 Z"
         id="path506" />
    </clipPath>
  </defs>
  <g
     inkscape:label="Calque 1"
     inkscape:groupmode="layer"
     id="layer1"
     transform="translate(-51.01498,-167.58416)">
    <g
       id="g502"
       transform="matrix(0.35277777,0,0,-0.35277777,12.134087,323.33268)">
      <g
         id="g504"
         clip-path="url(#clipPath508)">
        <g
           id="g510"
           transform="translate(120.3311,405.0474)">
          <path
             d="m 0,0 c -0.058,0.023 -0.216,0.212 -0.349,0.279 -0.107,0.053 -0.234,0.041 -0.349,0.07 -0.072,0.018 -0.139,0.049 -0.21,0.07 -0.092,0.026 -0.186,0.046 -0.279,0.07 -0.07,0.046 -0.135,0.102 -0.209,0.139 -0.066,0.033 -0.149,0.029 -0.21,0.07 -0.213,0.142 -0.202,0.235 -0.349,0.419 -0.042,0.051 -0.101,0.087 -0.14,0.14 -0.101,0.134 -0.186,0.279 -0.28,0.419 -0.046,0.07 -0.08,0.15 -0.139,0.209 -0.07,0.07 -0.146,0.134 -0.21,0.21 -0.053,0.064 -0.08,0.15 -0.139,0.209 -0.059,0.06 -0.144,0.088 -0.21,0.14 -0.051,0.041 -0.093,0.093 -0.139,0.139 l -0.14,0.419 c -0.023,0.07 -0.029,0.149 -0.07,0.21 l -0.279,0.419 c -0.023,0.163 -0.033,0.328 -0.07,0.489 -0.033,0.144 -0.093,0.279 -0.14,0.419 -0.023,0.07 -0.036,0.144 -0.069,0.21 -0.047,0.093 -0.099,0.183 -0.14,0.279 -0.169,0.394 0.037,0.016 -0.14,0.489 -0.036,0.097 -0.101,0.182 -0.139,0.279 -0.346,0.863 0.048,0.043 -0.28,0.698 -0.023,0.093 -0.027,0.194 -0.07,0.28 -0.029,0.059 -0.11,0.08 -0.139,0.14 -0.469,0.938 0.091,-0.004 -0.21,0.698 -0.033,0.077 -0.093,0.139 -0.139,0.209 -0.024,0.14 -0.02,0.286 -0.07,0.419 -0.023,0.062 -0.11,0.081 -0.14,0.14 -0.111,0.221 -0.142,0.464 -0.209,0.698 -0.021,0.071 -0.039,0.143 -0.07,0.21 -0.109,0.236 -0.286,0.445 -0.349,0.698 -0.047,0.186 -0.025,0.405 -0.14,0.559 -0.149,0.198 -0.315,0.4 -0.419,0.628 -0.061,0.134 -0.074,0.287 -0.139,0.419 -0.178,0.355 -0.082,0.193 -0.28,0.489 -0.255,0.764 0.152,-0.393 -0.21,0.419 -0.059,0.135 -0.103,0.276 -0.139,0.419 -0.023,0.093 -0.032,0.191 -0.07,0.279 -0.033,0.077 -0.093,0.14 -0.14,0.21 -0.023,0.139 -0.025,0.284 -0.07,0.419 -0.026,0.08 -0.11,0.131 -0.139,0.21 -0.042,0.11 -0.039,0.234 -0.07,0.349 -0.039,0.142 -0.101,0.277 -0.14,0.419 -0.031,0.114 -0.044,0.233 -0.07,0.349 -0.02,0.094 -0.043,0.187 -0.069,0.279 -0.139,0.485 0.014,-0.107 -0.21,0.489 -0.034,0.09 -0.043,0.187 -0.07,0.279 -0.02,0.071 -0.049,0.139 -0.07,0.21 -0.026,0.092 -0.043,0.187 -0.069,0.279 -0.094,0.328 -0.05,0.116 -0.21,0.489 -0.106,0.247 -0.057,0.258 -0.139,0.559 -0.039,0.141 -0.094,0.279 -0.14,0.419 -0.024,0.07 -0.055,0.137 -0.07,0.209 -0.023,0.116 -0.052,0.232 -0.07,0.349 -0.028,0.186 -0.035,0.374 -0.07,0.559 -0.035,0.188 -0.139,0.559 -0.139,0.559 -0.024,0.256 -0.044,0.512 -0.07,0.768 -0.044,0.419 -0.14,1.257 -0.14,1.257 0.024,1.21 0.008,2.422 0.07,3.631 0.008,0.147 0.093,0.28 0.14,0.419 0.346,1.041 -0.308,-0.892 0.209,0.489 0.177,0.473 -0.029,0.095 0.14,0.489 0.041,0.095 0.099,0.183 0.14,0.279 0.029,0.068 0.041,0.142 0.069,0.21 0.041,0.095 0.099,0.183 0.14,0.279 0.229,0.533 -0.229,-0.19 0.349,0.838 0.098,0.175 0.238,0.322 0.349,0.489 0.075,0.113 0.14,0.232 0.21,0.349 0.023,0.093 0.032,0.191 0.07,0.279 0.099,0.232 0.141,0.176 0.279,0.349 0.053,0.066 0.098,0.137 0.139,0.21 0.052,0.09 0.074,0.199 0.14,0.279 0.054,0.065 0.14,0.094 0.21,0.14 0.136,0.408 -0.037,0.033 0.279,0.349 0.082,0.083 0.134,0.191 0.21,0.279 0.064,0.076 0.14,0.14 0.209,0.21 0.121,0.364 -0.009,0.075 0.21,0.349 0.052,0.066 0.076,0.154 0.139,0.21 0.126,0.11 0.301,0.161 0.419,0.279 l 0.629,0.629 0.139,0.139 c 0.07,0.07 0.122,0.165 0.21,0.21 0.14,0.07 0.289,0.123 0.419,0.209 0.523,0.349 -0.079,0.113 0.419,0.279 0.07,0.07 0.129,0.153 0.209,0.21 0.151,0.108 0.318,0.152 0.489,0.209 l 0.419,0.28 c 0.07,0.047 0.128,0.119 0.209,0.139 0.094,0.024 0.187,0.044 0.28,0.07 0.071,0.021 0.138,0.051 0.21,0.07 0.185,0.051 0.374,0.087 0.558,0.14 0.142,0.04 0.274,0.115 0.419,0.139 l 0.419,0.07 c 0.117,0.022 0.232,0.05 0.349,0.07 0.162,0.027 0.326,0.047 0.489,0.07 0.045,0.018 0.449,0.188 0.559,0.21 0.161,0.032 0.325,0.046 0.488,0.07 0.479,0.159 -0.115,-0.029 0.559,0.139 0.072,0.018 0.136,0.062 0.21,0.07 0.371,0.039 0.745,0.046 1.117,0.07 1.263,0.18 0.061,0.027 2.654,0.14 0.349,0.015 0.698,0.046 1.047,0.069 l 2.305,-0.069 5.865,-0.07 c 0.119,-0.003 0.234,-0.045 0.349,-0.07 0.094,-0.021 0.184,-0.068 0.28,-0.07 l 7.612,-0.07 c 3.546,-0.187 -1.9,0.086 4.748,-0.139 0.233,-0.009 0.465,-0.051 0.698,-0.07 0.46,-0.039 1.855,-0.131 2.235,-0.14 l 4.609,-0.07 c 0.116,-0.023 0.233,-0.041 0.349,-0.07 0.071,-0.018 0.136,-0.058 0.209,-0.07 0.371,-0.058 0.754,-0.048 1.117,-0.139 0.417,-0.104 0.185,-0.054 0.699,-0.14 1.262,-0.421 -0.079,0.003 3.491,-0.14 0.074,-0.003 0.137,-0.057 0.21,-0.07 0.208,-0.034 0.419,-0.046 0.628,-0.069 0.3,-0.1 0.397,-0.063 0.559,-0.28 0.101,-0.134 0.139,-0.325 0.279,-0.419 0.749,-0.499 -0.387,0.279 0.42,-0.349 0.751,-0.584 0.152,-0.013 0.628,-0.489 0.135,-0.404 0.105,-0.221 0,-0.907 -0.011,-0.073 -0.032,-0.147 -0.07,-0.21 -0.034,-0.056 -0.093,-0.093 -0.14,-0.139 -0.133,-0.401 0.021,-0.043 -0.209,-0.35 -0.101,-0.134 -0.161,-0.3 -0.279,-0.419 -0.432,-0.431 -0.218,-0.25 -0.629,-0.559 -0.047,-0.139 -0.035,-0.315 -0.14,-0.419 -0.154,-0.154 -0.252,-0.224 -0.349,-0.418 -0.033,-0.066 -0.037,-0.144 -0.07,-0.21 -0.171,-0.342 -0.084,-0.089 -0.279,-0.349 -0.101,-0.134 -0.186,-0.279 -0.279,-0.419 l -0.14,-0.209 -0.14,-0.21 c -0.166,-0.498 0.07,0.104 -0.279,-0.419 -0.363,-0.544 0.226,0.086 -0.209,-0.349 -0.134,-0.401 0.025,-0.027 -0.28,-0.419 0,0 -0.349,-0.524 -0.419,-0.629 -0.046,-0.07 -0.08,-0.15 -0.139,-0.209 -0.047,-0.047 -0.099,-0.089 -0.14,-0.14 -0.333,-0.416 0.113,-0.027 -0.489,-0.628 -0.059,-0.06 -0.15,-0.081 -0.209,-0.14 -0.272,-0.272 -0.115,-0.231 -0.349,-0.419 -0.317,-0.253 -0.129,-0.022 -0.489,-0.35 -0.171,-0.154 -0.326,-0.325 -0.489,-0.488 -0.047,-0.047 -0.085,-0.103 -0.14,-0.14 -0.494,-0.329 0.118,0.084 -0.489,-0.349 -0.068,-0.049 -0.139,-0.093 -0.209,-0.14 -0.28,-0.419 0.023,-0.023 -0.349,-0.349 -0.124,-0.108 -0.212,-0.258 -0.35,-0.349 -0.498,-0.333 0.163,0.096 -0.628,-0.349 -0.237,-0.133 -0.473,-0.269 -0.698,-0.419 -0.14,-0.093 -0.269,-0.205 -0.419,-0.279 -0.093,-0.047 -0.19,-0.087 -0.279,-0.14 -0.144,-0.086 -0.28,-0.187 -0.419,-0.279 -0.07,-0.047 -0.128,-0.124 -0.21,-0.14 l -0.349,-0.07 c -0.07,-0.047 -0.144,-0.087 -0.21,-0.14 -0.051,-0.041 -0.082,-0.106 -0.14,-0.14 -0.224,-0.13 -0.465,-0.232 -0.698,-0.349 -0.345,-0.172 -0.18,-0.106 -0.489,-0.209 -0.069,-0.07 -0.127,-0.155 -0.209,-0.21 -0.061,-0.04 -0.144,-0.036 -0.21,-0.069 -0.075,-0.038 -0.134,-0.103 -0.209,-0.14 -0.066,-0.033 -0.144,-0.037 -0.209,-0.07 -0.076,-0.038 -0.133,-0.106 -0.21,-0.14 -0.088,-0.037 -0.189,-0.036 -0.279,-0.069 -0.892,-0.335 0.24,0.044 -0.489,-0.28 -0.135,-0.059 -0.419,-0.139 -0.419,-0.139 -0.07,-0.047 -0.135,-0.102 -0.209,-0.14 -0.17,-0.085 -0.384,-0.092 -0.559,-0.14 -0.142,-0.038 -0.279,-0.093 -0.419,-0.139 l -0.419,-0.14 -0.21,-0.07 -3.701,0.07 c -0.164,0.017 -0.232,0.232 -0.349,0.349 l -0.139,0.14 c -0.024,0.093 -0.05,0.185 -0.07,0.279 -0.026,0.116 -0.039,0.235 -0.07,0.349 -0.039,0.142 -0.093,0.28 -0.14,0.419 l -0.069,0.21 -0.07,0.209 c -0.024,0.07 -0.03,0.149 -0.071,0.21 -0.152,0.23 -0.137,0.166 -0.209,0.419 -0.119,0.416 -0.041,0.224 -0.14,0.768 -0.034,0.193 -0.079,0.309 -0.139,0.489 -0.086,0.775 -0.003,0.429 -0.21,1.047 l -0.07,0.21 -0.069,0.209 c 0.023,2.375 0.027,4.749 0.069,7.123 0.011,0.571 0.017,0.54 0.14,0.908 0.061,0.543 0.183,1.321 0,1.816 -0.051,0.138 -0.279,0.093 -0.419,0.139 l -0.209,0.07 c -0.35,-0.023 -0.702,-0.02 -1.048,-0.07 C 20.804,33.708 20.67,33.636 20.53,33.59 l -0.209,-0.07 -0.21,-0.07 c -0.069,-0.023 -0.138,-0.052 -0.209,-0.07 -0.351,-0.088 -0.189,-0.039 -0.489,-0.139 -0.13,-0.13 -0.173,-0.192 -0.349,-0.28 -0.066,-0.033 -0.14,-0.046 -0.21,-0.069 -0.408,-0.409 -0.486,-0.258 -0.139,-0.489 0.046,-0.14 0.104,-0.277 0.139,-0.419 0.023,-0.093 0.017,-0.2 0.07,-0.279 0.047,-0.071 0.145,-0.087 0.21,-0.141 0.537,-0.447 -0.101,-0.002 0.419,-0.349 0.023,-0.069 0.036,-0.143 0.07,-0.209 0.087,-0.176 0.149,-0.219 0.279,-0.349 0.211,-0.634 0.016,0.011 0.14,-1.467 0.011,-0.141 0.046,-0.279 0.069,-0.419 0.017,-0.26 0.051,-1.148 0.14,-1.536 0.033,-0.144 0.111,-0.275 0.14,-0.419 l 0.069,-0.349 c 0.024,-0.326 0.04,-0.653 0.07,-0.978 0.074,-0.771 0.057,-0.204 0.14,-0.908 0.03,-0.255 0.046,-0.512 0.07,-0.768 -0.024,-0.535 -0.032,-1.071 -0.07,-1.606 -0.008,-0.119 -0.07,-0.23 -0.07,-0.349 0,-0.42 0.025,-0.84 0.07,-1.257 0.025,-0.236 0.14,-0.699 0.14,-0.699 -0.024,-0.512 -0.029,-1.025 -0.07,-1.536 -0.006,-0.074 -0.05,-0.138 -0.07,-0.209 -0.033,-0.115 -0.151,-0.66 -0.21,-0.699 -0.264,-0.176 -0.15,-0.08 -0.349,-0.279 -0.056,-0.171 -0.074,-0.283 -0.209,-0.419 -0.06,-0.059 -0.141,-0.091 -0.21,-0.14 -0.094,-0.067 -0.19,-0.135 -0.279,-0.209 -0.256,-0.213 -0.006,-0.095 -0.349,-0.21 -0.396,-0.594 0.256,0.326 -0.559,-0.489 -0.193,-0.192 -0.192,-0.219 -0.419,-0.349 -0.09,-0.051 -0.191,-0.084 -0.279,-0.139 -0.483,-0.303 -0.078,-0.142 -0.489,-0.28 -0.154,-0.154 -0.225,-0.252 -0.419,-0.349 -0.066,-0.033 -0.145,-0.034 -0.21,-0.07 -0.79,-0.439 -0.024,-0.167 -0.907,-0.419 -0.211,-0.14 -0.241,-0.173 -0.489,-0.279 -0.068,-0.029 -0.14,-0.047 -0.21,-0.07 -0.046,-0.047 -0.088,-0.098 -0.139,-0.14 -0.135,-0.108 -0.335,-0.213 -0.489,-0.279 -0.068,-0.029 -0.145,-0.034 -0.209,-0.07 -0.147,-0.081 -0.26,-0.226 -0.419,-0.279 -0.07,-0.023 -0.146,-0.034 -0.21,-0.07 -0.721,-0.4 -0.155,-0.191 -0.629,-0.349 -0.272,-0.273 0.014,-0.028 -0.349,-0.21 -0.541,-0.27 0.108,-0.034 -0.419,-0.209 -0.07,-0.047 -0.136,-0.099 -0.209,-0.14 -0.136,-0.075 -0.294,-0.115 -0.419,-0.209 -0.067,-0.051 -0.08,-0.151 -0.14,-0.21 -0.211,-0.211 -0.249,-0.199 -0.489,-0.279 -0.328,-0.328 -0.127,-0.155 -0.628,-0.489 l -0.21,-0.139 C 9.847,10.267 10.151,10.63 9.776,10.405 9.492,10.234 9.782,10.284 9.497,10.056 9.439,10.01 9.357,10.009 9.288,9.986 8.829,9.298 9.234,9.789 8.589,9.288 8.511,9.227 8.443,9.154 8.38,9.078 8.326,9.014 8.306,8.921 8.24,8.869 8.183,8.823 8.1,8.822 8.03,8.799 7.984,8.752 7.932,8.71 7.891,8.659 7.838,8.594 7.811,8.509 7.751,8.45 7.388,8.087 7.679,8.516 7.402,8.17 7.136,7.838 7.412,8.061 7.053,7.821 6.681,7.263 7.169,7.937 6.704,7.472 6.561,7.329 6.597,7.227 6.424,7.123 6.361,7.085 6.285,7.076 6.215,7.053 6.078,6.847 6.067,6.802 5.866,6.634 5.801,6.58 5.721,6.548 5.656,6.494 5.308,6.204 5.605,6.338 5.237,6.215 5.214,6.145 5.213,6.063 5.167,6.005 5.115,5.94 5.022,5.919 4.958,5.866 4.882,5.803 4.809,5.734 4.749,5.656 4.31,5.092 4.665,5.368 4.26,5.098 3.913,4.578 4.358,5.216 3.911,4.679 3.857,4.614 3.823,4.535 3.771,4.469 3.729,4.418 3.672,4.381 3.631,4.33 3.579,4.264 3.547,4.183 3.492,4.12 3.383,3.996 3.259,3.887 3.143,3.771 L 2.933,3.562 C 2.742,2.989 3.072,3.875 2.444,2.933 2.24,2.626 2.372,2.774 2.025,2.514 1.979,2.444 1.938,2.37 1.885,2.304 1.844,2.253 1.78,2.221 1.746,2.165 1.708,2.102 1.728,2.007 1.676,1.955 1.624,1.903 1.536,1.909 1.466,1.885 1.42,1.839 1.361,1.802 1.327,1.746 1.289,1.683 1.309,1.588 1.257,1.536 1.205,1.484 1.117,1.49 1.047,1.466 0.926,1.103 1.057,1.391 0.838,1.117 0.572,0.785 0.848,1.007 0.489,0.768 0.396,0.628 0.328,0.468 0.209,0.349 0.14,0.279 0.063,0.215 0,0.14 -0.054,0.075 0.058,-0.023 0,0"
             style="fill:#000000;fill-opacity:1;fill-rule:evenodd;stroke:none"
             id="path512" />
        </g>
        <g
           id="g514"
           transform="translate(120.3311,405.0474)">
          <path
             d="m 0,0 c -0.058,0.023 -0.216,0.212 -0.349,0.279 -0.107,0.053 -0.234,0.041 -0.349,0.07 -0.072,0.018 -0.139,0.049 -0.21,0.07 -0.092,0.026 -0.186,0.046 -0.279,0.07 -0.07,0.046 -0.135,0.102 -0.209,0.139 -0.066,0.033 -0.149,0.029 -0.21,0.07 -0.213,0.142 -0.202,0.235 -0.349,0.419 -0.042,0.051 -0.101,0.087 -0.14,0.14 -0.101,0.134 -0.186,0.279 -0.28,0.419 -0.046,0.07 -0.08,0.15 -0.139,0.209 -0.07,0.07 -0.146,0.134 -0.21,0.21 -0.053,0.064 -0.08,0.15 -0.139,0.209 -0.059,0.06 -0.144,0.088 -0.21,0.14 -0.051,0.041 -0.093,0.093 -0.139,0.139 l -0.14,0.419 c -0.023,0.07 -0.029,0.149 -0.07,0.21 l -0.279,0.419 c -0.023,0.163 -0.033,0.328 -0.07,0.489 -0.033,0.144 -0.093,0.279 -0.14,0.419 -0.023,0.07 -0.036,0.144 -0.069,0.21 -0.047,0.093 -0.099,0.183 -0.14,0.279 -0.169,0.394 0.037,0.016 -0.14,0.489 -0.036,0.097 -0.101,0.182 -0.139,0.279 -0.346,0.863 0.048,0.043 -0.28,0.698 -0.023,0.093 -0.027,0.194 -0.07,0.28 -0.029,0.059 -0.11,0.08 -0.139,0.14 -0.469,0.938 0.091,-0.004 -0.21,0.698 -0.033,0.077 -0.093,0.139 -0.139,0.209 -0.024,0.14 -0.02,0.286 -0.07,0.419 -0.023,0.062 -0.11,0.081 -0.14,0.14 -0.111,0.221 -0.142,0.464 -0.209,0.698 -0.021,0.071 -0.039,0.143 -0.07,0.21 -0.109,0.236 -0.286,0.445 -0.349,0.698 -0.047,0.186 -0.025,0.405 -0.14,0.559 -0.149,0.198 -0.315,0.4 -0.419,0.628 -0.061,0.134 -0.074,0.287 -0.139,0.419 -0.178,0.355 -0.082,0.193 -0.28,0.489 -0.255,0.764 0.152,-0.393 -0.21,0.419 -0.059,0.135 -0.103,0.276 -0.139,0.419 -0.023,0.093 -0.032,0.191 -0.07,0.279 -0.033,0.077 -0.093,0.14 -0.14,0.21 -0.023,0.139 -0.025,0.284 -0.07,0.419 -0.026,0.08 -0.11,0.131 -0.139,0.21 -0.042,0.11 -0.039,0.234 -0.07,0.349 -0.039,0.142 -0.101,0.277 -0.14,0.419 -0.031,0.114 -0.044,0.233 -0.07,0.349 -0.02,0.094 -0.043,0.187 -0.069,0.279 -0.139,0.485 0.014,-0.107 -0.21,0.489 -0.034,0.09 -0.043,0.187 -0.07,0.279 -0.02,0.071 -0.049,0.139 -0.07,0.21 -0.026,0.092 -0.043,0.187 -0.069,0.279 -0.094,0.328 -0.05,0.116 -0.21,0.489 -0.106,0.247 -0.057,0.258 -0.139,0.559 -0.039,0.141 -0.094,0.279 -0.14,0.419 -0.024,0.07 -0.055,0.137 -0.07,0.209 -0.023,0.116 -0.052,0.232 -0.07,0.349 -0.028,0.186 -0.035,0.374 -0.07,0.559 -0.035,0.188 -0.139,0.559 -0.139,0.559 -0.024,0.256 -0.044,0.512 -0.07,0.768 -0.044,0.419 -0.14,1.257 -0.14,1.257 0.024,1.21 0.008,2.422 0.07,3.631 0.008,0.147 0.093,0.28 0.14,0.419 0.346,1.041 -0.308,-0.892 0.209,0.489 0.177,0.473 -0.029,0.095 0.14,0.489 0.041,0.095 0.099,0.183 0.14,0.279 0.029,0.068 0.041,0.142 0.069,0.21 0.041,0.095 0.099,0.183 0.14,0.279 0.229,0.533 -0.229,-0.19 0.349,0.838 0.098,0.175 0.238,0.322 0.349,0.489 0.075,0.113 0.14,0.232 0.21,0.349 0.023,0.093 0.032,0.191 0.07,0.279 0.099,0.232 0.141,0.176 0.279,0.349 0.053,0.066 0.098,0.137 0.139,0.21 0.052,0.09 0.074,0.199 0.14,0.279 0.054,0.065 0.14,0.094 0.21,0.14 0.136,0.408 -0.037,0.033 0.279,0.349 0.082,0.083 0.134,0.191 0.21,0.279 0.064,0.076 0.14,0.14 0.209,0.21 0.121,0.364 -0.009,0.075 0.21,0.349 0.052,0.066 0.076,0.154 0.139,0.21 0.126,0.11 0.301,0.161 0.419,0.279 l 0.629,0.629 0.139,0.139 c 0.07,0.07 0.122,0.165 0.21,0.21 0.14,0.07 0.289,0.123 0.419,0.209 0.523,0.349 -0.079,0.113 0.419,0.279 0.07,0.07 0.129,0.153 0.209,0.21 0.151,0.108 0.318,0.152 0.489,0.209 l 0.419,0.28 c 0.07,0.047 0.128,0.119 0.209,0.139 0.094,0.024 0.187,0.044 0.28,0.07 0.071,0.021 0.138,0.051 0.21,0.07 0.185,0.051 0.374,0.087 0.558,0.14 0.142,0.04 0.274,0.115 0.419,0.139 l 0.419,0.07 c 0.117,0.022 0.232,0.05 0.349,0.07 0.162,0.027 0.326,0.047 0.489,0.07 0.045,0.018 0.449,0.188 0.559,0.21 0.161,0.032 0.325,0.046 0.488,0.07 0.479,0.159 -0.115,-0.029 0.559,0.139 0.072,0.018 0.136,0.062 0.21,0.07 0.371,0.039 0.745,0.046 1.117,0.07 1.263,0.18 0.061,0.027 2.654,0.14 0.349,0.015 0.698,0.046 1.047,0.069 l 2.305,-0.069 5.865,-0.07 c 0.119,-0.003 0.234,-0.045 0.349,-0.07 0.094,-0.021 0.184,-0.068 0.28,-0.07 l 7.612,-0.07 c 3.546,-0.187 -1.9,0.086 4.748,-0.139 0.233,-0.009 0.465,-0.051 0.698,-0.07 0.46,-0.039 1.855,-0.131 2.235,-0.14 l 4.609,-0.07 c 0.116,-0.023 0.233,-0.041 0.349,-0.07 0.071,-0.018 0.136,-0.058 0.209,-0.07 0.371,-0.058 0.754,-0.048 1.117,-0.139 0.417,-0.104 0.185,-0.054 0.699,-0.14 1.262,-0.421 -0.079,0.003 3.491,-0.14 0.074,-0.003 0.137,-0.057 0.21,-0.07 0.208,-0.034 0.419,-0.046 0.628,-0.069 0.3,-0.1 0.397,-0.063 0.559,-0.28 0.101,-0.134 0.139,-0.325 0.279,-0.419 0.749,-0.499 -0.387,0.279 0.42,-0.349 0.751,-0.584 0.152,-0.013 0.628,-0.489 0.135,-0.404 0.105,-0.221 0,-0.907 -0.011,-0.073 -0.032,-0.147 -0.07,-0.21 -0.034,-0.056 -0.093,-0.093 -0.14,-0.139 -0.133,-0.401 0.021,-0.043 -0.209,-0.35 -0.101,-0.134 -0.161,-0.3 -0.279,-0.419 -0.432,-0.431 -0.218,-0.25 -0.629,-0.559 -0.047,-0.139 -0.035,-0.315 -0.14,-0.419 -0.154,-0.154 -0.252,-0.224 -0.349,-0.418 -0.033,-0.066 -0.037,-0.144 -0.07,-0.21 -0.171,-0.342 -0.084,-0.089 -0.279,-0.349 -0.101,-0.134 -0.186,-0.279 -0.279,-0.419 l -0.14,-0.209 -0.14,-0.21 c -0.166,-0.498 0.07,0.104 -0.279,-0.419 -0.363,-0.544 0.226,0.086 -0.209,-0.349 -0.134,-0.401 0.025,-0.027 -0.28,-0.419 0,0 -0.349,-0.524 -0.419,-0.629 -0.046,-0.07 -0.08,-0.15 -0.139,-0.209 -0.047,-0.047 -0.099,-0.089 -0.14,-0.14 -0.333,-0.416 0.113,-0.027 -0.489,-0.628 -0.059,-0.06 -0.15,-0.081 -0.209,-0.14 -0.272,-0.272 -0.115,-0.231 -0.349,-0.419 -0.317,-0.253 -0.129,-0.022 -0.489,-0.35 -0.171,-0.154 -0.326,-0.325 -0.489,-0.488 -0.047,-0.047 -0.085,-0.103 -0.14,-0.14 -0.494,-0.329 0.118,0.084 -0.489,-0.349 -0.068,-0.049 -0.139,-0.093 -0.209,-0.14 -0.28,-0.419 0.023,-0.023 -0.349,-0.349 -0.124,-0.108 -0.212,-0.258 -0.35,-0.349 -0.498,-0.333 0.163,0.096 -0.628,-0.349 -0.237,-0.133 -0.473,-0.269 -0.698,-0.419 -0.14,-0.093 -0.269,-0.205 -0.419,-0.279 -0.093,-0.047 -0.19,-0.087 -0.279,-0.14 -0.144,-0.086 -0.28,-0.187 -0.419,-0.279 -0.07,-0.047 -0.128,-0.124 -0.21,-0.14 l -0.349,-0.07 c -0.07,-0.047 -0.144,-0.087 -0.21,-0.14 -0.051,-0.041 -0.082,-0.106 -0.14,-0.14 -0.224,-0.13 -0.465,-0.232 -0.698,-0.349 -0.345,-0.172 -0.18,-0.106 -0.489,-0.209 -0.069,-0.07 -0.127,-0.155 -0.209,-0.21 -0.061,-0.04 -0.144,-0.036 -0.21,-0.069 -0.075,-0.038 -0.134,-0.103 -0.209,-0.14 -0.066,-0.033 -0.144,-0.037 -0.209,-0.07 -0.076,-0.038 -0.133,-0.106 -0.21,-0.14 -0.088,-0.037 -0.189,-0.036 -0.279,-0.069 -0.892,-0.335 0.24,0.044 -0.489,-0.28 -0.135,-0.059 -0.419,-0.139 -0.419,-0.139 -0.07,-0.047 -0.135,-0.102 -0.209,-0.14 -0.17,-0.085 -0.384,-0.092 -0.559,-0.14 -0.142,-0.038 -0.279,-0.093 -0.419,-0.139 l -0.419,-0.14 -0.21,-0.07 -3.701,0.07 c -0.164,0.017 -0.232,0.232 -0.349,0.349 l -0.139,0.14 c -0.024,0.093 -0.05,0.185 -0.07,0.279 -0.026,0.116 -0.039,0.235 -0.07,0.349 -0.039,0.142 -0.093,0.28 -0.14,0.419 l -0.069,0.21 -0.07,0.209 c -0.024,0.07 -0.03,0.149 -0.071,0.21 -0.152,0.23 -0.137,0.166 -0.209,0.419 -0.119,0.416 -0.041,0.224 -0.14,0.768 -0.034,0.193 -0.079,0.309 -0.139,0.489 -0.086,0.775 -0.003,0.429 -0.21,1.047 l -0.07,0.21 -0.069,0.209 c 0.023,2.375 0.027,4.749 0.069,7.123 0.011,0.571 0.017,0.54 0.14,0.908 0.061,0.543 0.183,1.321 0,1.816 -0.051,0.138 -0.279,0.093 -0.419,0.139 l -0.209,0.07 c -0.35,-0.023 -0.702,-0.02 -1.048,-0.07 C 20.804,33.708 20.67,33.636 20.53,33.59 l -0.209,-0.07 -0.21,-0.07 c -0.069,-0.023 -0.138,-0.052 -0.209,-0.07 -0.351,-0.088 -0.189,-0.039 -0.489,-0.139 -0.13,-0.13 -0.173,-0.192 -0.349,-0.28 -0.066,-0.033 -0.14,-0.046 -0.21,-0.069 -0.408,-0.409 -0.486,-0.258 -0.139,-0.489 0.046,-0.14 0.104,-0.277 0.139,-0.419 0.023,-0.093 0.017,-0.2 0.07,-0.279 0.047,-0.071 0.145,-0.087 0.21,-0.141 0.537,-0.447 -0.101,-0.002 0.419,-0.349 0.023,-0.069 0.036,-0.143 0.07,-0.209 0.087,-0.176 0.149,-0.219 0.279,-0.349 0.211,-0.634 0.016,0.011 0.14,-1.467 0.011,-0.141 0.046,-0.279 0.069,-0.419 0.017,-0.26 0.051,-1.148 0.14,-1.536 0.033,-0.144 0.111,-0.275 0.14,-0.419 l 0.069,-0.349 c 0.024,-0.326 0.04,-0.653 0.07,-0.978 0.074,-0.771 0.057,-0.204 0.14,-0.908 0.03,-0.255 0.046,-0.512 0.07,-0.768 -0.024,-0.535 -0.032,-1.071 -0.07,-1.606 -0.008,-0.119 -0.07,-0.23 -0.07,-0.349 0,-0.42 0.025,-0.84 0.07,-1.257 0.025,-0.236 0.14,-0.699 0.14,-0.699 -0.024,-0.512 -0.029,-1.025 -0.07,-1.536 -0.006,-0.074 -0.05,-0.138 -0.07,-0.209 -0.033,-0.115 -0.151,-0.66 -0.21,-0.699 -0.264,-0.176 -0.15,-0.08 -0.349,-0.279 -0.056,-0.171 -0.074,-0.283 -0.209,-0.419 -0.06,-0.059 -0.141,-0.091 -0.21,-0.14 -0.094,-0.067 -0.19,-0.135 -0.279,-0.209 -0.256,-0.213 -0.006,-0.095 -0.349,-0.21 -0.396,-0.594 0.256,0.326 -0.559,-0.489 -0.193,-0.192 -0.192,-0.219 -0.419,-0.349 -0.09,-0.051 -0.191,-0.084 -0.279,-0.139 -0.483,-0.303 -0.078,-0.142 -0.489,-0.28 -0.154,-0.154 -0.225,-0.252 -0.419,-0.349 -0.066,-0.033 -0.145,-0.034 -0.21,-0.07 -0.79,-0.439 -0.024,-0.167 -0.907,-0.419 -0.211,-0.14 -0.241,-0.173 -0.489,-0.279 -0.068,-0.029 -0.14,-0.047 -0.21,-0.07 -0.046,-0.047 -0.088,-0.098 -0.139,-0.14 -0.135,-0.108 -0.335,-0.213 -0.489,-0.279 -0.068,-0.029 -0.145,-0.034 -0.209,-0.07 -0.147,-0.081 -0.26,-0.226 -0.419,-0.279 -0.07,-0.023 -0.146,-0.034 -0.21,-0.07 -0.721,-0.4 -0.155,-0.191 -0.629,-0.349 -0.272,-0.273 0.014,-0.028 -0.349,-0.21 -0.541,-0.27 0.108,-0.034 -0.419,-0.209 -0.07,-0.047 -0.136,-0.099 -0.209,-0.14 -0.136,-0.075 -0.294,-0.115 -0.419,-0.209 -0.067,-0.051 -0.08,-0.151 -0.14,-0.21 -0.211,-0.211 -0.249,-0.199 -0.489,-0.279 -0.328,-0.328 -0.127,-0.155 -0.628,-0.489 l -0.21,-0.139 C 9.847,10.267 10.151,10.63 9.776,10.405 9.492,10.234 9.782,10.284 9.497,10.056 9.439,10.01 9.357,10.009 9.288,9.986 8.829,9.298 9.234,9.789 8.589,9.288 8.511,9.227 8.443,9.154 8.38,9.078 8.326,9.014 8.306,8.921 8.24,8.869 8.183,8.823 8.1,8.822 8.03,8.799 7.984,8.752 7.932,8.71 7.891,8.659 7.838,8.594 7.811,8.509 7.751,8.45 7.388,8.087 7.679,8.516 7.402,8.17 7.136,7.838 7.412,8.061 7.053,7.821 6.681,7.263 7.169,7.937 6.704,7.472 6.561,7.329 6.597,7.227 6.424,7.123 6.361,7.085 6.285,7.076 6.215,7.053 6.078,6.847 6.067,6.802 5.866,6.634 5.801,6.58 5.721,6.548 5.656,6.494 5.308,6.204 5.605,6.338 5.237,6.215 5.214,6.145 5.213,6.063 5.167,6.005 5.115,5.94 5.022,5.919 4.958,5.866 4.882,5.803 4.809,5.734 4.749,5.656 4.31,5.092 4.665,5.368 4.26,5.098 3.913,4.578 4.358,5.216 3.911,4.679 3.857,4.614 3.823,4.535 3.771,4.469 3.729,4.418 3.672,4.381 3.631,4.33 3.579,4.264 3.547,4.183 3.492,4.12 3.383,3.996 3.259,3.887 3.143,3.771 L 2.933,3.562 C 2.742,2.989 3.072,3.875 2.444,2.933 2.24,2.626 2.372,2.774 2.025,2.514 1.979,2.444 1.938,2.37 1.885,2.304 1.844,2.253 1.78,2.221 1.746,2.165 1.708,2.102 1.728,2.007 1.676,1.955 1.624,1.903 1.536,1.909 1.466,1.885 1.42,1.839 1.361,1.802 1.327,1.746 1.289,1.683 1.309,1.588 1.257,1.536 1.205,1.484 1.117,1.49 1.047,1.466 0.926,1.103 1.057,1.391 0.838,1.117 0.572,0.785 0.848,1.007 0.489,0.768 0.396,0.628 0.328,0.468 0.209,0.349 0.14,0.279 0.063,0.215 0,0.14 -0.054,0.075 0.058,-0.023 0,0 Z"
             style="fill:none;stroke:#000000;stroke-width:0.96;stroke-linecap:butt;stroke-linejoin:miter;stroke-miterlimit:8;stroke-dasharray:none;stroke-opacity:1"
             id="path516" />
        </g>
      </g>
    </g>
  </g>
</svg>
