<?xml version="1.0" encoding="UTF-8" standalone="no"?>
<!-- Created with Inkscape (http://www.inkscape.org/) -->

<svg
   width="13.000955mm"
   height="14.514265mm"
   viewBox="0 0 13.000955 14.514265"
   version="1.1"
   id="svg2539"
   inkscape:version="1.1.2 (0a00cf5339, 2022-02-04)"
   sodipodi:docname="leukemia-lymphoma.svg"
   xmlns:inkscape="http://www.inkscape.org/namespaces/inkscape"
   xmlns:sodipodi="http://sodipodi.sourceforge.net/DTD/sodipodi-0.dtd"
   xmlns="http://www.w3.org/2000/svg"
   xmlns:svg="http://www.w3.org/2000/svg">
  <sodipodi:namedview
     id="namedview2541"
     pagecolor="#ffffff"
     bordercolor="#666666"
     borderopacity="1.0"
     inkscape:pageshadow="2"
     inkscape:pageopacity="0.0"
     inkscape:pagecheckerboard="0"
     inkscape:document-units="mm"
     showgrid="false"
     inkscape:zoom="0.68862935"
     inkscape:cx="288.25376"
     inkscape:cy="254.85408"
     inkscape:window-width="1920"
     inkscape:window-height="1011"
     inkscape:window-x="0"
     inkscape:window-y="0"
     inkscape:window-maximized="1"
     inkscape:current-layer="layer1" />
  <defs
     id="defs2536">
    <clipPath
       clipPathUnits="userSpaceOnUse"
       id="clipPath292">
      <path
         d="m 106.837,532.227 h 50.4 v 50.4 h -50.4 z"
         id="path290" />
    </clipPath>
  </defs>
  <g
     inkscape:label="Calque 1"
     inkscape:groupmode="layer"
     id="layer1"
     transform="translate(-28.847518,-81.112859)">
    <g
       id="g286"
       transform="matrix(0.35277777,0,0,-0.35277777,-11.17699,285.13331)">
      <g
         id="g288"
         clip-path="url(#clipPath292)">
        <g
           id="g294"
           transform="translate(139.668,560.2944)">
          <path
             d="m 0,0 c -0.287,0 -0.519,0.232 -0.519,0.519 0,2.008 -1.627,3.636 -3.633,3.636 -0.287,0 -0.52,0.232 -0.52,0.519 0,0.287 0.233,0.519 0.52,0.519 2.58,0 4.671,-2.092 4.671,-4.674 C 0.519,0.232 0.287,0 0,0 m -5.191,7.271 c -4.3,0 -7.786,-3.488 -7.786,-7.791 v -0.519 c 3.852,1.875 8.493,0.272 10.367,-3.581 0.444,-0.914 0.705,-1.907 0.767,-2.922 3.876,1.864 5.509,6.519 3.646,10.396 -1.293,2.692 -4.009,4.407 -6.994,4.417"
             style="fill:#000000;fill-opacity:1;fill-rule:nonzero;stroke:none"
             id="path296" />
        </g>
        <g
           id="g298"
           transform="translate(134.2178,552.7637)">
          <path
             d="m 0,0 c -0.287,0 -0.519,0.232 -0.519,0.519 0,1.434 -1.162,2.597 -2.595,2.597 -0.287,0 -0.519,0.233 -0.519,0.519 0,0.287 0.232,0.52 0.519,0.52 2.006,0 3.633,-1.628 3.633,-3.636 C 0.519,0.232 0.287,0 0,0 m -4.153,6.232 c -3.726,0 -6.747,-3.023 -6.747,-6.752 0,-3.729 3.021,-6.751 6.747,-6.751 3.727,0 6.748,3.022 6.748,6.751 0,3.729 -3.021,6.752 -6.748,6.752"
             style="fill:#000000;fill-opacity:1;fill-rule:nonzero;stroke:none"
             id="path300" />
        </g>
        <g
           id="g302"
           transform="translate(122.0195,562.8911)">
          <path
             d="m 0,0 c -0.287,0 -0.519,0.232 -0.519,0.519 0,0.574 -0.465,1.039 -1.038,1.039 -0.287,0 -0.519,0.233 -0.519,0.519 0,0.287 0.232,0.52 0.519,0.52 1.146,0 2.076,-0.93 2.076,-2.078 C 0.519,0.232 0.287,0 0,0 m -2.336,4.415 c -2.58,0 -4.671,-2.093 -4.671,-4.675 0,-2.581 2.091,-4.674 4.671,-4.674 2.58,0 4.672,2.093 4.672,4.674 0,2.582 -2.092,4.675 -4.672,4.675"
             style="fill:#000000;fill-opacity:1;fill-rule:nonzero;stroke:none"
             id="path304" />
        </g>
        <g
           id="g306"
           transform="translate(147.7134,542.5479)">
          <path
             d="m 0,0 c -0.334,0.003 -0.604,0.273 -0.607,0.607 0,0.669 -0.542,1.211 -1.209,1.211 -0.336,0 -0.608,0.272 -0.608,0.607 0,0.336 0.272,0.608 0.608,0.608 C -0.479,3.03 0.604,1.946 0.607,0.607 0.604,0.273 0.334,0.003 0,0 m -2.595,5.022 c -2.867,0 -5.191,-2.325 -5.191,-5.193 0,-2.869 2.324,-5.194 5.191,-5.194 2.866,0 5.19,2.325 5.19,5.194 0,2.868 -2.324,5.193 -5.19,5.193"
             style="fill:#000000;fill-opacity:1;fill-rule:nonzero;stroke:none"
             id="path308" />
        </g>
        <g
           id="g310"
           transform="translate(147.8276,570.9409)">
          <path
             d="m 0,0 c 0,-2.071 -1.678,-3.75 -3.748,-3.75 -2.069,0 -3.747,1.679 -3.747,3.75 0,2.071 1.678,3.75 3.747,3.75 C -1.678,3.75 0,2.071 0,0"
             style="fill:#000000;fill-opacity:1;fill-rule:nonzero;stroke:none"
             id="path312" />
        </g>
        <g
           id="g314"
           transform="translate(121.7603,543.9346)">
          <path
             d="m 0,0 c 0,-2.295 -1.859,-4.155 -4.153,-4.155 -2.293,0 -4.152,1.86 -4.152,4.155 0,2.294 1.859,4.155 4.152,4.155 C -1.859,4.155 0,2.294 0,0"
             style="fill:#000000;fill-opacity:1;fill-rule:nonzero;stroke:none"
             id="path316" />
        </g>
        <g
           id="g318"
           transform="translate(127.8438,575.0957)">
          <path
             d="m 0,0 c 0,-1.784 -1.446,-3.23 -3.229,-3.23 -1.783,0 -3.229,1.446 -3.229,3.23 0,1.784 1.446,3.23 3.229,3.23 C -1.446,3.23 0,1.784 0,0"
             style="fill:#000000;fill-opacity:1;fill-rule:nonzero;stroke:none"
             id="path320" />
        </g>
        <g
           id="g322"
           transform="translate(117.3481,572.499)">
          <path
             d="m 0,0 c 0,-0.86 -0.697,-1.558 -1.557,-1.558 -0.86,0 -1.558,0.698 -1.558,1.558 0,0.86 0.698,1.558 1.558,1.558 C -0.697,1.558 0,0.86 0,0"
             style="fill:#000000;fill-opacity:1;fill-rule:nonzero;stroke:none"
             id="path324" />
        </g>
        <g
           id="g326"
           transform="translate(148.4922,552.2441)">
          <path
             d="m 0,0 c 0,-0.86 -0.697,-1.558 -1.557,-1.558 -0.86,0 -1.558,0.698 -1.558,1.558 0,0.86 0.698,1.558 1.558,1.558 C -0.697,1.558 0,0.86 0,0"
             style="fill:#000000;fill-opacity:1;fill-rule:nonzero;stroke:none"
             id="path328" />
        </g>
        <g
           id="g330"
           transform="translate(127.7295,540.8184)">
          <path
             d="m 0,0 c 0,-0.86 -0.697,-1.558 -1.557,-1.558 -0.86,0 -1.558,0.698 -1.558,1.558 0,0.86 0.698,1.558 1.558,1.558 C -0.697,1.558 0,0.86 0,0"
             style="fill:#000000;fill-opacity:1;fill-rule:nonzero;stroke:none"
             id="path332" />
        </g>
      </g>
    </g>
  </g>
</svg>
