<?xml version="1.0" encoding="UTF-8" standalone="no"?>
<!-- Created with Inkscape (http://www.inkscape.org/) -->

<svg
   width="14.638537mm"
   height="8.7947502mm"
   viewBox="0 0 14.638537 8.7947502"
   version="1.1"
   id="svg2699"
   inkscape:version="1.1.2 (0a00cf5339, 2022-02-04)"
   sodipodi:docname="retinoblastoma.svg"
   xmlns:inkscape="http://www.inkscape.org/namespaces/inkscape"
   xmlns:sodipodi="http://sodipodi.sourceforge.net/DTD/sodipodi-0.dtd"
   xmlns="http://www.w3.org/2000/svg"
   xmlns:svg="http://www.w3.org/2000/svg">
  <sodipodi:namedview
     id="namedview2701"
     pagecolor="#ffffff"
     bordercolor="#666666"
     borderopacity="1.0"
     inkscape:pageshadow="2"
     inkscape:pageopacity="0.0"
     inkscape:pagecheckerboard="0"
     inkscape:document-units="mm"
     showgrid="false"
     inkscape:zoom="0.68862935"
     inkscape:cx="-176.43744"
     inkscape:cy="283.89728"
     inkscape:window-width="1920"
     inkscape:window-height="1011"
     inkscape:window-x="0"
     inkscape:window-y="0"
     inkscape:window-maximized="1"
     inkscape:current-layer="layer1" />
  <defs
     id="defs2696">
    <clipPath
       clipPathUnits="userSpaceOnUse"
       id="clipPath398">
      <path
         d="m 283.876,527.736 h 50.399 v 50.401 h -50.399 z"
         id="path396" />
    </clipPath>
    <clipPath
       clipPathUnits="userSpaceOnUse"
       id="clipPath356">
      <path
         d="m 369.376,531.031 h 50.4 v 50.401 h -50.4 z"
         id="path354" />
    </clipPath>
  </defs>
  <g
     inkscape:label="Calque 1"
     inkscape:groupmode="layer"
     id="layer1"
     transform="translate(-151.74671,-73.214524)">
    <g
       id="g392"
       transform="matrix(0.35277777,0,0,-0.35277777,50.1304,272.77096)">
      <g
         id="g394"
         clip-path="url(#clipPath398)">
        <g
           id="g400"
           transform="translate(328.9824,554.0898)">
          <path
             d="m 0,0 c -3.011,3.532 -10.9,11.582 -20.191,11.582 -9.292,0 -17.182,-8.05 -20.192,-11.582 -0.779,-0.935 -0.727,-2.233 0.104,-3.116 3.062,-3.22 10.9,-10.232 20.088,-10.232 9.187,0 17.025,7.012 20.139,10.232 C 0.727,-2.285 0.779,-0.935 0,0 m -20.191,-9.193 c -4.568,0 -8.306,3.74 -8.306,8.31 0,4.571 3.738,8.31 8.306,8.31 4.567,0 8.304,-3.739 8.304,-8.31 0,-4.57 -3.737,-8.31 -8.304,-8.31 m -13.184,11.53 c 1.712,1.454 3.529,2.701 5.501,3.739 -3.789,-4.155 -3.581,-10.543 0.468,-14.438 -4.257,1.87 -7.838,4.882 -9.863,6.908 1.194,1.35 2.492,2.597 3.894,3.791 m 20.398,-10.699 c 4.049,3.895 4.257,10.336 0.415,14.49 4.101,-2.129 7.475,-5.401 9.448,-7.582 -2.076,-2.026 -5.606,-5.038 -9.863,-6.908"
             style="fill:#000000;fill-opacity:1;fill-rule:nonzero;stroke:none"
             id="path402" />
        </g>
        <g
           id="g404"
           transform="translate(313.9814,553.207)">
          <path
             d="m 0,0 c 0,-2.869 -2.323,-5.194 -5.19,-5.194 -2.867,0 -5.191,2.325 -5.191,5.194 0,2.868 2.324,5.193 5.191,5.193 C -2.323,5.193 0,2.868 0,0"
             style="fill:#000000;fill-opacity:1;fill-rule:nonzero;stroke:none"
             id="path406" />
        </g>
      </g>
    </g>
  </g>
</svg>
