<?xml version="1.0" encoding="UTF-8" standalone="no"?>
<!-- Created with Inkscape (http://www.inkscape.org/) -->

<svg
   width="25.399929mm"
   height="10.315227mm"
   viewBox="0 0 25.399929 10.315227"
   version="1.1"
   id="svg3104"
   inkscape:version="1.1.2 (0a00cf5339, 2022-02-04)"
   sodipodi:docname="rhabdho-myosarcoma.svg"
   xmlns:inkscape="http://www.inkscape.org/namespaces/inkscape"
   xmlns:sodipodi="http://sodipodi.sourceforge.net/DTD/sodipodi-0.dtd"
   xmlns="http://www.w3.org/2000/svg"
   xmlns:svg="http://www.w3.org/2000/svg">
  <sodipodi:namedview
     id="namedview3106"
     pagecolor="#ffffff"
     bordercolor="#666666"
     borderopacity="1.0"
     inkscape:pageshadow="2"
     inkscape:pageopacity="0.0"
     inkscape:pagecheckerboard="0"
     inkscape:document-units="mm"
     showgrid="false"
     inkscape:zoom="1.9477379"
     inkscape:cx="-52.62515"
     inkscape:cy="70.594713"
     inkscape:window-width="1920"
     inkscape:window-height="1011"
     inkscape:window-x="0"
     inkscape:window-y="0"
     inkscape:window-maximized="1"
     inkscape:current-layer="layer1" />
  <defs
     id="defs3101">
    <clipPath
       clipPathUnits="userSpaceOnUse"
       id="clipPath528">
      <path
         d="m 12.052,412.108 h 72 v 28.063 h -72 z"
         id="path526" />
    </clipPath>
  </defs>
  <g
     inkscape:label="Calque 1"
     inkscape:groupmode="layer"
     id="layer1"
     transform="translate(-16.884771,-138.45388)">
    <g
       id="g3598">
      <g
         id="g522"
         transform="matrix(0.35277777,0,0,-0.35277777,12.633093,294.15165)">
        <g
           id="g524"
           clip-path="url(#clipPath528)">
          <g
             id="g530"
             transform="translate(78.873,421.7759)">
            <path
               d="m 0,0 c -7.485,-3.033 -14.97,-6.065 -20.781,-7.29 -5.81,-1.224 -8.184,-1.064 -14.08,-0.055 -5.897,1.01 -21.299,6.114 -21.299,6.114"
               style="fill:none;stroke:#000000;stroke-width:5;stroke-linecap:butt;stroke-linejoin:miter;stroke-miterlimit:8;stroke-dasharray:none;stroke-opacity:1"
               id="path532" />
          </g>
          <g
             id="g534"
             transform="translate(12.0518,430.7222)">
            <path
               d="M 0,0 C 0,1.305 1.058,2.362 2.362,2.362 H 69.638 C 70.942,2.362 72,1.305 72,0 v -9.449 c 0,-1.304 -1.058,-2.362 -2.362,-2.362 H 2.362 C 1.058,-11.811 0,-10.753 0,-9.449 Z"
               style="fill:#000000;fill-opacity:1;fill-rule:evenodd;stroke:none"
               id="path536" />
          </g>
          <g
             id="g538"
             transform="translate(22.2041,431.9844)">
            <path
               d="m 0,0 19.828,6.699 h 13.46 l 18.746,-5.565 0.601,-14.015 -13.94,-4.535 -10.815,-0.618 -18.867,3.813 -10.095,4.122 2.404,11.336"
               style="fill:#000000;fill-opacity:1;fill-rule:evenodd;stroke:none"
               id="path540" />
          </g>
          <g
             id="g542"
             transform="translate(74.8745,423.6104)">
            <path
               d="m 0,0 c -6.644,-1.792 -13.287,-3.583 -19.059,-4.181 -5.773,-0.597 -10.421,-0.119 -15.573,0.598 -5.152,0.716 -15.341,3.702 -15.341,3.702 -2.556,0.597 -1.278,0.239 0,-0.119"
               style="fill:none;stroke:#ffffff;stroke-width:2.28;stroke-linecap:butt;stroke-linejoin:miter;stroke-miterlimit:8;stroke-dasharray:none;stroke-opacity:1"
               id="path544" />
          </g>
          <g
             id="g546"
             transform="translate(63.3945,426.5825)">
            <path
               d="M 0,0 8.905,0.159"
               style="fill:none;stroke:#ffffff;stroke-width:2.28;stroke-linecap:butt;stroke-linejoin:miter;stroke-miterlimit:8;stroke-dasharray:none;stroke-opacity:1"
               id="path548" />
          </g>
          <g
             id="g550"
             transform="translate(23.8511,429.8091)">
            <path
               d="m 0,0 c 6.634,1.818 13.269,3.635 19.033,4.241 5.764,0.606 10.406,0.121 15.551,-0.606 5.145,-0.727 15.32,-3.756 15.32,-3.756 2.553,-0.606 1.276,-0.242 0,0.121"
               style="fill:none;stroke:#ffffff;stroke-width:2.28;stroke-linecap:butt;stroke-linejoin:miter;stroke-miterlimit:8;stroke-dasharray:none;stroke-opacity:1"
               id="path552" />
          </g>
          <g
             id="g554"
             transform="translate(23.8511,426.813)">
            <path
               d="M 0,0 H 31.812"
               style="fill:none;stroke:#ffffff;stroke-width:2.28;stroke-linecap:butt;stroke-linejoin:miter;stroke-miterlimit:8;stroke-dasharray:none;stroke-opacity:1"
               id="path556" />
          </g>
        </g>
      </g>
      <g
         id="g518"
         transform="matrix(0.35277777,0,0,-0.35277777,20.466206,141.75716)">
        <path
           d="M 0,0 C 7.673,2.677 15.347,5.354 21.25,6.302 27.153,7.251 29.533,6.98 35.417,5.692 41.3,4.405 56.551,-1.423 56.551,-1.423"
           style="fill:none;stroke:#000000;stroke-width:5.04;stroke-linecap:butt;stroke-linejoin:miter;stroke-miterlimit:8;stroke-dasharray:none;stroke-opacity:1"
           id="path520" />
      </g>
    </g>
  </g>
</svg>
