<?xml version="1.0" encoding="UTF-8" standalone="no"?>
<!-- Created with Inkscape (http://www.inkscape.org/) -->

<svg
   width="14.011531mm"
   height="14.007753mm"
   viewBox="0 0 14.011531 14.007753"
   version="1.1"
   id="svg2769"
   inkscape:version="1.1.2 (0a00cf5339, 2022-02-04)"
   sodipodi:docname="sacroma.svg"
   xmlns:inkscape="http://www.inkscape.org/namespaces/inkscape"
   xmlns:sodipodi="http://sodipodi.sourceforge.net/DTD/sodipodi-0.dtd"
   xmlns="http://www.w3.org/2000/svg"
   xmlns:svg="http://www.w3.org/2000/svg">
  <sodipodi:namedview
     id="namedview2771"
     pagecolor="#ffffff"
     bordercolor="#666666"
     borderopacity="1.0"
     inkscape:pageshadow="2"
     inkscape:pageopacity="0.0"
     inkscape:pagecheckerboard="0"
     inkscape:document-units="mm"
     showgrid="false"
     inkscape:zoom="0.68862935"
     inkscape:cx="-580.13792"
     inkscape:cy="285.34944"
     inkscape:window-width="1920"
     inkscape:window-height="1011"
     inkscape:window-x="0"
     inkscape:window-y="0"
     inkscape:window-maximized="1"
     inkscape:current-layer="layer1" />
  <defs
     id="defs2766">
    <clipPath
       clipPathUnits="userSpaceOnUse"
       id="clipPath356">
      <path
         d="m 369.376,531.031 h 50.4 v 50.401 h -50.4 z"
         id="path354" />
    </clipPath>
  </defs>
  <g
     inkscape:label="Calque 1"
     inkscape:groupmode="layer"
     id="layer1"
     transform="translate(-258.48841,-72.913327)">
    <g
       id="g350"
       transform="matrix(0.35277777,0,0,-0.35277777,126.39698,276.23867)">
      <g
         id="g352"
         clip-path="url(#clipPath356)">
        <g
           id="g358"
           transform="translate(408.9551,570.6543)">
          <path
             d="M 0,0 C -0.185,0 -0.368,-0.01 -0.551,-0.031 -0.529,0.151 -0.52,0.335 -0.52,0.52 -0.525,3.388 -2.854,5.708 -5.722,5.701 -8.588,5.695 -10.907,3.364 -10.9,0.496 c 0.003,-1.328 0.513,-2.603 1.426,-3.565 l -16.267,-16.277 c -2.07,1.985 -5.356,1.914 -7.339,-0.156 -1.983,-2.071 -1.913,-5.359 0.156,-7.344 0.968,-0.927 2.256,-1.445 3.597,-1.444 0.183,0 0.367,0.011 0.55,0.032 -0.021,-0.183 -0.032,-0.367 -0.032,-0.551 -0.002,-2.868 2.321,-5.195 5.187,-5.197 2.867,-0.002 5.192,2.321 5.195,5.19 0.001,1.332 -0.51,2.614 -1.427,3.58 l 16.267,16.277 c 2.069,-1.984 5.356,-1.915 7.339,0.156 1.983,2.072 1.914,5.359 -0.156,7.344 C 2.628,-0.532 1.34,-0.015 0,-0.016 Z"
             style="fill:#000000;fill-opacity:1;fill-rule:nonzero;stroke:none"
             id="path360" />
        </g>
      </g>
    </g>
  </g>
</svg>
