<?xml version="1.0" encoding="UTF-8" standalone="no"?>
<!-- Created with Inkscape (http://www.inkscape.org/) -->

<svg
   width="14.649132mm"
   height="11.84536mm"
   viewBox="0 0 14.649132 11.84536"
   version="1.1"
   id="svg2982"
   inkscape:version="1.1.2 (0a00cf5339, 2022-02-04)"
   sodipodi:docname="wilms.svg"
   xmlns:inkscape="http://www.inkscape.org/namespaces/inkscape"
   xmlns:sodipodi="http://sodipodi.sourceforge.net/DTD/sodipodi-0.dtd"
   xmlns="http://www.w3.org/2000/svg"
   xmlns:svg="http://www.w3.org/2000/svg">
  <sodipodi:namedview
     id="namedview2984"
     pagecolor="#ffffff"
     bordercolor="#666666"
     borderopacity="1.0"
     inkscape:pageshadow="2"
     inkscape:pageopacity="0.0"
     inkscape:pagecheckerboard="0"
     inkscape:document-units="mm"
     showgrid="false"
     inkscape:zoom="0.68862935"
     inkscape:cx="28.31712"
     inkscape:cy="22.50848"
     inkscape:window-width="1920"
     inkscape:window-height="1011"
     inkscape:window-x="0"
     inkscape:window-y="0"
     inkscape:window-maximized="1"
     inkscape:current-layer="layer1" />
  <defs
     id="defs2979">
    <clipPath
       clipPathUnits="userSpaceOnUse"
       id="clipPath340">
      <path
         d="m 456.231,529.202 h 50.399 v 50.4 h -50.399 z"
         id="path338" />
    </clipPath>
  </defs>
  <g
     inkscape:label="Calque 1"
     inkscape:groupmode="layer"
     id="layer1"
     transform="translate(-97.758875,-142.57732)">
    <g
       id="g334"
       transform="matrix(0.35277777,0,0,-0.35277777,-64.654084,344.05258)">
      <g
         id="g336"
         clip-path="url(#clipPath340)">
        <g
           id="g342"
           transform="translate(495.1963,570.4248)">
          <path
             d="m 0,0 c -2.478,1.403 -5.622,0.588 -7.105,-1.844 -2.955,-4.524 0.435,-7.905 1.209,-10.792 h -4.002 c -1.72,0 -3.115,-1.395 -3.115,-3.116 v -17.139 h 2.076 v 17.139 c 0,0.573 0.465,1.039 1.039,1.039 h 4.002 c -0.774,-2.888 -4.153,-6.269 -1.209,-10.793 1.483,-2.431 4.627,-3.247 7.105,-1.844 4.116,2.436 6.712,7.677 6.712,13.675 C 6.712,-7.676 4.116,-2.436 0,0"
             style="fill:#000000;fill-opacity:1;fill-rule:nonzero;stroke:none"
             id="path344" />
        </g>
        <g
           id="g346"
           transform="translate(476.9932,557.7886)">
          <path
             d="m 0,0 h -4.002 c 0.773,2.888 4.152,6.269 1.209,10.792 -1.484,2.432 -4.628,3.248 -7.106,1.844 -4.116,-2.436 -6.711,-7.676 -6.711,-13.675 0,-5.998 2.595,-11.238 6.711,-13.674 2.478,-1.404 5.622,-0.588 7.106,1.843 2.953,4.524 -0.436,7.905 -1.209,10.793 H 0 c 0.573,0 1.038,-0.465 1.038,-1.039 V -20.255 H 3.114 V -3.116 C 3.114,-1.395 1.72,0 0,0"
             style="fill:#000000;fill-opacity:1;fill-rule:nonzero;stroke:none"
             id="path348" />
        </g>
      </g>
    </g>
  </g>
</svg>
